<svg id="Layer_1" data-name="Layer 1" xmlns="http://www.w3.org/2000/svg" viewBox="0 0 1070 401.879"><defs><style>.cls-1{fill:#2f5798;}.cls-2{fill:#9dc3e6;}.cls-3{fill:#d1d3d4;}.cls-3,.cls-6{stroke:#fff;stroke-miterlimit:10;stroke-width:3px;}.cls-4{fill:#eab7ad;}.cls-5{fill:#d1495b;}.cls-6{fill:none;}.cls-7{fill:#63a9e6;}.cls-8{fill:#8d9199;}.cls-9{fill:#ea9c8c;}.cls-10{opacity:0.8;}.cls-11{fill:#f1f2f2;}.cls-12{fill:#414042;}.cls-13{fill:#999;}</style></defs><path d="M17.417,10.245v2.142l-6.7,10.1H17.48l-.294,2.268h-9.7V22.635L14.309,12.45H8.177v-2.2ZM15.485,5.268l1.029,1.176L13.6,8.964h-1.68L9,6.444l1.029-1.176,2.73,1.743Z"/><path d="M28.442,20.031H21.471a3.522,3.522,0,0,0,.84,2.31,2.594,2.594,0,0,0,1.889.693,3.93,3.93,0,0,0,1.386-.242,6.47,6.47,0,0,0,1.387-.745l1.112,1.533a6.387,6.387,0,0,1-4.115,1.491,4.954,4.954,0,0,1-3.917-1.554,6.173,6.173,0,0,1-1.375-4.242,7.586,7.586,0,0,1,.588-3.056,4.853,4.853,0,0,1,1.7-2.121,4.544,4.544,0,0,1,2.645-.766,4.523,4.523,0,0,1,3.613,1.481,6.108,6.108,0,0,1,1.281,4.126C28.506,19.079,28.484,19.443,28.442,20.031Zm-2.6-1.869q0-2.919-2.163-2.919a1.84,1.84,0,0,0-1.544.724,4.314,4.314,0,0,0-.661,2.321h4.368Z"/><path d="M39.162,14.224a3.519,3.519,0,0,1,.83,2.489v8.043H37.3V17.133a2.133,2.133,0,0,0-.347-1.386,1.274,1.274,0,0,0-1.019-.4,1.992,1.992,0,0,0-1.249.431,4.91,4.91,0,0,0-1.082,1.249v7.728H30.92V13.647h2.331l.21,1.449a4.128,4.128,0,0,1,3.381-1.764A3.01,3.01,0,0,1,39.162,14.224Z"/><path d="M48.371,24.8A6.81,6.81,0,0,1,46.334,28,6.475,6.475,0,0,1,42.6,29.334l-.273-1.953a6.707,6.707,0,0,0,1.753-.472,2.84,2.84,0,0,0,1.061-.809,5.472,5.472,0,0,0,.735-1.344h-.924L41.42,13.647h2.856l2.415,9.324,2.52-9.324h2.772Z"/><path d="M67.8,13.647,64.184,24.756H60.971L57.3,13.647h2.919l2.373,8.946,2.435-8.946Z"/><path d="M77.7,14.224a3.519,3.519,0,0,1,.83,2.489v8.043H75.839V17.133a2.127,2.127,0,0,0-.347-1.386,1.273,1.273,0,0,0-1.018-.4,1.988,1.988,0,0,0-1.249.431,4.89,4.89,0,0,0-1.082,1.249v7.728H69.455V13.647h2.331L72,15.1a4.128,4.128,0,0,1,3.381-1.764A3.009,3.009,0,0,1,77.7,14.224Z"/><path d="M84.6,7.536l1.092,2.1-4.746,1.89-.755-1.365Zm-.252,6.111V24.756H81.656V13.647Z"/><path d="M101.5,14.246a3.618,3.618,0,0,1,.8,2.467v8.043H99.611V17.133q0-1.785-1.218-1.785a1.66,1.66,0,0,0-1.123.409,5.092,5.092,0,0,0-.977,1.271v7.728H93.605V17.133q0-1.785-1.218-1.785a1.693,1.693,0,0,0-1.145.409,5.14,5.14,0,0,0-.976,1.271v7.728H87.578V13.647h2.331l.21,1.449a3.805,3.805,0,0,1,3.213-1.764A2.824,2.824,0,0,1,95,13.826,2.756,2.756,0,0,1,96.02,15.2a5.18,5.18,0,0,1,1.48-1.386,3.565,3.565,0,0,1,1.859-.483A2.7,2.7,0,0,1,101.5,14.246Z"/><path d="M113.838,22.772a1.277,1.277,0,0,0,.641.472l-.568,1.785a3.432,3.432,0,0,1-1.543-.462,2.362,2.362,0,0,1-.914-1.155,3.561,3.561,0,0,1-1.417,1.25,4.322,4.322,0,0,1-1.9.409,3.589,3.589,0,0,1-2.625-.945,3.307,3.307,0,0,1-.966-2.478,3.207,3.207,0,0,1,1.312-2.762,6.292,6.292,0,0,1,3.748-.955h1.386V17.3a1.917,1.917,0,0,0-.493-1.5,2.391,2.391,0,0,0-1.586-.43,9.367,9.367,0,0,0-2.939.588l-.63-1.827a11.217,11.217,0,0,1,4.032-.8q4.263,0,4.263,3.822v4.662A1.786,1.786,0,0,0,113.838,22.772Zm-2.846-1.019V19.506H109.88q-2.6,0-2.6,1.932a1.777,1.777,0,0,0,.4,1.239,1.5,1.5,0,0,0,1.176.441A2.376,2.376,0,0,0,110.992,21.753Z"/><path d="M119.351,23.769a6.513,6.513,0,0,1-.473,2.678,4.158,4.158,0,0,1-1.334,1.669,10.666,10.666,0,0,1-2.246,1.2l-.861-1.953a6.451,6.451,0,0,0,1.281-.745,2.3,2.3,0,0,0,.7-1,4.8,4.8,0,0,0,.241-1.68V13.647h2.689Zm-.137-15.277a1.581,1.581,0,0,1,.473,1.165,1.549,1.549,0,0,1-.473,1.155,1.681,1.681,0,0,1-1.229.462,1.65,1.65,0,0,1-1.207-.462,1.549,1.549,0,0,1-.472-1.155,1.58,1.58,0,0,1,.472-1.165,1.631,1.631,0,0,1,1.207-.473A1.661,1.661,0,0,1,119.214,8.492Z"/><path d="M125.859,7.536l1.093,2.1-4.746,1.89-.756-1.365Zm-.252,6.111V24.756H122.92V13.647Z"/><path d="M140.455,24.231a4.306,4.306,0,0,1-1.312.63,5.339,5.339,0,0,1-1.482.21,3.292,3.292,0,0,1-2.488-.935,3.825,3.825,0,0,1-.851-2.7V15.579H132.58V13.647h1.742V11.19l2.689-.315v2.772h2.583l-.274,1.932h-2.309v5.8a1.909,1.909,0,0,0,.283,1.176,1.071,1.071,0,0,0,.893.357,2.746,2.746,0,0,0,1.323-.4Z"/><path d="M150.661,20.031h-6.972a3.527,3.527,0,0,0,.84,2.31,2.6,2.6,0,0,0,1.89.693,3.93,3.93,0,0,0,1.386-.242,6.465,6.465,0,0,0,1.386-.745L150.3,23.58a6.389,6.389,0,0,1-4.116,1.491,4.956,4.956,0,0,1-3.917-1.554,6.178,6.178,0,0,1-1.375-4.242,7.6,7.6,0,0,1,.588-3.056,4.855,4.855,0,0,1,1.7-2.121,5.064,5.064,0,0,1,6.257.715,6.1,6.1,0,0,1,1.282,4.126C150.725,19.079,150.7,19.443,150.661,20.031ZM147.49,7.536l1.092,2.1-4.746,1.89-.756-1.365Zm.568,10.626q0-2.919-2.163-2.919a1.839,1.839,0,0,0-1.544.724,4.322,4.322,0,0,0-.662,2.321h4.369Z"/><path d="M167.062,14.246a3.618,3.618,0,0,1,.8,2.467v8.043h-2.687V17.133q0-1.785-1.219-1.785a1.664,1.664,0,0,0-1.123.409,5.092,5.092,0,0,0-.976,1.271v7.728h-2.689V17.133q0-1.785-1.218-1.785a1.691,1.691,0,0,0-1.144.409,5.116,5.116,0,0,0-.977,1.271v7.728h-2.687V13.647h2.331l.21,1.449a3.805,3.805,0,0,1,3.213-1.764,2.827,2.827,0,0,1,1.669.494A2.76,2.76,0,0,1,161.58,15.2a5.17,5.17,0,0,1,1.481-1.386,3.565,3.565,0,0,1,1.859-.483A2.7,2.7,0,0,1,167.062,14.246Z"/><path d="M179.4,22.772a1.277,1.277,0,0,0,.641.472l-.567,1.785a3.428,3.428,0,0,1-1.543-.462,2.357,2.357,0,0,1-.914-1.155,3.568,3.568,0,0,1-1.417,1.25,4.329,4.329,0,0,1-1.9.409,3.592,3.592,0,0,1-2.625-.945,3.311,3.311,0,0,1-.966-2.478,3.208,3.208,0,0,1,1.313-2.762,6.292,6.292,0,0,1,3.748-.955h1.386V17.3a1.917,1.917,0,0,0-.493-1.5,2.394,2.394,0,0,0-1.586-.43,9.372,9.372,0,0,0-2.94.588l-.63-1.827a11.222,11.222,0,0,1,4.033-.8q4.262,0,4.262,3.822v4.662A1.8,1.8,0,0,0,179.4,22.772Zm-2.845-1.019V19.506h-1.113q-2.6,0-2.6,1.932a1.782,1.782,0,0,0,.4,1.239,1.505,1.505,0,0,0,1.176.441A2.378,2.378,0,0,0,176.554,21.753Z"/><path d="M190.392,8.9V24.756H187.7V9.2Zm6.657,4.746-3.7,4.893,4.053,6.216h-3.087L190.5,18.687l3.717-5.04Z"/><path d="M199.538,24.326a2.909,2.909,0,0,1-.725-2.111V9.2L201.5,8.9v13.23q0,.777.63.777a1.982,1.982,0,0,0,.63-.105l.567,1.89a4.3,4.3,0,0,1-1.785.378A2.666,2.666,0,0,1,199.538,24.326Z"/><path d="M207.665,8.492a1.58,1.58,0,0,1,.472,1.165,1.549,1.549,0,0,1-.472,1.155,1.679,1.679,0,0,1-1.228.462,1.651,1.651,0,0,1-1.208-.462,1.549,1.549,0,0,1-.473-1.155,1.581,1.581,0,0,1,.473-1.165,1.631,1.631,0,0,1,1.208-.473A1.659,1.659,0,0,1,207.665,8.492Zm.136,5.155V24.756h-2.688V13.647Z"/><path d="M224.958,14.246a3.618,3.618,0,0,1,.8,2.467v8.043h-2.688V17.133q0-1.785-1.218-1.785a1.66,1.66,0,0,0-1.123.409,5.092,5.092,0,0,0-.977,1.271v7.728h-2.688V17.133q0-1.785-1.218-1.785a1.7,1.7,0,0,0-1.145.409,5.14,5.14,0,0,0-.976,1.271v7.728h-2.688V13.647h2.331l.21,1.449a3.805,3.805,0,0,1,3.213-1.764,2.824,2.824,0,0,1,1.669.494,2.756,2.756,0,0,1,1.019,1.375,5.18,5.18,0,0,1,1.48-1.386,3.565,3.565,0,0,1,1.859-.483A2.7,2.7,0,0,1,224.958,14.246Z"/><path d="M237.3,22.772a1.277,1.277,0,0,0,.641.472l-.568,1.785a3.432,3.432,0,0,1-1.543-.462,2.362,2.362,0,0,1-.914-1.155,3.561,3.561,0,0,1-1.417,1.25,4.322,4.322,0,0,1-1.9.409,3.589,3.589,0,0,1-2.625-.945A3.307,3.307,0,0,1,228,21.648a3.207,3.207,0,0,1,1.312-2.762,6.292,6.292,0,0,1,3.748-.955h1.386V17.3a1.917,1.917,0,0,0-.493-1.5,2.391,2.391,0,0,0-1.586-.43,9.367,9.367,0,0,0-2.939.588l-.63-1.827a11.217,11.217,0,0,1,4.032-.8q4.263,0,4.263,3.822v4.662A1.786,1.786,0,0,0,237.3,22.772Zm-2.846-1.019V19.506h-1.112q-2.6,0-2.6,1.932a1.777,1.777,0,0,0,.4,1.239,1.5,1.5,0,0,0,1.176.441A2.376,2.376,0,0,0,234.449,21.753Z"/><path d="M246.714,24.231a4.311,4.311,0,0,1-1.313.63,5.327,5.327,0,0,1-1.481.21,3.292,3.292,0,0,1-2.488-.935,3.825,3.825,0,0,1-.851-2.7V15.579h-1.742V13.647h1.742V11.19l2.689-.315v2.772h2.583l-.274,1.932H243.27v5.8a1.909,1.909,0,0,0,.283,1.176,1.07,1.07,0,0,0,.892.357,2.746,2.746,0,0,0,1.324-.4Z"/><path d="M257.108,24.756h-2.331l-.146-1.554a4.109,4.109,0,0,1-1.439,1.407,3.984,3.984,0,0,1-1.963.462,2.908,2.908,0,0,1-2.3-.913,3.69,3.69,0,0,1-.809-2.531v-7.98h2.689v7.644a2.148,2.148,0,0,0,.325,1.344,1.264,1.264,0,0,0,1.04.4,2.713,2.713,0,0,0,2.246-1.575V13.647h2.688Z"/><path d="M273.835,14.224a3.519,3.519,0,0,1,.83,2.489v8.043h-2.688V17.133a2.133,2.133,0,0,0-.347-1.386,1.276,1.276,0,0,0-1.019-.4,1.988,1.988,0,0,0-1.249.431,4.91,4.91,0,0,0-1.082,1.249v7.728h-2.687V13.647h2.331l.21,1.449a4.128,4.128,0,0,1,3.381-1.764A3.01,3.01,0,0,1,273.835,14.224Z"/><path d="M286.2,22.772a1.277,1.277,0,0,0,.641.472l-.568,1.785a3.432,3.432,0,0,1-1.543-.462,2.362,2.362,0,0,1-.914-1.155,3.561,3.561,0,0,1-1.417,1.25,4.322,4.322,0,0,1-1.9.409,3.589,3.589,0,0,1-2.625-.945,3.307,3.307,0,0,1-.966-2.478,3.208,3.208,0,0,1,1.313-2.762,6.292,6.292,0,0,1,3.748-.955h1.385V17.3a1.917,1.917,0,0,0-.493-1.5,2.391,2.391,0,0,0-1.586-.43,9.367,9.367,0,0,0-2.939.588l-.63-1.827a11.217,11.217,0,0,1,4.032-.8q4.263,0,4.263,3.822v4.662A1.786,1.786,0,0,0,286.2,22.772Zm-2.846-1.019V19.506h-1.112q-2.6,0-2.6,1.932a1.777,1.777,0,0,0,.4,1.239,1.5,1.5,0,0,0,1.176.441A2.376,2.376,0,0,0,283.358,21.753Z"/><path d="M289.669,24.326a2.909,2.909,0,0,1-.725-2.111V9.2l2.689-.294v13.23q0,.777.63.777a1.982,1.982,0,0,0,.63-.105l.567,1.89a4.3,4.3,0,0,1-1.785.378A2.666,2.666,0,0,1,289.669,24.326Z"/><path d="M304.19,20.031h-6.971a3.522,3.522,0,0,0,.84,2.31,2.594,2.594,0,0,0,1.889.693,3.93,3.93,0,0,0,1.386-.242,6.47,6.47,0,0,0,1.387-.745l1.112,1.533a6.385,6.385,0,0,1-4.115,1.491,4.954,4.954,0,0,1-3.917-1.554,6.173,6.173,0,0,1-1.375-4.242,7.586,7.586,0,0,1,.588-3.056,4.853,4.853,0,0,1,1.7-2.121,5.066,5.066,0,0,1,6.258.715,6.108,6.108,0,0,1,1.281,4.126C304.254,19.079,304.232,19.443,304.19,20.031ZM301.02,7.536l1.091,2.1-4.746,1.89-.756-1.365Zm.567,10.626q0-2.919-2.163-2.919a1.84,1.84,0,0,0-1.544.724,4.314,4.314,0,0,0-.661,2.321h4.368Z"/><path d="M314.9,14.235a3.492,3.492,0,0,1,.841,2.478v8.043h-2.688V17.133a2.127,2.127,0,0,0-.347-1.386,1.273,1.273,0,0,0-1.018-.4,2,2,0,0,0-1.239.431,4.889,4.889,0,0,0-1.093,1.228v7.749h-2.687V9.216l2.687-.273V14.97a4.06,4.06,0,0,1,3.235-1.638A3,3,0,0,1,314.9,14.235Z"/><path d="M327.28,22.772a1.277,1.277,0,0,0,.641.472l-.567,1.785a3.428,3.428,0,0,1-1.543-.462,2.358,2.358,0,0,1-.915-1.155,3.559,3.559,0,0,1-1.416,1.25,4.329,4.329,0,0,1-1.9.409,3.592,3.592,0,0,1-2.625-.945,3.311,3.311,0,0,1-.966-2.478,3.208,3.208,0,0,1,1.313-2.762,6.292,6.292,0,0,1,3.748-.955h1.386V17.3a1.914,1.914,0,0,0-.494-1.5,2.391,2.391,0,0,0-1.586-.43,9.367,9.367,0,0,0-2.939.588l-.63-1.827a11.221,11.221,0,0,1,4.032-.8q4.263,0,4.263,3.822v4.662A1.786,1.786,0,0,0,327.28,22.772Zm-2.845-1.019V19.506h-1.113q-2.6,0-2.6,1.932a1.782,1.782,0,0,0,.4,1.239,1.5,1.5,0,0,0,1.176.441A2.378,2.378,0,0,0,324.435,21.753Z"/><path d="M338.945,13.647l-3.612,11.109H332.12l-3.675-11.109h2.919l2.373,8.946,2.436-8.946Z"/><path d="M349.529,20.031h-6.971a3.527,3.527,0,0,0,.839,2.31,2.6,2.6,0,0,0,1.89.693,3.93,3.93,0,0,0,1.386-.242,6.494,6.494,0,0,0,1.387-.745l1.112,1.533a6.388,6.388,0,0,1-4.115,1.491,4.954,4.954,0,0,1-3.917-1.554,6.173,6.173,0,0,1-1.375-4.242,7.586,7.586,0,0,1,.588-3.056,4.853,4.853,0,0,1,1.7-2.121,5.066,5.066,0,0,1,6.258.715,6.108,6.108,0,0,1,1.281,4.126C349.593,19.079,349.571,19.443,349.529,20.031ZM347.492,7.956l1.029,1.176L345.6,11.757h-1.681L341,9.132l1.029-1.176L344.763,9.8Zm-.566,10.206q0-2.919-2.163-2.919a1.84,1.84,0,0,0-1.544.724,4.314,4.314,0,0,0-.661,2.321h4.368Z"/><path d="M354.675,23.769a6.5,6.5,0,0,1-.473,2.678,4.158,4.158,0,0,1-1.334,1.669,10.666,10.666,0,0,1-2.246,1.2l-.861-1.953a6.422,6.422,0,0,0,1.281-.745,2.287,2.287,0,0,0,.7-1,4.8,4.8,0,0,0,.241-1.68V13.647h2.689Zm-.137-15.277a1.577,1.577,0,0,1,.473,1.165,1.546,1.546,0,0,1-.473,1.155,1.679,1.679,0,0,1-1.228.462,1.647,1.647,0,0,1-1.207-.462,1.546,1.546,0,0,1-.473-1.155,1.577,1.577,0,0,1,.473-1.165,1.627,1.627,0,0,1,1.207-.473A1.659,1.659,0,0,1,354.538,8.492Z"/><path d="M360.46,8.492a1.584,1.584,0,0,1,.472,1.165,1.552,1.552,0,0,1-.472,1.155,1.68,1.68,0,0,1-1.229.462,1.654,1.654,0,0,1-1.208-.462,1.552,1.552,0,0,1-.472-1.155,1.584,1.584,0,0,1,.472-1.165,1.634,1.634,0,0,1,1.208-.473A1.659,1.659,0,0,1,360.46,8.492Zm.136,5.155V24.756h-2.688V13.647Z"/><path d="M15.425,42.405v.882L8.873,53.781h6.444l-.144.954H7.631v-.9l6.606-10.494H8.315v-.936Z"/><path d="M28.844,45.9A3.15,3.15,0,0,1,29.5,48v6.732H28.457V48.147a2.634,2.634,0,0,0-.423-1.647,1.424,1.424,0,0,0-1.179-.531,2.215,2.215,0,0,0-1.422.5,5.814,5.814,0,0,0-1.224,1.44v6.822H23.165V48.147a2.634,2.634,0,0,0-.423-1.647,1.424,1.424,0,0,0-1.179-.531,2.24,2.24,0,0,0-1.44.5,5.54,5.54,0,0,0-1.206,1.44v6.822H17.873V45.321h.9l.091,1.6A4.276,4.276,0,0,1,20.141,45.6a2.924,2.924,0,0,1,1.62-.477,2.324,2.324,0,0,1,1.511.5A2.455,2.455,0,0,1,24.1,47a4.5,4.5,0,0,1,1.3-1.377,2.917,2.917,0,0,1,1.647-.5A2.227,2.227,0,0,1,28.844,45.9Z"/><path d="M39.869,50.433H33.587a4.383,4.383,0,0,0,.873,2.727,2.611,2.611,0,0,0,2.061.891,3.516,3.516,0,0,0,1.3-.225,5.752,5.752,0,0,0,1.234-.711l.485.666a5.323,5.323,0,0,1-1.44.864,4.47,4.47,0,0,1-1.637.288,3.609,3.609,0,0,1-2.935-1.278,5.389,5.389,0,0,1-1.061-3.546,6.879,6.879,0,0,1,.459-2.619,3.917,3.917,0,0,1,1.313-1.746,3.3,3.3,0,0,1,1.989-.621,3.243,3.243,0,0,1,2.737,1.215,5.353,5.353,0,0,1,.935,3.339A7.313,7.313,0,0,1,39.869,50.433Zm-.99-1.08a4.106,4.106,0,0,0-.656-2.475,2.273,2.273,0,0,0-1.953-.891,2.3,2.3,0,0,0-1.891.9,4.636,4.636,0,0,0-.792,2.736h5.292Zm-.413-8.46.468.54-2.323,1.908h-.648l-2.34-1.908.469-.54,2.2,1.512Z"/><path d="M48.985,45.879A3.076,3.076,0,0,1,49.661,48v6.732H48.617V48.147a2.506,2.506,0,0,0-.45-1.656,1.663,1.663,0,0,0-1.332-.522,2.667,2.667,0,0,0-1.593.495,5.4,5.4,0,0,0-1.323,1.449v6.822H42.875V45.321h.9l.109,1.6A4.408,4.408,0,0,1,45.251,45.6a3.384,3.384,0,0,1,1.782-.477A2.478,2.478,0,0,1,48.985,45.879Z"/><path d="M56.231,54.771a8.445,8.445,0,0,1-.828,1.8,3.78,3.78,0,0,1-1.17,1.161,5.269,5.269,0,0,1-1.854.675l-.108-.81a4.976,4.976,0,0,0,1.467-.576,2.676,2.676,0,0,0,.846-.855,7.729,7.729,0,0,0,.64-1.431h-.361l-3.276-9.414h1.135l2.843,8.64,2.79-8.64h1.1Z"/><path d="M67.715,41.361V54.735H66.671V41.487Zm5.273,3.96-3.96,4.212,4.374,5.2H72.143l-4.321-5.148,3.96-4.266Z"/><path d="M75.806,54.483a1.829,1.829,0,0,1-.441-1.332V41.487l1.044-.126V53.115q0,.918.756.918a1.522,1.522,0,0,0,.648-.126l.288.774a2.385,2.385,0,0,1-1.08.252A1.623,1.623,0,0,1,75.806,54.483Z"/><path d="M81.646,41.4a.783.783,0,0,1,0,1.08.777.777,0,0,1-.576.216.755.755,0,0,1-.558-.216.783.783,0,0,1,0-1.08.755.755,0,0,1,.558-.216A.777.777,0,0,1,81.646,41.4Zm-.036,3.924v9.414H80.566V45.321Z"/><path d="M96.4,45.9A3.145,3.145,0,0,1,97.055,48v6.732H96.011V48.147a2.634,2.634,0,0,0-.423-1.647,1.425,1.425,0,0,0-1.18-.531,2.217,2.217,0,0,0-1.422.5,5.791,5.791,0,0,0-1.223,1.44v6.822H90.719V48.147A2.634,2.634,0,0,0,90.3,46.5a1.425,1.425,0,0,0-1.18-.531,2.239,2.239,0,0,0-1.439.5,5.54,5.54,0,0,0-1.206,1.44v6.822H85.427V45.321h.9l.091,1.6A4.273,4.273,0,0,1,87.694,45.6a2.929,2.929,0,0,1,1.62-.477,2.325,2.325,0,0,1,1.512.5A2.454,2.454,0,0,1,91.654,47a4.507,4.507,0,0,1,1.306-1.377,2.916,2.916,0,0,1,1.646-.5A2.226,2.226,0,0,1,96.4,45.9Z"/><path d="M106.819,53.709a1.153,1.153,0,0,0,.6.486l-.234.738a1.846,1.846,0,0,1-1-.486,1.939,1.939,0,0,1-.459-1.1,3.214,3.214,0,0,1-2.934,1.584,2.923,2.923,0,0,1-2.133-.765,2.726,2.726,0,0,1-.783-2.043,2.666,2.666,0,0,1,1.035-2.25,4.628,4.628,0,0,1,2.871-.792h1.8v-.918a1.851,1.851,0,0,0-2.178-2.16,7.62,7.62,0,0,0-2.555.54l-.271-.792a8.062,8.062,0,0,1,2.97-.63q3.079,0,3.078,2.988v4.536A2.216,2.216,0,0,0,106.819,53.709Zm-1.233-1.278V49.839h-1.638a3.661,3.661,0,0,0-2.2.558A1.946,1.946,0,0,0,101,52.071a2.018,2.018,0,0,0,.523,1.494,1.967,1.967,0,0,0,1.457.522A2.858,2.858,0,0,0,105.586,52.431Z"/><path d="M114.713,54.339a3.526,3.526,0,0,1-1.981.594,2.233,2.233,0,0,1-1.692-.639,2.569,2.569,0,0,1-.611-1.845V46.167h-1.584v-.846h1.584v-2.25l1.044-.126v2.376H113.9l-.126.846h-2.3V52.4a1.878,1.878,0,0,0,.341,1.233,1.292,1.292,0,0,0,1.044.405,2.873,2.873,0,0,0,1.441-.414Z"/><path d="M123.172,54.735h-.9l-.054-1.674a3.434,3.434,0,0,1-3.077,1.872,2.556,2.556,0,0,1-1.972-.747,3.022,3.022,0,0,1-.692-2.133V45.321h1.044v6.624a2.364,2.364,0,0,0,.459,1.611,1.774,1.774,0,0,0,1.394.513,3.216,3.216,0,0,0,2.754-1.926V45.321h1.044Z"/><path d="M138.418,46.383a6.136,6.136,0,0,1,.9,3.6,6.147,6.147,0,0,1-.944,3.618,3.054,3.054,0,0,1-2.638,1.332,3.161,3.161,0,0,1-1.539-.378,3.551,3.551,0,0,1-1.161-1.008l-.107,1.188h-.918V41.487l1.044-.126v5.274a3.381,3.381,0,0,1,2.826-1.512A2.938,2.938,0,0,1,138.418,46.383Zm-.909,6.651a5.506,5.506,0,0,0,.692-3.051q0-4-2.538-4a2.5,2.5,0,0,0-1.458.423,4.691,4.691,0,0,0-1.151,1.2v4.95a3.585,3.585,0,0,0,1.08,1.107,2.539,2.539,0,0,0,1.4.405A2.234,2.234,0,0,0,137.509,53.034Z"/><path d="M145.438,54.771a8.492,8.492,0,0,1-.829,1.8,3.78,3.78,0,0,1-1.17,1.161,5.269,5.269,0,0,1-1.854.675l-.107-.81a4.98,4.98,0,0,0,1.466-.576,2.676,2.676,0,0,0,.846-.855,7.729,7.729,0,0,0,.64-1.431h-.361l-3.276-9.414h1.135l2.843,8.64,2.791-8.64h1.1Z"/><path d="M161.979,45.888A3.061,3.061,0,0,1,162.663,48v6.732h-1.044V48.147q0-2.178-1.782-2.178a2.667,2.667,0,0,0-1.593.495,5.4,5.4,0,0,0-1.323,1.449v6.822h-1.044V41.487l1.044-.126v5.526a3.725,3.725,0,0,1,3.114-1.764A2.474,2.474,0,0,1,161.979,45.888Z"/><path d="M172.5,45.879A3.081,3.081,0,0,1,173.176,48v6.732h-1.044V48.147a2.512,2.512,0,0,0-.45-1.656,1.663,1.663,0,0,0-1.332-.522,2.667,2.667,0,0,0-1.593.495,5.4,5.4,0,0,0-1.323,1.449v6.822H166.39V45.321h.9l.108,1.6a4.4,4.4,0,0,1,1.369-1.323,3.384,3.384,0,0,1,1.782-.477A2.479,2.479,0,0,1,172.5,45.879Z"/><path d="M183.543,50.433h-6.282a4.383,4.383,0,0,0,.873,2.727,2.611,2.611,0,0,0,2.061.891,3.516,3.516,0,0,0,1.305-.225,5.723,5.723,0,0,0,1.233-.711l.486.666a5.338,5.338,0,0,1-1.44.864,4.47,4.47,0,0,1-1.637.288,3.609,3.609,0,0,1-2.935-1.278,5.389,5.389,0,0,1-1.061-3.546,6.879,6.879,0,0,1,.459-2.619,3.917,3.917,0,0,1,1.313-1.746,3.3,3.3,0,0,1,1.989-.621,3.245,3.245,0,0,1,2.737,1.215,5.353,5.353,0,0,1,.935,3.339Q183.579,50.073,183.543,50.433Zm-.99-1.08a4.1,4.1,0,0,0-.657-2.475,2.27,2.27,0,0,0-1.953-.891,2.3,2.3,0,0,0-1.89.9,4.636,4.636,0,0,0-.792,2.736h5.292Z"/><path d="M193.264,41.487V54.735h-.9l-.126-1.44a3.1,3.1,0,0,1-2.826,1.638,3.02,3.02,0,0,1-2.583-1.3,5.951,5.951,0,0,1-.944-3.555,6.97,6.97,0,0,1,.44-2.574,3.932,3.932,0,0,1,1.279-1.746,3.18,3.18,0,0,1,1.97-.63A3.274,3.274,0,0,1,192.22,46.4v-5.04ZM191.1,53.637a3.946,3.946,0,0,0,1.125-1.314V47.409a2.956,2.956,0,0,0-2.466-1.422,2.349,2.349,0,0,0-2.025,1.062A5.075,5.075,0,0,0,187,50.055a5.4,5.4,0,0,0,.684,2.979,2.148,2.148,0,0,0,1.889,1.035A2.6,2.6,0,0,0,191.1,53.637Z"/><path d="M206.564,40.893l.468.54-2.322,1.908h-.647l-2.34-1.908.467-.54,2.2,1.512Zm.126,4.338-.2.99a3.128,3.128,0,0,0-.828-.108,1.917,1.917,0,0,0-1.539.693,5.673,5.673,0,0,0-.98,2.169v5.76H202.1V45.321h.9l.091,2.106a3.773,3.773,0,0,1,1.034-1.737,2.4,2.4,0,0,1,1.629-.567A3.459,3.459,0,0,1,206.69,45.231Z"/><path d="M214.916,50.433h-6.282a4.383,4.383,0,0,0,.873,2.727,2.611,2.611,0,0,0,2.061.891,3.516,3.516,0,0,0,1.3-.225,5.723,5.723,0,0,0,1.233-.711l.486.666a5.323,5.323,0,0,1-1.44.864,4.47,4.47,0,0,1-1.637.288,3.609,3.609,0,0,1-2.935-1.278,5.389,5.389,0,0,1-1.061-3.546,6.879,6.879,0,0,1,.459-2.619,3.917,3.917,0,0,1,1.313-1.746,3.3,3.3,0,0,1,1.989-.621,3.245,3.245,0,0,1,2.737,1.215,5.353,5.353,0,0,1,.935,3.339Q214.952,50.073,214.916,50.433Zm-.99-1.08a4.106,4.106,0,0,0-.656-2.475,2.273,2.273,0,0,0-1.954-.891,2.3,2.3,0,0,0-1.89.9,4.636,4.636,0,0,0-.792,2.736h5.292Z"/><path d="M221.829,45.384a5.285,5.285,0,0,1,1.4.783l-.485.684a5.385,5.385,0,0,0-1.225-.657,3.691,3.691,0,0,0-1.259-.207,2.456,2.456,0,0,0-1.512.432,1.366,1.366,0,0,0-.576,1.152,1.259,1.259,0,0,0,.495,1.062,5.453,5.453,0,0,0,1.791.72,5.667,5.667,0,0,1,2.312,1.044,2.278,2.278,0,0,1,.711,1.8,2.376,2.376,0,0,1-.971,2,3.9,3.9,0,0,1-2.43.738,5.2,5.2,0,0,1-1.891-.315,5.009,5.009,0,0,1-1.475-.891l.576-.666a4.651,4.651,0,0,0,1.287.747,4.257,4.257,0,0,0,1.484.243,2.748,2.748,0,0,0,1.684-.477,1.558,1.558,0,0,0,.639-1.323,1.811,1.811,0,0,0-.216-.936,1.739,1.739,0,0,0-.738-.621,8.581,8.581,0,0,0-1.531-.531,5.24,5.24,0,0,1-2.15-.99,2.028,2.028,0,0,1-.657-1.584,2.094,2.094,0,0,1,.414-1.269,2.711,2.711,0,0,1,1.125-.882,3.888,3.888,0,0,1,1.593-.315A4.677,4.677,0,0,1,221.829,45.384Zm.684-4.491.467.54-2.322,1.908h-.647l-2.34-1.908.468-.54,2.2,1.512Z"/><path d="M227.355,41.4a.786.786,0,0,1,0,1.08.781.781,0,0,1-.577.216.755.755,0,0,1-.558-.216.783.783,0,0,1,0-1.08.755.755,0,0,1,.558-.216A.781.781,0,0,1,227.355,41.4Zm-.037,3.924v9.414h-1.044V45.321Z"/><path d="M231.485,54.483a1.829,1.829,0,0,1-.44-1.332V41.487l1.044-.126V53.115q0,.918.756.918a1.514,1.514,0,0,0,.647-.126l.288.774a2.382,2.382,0,0,1-1.08.252A1.625,1.625,0,0,1,231.485,54.483Z"/><path d="M242.321,46.41A5.52,5.52,0,0,1,243.374,50,5.576,5.576,0,0,1,242.3,53.61a3.913,3.913,0,0,1-5.85.018,5.565,5.565,0,0,1-1.053-3.591,6.511,6.511,0,0,1,.486-2.61,3.628,3.628,0,0,1,3.51-2.3A3.571,3.571,0,0,1,242.321,46.41Zm-5.049.621a5.027,5.027,0,0,0-.756,3.006,5.037,5.037,0,0,0,.747,2.988,2.462,2.462,0,0,0,2.115,1.026,2.509,2.509,0,0,0,2.133-1.026A5.017,5.017,0,0,0,242.276,50a4.993,4.993,0,0,0-.747-2.979,2.728,2.728,0,0,0-4.257.009Z"/><path d="M256.766,42.765v.81l-4.716,11.3-.972-.324,4.608-10.908h-5.6v-.882Z"/><path d="M262.274,42.765v11.97H261.23V43.917l-2.952,1.836-.485-.774,3.582-2.214Z"/><path d="M277.835,46.392a6.4,6.4,0,0,1,.854,3.591,6.246,6.246,0,0,1-.926,3.609,3.034,3.034,0,0,1-2.656,1.341,3.3,3.3,0,0,1-1.53-.351,3.444,3.444,0,0,1-1.151-.945v4.644l-1.044.144v-13.1h.9l.091,1.368a3.8,3.8,0,0,1,1.269-1.152,3.305,3.305,0,0,1,1.629-.414A2.888,2.888,0,0,1,277.835,46.392Zm-.945,6.633a5.516,5.516,0,0,0,.683-3.042q0-4-2.5-4a2.5,2.5,0,0,0-1.466.432,5.131,5.131,0,0,0-1.179,1.188v5a2.846,2.846,0,0,0,2.483,1.44A2.235,2.235,0,0,0,276.89,53.025Z"/><path d="M286.43,45.231l-.2.99a3.128,3.128,0,0,0-.828-.108,1.918,1.918,0,0,0-1.539.693,5.688,5.688,0,0,0-.98,2.169v5.76H281.84V45.321h.9l.091,2.106a3.773,3.773,0,0,1,1.034-1.737,2.409,2.409,0,0,1,1.629-.567A3.467,3.467,0,0,1,286.43,45.231Z"/><path d="M294.179,46.41A5.52,5.52,0,0,1,295.231,50a5.576,5.576,0,0,1-1.071,3.609,3.911,3.911,0,0,1-5.849.018,5.56,5.56,0,0,1-1.053-3.591,6.511,6.511,0,0,1,.485-2.61,3.631,3.631,0,0,1,3.511-2.3A3.572,3.572,0,0,1,294.179,46.41Zm-5.049.621a5.019,5.019,0,0,0-.757,3.006,5.037,5.037,0,0,0,.747,2.988,2.462,2.462,0,0,0,2.115,1.026,2.509,2.509,0,0,0,2.133-1.026A5.017,5.017,0,0,0,294.134,50a4.993,4.993,0,0,0-.747-2.979,2.728,2.728,0,0,0-4.257.009Z"/><path d="M302.954,45.348a3.958,3.958,0,0,1,1.224.729l-.522.684a3.374,3.374,0,0,0-.964-.558,3.278,3.278,0,0,0-1.125-.18,2.54,2.54,0,0,0-2.124,1.035,4.9,4.9,0,0,0-.792,3.015,4.7,4.7,0,0,0,.784,2.952,2.554,2.554,0,0,0,2.115.99,3.142,3.142,0,0,0,1.142-.2,4.256,4.256,0,0,0,1.036-.594l.5.7a4.056,4.056,0,0,1-2.7,1.008,3.819,3.819,0,0,1-2.106-.576,3.751,3.751,0,0,1-1.395-1.665,6.232,6.232,0,0,1-.5-2.6,6.438,6.438,0,0,1,.5-2.619,3.958,3.958,0,0,1,1.395-1.737,3.621,3.621,0,0,1,2.088-.612A4.272,4.272,0,0,1,302.954,45.348Z"/><path d="M313.069,50.433h-6.282a4.4,4.4,0,0,0,.873,2.727,2.613,2.613,0,0,0,2.062.891,3.514,3.514,0,0,0,1.3-.225,5.752,5.752,0,0,0,1.234-.711l.485.666a5.333,5.333,0,0,1-1.439.864,4.475,4.475,0,0,1-1.638.288,3.609,3.609,0,0,1-2.935-1.278,5.389,5.389,0,0,1-1.061-3.546,6.879,6.879,0,0,1,.459-2.619,3.925,3.925,0,0,1,1.313-1.746,3.3,3.3,0,0,1,1.99-.621,3.243,3.243,0,0,1,2.736,1.215,5.353,5.353,0,0,1,.935,3.339A7.313,7.313,0,0,1,313.069,50.433Zm-.99-1.08a4.106,4.106,0,0,0-.656-2.475,2.273,2.273,0,0,0-1.953-.891,2.305,2.305,0,0,0-1.891.9,4.643,4.643,0,0,0-.792,2.736h5.292Z"/><path d="M322.186,45.879A3.08,3.08,0,0,1,322.861,48v6.732h-1.044V48.147a2.506,2.506,0,0,0-.45-1.656,1.663,1.663,0,0,0-1.332-.522,2.669,2.669,0,0,0-1.593.495,5.421,5.421,0,0,0-1.323,1.449v6.822h-1.044V45.321h.9l.108,1.6a4.408,4.408,0,0,1,1.368-1.323,3.386,3.386,0,0,1,1.782-.477A2.482,2.482,0,0,1,322.186,45.879Z"/><path d="M330.872,54.339a3.525,3.525,0,0,1-1.98.594,2.234,2.234,0,0,1-1.693-.639,2.569,2.569,0,0,1-.611-1.845V46.167H325v-.846h1.584v-2.25l1.044-.126v2.376h2.43l-.126.846h-2.3V52.4a1.873,1.873,0,0,0,.342,1.233,1.289,1.289,0,0,0,1.044.405,2.87,2.87,0,0,0,1.44-.414Z"/><path d="M342.823,45.321v.81l-5.257,7.7h5.221l-.108.9h-6.336v-.81l5.256-7.7h-4.825v-.9Zm-.918-4.428.468.54-2.322,1.908H339.4l-2.34-1.908.468-.54,2.2,1.512Z"/><path d="M351.877,50.433H345.6a4.383,4.383,0,0,0,.873,2.727,2.611,2.611,0,0,0,2.061.891,3.519,3.519,0,0,0,1.305-.225,5.723,5.723,0,0,0,1.233-.711l.486.666a5.338,5.338,0,0,1-1.44.864,4.47,4.47,0,0,1-1.637.288,3.609,3.609,0,0,1-2.935-1.278,5.389,5.389,0,0,1-1.061-3.546,6.9,6.9,0,0,1,.458-2.619,3.926,3.926,0,0,1,1.314-1.746,3.3,3.3,0,0,1,1.989-.621,3.245,3.245,0,0,1,2.737,1.215,5.353,5.353,0,0,1,.935,3.339Q351.913,50.073,351.877,50.433Zm-.99-1.08a4.1,4.1,0,0,0-.657-2.475,2.27,2.27,0,0,0-1.953-.891,2.3,2.3,0,0,0-1.89.9,4.636,4.636,0,0,0-.792,2.736h5.292Z"/><path d="M360.993,45.879A3.081,3.081,0,0,1,361.669,48v6.732h-1.044V48.147a2.506,2.506,0,0,0-.45-1.656,1.663,1.663,0,0,0-1.332-.522,2.667,2.667,0,0,0-1.593.495,5.4,5.4,0,0,0-1.323,1.449v6.822h-1.044V45.321h.9l.109,1.6a4.387,4.387,0,0,1,1.368-1.323,3.384,3.384,0,0,1,1.782-.477A2.478,2.478,0,0,1,360.993,45.879Z"/><path d="M365.962,53.466a.819.819,0,0,1,.243.6.832.832,0,0,1-.864.864.86.86,0,0,1-.863-.864.8.8,0,0,1,.252-.6.847.847,0,0,1,.611-.243A.838.838,0,0,1,365.962,53.466Z"/><path d="M384.853,54.735h-1.044l-.559-5.9q-.342-3.438-.468-5.364l-3.095,9.81H378.66l-3.2-9.81q-.09,1.746-.359,4.626l-.055.7-.54,5.94h-1.025l1.169-12.33h1.5L379.2,52l2.952-9.594h1.512Z"/><path d="M394.608,54.735h-.9l-.055-1.674a3.433,3.433,0,0,1-3.077,1.872,2.558,2.558,0,0,1-1.972-.747,3.027,3.027,0,0,1-.692-2.133V45.321h1.044v6.624a2.364,2.364,0,0,0,.459,1.611,1.777,1.777,0,0,0,1.395.513,3.216,3.216,0,0,0,2.753-1.926V45.321h1.044Z"/><path d="M403.5,45.321v.81l-5.257,7.7h5.221l-.109.9h-6.335v-.81l5.255-7.7h-4.824v-.9Zm-.918-4.428.468.54-2.322,1.908h-.648l-2.341-1.908.469-.54,2.195,1.512Z"/><path d="M407.1,41.4a.786.786,0,0,1,0,1.08.781.781,0,0,1-.577.216.755.755,0,0,1-.558-.216.783.783,0,0,1,0-1.08.755.755,0,0,1,.558-.216A.781.781,0,0,1,407.1,41.4Zm-.037,3.924v9.414h-1.043V45.321Z"/><path d="M419.809,45.384a5.3,5.3,0,0,1,1.4.783l-.485.684a5.385,5.385,0,0,0-1.225-.657,3.7,3.7,0,0,0-1.26-.207,2.456,2.456,0,0,0-1.512.432,1.368,1.368,0,0,0-.576,1.152,1.259,1.259,0,0,0,.5,1.062,5.463,5.463,0,0,0,1.791.72,5.672,5.672,0,0,1,2.313,1.044,2.278,2.278,0,0,1,.711,1.8,2.374,2.374,0,0,1-.972,2,3.9,3.9,0,0,1-2.429.738,5.2,5.2,0,0,1-1.891-.315,5.027,5.027,0,0,1-1.476-.891l.576-.666a4.641,4.641,0,0,0,1.288.747,4.249,4.249,0,0,0,1.484.243,2.75,2.75,0,0,0,1.684-.477,1.56,1.56,0,0,0,.638-1.323,1.8,1.8,0,0,0-.216-.936,1.727,1.727,0,0,0-.738-.621,8.566,8.566,0,0,0-1.53-.531,5.252,5.252,0,0,1-2.151-.99,2.031,2.031,0,0,1-.657-1.584,2.1,2.1,0,0,1,.414-1.269,2.724,2.724,0,0,1,1.125-.882,3.892,3.892,0,0,1,1.593-.315A4.683,4.683,0,0,1,419.809,45.384Z"/><path d="M430.9,50.433h-6.283a4.4,4.4,0,0,0,.873,2.727,2.613,2.613,0,0,0,2.062.891,3.519,3.519,0,0,0,1.305-.225,5.747,5.747,0,0,0,1.233-.711l.485.666a5.318,5.318,0,0,1-1.439.864,4.471,4.471,0,0,1-1.638.288,3.606,3.606,0,0,1-2.934-1.278,5.39,5.39,0,0,1-1.062-3.546,6.879,6.879,0,0,1,.459-2.619,3.919,3.919,0,0,1,1.314-1.746,3.3,3.3,0,0,1,1.989-.621A3.243,3.243,0,0,1,430,46.338a5.353,5.353,0,0,1,.936,3.339Q430.932,50.073,430.9,50.433Zm-.991-1.08a4.1,4.1,0,0,0-.656-2.475,2.272,2.272,0,0,0-1.953-.891,2.307,2.307,0,0,0-1.891.9,4.643,4.643,0,0,0-.792,2.736h5.292Z"/><path d="M439.968,41.361V54.735h-1.044V41.487Zm5.273,3.96-3.96,4.212,4.374,5.2H444.4l-4.321-5.148,3.96-4.266Z"/><path d="M457.014,54.339a3.526,3.526,0,0,1-1.981.594,2.232,2.232,0,0,1-1.692-.639,2.569,2.569,0,0,1-.611-1.845V46.167h-1.584v-.846h1.584v-2.25l1.043-.126v2.376h2.43l-.126.846h-2.3V52.4a1.878,1.878,0,0,0,.342,1.233,1.29,1.29,0,0,0,1.044.405,2.873,2.873,0,0,0,1.441-.414Z"/><path d="M465.293,50.433h-6.282a4.383,4.383,0,0,0,.873,2.727,2.611,2.611,0,0,0,2.061.891,3.516,3.516,0,0,0,1.305-.225,5.723,5.723,0,0,0,1.233-.711l.486.666a5.338,5.338,0,0,1-1.44.864,4.47,4.47,0,0,1-1.637.288,3.609,3.609,0,0,1-2.935-1.278,5.389,5.389,0,0,1-1.061-3.546,6.879,6.879,0,0,1,.459-2.619,3.917,3.917,0,0,1,1.313-1.746,3.3,3.3,0,0,1,1.989-.621,3.245,3.245,0,0,1,2.737,1.215,5.353,5.353,0,0,1,.935,3.339Q465.329,50.073,465.293,50.433Zm-.99-1.08a4.1,4.1,0,0,0-.657-2.475,2.27,2.27,0,0,0-1.953-.891,2.3,2.3,0,0,0-1.89.9,4.636,4.636,0,0,0-.792,2.736H464.3Zm-1.241-8.694.467.936-3.509,1.53-.343-.612Z"/><path d="M472.583,54.339a3.525,3.525,0,0,1-1.98.594,2.234,2.234,0,0,1-1.693-.639,2.569,2.569,0,0,1-.611-1.845V46.167h-1.584v-.846H468.3v-2.25l1.044-.126v2.376h2.429l-.126.846h-2.3V52.4a1.873,1.873,0,0,0,.342,1.233,1.289,1.289,0,0,0,1.044.405,2.873,2.873,0,0,0,1.44-.414Z"/><path d="M480.386,46.41A5.52,5.52,0,0,1,481.438,50a5.576,5.576,0,0,1-1.071,3.609,3.911,3.911,0,0,1-5.849.018,5.56,5.56,0,0,1-1.053-3.591,6.511,6.511,0,0,1,.485-2.61,3.631,3.631,0,0,1,3.511-2.3A3.572,3.572,0,0,1,480.386,46.41Zm-5.049.621a5.019,5.019,0,0,0-.757,3.006,5.037,5.037,0,0,0,.747,2.988,2.462,2.462,0,0,0,2.115,1.026,2.508,2.508,0,0,0,2.133-1.026A5.017,5.017,0,0,0,480.341,50a4.993,4.993,0,0,0-.747-2.979,2.728,2.728,0,0,0-4.257.009Z"/><path d="M495.8,45.321l-3.259,9.414h-1.3l-3.366-9.414h1.152l2.862,8.5,2.791-8.5Z"/><path d="M503.786,53.709a1.149,1.149,0,0,0,.6.486l-.234.738a1.846,1.846,0,0,1-1-.486,1.939,1.939,0,0,1-.459-1.1,3.215,3.215,0,0,1-2.934,1.584,2.921,2.921,0,0,1-2.133-.765,2.722,2.722,0,0,1-.783-2.043,2.664,2.664,0,0,1,1.035-2.25,4.624,4.624,0,0,1,2.871-.792h1.8v-.918a1.851,1.851,0,0,0-2.178-2.16,7.63,7.63,0,0,0-2.556.54l-.27-.792a8.062,8.062,0,0,1,2.97-.63q3.078,0,3.078,2.988v4.536A2.216,2.216,0,0,0,503.786,53.709Zm-1.233-1.278V49.839h-1.638a3.661,3.661,0,0,0-2.2.558,1.946,1.946,0,0,0-.756,1.674,2.022,2.022,0,0,0,.522,1.494,1.968,1.968,0,0,0,1.457.522A2.861,2.861,0,0,0,502.553,52.431Z"/><path d="M511.984,45.231l-.2.99a3.133,3.133,0,0,0-.828-.108,1.917,1.917,0,0,0-1.539.693,5.688,5.688,0,0,0-.981,2.169v5.76H507.4V45.321h.9l.091,2.106a3.765,3.765,0,0,1,1.034-1.737,2.4,2.4,0,0,1,1.629-.567A3.459,3.459,0,0,1,511.984,45.231Z"/><path d="M515.188,41.4a.783.783,0,0,1,0,1.08.777.777,0,0,1-.576.216.755.755,0,0,1-.558-.216.783.783,0,0,1,0-1.08.755.755,0,0,1,.558-.216A.777.777,0,0,1,515.188,41.4Zm-.036,3.924v9.414h-1.044V45.321Z"/><path d="M525.008,53.709a1.15,1.15,0,0,0,.6.486l-.233.738a1.839,1.839,0,0,1-1-.486,1.932,1.932,0,0,1-.459-1.1,3.216,3.216,0,0,1-2.935,1.584,2.92,2.92,0,0,1-2.132-.765,2.723,2.723,0,0,1-.784-2.043,2.664,2.664,0,0,1,1.036-2.25,4.624,4.624,0,0,1,2.871-.792h1.8v-.918a1.85,1.85,0,0,0-2.177-2.16,7.625,7.625,0,0,0-2.556.54l-.27-.792a8.053,8.053,0,0,1,2.969-.63q3.08,0,3.078,2.988v4.536A2.214,2.214,0,0,0,525.008,53.709Zm-1.234-1.278V49.839h-1.637a3.665,3.665,0,0,0-2.2.558,1.948,1.948,0,0,0-.755,1.674,2.018,2.018,0,0,0,.522,1.494,1.968,1.968,0,0,0,1.457.522A2.858,2.858,0,0,0,523.774,52.431Z"/><path d="M534.727,45.879A3.08,3.08,0,0,1,535.4,48v6.732h-1.044V48.147a2.506,2.506,0,0,0-.45-1.656,1.663,1.663,0,0,0-1.332-.522,2.669,2.669,0,0,0-1.593.495,5.421,5.421,0,0,0-1.323,1.449v6.822h-1.044V45.321h.9l.108,1.6a4.408,4.408,0,0,1,1.368-1.323,3.386,3.386,0,0,1,1.782-.477A2.482,2.482,0,0,1,534.727,45.879Z"/><path d="M543.412,54.339a3.522,3.522,0,0,1-1.98.594,2.234,2.234,0,0,1-1.693-.639,2.569,2.569,0,0,1-.611-1.845V46.167h-1.584v-.846h1.584v-2.25l1.044-.126v2.376h2.43l-.126.846h-2.3V52.4a1.873,1.873,0,0,0,.342,1.233,1.289,1.289,0,0,0,1.044.405,2.87,2.87,0,0,0,1.44-.414Z"/><path d="M551.691,50.433h-6.282a4.4,4.4,0,0,0,.873,2.727,2.613,2.613,0,0,0,2.062.891,3.51,3.51,0,0,0,1.3-.225,5.728,5.728,0,0,0,1.234-.711l.485.666a5.333,5.333,0,0,1-1.439.864,4.471,4.471,0,0,1-1.638.288,3.609,3.609,0,0,1-2.935-1.278,5.389,5.389,0,0,1-1.061-3.546,6.879,6.879,0,0,1,.459-2.619,3.925,3.925,0,0,1,1.313-1.746,3.3,3.3,0,0,1,1.99-.621,3.243,3.243,0,0,1,2.736,1.215,5.353,5.353,0,0,1,.936,3.339A7.306,7.306,0,0,1,551.691,50.433Zm-.99-1.08a4.106,4.106,0,0,0-.656-2.475,2.273,2.273,0,0,0-1.953-.891,2.307,2.307,0,0,0-1.891.9,4.643,4.643,0,0,0-.792,2.736H550.7Zm-.413-8.46.468.54-2.322,1.908h-.649l-2.34-1.908.469-.54,2.2,1.512Z"/><path d="M566.173,46.392a6.4,6.4,0,0,1,.854,3.591,6.246,6.246,0,0,1-.926,3.609,3.035,3.035,0,0,1-2.656,1.341,3.3,3.3,0,0,1-1.53-.351,3.444,3.444,0,0,1-1.151-.945v4.644l-1.044.144v-13.1h.9l.091,1.368a3.794,3.794,0,0,1,1.269-1.152,3.3,3.3,0,0,1,1.628-.414A2.888,2.888,0,0,1,566.173,46.392Zm-.945,6.633a5.516,5.516,0,0,0,.683-3.042q0-4-2.5-4a2.506,2.506,0,0,0-1.467.432,5.147,5.147,0,0,0-1.178,1.188v5a2.846,2.846,0,0,0,2.483,1.44A2.237,2.237,0,0,0,565.228,53.025Z"/><path d="M574.642,40.893l.467.54-2.322,1.908h-.647l-2.34-1.908.468-.54,2.2,1.512Zm.126,4.338-.2.99a3.128,3.128,0,0,0-.828-.108,1.917,1.917,0,0,0-1.539.693,5.688,5.688,0,0,0-.98,2.169v5.76h-1.044V45.321h.9l.091,2.106A3.773,3.773,0,0,1,572.2,45.69a2.409,2.409,0,0,1,1.629-.567A3.467,3.467,0,0,1,574.768,45.231Z"/><path d="M577.972,41.4a.783.783,0,0,1,0,1.08.78.78,0,0,1-.576.216.756.756,0,0,1-.559-.216.783.783,0,0,1,0-1.08.756.756,0,0,1,.559-.216A.78.78,0,0,1,577.972,41.4Zm-.036,3.924v9.414h-1.044V45.321Z"/><path d="M582.795,41.361V54.735h-1.044V41.487Zm5.273,3.96-3.96,4.212,4.374,5.2h-1.259L582.9,49.587l3.96-4.266Z"/><path d="M590.886,54.483a1.829,1.829,0,0,1-.441-1.332V41.487l1.044-.126V53.115q0,.918.756.918a1.522,1.522,0,0,0,.648-.126l.288.774a2.385,2.385,0,0,1-1.08.252A1.623,1.623,0,0,1,590.886,54.483Z"/><path d="M601.6,53.709a1.15,1.15,0,0,0,.6.486l-.233.738a1.839,1.839,0,0,1-1-.486,1.926,1.926,0,0,1-.459-1.1,3.217,3.217,0,0,1-2.935,1.584,2.924,2.924,0,0,1-2.133-.765,2.726,2.726,0,0,1-.783-2.043,2.666,2.666,0,0,1,1.035-2.25,4.628,4.628,0,0,1,2.871-.792h1.8v-.918a1.851,1.851,0,0,0-2.177-2.16,7.625,7.625,0,0,0-2.556.54l-.271-.792a8.062,8.062,0,0,1,2.97-.63q3.08,0,3.078,2.988v4.536A2.214,2.214,0,0,0,601.6,53.709Zm-1.234-1.278V49.839h-1.637a3.665,3.665,0,0,0-2.2.558,1.946,1.946,0,0,0-.756,1.674,2.018,2.018,0,0,0,.523,1.494,1.968,1.968,0,0,0,1.457.522A2.858,2.858,0,0,0,600.363,52.431Zm-.719-11.772.467.936-3.509,1.53-.342-.612Z"/><path d="M611.315,45.879A3.076,3.076,0,0,1,611.991,48v6.732h-1.044V48.147a2.506,2.506,0,0,0-.45-1.656,1.663,1.663,0,0,0-1.332-.522,2.667,2.667,0,0,0-1.593.495,5.4,5.4,0,0,0-1.323,1.449v6.822h-1.044V45.321h.9l.108,1.6a4.408,4.408,0,0,1,1.368-1.323,3.384,3.384,0,0,1,1.782-.477A2.478,2.478,0,0,1,611.315,45.879Z"/><path d="M617.59,40.659l.468.936-3.51,1.53-.342-.612Zm-.828,4.662v9.414h-1.044V45.321Z"/><path d="M630.675,45.321v.81l-5.257,7.7h5.221l-.109.9h-6.336v-.81l5.256-7.7h-4.824v-.9Z"/><path d="M643.6,43.629h-4.861v4.086a4.126,4.126,0,0,1,2.053-.558,3.159,3.159,0,0,1,2.457,1,3.9,3.9,0,0,1,.908,2.727,4.528,4.528,0,0,1-.476,2.1,3.489,3.489,0,0,1-1.35,1.44,3.928,3.928,0,0,1-2.025.513,4.518,4.518,0,0,1-3.384-1.44l.647-.63a3.824,3.824,0,0,0,1.225.9,3.7,3.7,0,0,0,1.512.288,2.524,2.524,0,0,0,2.015-.855,3.443,3.443,0,0,0,.739-2.331,3.022,3.022,0,0,0-.675-2.151A2.4,2.4,0,0,0,640.557,48a3.48,3.48,0,0,0-1.017.135,4.974,4.974,0,0,0-.981.441h-.829V42.765h6.031Z"/><path d="M653.769,50.721v.864h-1.621v3.15h-1.026v-3.15h-5.238v-.774l3.654-8.244.882.36L647,50.721h4.122l.126-3.51h.9v3.51Z"/><path d="M667.781,46.392a6.392,6.392,0,0,1,.855,3.591,6.246,6.246,0,0,1-.927,3.609,3.033,3.033,0,0,1-2.655,1.341,3.306,3.306,0,0,1-1.531-.351,3.454,3.454,0,0,1-1.151-.945v4.644l-1.044.144v-13.1h.9l.09,1.368a3.8,3.8,0,0,1,1.269-1.152,3.305,3.305,0,0,1,1.629-.414A2.888,2.888,0,0,1,667.781,46.392Zm-.945,6.633a5.516,5.516,0,0,0,.684-3.042q0-4-2.5-4a2.5,2.5,0,0,0-1.467.432,5.15,5.15,0,0,0-1.179,1.188v5a2.846,2.846,0,0,0,2.483,1.44A2.234,2.234,0,0,0,666.836,53.025Z"/><path d="M676.376,45.231l-.2.99a3.133,3.133,0,0,0-.828-.108,1.916,1.916,0,0,0-1.539.693,5.688,5.688,0,0,0-.981,2.169v5.76h-1.044V45.321h.9l.09,2.106a3.766,3.766,0,0,1,1.035-1.737,2.4,2.4,0,0,1,1.628-.567A3.462,3.462,0,0,1,676.376,45.231Z"/><path d="M684.125,46.41A5.52,5.52,0,0,1,685.178,50a5.576,5.576,0,0,1-1.072,3.609,3.911,3.911,0,0,1-5.849.018,5.565,5.565,0,0,1-1.053-3.591,6.511,6.511,0,0,1,.485-2.61,3.811,3.811,0,0,1,1.387-1.71,3.767,3.767,0,0,1,2.124-.594A3.572,3.572,0,0,1,684.125,46.41Zm-5.049.621a5.019,5.019,0,0,0-.757,3.006,5.037,5.037,0,0,0,.747,2.988,2.464,2.464,0,0,0,2.116,1.026,2.506,2.506,0,0,0,2.132-1.026A5.017,5.017,0,0,0,684.08,50a4.993,4.993,0,0,0-.747-2.979,2.728,2.728,0,0,0-4.257.009Z"/><path d="M692.9,45.348a3.946,3.946,0,0,1,1.224.729l-.521.684a3.388,3.388,0,0,0-.964-.558,3.278,3.278,0,0,0-1.125-.18,2.538,2.538,0,0,0-2.124,1.035,4.9,4.9,0,0,0-.792,3.015,4.7,4.7,0,0,0,.783,2.952,2.554,2.554,0,0,0,2.115.99,3.152,3.152,0,0,0,1.143-.2,4.27,4.27,0,0,0,1.035-.594l.5.7a4.058,4.058,0,0,1-2.7,1.008,3.822,3.822,0,0,1-2.107-.576,3.749,3.749,0,0,1-1.394-1.665,6.216,6.216,0,0,1-.5-2.6,6.421,6.421,0,0,1,.5-2.619,3.956,3.956,0,0,1,1.394-1.737,3.624,3.624,0,0,1,2.088-.612A4.268,4.268,0,0,1,692.9,45.348Z"/><path d="M703.016,50.433h-6.283a4.4,4.4,0,0,0,.873,2.727,2.613,2.613,0,0,0,2.062.891,3.519,3.519,0,0,0,1.3-.225,5.723,5.723,0,0,0,1.233-.711l.485.666a5.318,5.318,0,0,1-1.439.864,4.471,4.471,0,0,1-1.638.288,3.606,3.606,0,0,1-2.934-1.278,5.39,5.39,0,0,1-1.062-3.546,6.9,6.9,0,0,1,.459-2.619,3.919,3.919,0,0,1,1.314-1.746,3.3,3.3,0,0,1,1.989-.621,3.243,3.243,0,0,1,2.736,1.215,5.353,5.353,0,0,1,.936,3.339Q703.052,50.073,703.016,50.433Zm-.991-1.08a4.1,4.1,0,0,0-.656-2.475,2.272,2.272,0,0,0-1.953-.891,2.307,2.307,0,0,0-1.891.9,4.643,4.643,0,0,0-.792,2.736h5.292Z"/><path d="M712.132,45.879A3.081,3.081,0,0,1,712.808,48v6.732h-1.044V48.147a2.506,2.506,0,0,0-.451-1.656,1.661,1.661,0,0,0-1.332-.522,2.666,2.666,0,0,0-1.592.495,5.407,5.407,0,0,0-1.324,1.449v6.822h-1.044V45.321h.9l.108,1.6A4.408,4.408,0,0,1,708.4,45.6a3.39,3.39,0,0,1,1.783-.477A2.479,2.479,0,0,1,712.132,45.879Z"/><path d="M720.818,54.339a3.52,3.52,0,0,1-1.98.594,2.232,2.232,0,0,1-1.692-.639,2.565,2.565,0,0,1-.612-1.845V46.167H714.95v-.846h1.584v-2.25l1.044-.126v2.376h2.43l-.126.846h-2.3V52.4a1.873,1.873,0,0,0,.342,1.233,1.289,1.289,0,0,0,1.044.405,2.87,2.87,0,0,0,1.44-.414Z"/><path d="M723.274,53.466a.816.816,0,0,1,.244.6.864.864,0,1,1-1.728,0,.8.8,0,0,1,.252-.6.848.848,0,0,1,.611-.243A.838.838,0,0,1,723.274,53.466Z"/><rect class="cls-1" x="106.5" y="145.439" width="383.253" height="60"/><rect class="cls-2" x="489.753" y="145.439" width="233.691" height="60"/><rect class="cls-3" x="723.443" y="145.439" width="149.562" height="60"/><rect class="cls-4" x="874.157" y="145.439" width="121.519" height="60"/><rect class="cls-5" x="994.524" y="145.439" width="56.086" height="60"/><rect class="cls-1" x="105.194" y="236.409" width="263.467" height="60"/><rect class="cls-2" x="368.661" y="236.409" width="178.781" height="60"/><rect class="cls-3" x="547.442" y="236.409" width="207.01" height="60"/><rect class="cls-4" x="754.452" y="236.409" width="183.244" height="60"/><rect class="cls-5" x="937.696" y="236.409" width="112.914" height="60"/><polygon class="cls-6" points="489.753 145.439 106.5 145.439 106.5 205.439 489.753 205.439 723.443 205.439 723.443 145.439 489.753 145.439"/><polygon class="cls-6" points="983.336 145.439 873.005 145.439 873.005 205.439 983.336 205.439 1050.61 205.439 1050.61 145.439 983.336 145.439"/><polygon class="cls-6" points="938.124 236.409 753.646 236.409 753.646 296.409 938.124 296.409 1050.61 296.409 1050.61 236.409 938.124 236.409"/><polygon class="cls-6" points="379.924 236.409 105.194 236.409 105.194 296.409 379.924 296.409 547.442 296.409 547.442 236.409 379.924 236.409"/><path class="cls-1" d="M176.047,115.516a3.279,3.279,0,0,1,1.25,2.8,3.488,3.488,0,0,1-1.257,2.932,5.314,5.314,0,0,1-3.35.977h-1.377v4.1h-2.244V114.58h3.469A5.753,5.753,0,0,1,176.047,115.516Zm-1.708,4.53a2.114,2.114,0,0,0,.612-1.725q0-2.091-2.431-2.092h-1.207v4.319h1.207A2.82,2.82,0,0,0,174.339,120.046Z"/><path class="cls-1" d="M183.622,112.727l.833.953-2.364,2.125h-1.36l-2.362-2.125.832-.953,2.211,1.5Zm.424,4.489-.374,2.108a3.29,3.29,0,0,0-.8-.1,1.53,1.53,0,0,0-1.259.569,4.372,4.372,0,0,0-.731,1.743v4.794h-2.175v-8.994H180.6l.2,1.768a3.231,3.231,0,0,1,.935-1.487,2.118,2.118,0,0,1,1.411-.518A3.221,3.221,0,0,1,184.046,117.216Z"/><path class="cls-1" d="M192.223,122.5H186.58a2.851,2.851,0,0,0,.679,1.87,2.1,2.1,0,0,0,1.531.561,3.19,3.19,0,0,0,1.122-.2,5.252,5.252,0,0,0,1.121-.6l.9,1.24a5.169,5.169,0,0,1-3.332,1.207,4.01,4.01,0,0,1-3.17-1.257,5,5,0,0,1-1.114-3.434,6.161,6.161,0,0,1,.476-2.474,3.929,3.929,0,0,1,1.377-1.717,4.1,4.1,0,0,1,5.066.578,4.944,4.944,0,0,1,1.037,3.341C192.274,121.732,192.257,122.027,192.223,122.5Zm-2.108-1.512q0-2.364-1.751-2.364a1.487,1.487,0,0,0-1.249.587,3.476,3.476,0,0,0-.535,1.879h3.535Z"/><path class="cls-1" d="M200.264,118.151l-.849,1.275a4.224,4.224,0,0,0-2.262-.731,1.751,1.751,0,0,0-1,.246.763.763,0,0,0-.357.655.821.821,0,0,0,.153.509,1.381,1.381,0,0,0,.553.383,9.173,9.173,0,0,0,1.181.4,5.177,5.177,0,0,1,2.168,1.037,2.319,2.319,0,0,1,.7,1.8,2.417,2.417,0,0,1-1.088,2.1,4.624,4.624,0,0,1-2.7.756,5.724,5.724,0,0,1-2.014-.339,4.9,4.9,0,0,1-1.573-.935l1.088-1.225a4.011,4.011,0,0,0,2.448.885,2.08,2.08,0,0,0,1.165-.289.911.911,0,0,0,.433-.8,1.065,1.065,0,0,0-.161-.62,1.335,1.335,0,0,0-.578-.408,12.178,12.178,0,0,0-1.3-.434,4.325,4.325,0,0,1-2.022-1.045,2.314,2.314,0,0,1-.647-1.674,2.228,2.228,0,0,1,.434-1.344,2.887,2.887,0,0,1,1.223-.935,4.562,4.562,0,0,1,1.811-.34A5.053,5.053,0,0,1,200.264,118.151Z"/><path class="cls-1" d="M209.241,117.334l-2.925,8.994h-2.6l-2.974-8.994H203.1l1.921,7.243L207,117.334Z"/><path class="cls-1" d="M217.808,122.5h-5.643a2.851,2.851,0,0,0,.679,1.87,2.1,2.1,0,0,0,1.531.561,3.19,3.19,0,0,0,1.122-.2,5.252,5.252,0,0,0,1.121-.6l.9,1.24a5.169,5.169,0,0,1-3.332,1.207,4.01,4.01,0,0,1-3.17-1.257,5,5,0,0,1-1.114-3.434,6.161,6.161,0,0,1,.476-2.474,3.929,3.929,0,0,1,1.377-1.717,4.1,4.1,0,0,1,5.066.578,4.944,4.944,0,0,1,1.037,3.341C217.859,121.732,217.842,122.027,217.808,122.5Zm-1.649-9.775.833.953-2.363,2.125h-1.36l-2.363-2.125.833-.953,2.21,1.5Zm-.459,8.263q0-2.364-1.751-2.364a1.487,1.487,0,0,0-1.249.587,3.476,3.476,0,0,0-.535,1.879H215.7Z"/><path class="cls-1" d="M227.379,113.73v12.6h-1.92l-.154-1.14a3.131,3.131,0,0,1-1.079,1.02,2.939,2.939,0,0,1-1.488.374,2.892,2.892,0,0,1-2.532-1.274,5.994,5.994,0,0,1-.885-3.468,6.434,6.434,0,0,1,.442-2.457,3.883,3.883,0,0,1,1.267-1.692,3.2,3.2,0,0,1,4.174.358v-4.556Zm-3.008,10.923a2.921,2.921,0,0,0,.833-.875v-4.115a3.155,3.155,0,0,0-.791-.713,1.777,1.777,0,0,0-.927-.239,1.555,1.555,0,0,0-1.368.774,4.36,4.36,0,0,0-.5,2.338,4.8,4.8,0,0,0,.442,2.388,1.424,1.424,0,0,0,1.292.722A1.867,1.867,0,0,0,224.371,124.653Z"/><path class="cls-1" d="M235.208,117.334a4.239,4.239,0,0,1,1.334.8l-.969,1.309a3.492,3.492,0,0,0-.884-.493,2.741,2.741,0,0,0-.935-.153q-2.022,0-2.023,3.076a3.758,3.758,0,0,0,.527,2.253,1.774,1.774,0,0,0,1.5.688,2.418,2.418,0,0,0,.875-.152,5.744,5.744,0,0,0,.944-.494l.969,1.377a4.477,4.477,0,0,1-2.907,1.037,4.3,4.3,0,0,1-2.244-.569,3.734,3.734,0,0,1-1.462-1.623,5.643,5.643,0,0,1-.51-2.482,5.923,5.923,0,0,1,.51-2.525,3.905,3.905,0,0,1,1.462-1.7,4.075,4.075,0,0,1,2.228-.6A4.651,4.651,0,0,1,235.208,117.334Zm.621-4.607.833.953-2.364,2.125h-1.36l-2.362-2.125.833-.953,2.21,1.5Z"/><path class="cls-1" d="M245.111,122.5h-5.645a2.862,2.862,0,0,0,.68,1.87,2.105,2.105,0,0,0,1.53.561,3.182,3.182,0,0,0,1.122-.2,5.187,5.187,0,0,0,1.122-.6l.9,1.24a5.173,5.173,0,0,1-3.332,1.207,4.012,4.012,0,0,1-3.171-1.257,5,5,0,0,1-1.113-3.434,6.161,6.161,0,0,1,.475-2.474,3.936,3.936,0,0,1,1.377-1.717,4.1,4.1,0,0,1,5.067.578,4.944,4.944,0,0,1,1.037,3.341C245.162,121.732,245.144,122.027,245.111,122.5ZM243,120.99q0-2.364-1.751-2.364a1.489,1.489,0,0,0-1.25.587,3.511,3.511,0,0,0-.535,1.879H243Z"/><path class="cls-1" d="M253.789,117.8a2.844,2.844,0,0,1,.671,2.014v6.512h-2.175v-6.171a1.719,1.719,0,0,0-.282-1.122,1.028,1.028,0,0,0-.824-.324,1.617,1.617,0,0,0-1.012.349,4,4,0,0,0-.875,1.012v6.256h-2.175v-8.994H249l.17,1.174a3.345,3.345,0,0,1,2.738-1.429A2.441,2.441,0,0,1,253.789,117.8Z"/><path class="cls-1" d="M259.373,112.388l.884,1.7-3.842,1.531-.612-1.1Zm-.2,4.946v8.994h-2.175v-8.994Z"/><path d="M53.613,171.216v1.836l-5.742,8.658h5.8l-.252,1.944H45.1v-1.818l5.85-8.73H45.693v-1.89Zm-1.656-4.266.882,1.008-2.5,2.16H48.9l-2.5-2.16.882-1.008,2.34,1.494Z"/><path d="M63.063,179.6H57.087a3.023,3.023,0,0,0,.72,1.98,2.227,2.227,0,0,0,1.62.594,3.388,3.388,0,0,0,1.188-.207,5.545,5.545,0,0,0,1.188-.639l.954,1.314a5.481,5.481,0,0,1-3.528,1.278,4.247,4.247,0,0,1-3.357-1.332,5.293,5.293,0,0,1-1.179-3.637,6.513,6.513,0,0,1,.5-2.618,4.156,4.156,0,0,1,1.458-1.818,4.342,4.342,0,0,1,5.364.612,5.233,5.233,0,0,1,1.1,3.537Q63.117,178.848,63.063,179.6ZM60.831,178q0-2.5-1.854-2.5a1.575,1.575,0,0,0-1.323.621,3.7,3.7,0,0,0-.567,1.989h3.744Z"/><path d="M72.252,174.627a3.013,3.013,0,0,1,.711,2.133v6.894h-2.3V177.12a1.828,1.828,0,0,0-.3-1.188,1.094,1.094,0,0,0-.873-.342,1.7,1.7,0,0,0-1.071.369,4.21,4.21,0,0,0-.927,1.071v6.624h-2.3v-9.522h2l.18,1.242a3.539,3.539,0,0,1,2.9-1.512A2.581,2.581,0,0,1,72.252,174.627Z"/><path d="M80.145,183.69a5.835,5.835,0,0,1-1.746,2.744,5.543,5.543,0,0,1-3.2,1.144l-.234-1.674a5.772,5.772,0,0,0,1.5-.405,2.43,2.43,0,0,0,.909-.693,4.652,4.652,0,0,0,.63-1.152h-.792l-3.024-9.522h2.448l2.07,7.992,2.16-7.992h2.376Z"/><path d="M57.933,276.936H55.611l-.324-5.2q-.162-2.79-.162-4.428v-.647l-2.268,8.927h-2.25L48.2,266.64q.036,1.188.036,1.8,0,1.64-.108,3.366l-.306,5.13h-2.3L46.5,264.5h3.06l2.214,8.712,2.088-8.712h3.1Z"/><path d="M67.761,276.936h-2l-.126-1.332A3.521,3.521,0,0,1,64.4,276.81a3.405,3.405,0,0,1-1.683.4,2.493,2.493,0,0,1-1.971-.783,3.16,3.16,0,0,1-.693-2.169v-6.84h2.3v6.552a1.848,1.848,0,0,0,.279,1.153,1.087,1.087,0,0,0,.891.341,2.326,2.326,0,0,0,1.926-1.35v-6.7h2.3Z"/><path d="M76.725,267.414v1.656l-4.608,6.066h4.7l-.234,1.8h-7.11v-1.655l4.626-6.067h-4.23v-1.8Zm-1.17-4.877.882,1.007-2.5,2.25H72.5l-2.5-2.25.882-1.007,2.34,1.584Z"/><path d="M80.8,263a1.354,1.354,0,0,1,.4,1,1.327,1.327,0,0,1-.4.989,1.442,1.442,0,0,1-1.053.4,1.419,1.419,0,0,1-1.035-.4,1.327,1.327,0,0,1-.405-.989,1.354,1.354,0,0,1,.405-1,1.4,1.4,0,0,1,1.035-.406A1.421,1.421,0,0,1,80.8,263Zm.117,4.418v9.522h-2.3v-9.522Z"/><path class="cls-7" d="M534.537,114.58v1.734l-5.424,8.177h5.474l-.237,1.836H526.5V124.61l5.525-8.245h-4.964V114.58Z"/><path class="cls-7" d="M542.943,117.8a2.844,2.844,0,0,1,.672,2.014v6.511h-2.176v-6.171a1.725,1.725,0,0,0-.281-1.122,1.034,1.034,0,0,0-.824-.323,1.622,1.622,0,0,0-1.012.348,3.99,3.99,0,0,0-.875,1.012v6.256h-2.176v-8.993h1.887l.17,1.173a3.341,3.341,0,0,1,2.737-1.428A2.434,2.434,0,0,1,542.943,117.8Z"/><path class="cls-7" d="M553.475,122.5h-5.644a2.851,2.851,0,0,0,.679,1.87,2.106,2.106,0,0,0,1.531.561,3.213,3.213,0,0,0,1.122-.2,5.257,5.257,0,0,0,1.121-.6l.9,1.241a5.178,5.178,0,0,1-3.332,1.207,4.01,4.01,0,0,1-3.171-1.258,5,5,0,0,1-1.114-3.434,6.161,6.161,0,0,1,.476-2.474,3.921,3.921,0,0,1,1.377-1.716,4.1,4.1,0,0,1,5.066.578,4.938,4.938,0,0,1,1.037,3.34Q553.525,121.788,553.475,122.5Zm-2.109-1.513q0-2.363-1.751-2.363a1.487,1.487,0,0,0-1.249.587,3.48,3.48,0,0,0-.535,1.878h3.535Z"/><path class="cls-7" d="M562.654,118.32a6.314,6.314,0,0,1,.816,3.485,6.836,6.836,0,0,1-.416,2.474,3.765,3.765,0,0,1-1.224,1.691,3.076,3.076,0,0,1-1.913.612,2.806,2.806,0,0,1-2.261-.986v4.2l-2.176.238v-12.7h1.9l.119,1.1a3.541,3.541,0,0,1,1.207-1.02,3.152,3.152,0,0,1,1.428-.34A2.8,2.8,0,0,1,562.654,118.32Zm-1.462,3.5a4.978,4.978,0,0,0-.424-2.38,1.385,1.385,0,0,0-1.276-.731,1.759,1.759,0,0,0-1.02.331,2.915,2.915,0,0,0-.816.893v4.046a1.913,1.913,0,0,0,1.649.935Q561.192,124.916,561.192,121.822Z"/><path class="cls-7" d="M572.387,118.346a5.084,5.084,0,0,1,1.113,3.476,5.762,5.762,0,0,1-.51,2.49,3.866,3.866,0,0,1-1.462,1.675,4.173,4.173,0,0,1-2.261.595,3.939,3.939,0,0,1-3.111-1.267,5.081,5.081,0,0,1-1.122-3.493,5.71,5.71,0,0,1,.51-2.482,3.868,3.868,0,0,1,1.471-1.666,4.218,4.218,0,0,1,2.269-.6A3.913,3.913,0,0,1,572.387,118.346Zm-5.058,3.476a4.468,4.468,0,0,0,.485,2.355,1.769,1.769,0,0,0,2.907-.009,4.474,4.474,0,0,0,.484-2.346,4.423,4.423,0,0,0-.484-2.337,1.6,1.6,0,0,0-1.437-.757Q567.33,118.728,567.329,121.822Z"/><path class="cls-7" d="M577.716,113.492v12.835h-2.175v-12.6Zm5.389,3.842-2.992,3.961,3.282,5.032h-2.5l-3.095-4.913,3.01-4.08Z"/><path class="cls-7" d="M591.206,118.346a5.084,5.084,0,0,1,1.113,3.476,5.777,5.777,0,0,1-.509,2.49,3.872,3.872,0,0,1-1.462,1.675,4.179,4.179,0,0,1-2.262.595,3.938,3.938,0,0,1-3.11-1.267,5.081,5.081,0,0,1-1.122-3.493,5.7,5.7,0,0,1,.51-2.482,3.866,3.866,0,0,1,1.47-1.666,4.219,4.219,0,0,1,2.27-.6A3.911,3.911,0,0,1,591.206,118.346Zm-5.058,3.476a4.468,4.468,0,0,0,.485,2.355,1.769,1.769,0,0,0,2.907-.009,4.474,4.474,0,0,0,.484-2.346,4.423,4.423,0,0,0-.484-2.337,1.6,1.6,0,0,0-1.436-.757Q586.148,118.728,586.148,121.822Z"/><path class="cls-7" d="M596.519,125.528a5.27,5.27,0,0,1-.383,2.168,3.364,3.364,0,0,1-1.079,1.351,8.651,8.651,0,0,1-1.819.969l-.7-1.581a5.16,5.16,0,0,0,1.037-.6,1.846,1.846,0,0,0,.569-.807,3.889,3.889,0,0,0,.2-1.36v-8.33h2.176Zm-.111-12.367a1.28,1.28,0,0,1,.383.943,1.254,1.254,0,0,1-.383.935,1.362,1.362,0,0,1-.994.374,1.338,1.338,0,0,1-.977-.374,1.25,1.25,0,0,1-.383-.935,1.276,1.276,0,0,1,.383-.943,1.321,1.321,0,0,1,.977-.383A1.345,1.345,0,0,1,596.408,113.161Z"/><path class="cls-7" d="M606.463,122.5h-5.644a2.856,2.856,0,0,0,.68,1.87,2.1,2.1,0,0,0,1.53.561,3.2,3.2,0,0,0,1.122-.2,5.286,5.286,0,0,0,1.122-.6l.9,1.241a5.174,5.174,0,0,1-3.332,1.207,4.009,4.009,0,0,1-3.17-1.258,5,5,0,0,1-1.114-3.434,6.161,6.161,0,0,1,.476-2.474,3.921,3.921,0,0,1,1.377-1.716,4.1,4.1,0,0,1,5.066.578,4.943,4.943,0,0,1,1.037,3.34Q606.514,121.788,606.463,122.5Zm-2.108-1.513q0-2.363-1.751-2.363a1.486,1.486,0,0,0-1.249.587,3.488,3.488,0,0,0-.536,1.878h3.536Z"/><path class="cls-7" d="M615.142,117.8a2.849,2.849,0,0,1,.671,2.014v6.511h-2.176v-6.171a1.725,1.725,0,0,0-.281-1.122,1.032,1.032,0,0,0-.824-.323,1.617,1.617,0,0,0-1.011.348,3.973,3.973,0,0,0-.876,1.012v6.256h-2.176v-8.993h1.887l.17,1.173a3.343,3.343,0,0,1,2.737-1.428A2.44,2.44,0,0,1,615.142,117.8Z"/><path class="cls-7" d="M620.727,112.387l.883,1.7-3.841,1.53-.613-1.105Zm-.2,4.947v8.993h-2.176v-8.993Z"/><path class="cls-8" d="M754.009,126.327H751.1l-4.029-9.5q.153,1.258.23,2.278t.076,2.431v4.794h-2.04V114.58h2.839l4.1,9.52q-.1-.679-.2-1.793t-.1-2.219V114.58h2.04Z"/><path class="cls-8" d="M764.021,122.5h-5.643a2.846,2.846,0,0,0,.68,1.87,2.1,2.1,0,0,0,1.53.561,3.213,3.213,0,0,0,1.122-.2,5.286,5.286,0,0,0,1.122-.6l.9,1.241a5.172,5.172,0,0,1-3.332,1.207,4.01,4.01,0,0,1-3.17-1.258,5,5,0,0,1-1.113-3.434,6.144,6.144,0,0,1,.476-2.474,3.914,3.914,0,0,1,1.377-1.716,4.1,4.1,0,0,1,5.066.578,4.943,4.943,0,0,1,1.036,3.34C764.072,121.731,764.056,122.026,764.021,122.5Zm-2.107-1.513q0-2.363-1.751-2.363a1.489,1.489,0,0,0-1.25.587,3.5,3.5,0,0,0-.535,1.878h3.536Z"/><path class="cls-8" d="M768.187,125.528a5.272,5.272,0,0,1-.382,2.168,3.374,3.374,0,0,1-1.08,1.351,8.662,8.662,0,0,1-1.82.969l-.7-1.581a5.189,5.189,0,0,0,1.037-.6,1.846,1.846,0,0,0,.569-.807,3.889,3.889,0,0,0,.2-1.36v-8.33h2.176Zm-.111-12.367a1.28,1.28,0,0,1,.383.943,1.254,1.254,0,0,1-.383.935,1.362,1.362,0,0,1-.994.374,1.338,1.338,0,0,1-.977-.374,1.254,1.254,0,0,1-.383-.935,1.28,1.28,0,0,1,.383-.943,1.321,1.321,0,0,1,.977-.383A1.345,1.345,0,0,1,768.076,113.161Z"/><path class="cls-8" d="M772.87,113.161a1.276,1.276,0,0,1,.383.943,1.25,1.25,0,0,1-.383.935,1.362,1.362,0,0,1-.994.374,1.344,1.344,0,0,1-.978-.374,1.257,1.257,0,0,1-.382-.935,1.283,1.283,0,0,1,.382-.943,1.326,1.326,0,0,1,.978-.383A1.345,1.345,0,0,1,772.87,113.161Zm.111,4.173v8.993h-2.176v-8.993Z"/><path class="cls-8" d="M781.634,118.15l-.85,1.275a4.225,4.225,0,0,0-2.261-.731,1.746,1.746,0,0,0-1,.246.76.76,0,0,0-.358.655.826.826,0,0,0,.153.51,1.4,1.4,0,0,0,.552.383,9.385,9.385,0,0,0,1.182.4,5.208,5.208,0,0,1,2.168,1.037,2.321,2.321,0,0,1,.705,1.8,2.417,2.417,0,0,1-1.088,2.1,4.632,4.632,0,0,1-2.7.756,5.714,5.714,0,0,1-2.015-.34,4.873,4.873,0,0,1-1.572-.935l1.088-1.224a4.015,4.015,0,0,0,2.448.884,2.068,2.068,0,0,0,1.164-.289.911.911,0,0,0,.434-.8,1.065,1.065,0,0,0-.161-.62,1.334,1.334,0,0,0-.579-.409,12.033,12.033,0,0,0-1.3-.433,4.34,4.34,0,0,1-2.023-1.046,2.32,2.32,0,0,1-.646-1.674,2.226,2.226,0,0,1,.433-1.343,2.88,2.88,0,0,1,1.225-.935,4.533,4.533,0,0,1,1.81-.34A5.06,5.06,0,0,1,781.634,118.15Z"/><path class="cls-8" d="M788.842,125.9a3.473,3.473,0,0,1-1.063.51,4.287,4.287,0,0,1-1.2.17,2.668,2.668,0,0,1-2.015-.756,3.1,3.1,0,0,1-.688-2.185V118.9h-1.411v-1.564h1.411v-1.989l2.176-.255v2.244h2.091l-.221,1.564h-1.87v4.692a1.544,1.544,0,0,0,.229.952.868.868,0,0,0,.723.289,2.217,2.217,0,0,0,1.071-.323Z"/><path class="cls-8" d="M792.446,112.387l.884,1.7-3.842,1.53-.612-1.105Zm-.2,4.947v8.993h-2.177v-8.993Z"/><path class="cls-9" d="M892.359,114.682a5.5,5.5,0,0,1,1.717,1.088l-1.105,1.275a4.4,4.4,0,0,0-1.266-.765,3.878,3.878,0,0,0-1.369-.238,2.186,2.186,0,0,0-1.318.366,1.2,1.2,0,0,0-.5,1.028,1.277,1.277,0,0,0,.195.731,1.811,1.811,0,0,0,.705.544,10.369,10.369,0,0,0,1.514.561,6.88,6.88,0,0,1,2.61,1.351,3.05,3.05,0,0,1,.875,2.355,3.323,3.323,0,0,1-.536,1.87,3.547,3.547,0,0,1-1.538,1.275,5.681,5.681,0,0,1-2.38.459,6.323,6.323,0,0,1-2.406-.434,5.593,5.593,0,0,1-1.827-1.181l1.156-1.292a5.238,5.238,0,0,0,1.411.876,4.253,4.253,0,0,0,1.615.3,2.492,2.492,0,0,0,1.564-.459,1.537,1.537,0,0,0,.6-1.292,1.587,1.587,0,0,0-.2-.841,1.758,1.758,0,0,0-.7-.595,8.458,8.458,0,0,0-1.427-.553,6.693,6.693,0,0,1-2.7-1.394,2.865,2.865,0,0,1-.833-2.142,2.9,2.9,0,0,1,.51-1.7,3.362,3.362,0,0,1,1.419-1.139,5,5,0,0,1,2.066-.408A5.945,5.945,0,0,1,892.359,114.682Z"/><path class="cls-9" d="M898.445,113.492v12.835h-2.177v-12.6Zm5.389,3.842-2.993,3.961,3.282,5.032h-2.5l-3.094-4.913,3.009-4.08Z"/><path class="cls-9" d="M912.487,122.5h-5.644a2.851,2.851,0,0,0,.68,1.87,2.1,2.1,0,0,0,1.53.561,3.2,3.2,0,0,0,1.122-.2,5.286,5.286,0,0,0,1.122-.6l.9,1.241a5.174,5.174,0,0,1-3.332,1.207,4.009,4.009,0,0,1-3.17-1.258,5,5,0,0,1-1.113-3.434,6.161,6.161,0,0,1,.475-2.474,3.921,3.921,0,0,1,1.377-1.716,4.1,4.1,0,0,1,5.066.578,4.943,4.943,0,0,1,1.037,3.34Q912.538,121.788,912.487,122.5Zm-2.108-1.513q0-2.363-1.751-2.363a1.489,1.489,0,0,0-1.25.587,3.507,3.507,0,0,0-.535,1.878h3.536Z"/><path class="cls-9" d="M921.667,118.32a6.314,6.314,0,0,1,.816,3.485,6.858,6.858,0,0,1-.416,2.474,3.767,3.767,0,0,1-1.225,1.691,3.073,3.073,0,0,1-1.912.612,2.806,2.806,0,0,1-2.261-.986v4.2l-2.176.238v-12.7h1.9l.119,1.1a3.541,3.541,0,0,1,1.207-1.02,3.146,3.146,0,0,1,1.428-.34A2.8,2.8,0,0,1,921.667,118.32Zm-1.461,3.5a4.974,4.974,0,0,0-.426-2.38,1.383,1.383,0,0,0-1.275-.731,1.757,1.757,0,0,0-1.02.331,2.9,2.9,0,0,0-.816.893v4.046a1.91,1.91,0,0,0,1.649.935Q920.205,124.916,920.206,121.822Z"/><path class="cls-9" d="M929.776,125.9a3.462,3.462,0,0,1-1.063.51,4.287,4.287,0,0,1-1.2.17,2.664,2.664,0,0,1-2.014-.756,3.1,3.1,0,0,1-.689-2.185V118.9H923.4v-1.564h1.411v-1.989l2.176-.255v2.244h2.091l-.221,1.564h-1.87v4.692a1.544,1.544,0,0,0,.229.952.868.868,0,0,0,.723.289,2.214,2.214,0,0,0,1.071-.323Z"/><path class="cls-9" d="M933.065,113.161a1.276,1.276,0,0,1,.383.943,1.25,1.25,0,0,1-.383.935,1.362,1.362,0,0,1-.994.374,1.342,1.342,0,0,1-.978-.374,1.254,1.254,0,0,1-.383-.935,1.28,1.28,0,0,1,.383-.943,1.325,1.325,0,0,1,.978-.383A1.345,1.345,0,0,1,933.065,113.161Zm.111,4.173v8.993H931v-8.993Z"/><path class="cls-9" d="M941,117.334a4.236,4.236,0,0,1,1.334.8l-.968,1.309a3.492,3.492,0,0,0-.884-.493,2.741,2.741,0,0,0-.935-.153q-2.024,0-2.023,3.077a3.754,3.754,0,0,0,.527,2.252,1.773,1.773,0,0,0,1.5.689,2.426,2.426,0,0,0,.875-.153,5.652,5.652,0,0,0,.944-.493l.968,1.377a4.477,4.477,0,0,1-2.906,1.037,4.3,4.3,0,0,1-2.244-.569,3.737,3.737,0,0,1-1.462-1.624,5.643,5.643,0,0,1-.51-2.482,5.922,5.922,0,0,1,.51-2.524,3.905,3.905,0,0,1,1.462-1.7,4.066,4.066,0,0,1,2.227-.6A4.651,4.651,0,0,1,941,117.334Zm.621-4.607.833.952L940.1,115.8h-1.36l-2.363-2.125.833-.952,2.21,1.5Z"/><path class="cls-9" d="M949.071,125.9a3.473,3.473,0,0,1-1.063.51,4.287,4.287,0,0,1-1.2.17,2.668,2.668,0,0,1-2.015-.756,3.1,3.1,0,0,1-.688-2.185V118.9H942.7v-1.564h1.411v-1.989l2.176-.255v2.244h2.091l-.221,1.564h-1.87v4.692a1.544,1.544,0,0,0,.229.952.868.868,0,0,0,.723.289,2.217,2.217,0,0,0,1.071-.323Z"/><path class="cls-9" d="M952.675,112.387l.884,1.7-3.842,1.53-.612-1.105Zm-.2,4.947v8.993h-2.177v-8.993Z"/><path class="cls-5" d="M1001.153,114.58v11.747h-2.244V114.58Zm6.6,0-4.063,5.321,4.386,6.426H1005.4l-4.149-6.273,4.064-5.474Z"/><path class="cls-5" d="M1014.6,117.215l-.374,2.108a3.293,3.293,0,0,0-.8-.1,1.532,1.532,0,0,0-1.258.569,4.394,4.394,0,0,0-.73,1.743v4.794h-2.177v-8.993h1.888l.2,1.768a3.218,3.218,0,0,1,.935-1.487,2.117,2.117,0,0,1,1.411-.519A3.226,3.226,0,0,1,1014.6,117.215Z"/><path class="cls-5" d="M1018.025,113.161a1.276,1.276,0,0,1,.383.943,1.25,1.25,0,0,1-.383.935,1.362,1.362,0,0,1-.994.374,1.342,1.342,0,0,1-.978-.374,1.254,1.254,0,0,1-.383-.935,1.28,1.28,0,0,1,.383-.943,1.325,1.325,0,0,1,.978-.383A1.345,1.345,0,0,1,1018.025,113.161Zm.111,4.173v8.993h-2.177v-8.993Z"/><path class="cls-5" d="M1025.905,125.9a3.473,3.473,0,0,1-1.063.51,4.287,4.287,0,0,1-1.2.17,2.668,2.668,0,0,1-2.015-.756,3.1,3.1,0,0,1-.688-2.185V118.9h-1.411v-1.564h1.411v-1.989l2.176-.255v2.244h2.091l-.221,1.564h-1.87v4.692a1.544,1.544,0,0,0,.229.952.868.868,0,0,0,.723.289,2.217,2.217,0,0,0,1.071-.323Z"/><path class="cls-5" d="M1029.194,113.161a1.276,1.276,0,0,1,.383.943,1.25,1.25,0,0,1-.383.935,1.362,1.362,0,0,1-.994.374,1.342,1.342,0,0,1-.978-.374,1.254,1.254,0,0,1-.383-.935,1.28,1.28,0,0,1,.383-.943,1.325,1.325,0,0,1,.978-.383A1.345,1.345,0,0,1,1029.194,113.161Zm.111,4.173v8.993h-2.177v-8.993Z"/><path class="cls-5" d="M1037.133,117.334a4.236,4.236,0,0,1,1.334.8l-.968,1.309a3.492,3.492,0,0,0-.884-.493,2.741,2.741,0,0,0-.935-.153q-2.024,0-2.023,3.077a3.754,3.754,0,0,0,.527,2.252,1.773,1.773,0,0,0,1.5.689,2.426,2.426,0,0,0,.875-.153,5.652,5.652,0,0,0,.944-.493l.968,1.377a4.477,4.477,0,0,1-2.906,1.037,4.3,4.3,0,0,1-2.244-.569,3.737,3.737,0,0,1-1.462-1.624,5.643,5.643,0,0,1-.51-2.482,5.922,5.922,0,0,1,.51-2.524,3.905,3.905,0,0,1,1.462-1.7,4.064,4.064,0,0,1,2.226-.6A4.653,4.653,0,0,1,1037.133,117.334Zm.62-4.607.833.952-2.362,2.125h-1.36l-2.363-2.125.833-.952,2.209,1.5Z"/><path class="cls-5" d="M1045.2,125.9a3.473,3.473,0,0,1-1.063.51,4.287,4.287,0,0,1-1.2.17,2.668,2.668,0,0,1-2.015-.756,3.1,3.1,0,0,1-.688-2.185V118.9h-1.411v-1.564h1.411v-1.989l2.176-.255v2.244h2.09l-.22,1.564h-1.87v4.692a1.544,1.544,0,0,0,.229.952.866.866,0,0,0,.723.289,2.217,2.217,0,0,0,1.071-.323Z"/><path class="cls-5" d="M1048.8,112.387l.884,1.7-3.842,1.53-.612-1.105Zm-.2,4.947v8.993h-2.177v-8.993Z"/><g class="cls-10"><path class="cls-11" d="M189.651,176.408v1.223h-1.292v2.805H186.9v-2.805h-4.454v-1.1l3.043-7.667,1.292.493-2.771,7.056h2.907l.153-3.095h1.292v3.095Z"/><path class="cls-11" d="M194.173,169.063v11.373H192.66v-9.774l-2.363,1.6-.7-1.02,3.23-2.177Z"/><path class="cls-11" d="M204.79,169.641a3.543,3.543,0,0,1,0,4.2,2.465,2.465,0,0,1-3.57,0,3.011,3.011,0,0,1-.689-2.091,3.064,3.064,0,0,1,.68-2.108,2.274,2.274,0,0,1,1.785-.765A2.3,2.3,0,0,1,204.79,169.641Zm-3.052,2.108q0,1.854,1.258,1.853a1.033,1.033,0,0,0,.969-.493,2.729,2.729,0,0,0,.289-1.377q0-1.852-1.258-1.853T201.738,171.749Zm7.5-3.366,1,.595-7.106,11.952-1-.6Zm1.862,7.31a3.014,3.014,0,0,1,.688,2.092,3.056,3.056,0,0,1-.68,2.107,2.274,2.274,0,0,1-1.785.766,2.328,2.328,0,0,1-1.8-.766,3.51,3.51,0,0,1,0-4.2,2.327,2.327,0,0,1,1.8-.764A2.281,2.281,0,0,1,211.1,175.693Zm-3.052,2.109q0,1.853,1.275,1.852a1.015,1.015,0,0,0,.961-.492,2.807,2.807,0,0,0,.281-1.377q0-1.854-1.242-1.853Q208.045,175.932,208.045,177.8Z"/></g><g class="cls-10"><path class="cls-1" d="M509.3,169.275a2.73,2.73,0,0,1,1.079,1.089,3.207,3.207,0,0,1,.374,1.555,4.908,4.908,0,0,1-.4,1.963,9.825,9.825,0,0,1-1.284,2.066q-.884,1.138-2.72,3.23h4.658l-.187,1.258h-6.153v-1.19q1.971-2.279,2.881-3.451a9.647,9.647,0,0,0,1.266-2.014A4.506,4.506,0,0,0,509.17,172a1.994,1.994,0,0,0-.45-1.394,1.567,1.567,0,0,0-1.216-.493,2.12,2.12,0,0,0-1.122.289,4.032,4.032,0,0,0-.986.918l-.952-.731a3.772,3.772,0,0,1,3.18-1.717A3.344,3.344,0,0,1,509.3,169.275Z"/><path class="cls-1" d="M518.2,170.253h-3.978v3.4a3.216,3.216,0,0,1,1.666-.476,2.622,2.622,0,0,1,2.109.952,3.981,3.981,0,0,1,.8,2.635,4.4,4.4,0,0,1-.45,2.023,3.342,3.342,0,0,1-1.267,1.377,3.608,3.608,0,0,1-1.9.493,3.738,3.738,0,0,1-1.708-.374,4.879,4.879,0,0,1-1.4-1.1l.9-.816a3.776,3.776,0,0,0,1,.79,2.5,2.5,0,0,0,1.173.264,1.838,1.838,0,0,0,1.53-.689,3.131,3.131,0,0,0,.544-1.98q0-2.432-1.835-2.431a2.407,2.407,0,0,0-.749.111,4.363,4.363,0,0,0-.765.348h-1.105v-5.712H518.4Z"/><path class="cls-1" d="M528.456,169.641a3.543,3.543,0,0,1,0,4.2,2.465,2.465,0,0,1-3.57,0,3.011,3.011,0,0,1-.688-2.091,3.059,3.059,0,0,1,.68-2.108,2.273,2.273,0,0,1,1.785-.765A2.3,2.3,0,0,1,528.456,169.641Zm-3.051,2.108q0,1.853,1.258,1.853a1.033,1.033,0,0,0,.969-.493,2.745,2.745,0,0,0,.289-1.377q0-1.852-1.258-1.853T525.405,171.749Zm7.5-3.366,1,.595L526.8,180.929l-1-.595Zm1.861,7.31a3.011,3.011,0,0,1,.689,2.091,3.062,3.062,0,0,1-.68,2.108,2.276,2.276,0,0,1-1.785.765,2.325,2.325,0,0,1-1.8-.765,3.511,3.511,0,0,1,0-4.2,2.325,2.325,0,0,1,1.8-.765A2.28,2.28,0,0,1,534.763,175.693Zm-3.051,2.108q0,1.854,1.275,1.853a1.012,1.012,0,0,0,.96-.493,2.807,2.807,0,0,0,.281-1.377q0-1.852-1.241-1.853Q531.712,175.931,531.712,177.8Z"/></g><g class="cls-10"><path class="cls-12" d="M745.72,169.063v11.373h-1.512v-9.774l-2.364,1.6-.7-1.02,3.23-2.177Z"/><path class="cls-12" d="M753.736,173.365a2.769,2.769,0,0,1,1.011,1.223,4.747,4.747,0,0,1,.374,1.99,5.3,5.3,0,0,1-.416,2.184,3.19,3.19,0,0,1-1.164,1.411,3.092,3.092,0,0,1-1.718.485,2.894,2.894,0,0,1-2.677-1.437,7.817,7.817,0,0,1-.859-4,10.564,10.564,0,0,1,.485-3.383,4.784,4.784,0,0,1,1.394-2.193,3.21,3.21,0,0,1,2.133-.765,3.391,3.391,0,0,1,2.108.7l-.6.968a2.633,2.633,0,0,0-1.478-.476,1.97,1.97,0,0,0-1.76,1.157,7.131,7.131,0,0,0-.74,3.195,2.889,2.889,0,0,1,2.482-1.462A2.573,2.573,0,0,1,753.736,173.365Zm-.6,5.363a4.091,4.091,0,0,0,.451-2.117,3.282,3.282,0,0,0-.433-1.9,1.387,1.387,0,0,0-1.182-.595,1.906,1.906,0,0,0-1.182.425,3.68,3.68,0,0,0-.96,1.173,6.8,6.8,0,0,0,.5,2.856,1.55,1.55,0,0,0,1.471.9A1.464,1.464,0,0,0,753.14,178.728Z"/><path class="cls-12" d="M764.768,169.641a3.543,3.543,0,0,1,0,4.2,2.464,2.464,0,0,1-3.569,0,3.011,3.011,0,0,1-.689-2.091,3.064,3.064,0,0,1,.68-2.108,2.273,2.273,0,0,1,1.785-.765A2.3,2.3,0,0,1,764.768,169.641Zm-3.051,2.108q0,1.854,1.258,1.853a1.033,1.033,0,0,0,.969-.493,2.74,2.74,0,0,0,.289-1.377q0-1.852-1.258-1.853T761.717,171.749Zm7.5-3.366,1,.595-7.106,11.952-1-.6Zm1.863,7.31a3.014,3.014,0,0,1,.688,2.092,3.061,3.061,0,0,1-.68,2.107,2.276,2.276,0,0,1-1.786.766,2.325,2.325,0,0,1-1.8-.766,3.51,3.51,0,0,1,0-4.2,2.323,2.323,0,0,1,1.8-.764A2.282,2.282,0,0,1,771.076,175.693Zm-3.052,2.109q0,1.853,1.274,1.852a1.013,1.013,0,0,0,.961-.492,2.8,2.8,0,0,0,.281-1.377q0-1.854-1.242-1.853Q768.025,175.932,768.024,177.8Z"/></g><g class="cls-10"><path class="cls-5" d="M893.975,169.063v11.373h-1.513v-9.774l-2.363,1.6-.7-1.02,3.231-2.177Z"/><path class="cls-5" d="M900.724,169.259A2.708,2.708,0,0,1,901.8,170.3a2.845,2.845,0,0,1,.373,1.436,2.654,2.654,0,0,1-.561,1.76,2.825,2.825,0,0,1-1.6.909,2.569,2.569,0,0,1,2.481,2.8,3.549,3.549,0,0,1-.433,1.751,3.193,3.193,0,0,1-1.241,1.242,3.75,3.75,0,0,1-1.879.459,3.914,3.914,0,0,1-1.759-.383,4.348,4.348,0,0,1-1.419-1.165l.918-.781a3.733,3.733,0,0,0,1.045.841,2.528,2.528,0,0,0,1.165.263,1.918,1.918,0,0,0,1.487-.6,2.364,2.364,0,0,0,.553-1.658,2.1,2.1,0,0,0-.553-1.623,2.287,2.287,0,0,0-1.59-.5h-.714l.188-1.138h.475a1.948,1.948,0,0,0,1.4-.528,1.991,1.991,0,0,0,.552-1.512,1.817,1.817,0,0,0-.467-1.327,1.72,1.72,0,0,0-1.284-.476,2.519,2.519,0,0,0-1.1.239,3.7,3.7,0,0,0-1.012.748l-.8-.817a4.159,4.159,0,0,1,3.061-1.36A3.342,3.342,0,0,1,900.724,169.259Z"/><path class="cls-5" d="M912.258,169.641a3.547,3.547,0,0,1,0,4.2,2.465,2.465,0,0,1-3.57,0,3.016,3.016,0,0,1-.688-2.091,3.064,3.064,0,0,1,.68-2.108,2.273,2.273,0,0,1,1.785-.765A2.3,2.3,0,0,1,912.258,169.641Zm-3.051,2.108q0,1.854,1.258,1.853a1.034,1.034,0,0,0,.969-.493,2.74,2.74,0,0,0,.289-1.377q0-1.852-1.258-1.853T909.207,171.749Zm7.5-3.366,1,.595L910.6,180.93l-1-.6Zm1.862,7.31a3.014,3.014,0,0,1,.689,2.092,3.061,3.061,0,0,1-.681,2.107,2.274,2.274,0,0,1-1.785.766,2.328,2.328,0,0,1-1.8-.766,3.515,3.515,0,0,1,0-4.2,2.327,2.327,0,0,1,1.8-.764A2.28,2.28,0,0,1,918.565,175.693Zm-3.051,2.109q0,1.853,1.274,1.852a1.013,1.013,0,0,0,.961-.492,2.8,2.8,0,0,0,.28-1.377q0-1.854-1.241-1.853Q915.513,175.932,915.514,177.8Z"/></g><g class="cls-10"><path class="cls-11" d="M1022.828,173.365a2.774,2.774,0,0,1,1.01,1.223,4.747,4.747,0,0,1,.374,1.99,5.286,5.286,0,0,1-.416,2.184,3.183,3.183,0,0,1-1.164,1.411,3.089,3.089,0,0,1-1.717.485,2.894,2.894,0,0,1-2.677-1.437,7.817,7.817,0,0,1-.86-4,10.562,10.562,0,0,1,.486-3.383,4.79,4.79,0,0,1,1.393-2.193,3.214,3.214,0,0,1,2.134-.765,3.391,3.391,0,0,1,2.108.7l-.6.968a2.634,2.634,0,0,0-1.479-.476,1.97,1.97,0,0,0-1.759,1.157,7.131,7.131,0,0,0-.74,3.195,2.889,2.889,0,0,1,2.482-1.462A2.573,2.573,0,0,1,1022.828,173.365Zm-.6,5.363a4.091,4.091,0,0,0,.451-2.117,3.282,3.282,0,0,0-.433-1.9,1.388,1.388,0,0,0-1.182-.595,1.9,1.9,0,0,0-1.182.425,3.68,3.68,0,0,0-.96,1.173,6.8,6.8,0,0,0,.5,2.856,1.55,1.55,0,0,0,1.471.9A1.464,1.464,0,0,0,1022.232,178.728Z"/><path class="cls-11" d="M1033.86,169.641a3.547,3.547,0,0,1,0,4.2,2.464,2.464,0,0,1-3.569,0,3.011,3.011,0,0,1-.689-2.091,3.064,3.064,0,0,1,.68-2.108,2.273,2.273,0,0,1,1.785-.765A2.3,2.3,0,0,1,1033.86,169.641Zm-3.051,2.108q0,1.854,1.258,1.853a1.034,1.034,0,0,0,.969-.493,2.74,2.74,0,0,0,.289-1.377q0-1.852-1.258-1.853T1030.809,171.749Zm7.5-3.366,1,.595L1032.2,180.93l-1-.6Zm1.862,7.31a3.014,3.014,0,0,1,.689,2.092,3.061,3.061,0,0,1-.681,2.107,2.274,2.274,0,0,1-1.785.766,2.328,2.328,0,0,1-1.8-.766,3.515,3.515,0,0,1,0-4.2,2.327,2.327,0,0,1,1.8-.764A2.278,2.278,0,0,1,1040.167,175.693Zm-3.051,2.109q0,1.853,1.274,1.852a1.013,1.013,0,0,0,.961-.492,2.8,2.8,0,0,0,.28-1.377q0-1.854-1.241-1.853Q1037.116,175.932,1037.116,177.8Z"/></g><g class="cls-10"><path class="cls-11" d="M186.991,262.853a2.734,2.734,0,0,1,1.079,1.088,3.207,3.207,0,0,1,.374,1.555,4.9,4.9,0,0,1-.4,1.963,9.829,9.829,0,0,1-1.284,2.067q-.883,1.139-2.72,3.229H188.7l-.187,1.258h-6.154v-1.189q1.972-2.279,2.882-3.452a9.647,9.647,0,0,0,1.266-2.014,4.506,4.506,0,0,0,.357-1.777,2,2,0,0,0-.45-1.394,1.569,1.569,0,0,0-1.216-.492,2.111,2.111,0,0,0-1.122.289,3.993,3.993,0,0,0-.986.918l-.952-.732a3.772,3.772,0,0,1,3.179-1.716A3.338,3.338,0,0,1,186.991,262.853Z"/><path class="cls-11" d="M196.655,269.2a2.928,2.928,0,0,1,.544,1.8,3.181,3.181,0,0,1-.442,1.683,2.989,2.989,0,0,1-1.266,1.14,4.278,4.278,0,0,1-1.913.408,4.174,4.174,0,0,1-1.878-.4,2.886,2.886,0,0,1-1.241-1.13,3.2,3.2,0,0,1-.434-1.666,3.125,3.125,0,0,1,2.159-3.026,3.5,3.5,0,0,1-1.326-1.122,2.717,2.717,0,0,1-.408-1.513,2.864,2.864,0,0,1,.426-1.581,2.7,2.7,0,0,1,1.147-1,3.691,3.691,0,0,1,1.589-.339,3.455,3.455,0,0,1,2.27.748,2.577,2.577,0,0,1,.91,2.107,2.533,2.533,0,0,1-.443,1.5,3.9,3.9,0,0,1-1.411,1.14A4.241,4.241,0,0,1,196.655,269.2Zm-1.529,3.323a2.407,2.407,0,0,0,.093-2.924,4.511,4.511,0,0,0-1.607-.978l-.476-.187a3.007,3.007,0,0,0-1.2,1.037,2.837,2.837,0,0,0-.383,1.53,2,2,0,0,0,.544,1.531,2.487,2.487,0,0,0,3.027-.009Zm-2.738-8.5a1.845,1.845,0,0,0-.459,1.368,1.749,1.749,0,0,0,.383,1.2,3.509,3.509,0,0,0,1.3.808l.391.17a3.232,3.232,0,0,0,1.012-.978,2.349,2.349,0,0,0,.3-1.216,1.857,1.857,0,0,0-.443-1.351,1.659,1.659,0,0,0-1.241-.45A1.7,1.7,0,0,0,192.388,264.026Z"/><path class="cls-11" d="M206.846,263.218a3.543,3.543,0,0,1,0,4.2,2.465,2.465,0,0,1-3.57,0,3.008,3.008,0,0,1-.688-2.09,3.06,3.06,0,0,1,.68-2.109,2.272,2.272,0,0,1,1.785-.764A2.3,2.3,0,0,1,206.846,263.218Zm-3.051,2.109q0,1.853,1.258,1.852a1.033,1.033,0,0,0,.969-.493,2.74,2.74,0,0,0,.289-1.377q0-1.851-1.258-1.853T203.8,265.327Zm7.5-3.367,1,.6-7.106,11.951-1-.594Zm1.861,7.31a3.014,3.014,0,0,1,.689,2.092,3.061,3.061,0,0,1-.68,2.107,2.275,2.275,0,0,1-1.785.766,2.327,2.327,0,0,1-1.8-.766,3.511,3.511,0,0,1,0-4.2,2.326,2.326,0,0,1,1.8-.765A2.28,2.28,0,0,1,213.153,269.27Zm-3.051,2.108q0,1.854,1.275,1.853a1.013,1.013,0,0,0,.96-.492,2.807,2.807,0,0,0,.281-1.377q0-1.854-1.241-1.854Q210.1,269.508,210.1,271.378Z"/></g><g class="cls-10"><path class="cls-1" d="M509.17,262.64v11.373h-1.513v-9.775l-2.363,1.6-.7-1.02,3.23-2.176Z"/><path class="cls-1" d="M517.407,263.626a5.538,5.538,0,0,1,.858,3.315,9.511,9.511,0,0,1-.612,3.7,5.266,5.266,0,0,1-1.827,2.3,11.018,11.018,0,0,1-3.222,1.454l-.34-1.122a7.58,7.58,0,0,0,3.154-1.726,4.645,4.645,0,0,0,1.249-2.983,3.247,3.247,0,0,1-1.011.961,2.623,2.623,0,0,1-2.763-.094,2.99,2.99,0,0,1-1.045-1.266,4.546,4.546,0,0,1-.383-1.93,4.367,4.367,0,0,1,.442-2.04,3.109,3.109,0,0,1,1.207-1.292,3.409,3.409,0,0,1,1.734-.442A2.969,2.969,0,0,1,517.407,263.626Zm-.706,3.638a6.42,6.42,0,0,0-.416-2.8,1.481,1.481,0,0,0-1.42-.842,1.628,1.628,0,0,0-1.377.655,3.239,3.239,0,0,0-.493,1.963,3.084,3.084,0,0,0,.459,1.835,1.471,1.471,0,0,0,1.258.629A2.363,2.363,0,0,0,516.7,267.264Z"/><path class="cls-1" d="M528.048,263.218a3.543,3.543,0,0,1,0,4.2,2.464,2.464,0,0,1-3.569,0,3.01,3.01,0,0,1-.689-2.091,3.064,3.064,0,0,1,.68-2.108,2.273,2.273,0,0,1,1.785-.765A2.3,2.3,0,0,1,528.048,263.218ZM525,265.326q0,1.854,1.258,1.853a1.033,1.033,0,0,0,.969-.493,2.734,2.734,0,0,0,.289-1.377q0-1.853-1.258-1.853T525,265.326Zm7.5-3.366,1,.6-7.106,11.951-1-.594Zm1.861,7.31a3.013,3.013,0,0,1,.689,2.091,3.064,3.064,0,0,1-.68,2.108,2.274,2.274,0,0,1-1.785.765,2.326,2.326,0,0,1-1.8-.765,3.511,3.511,0,0,1,0-4.2,2.326,2.326,0,0,1,1.8-.765A2.28,2.28,0,0,1,534.355,269.27Zm-3.051,2.108q0,1.854,1.275,1.853a1.014,1.014,0,0,0,.961-.493,2.8,2.8,0,0,0,.28-1.377q0-1.853-1.241-1.853Q531.3,269.508,531.3,271.378Z"/></g><g class="cls-10"><path class="cls-12" d="M712.647,262.853a2.734,2.734,0,0,1,1.079,1.088,3.207,3.207,0,0,1,.374,1.555,4.922,4.922,0,0,1-.4,1.963,9.871,9.871,0,0,1-1.284,2.067q-.884,1.139-2.72,3.229h4.658l-.187,1.258h-6.154v-1.189q1.972-2.279,2.881-3.452a9.658,9.658,0,0,0,1.267-2.014,4.506,4.506,0,0,0,.357-1.777,2,2,0,0,0-.45-1.394,1.569,1.569,0,0,0-1.216-.492,2.106,2.106,0,0,0-1.122.289,3.993,3.993,0,0,0-.986.918l-.952-.732a3.773,3.773,0,0,1,3.179-1.716A3.34,3.34,0,0,1,712.647,262.853Z"/><path class="cls-12" d="M720.144,262.853a2.734,2.734,0,0,1,1.079,1.088,3.207,3.207,0,0,1,.374,1.555,4.922,4.922,0,0,1-.4,1.963,9.9,9.9,0,0,1-1.283,2.067q-.885,1.139-2.721,3.229h4.658l-.186,1.258h-6.155v-1.189q1.973-2.279,2.881-3.452a9.616,9.616,0,0,0,1.267-2.014,4.506,4.506,0,0,0,.357-1.777,2,2,0,0,0-.45-1.394,1.569,1.569,0,0,0-1.216-.492,2.106,2.106,0,0,0-1.122.289,4.011,4.011,0,0,0-.986.918l-.951-.732a3.77,3.77,0,0,1,3.178-1.716A3.34,3.34,0,0,1,720.144,262.853Z"/><path class="cls-12" d="M731.5,263.218a3.547,3.547,0,0,1,0,4.2,2.465,2.465,0,0,1-3.57,0,3.008,3.008,0,0,1-.688-2.09,3.064,3.064,0,0,1,.679-2.109,2.274,2.274,0,0,1,1.786-.764A2.3,2.3,0,0,1,731.5,263.218Zm-3.051,2.109q0,1.853,1.258,1.852a1.031,1.031,0,0,0,.968-.493,2.729,2.729,0,0,0,.289-1.377q0-1.851-1.257-1.853T728.448,265.327Zm7.5-3.367,1,.6-7.107,11.951-1-.594Zm1.862,7.31a3.014,3.014,0,0,1,.689,2.092,3.061,3.061,0,0,1-.681,2.107,2.274,2.274,0,0,1-1.785.766,2.327,2.327,0,0,1-1.8-.766,3.515,3.515,0,0,1,0-4.2,2.326,2.326,0,0,1,1.8-.765A2.282,2.282,0,0,1,737.806,269.27Zm-3.052,2.108q0,1.854,1.275,1.853a1.014,1.014,0,0,0,.961-.492,2.808,2.808,0,0,0,.28-1.377q0-1.854-1.241-1.854Q734.754,269.508,734.754,271.378Z"/></g><g class="cls-10"><path class="cls-5" d="M893.975,262.64v11.373h-1.513v-9.774l-2.363,1.6-.7-1.019,3.231-2.177Z"/><path class="cls-5" d="M902.211,263.626a5.541,5.541,0,0,1,.858,3.316,9.518,9.518,0,0,1-.612,3.7,5.265,5.265,0,0,1-1.827,2.3,11.044,11.044,0,0,1-3.222,1.453l-.34-1.122a7.569,7.569,0,0,0,3.154-1.726,4.648,4.648,0,0,0,1.25-2.983,3.261,3.261,0,0,1-1.012.961,2.618,2.618,0,0,1-2.763-.094,3,3,0,0,1-1.045-1.266,4.531,4.531,0,0,1-.382-1.93,4.37,4.37,0,0,1,.442-2.04,3.1,3.1,0,0,1,1.206-1.292,3.414,3.414,0,0,1,1.734-.441A2.967,2.967,0,0,1,902.211,263.626Zm-.705,3.638a6.42,6.42,0,0,0-.417-2.8,1.48,1.48,0,0,0-1.419-.842,1.628,1.628,0,0,0-1.378.655,3.248,3.248,0,0,0-.492,1.964,3.079,3.079,0,0,0,.459,1.835,1.471,1.471,0,0,0,1.258.629A2.367,2.367,0,0,0,901.506,267.264Z"/><path class="cls-5" d="M912.853,263.218a3.547,3.547,0,0,1,0,4.2,2.465,2.465,0,0,1-3.57,0,3.008,3.008,0,0,1-.688-2.09,3.064,3.064,0,0,1,.679-2.109,2.274,2.274,0,0,1,1.786-.764A2.3,2.3,0,0,1,912.853,263.218Zm-3.051,2.109q0,1.853,1.258,1.852a1.031,1.031,0,0,0,.968-.493,2.729,2.729,0,0,0,.289-1.377q0-1.851-1.257-1.853T909.8,265.327Zm7.5-3.367,1,.6L911.2,274.506l-1-.594Zm1.862,7.31a3.014,3.014,0,0,1,.689,2.092,3.061,3.061,0,0,1-.681,2.107,2.274,2.274,0,0,1-1.785.766,2.327,2.327,0,0,1-1.8-.766,3.515,3.515,0,0,1,0-4.2,2.326,2.326,0,0,1,1.8-.765A2.282,2.282,0,0,1,919.16,269.27Zm-3.052,2.108q0,1.854,1.275,1.853a1.014,1.014,0,0,0,.961-.492,2.808,2.808,0,0,0,.28-1.377q0-1.854-1.241-1.854Q916.108,269.508,916.108,271.378Z"/></g><g class="cls-10"><path class="cls-11" d="M1015.748,262.64v11.373h-1.513v-9.774l-2.363,1.6-.7-1.019,3.231-2.177Z"/><path class="cls-11" d="M1022.505,262.853a2.734,2.734,0,0,1,1.079,1.088,3.2,3.2,0,0,1,.375,1.555,4.905,4.905,0,0,1-.4,1.963,9.862,9.862,0,0,1-1.283,2.067q-.885,1.139-2.721,3.229h4.658l-.186,1.258h-6.154v-1.189q1.971-2.279,2.88-3.452a9.574,9.574,0,0,0,1.267-2.014,4.506,4.506,0,0,0,.357-1.777,2,2,0,0,0-.45-1.394,1.569,1.569,0,0,0-1.216-.492,2.111,2.111,0,0,0-1.122.289,4.011,4.011,0,0,0-.986.918l-.951-.732a3.772,3.772,0,0,1,3.179-1.716A3.336,3.336,0,0,1,1022.505,262.853Z"/><path class="cls-11" d="M1033.861,263.218a3.547,3.547,0,0,1,0,4.2,2.464,2.464,0,0,1-3.569,0,3.009,3.009,0,0,1-.689-2.09,3.065,3.065,0,0,1,.68-2.109,2.272,2.272,0,0,1,1.785-.764A2.3,2.3,0,0,1,1033.861,263.218Zm-3.051,2.109q0,1.853,1.258,1.852a1.034,1.034,0,0,0,.969-.493,2.74,2.74,0,0,0,.289-1.377q0-1.851-1.258-1.853T1030.81,265.327Zm7.5-3.367,1,.6-7.106,11.951-1-.594Zm1.862,7.31a3.014,3.014,0,0,1,.689,2.092,3.061,3.061,0,0,1-.681,2.107,2.274,2.274,0,0,1-1.785.766,2.328,2.328,0,0,1-1.8-.766,3.515,3.515,0,0,1,0-4.2,2.327,2.327,0,0,1,1.8-.765A2.281,2.281,0,0,1,1040.168,269.27Zm-3.051,2.108q0,1.854,1.274,1.853a1.013,1.013,0,0,0,.961-.492,2.8,2.8,0,0,0,.28-1.377q0-1.854-1.241-1.854Q1037.117,269.508,1037.117,271.378Z"/></g><path class="cls-13" d="M684.1,366.387v1.078l-4.774,7.434H684.1l-.154,1.134h-6.1v-1.064l4.816-7.462h-4.312v-1.12Z"/><path class="cls-13" d="M691.459,365.687v10.346h-1.134l-.126-1.022a2.675,2.675,0,0,1-.91.875,2.535,2.535,0,0,1-3.269-.722,4.724,4.724,0,0,1-.735-2.785,5.416,5.416,0,0,1,.35-2.016,3.114,3.114,0,0,1,1.008-1.379,2.486,2.486,0,0,1,1.54-.5,2.646,2.646,0,0,1,1.988.91v-3.864Zm-2.1,9.219a3.139,3.139,0,0,0,.812-.819v-3.612a2.8,2.8,0,0,0-.777-.721,1.784,1.784,0,0,0-.931-.245,1.493,1.493,0,0,0-1.323.714,3.908,3.908,0,0,0-.469,2.128,4.115,4.115,0,0,0,.434,2.128,1.383,1.383,0,0,0,1.246.7A1.809,1.809,0,0,0,689.359,374.906Z"/><path class="cls-13" d="M698.053,368.571l-.238,1.259a2.707,2.707,0,0,0-.644-.084,1.37,1.37,0,0,0-1.106.5,3.749,3.749,0,0,0-.658,1.569v4.214h-1.288v-7.378h1.106l.126,1.5a2.8,2.8,0,0,1,.8-1.246,1.781,1.781,0,0,1,1.176-.42A3,3,0,0,1,698.053,368.571Z"/><path class="cls-13" d="M704.29,369.523a4.273,4.273,0,0,1,.86,2.814,4.894,4.894,0,0,1-.392,2.023,3.07,3.07,0,0,1-1.133,1.358,3.172,3.172,0,0,1-1.765.483,2.984,2.984,0,0,1-2.422-1.037,4.243,4.243,0,0,1-.868-2.813,4.91,4.91,0,0,1,.392-2.023,3.074,3.074,0,0,1,1.135-1.358,3.185,3.185,0,0,1,1.778-.483A2.967,2.967,0,0,1,704.29,369.523Zm-4.333,2.828q0,2.814,1.9,2.813t1.9-2.827q0-2.814-1.89-2.814Q699.957,369.523,699.957,372.351Z"/><path class="cls-13" d="M708.539,375.584a4.41,4.41,0,0,1-.252,1.639,2.434,2.434,0,0,1-.735,1A6.427,6.427,0,0,1,706.2,379l-.378-.937a3.874,3.874,0,0,0,.84-.5,1.471,1.471,0,0,0,.441-.686,3.971,3.971,0,0,0,.147-1.211v-7.014h1.288Zm.014-10.219a.855.855,0,0,1,.252.63.834.834,0,0,1-.252.623.9.9,0,0,1-.658.245.882.882,0,0,1-.644-.245A.834.834,0,0,1,707,366a.855.855,0,0,1,.252-.63.871.871,0,0,1,.644-.252A.889.889,0,0,1,708.553,365.365Z"/><path class="cls-13" d="M720.621,365.687v10.346h-1.134l-.126-1.022a2.684,2.684,0,0,1-.91.875,2.4,2.4,0,0,1-1.219.315,2.368,2.368,0,0,1-2.05-1.037,4.717,4.717,0,0,1-.735-2.785,5.437,5.437,0,0,1,.349-2.016,3.123,3.123,0,0,1,1.009-1.379,2.484,2.484,0,0,1,1.54-.5,2.648,2.648,0,0,1,1.988.91v-3.864Zm-2.1,9.219a3.155,3.155,0,0,0,.812-.819v-3.612a2.8,2.8,0,0,0-.777-.721,1.786,1.786,0,0,0-.931-.245,1.491,1.491,0,0,0-1.323.714,3.908,3.908,0,0,0-.469,2.128,4.115,4.115,0,0,0,.434,2.128,1.382,1.382,0,0,0,1.246.7A1.809,1.809,0,0,0,718.521,374.906Z"/><path class="cls-13" d="M728.405,374.976a.933.933,0,0,0,.462.329l-.294.9a1.97,1.97,0,0,1-.924-.322,1.468,1.468,0,0,1-.518-.784,2.477,2.477,0,0,1-2.2,1.106,2.356,2.356,0,0,1-1.723-.617,2.15,2.15,0,0,1-.629-1.609,2.114,2.114,0,0,1,.847-1.806,3.953,3.953,0,0,1,2.4-.631h1.134v-.545a1.435,1.435,0,0,0-.379-1.121,1.712,1.712,0,0,0-1.161-.335,6.476,6.476,0,0,0-1.988.392l-.322-.938a7.418,7.418,0,0,1,2.548-.5,2.667,2.667,0,0,1,1.945.636,2.438,2.438,0,0,1,.645,1.814v3.374A1.154,1.154,0,0,0,728.405,374.976Zm-1.442-.889v-1.694H726q-2.044,0-2.044,1.512a1.382,1.382,0,0,0,.322.994,1.262,1.262,0,0,0,.952.336A1.925,1.925,0,0,0,726.963,374.087Z"/><path class="cls-13" d="M734.621,375.7a2.838,2.838,0,0,1-1.653.5,1.95,1.95,0,0,1-1.463-.539,2.146,2.146,0,0,1-.525-1.561v-4.452h-1.288v-.994h1.288v-1.666l1.289-.155v1.821h1.75l-.141.994h-1.609v4.4a1.36,1.36,0,0,0,.2.833.814.814,0,0,0,.679.259,2.122,2.122,0,0,0,.98-.294Z"/><path class="cls-13" d="M737.042,369.383a.932.932,0,0,1,.28.686.955.955,0,0,1-.28.693.936.936,0,0,1-.7.287.919.919,0,0,1-.686-.287.955.955,0,0,1-.28-.693.956.956,0,0,1,.966-.966A.953.953,0,0,1,737.042,369.383Zm0,5.152a.933.933,0,0,1,.28.686.95.95,0,0,1-.28.692.937.937,0,0,1-.7.288.92.92,0,0,1-.686-.288.95.95,0,0,1-.28-.692.956.956,0,0,1,.966-.966A.949.949,0,0,1,737.042,374.535Z"/><path class="cls-13" d="M749.446,366.387l-3.08,9.646h-1.428l-3.108-9.646h1.428l2.422,8.2,2.422-8.2Z"/><path class="cls-13" d="M753.675,376.075a5.009,5.009,0,0,1-1.211,2.037,3.665,3.665,0,0,1-2.22.9l-.14-1.008a3.811,3.811,0,0,0,1.162-.364,2.014,2.014,0,0,0,.693-.609,4.231,4.231,0,0,0,.483-1h-.434l-2.478-7.378H750.9l1.974,6.44,1.932-6.44h1.33Zm.265-11.256.575,1.078-2.969,1.2-.392-.687Z"/><path class="cls-13" d="M761.935,368.655v.98l-3.851,5.319h3.893l-.155,1.079h-5.194v-.966l3.836-5.321H756.95v-1.091Z"/><path class="cls-13" d="M765.015,365.533v10.5h-1.288V365.687Zm4.242,3.122-2.717,3.261,3.024,4.117h-1.54L765.1,372l2.715-3.345Z"/><path class="cls-13" d="M776.284,376.033h-1.106l-.1-1.148a2.813,2.813,0,0,1-.966,1,2.621,2.621,0,0,1-1.33.315,1.965,1.965,0,0,1-1.513-.588,2.363,2.363,0,0,1-.545-1.666v-5.292h1.288v5.152a1.677,1.677,0,0,0,.266,1.071,1.075,1.075,0,0,0,.867.315A2.195,2.195,0,0,0,775,373.919v-5.264h1.288Z"/><path class="cls-13" d="M787.807,369.1a2.377,2.377,0,0,1,.546,1.645v5.292h-1.289v-5.11q0-1.428-1.036-1.428a1.391,1.391,0,0,0-.923.315,4.4,4.4,0,0,0-.813.987v5.236H783v-5.11q0-1.428-1.036-1.428a1.4,1.4,0,0,0-.938.322,4.441,4.441,0,0,0-.8.98v5.236h-1.288v-7.378h1.106l.112,1.078a2.473,2.473,0,0,1,2.128-1.246,1.939,1.939,0,0,1,1.169.35,1.917,1.917,0,0,1,.693.98,3.5,3.5,0,0,1,.959-.988,2.22,2.22,0,0,1,1.24-.342A1.862,1.862,0,0,1,787.807,369.1Z"/><path class="cls-13" d="M799.56,366.443a4.367,4.367,0,0,1,1.211.728l-.729.854a2.917,2.917,0,0,0-1.861-.714,2.358,2.358,0,0,0-1.94.924,6.316,6.316,0,0,0-.007,5.9,2.318,2.318,0,0,0,1.932.944,2.579,2.579,0,0,0,1.078-.209,5.655,5.655,0,0,0,.981-.588l.657.839a3.568,3.568,0,0,1-1.148.771,3.969,3.969,0,0,1-1.61.308,3.7,3.7,0,0,1-3.52-2.289,6.522,6.522,0,0,1-.512-2.709,6.314,6.314,0,0,1,.532-2.709,3.931,3.931,0,0,1,1.442-1.7,3.743,3.743,0,0,1,2.031-.573A4.168,4.168,0,0,1,799.56,366.443Zm.4-3.136.546.63-1.89,1.54h-.853l-1.9-1.54.56-.63,1.765,1.134Z"/><path class="cls-13" d="M807.756,372.785h-4.7a2.866,2.866,0,0,0,.616,1.792,1.787,1.787,0,0,0,1.372.574,2.962,2.962,0,0,0,.98-.155,3.94,3.94,0,0,0,.938-.489l.56.77a4.081,4.081,0,0,1-2.577.924,2.986,2.986,0,0,1-2.4-1.008,4.132,4.132,0,0,1-.861-2.772,5.26,5.26,0,0,1,.371-2.037,3.192,3.192,0,0,1,1.064-1.393,2.7,2.7,0,0,1,1.631-.5,2.735,2.735,0,0,1,2.254.966,4.135,4.135,0,0,1,.784,2.674C807.784,372.341,807.774,372.561,807.756,372.785Zm-1.246-1.037a2.732,2.732,0,0,0-.434-1.666,1.534,1.534,0,0,0-1.3-.573q-1.581,0-1.721,2.323h3.458Z"/><path class="cls-13" d="M813.2,368.7a4.106,4.106,0,0,1,1.148.63l-.546.812a4.541,4.541,0,0,0-.959-.477,2.992,2.992,0,0,0-.959-.153,1.685,1.685,0,0,0-.994.259.876.876,0,0,0-.021,1.407,3.978,3.978,0,0,0,1.238.489,4.444,4.444,0,0,1,1.842.841,1.837,1.837,0,0,1,.609,1.456,1.888,1.888,0,0,1-.847,1.666,3.6,3.6,0,0,1-2.066.574,4.083,4.083,0,0,1-2.786-.966l.687-.784a3.338,3.338,0,0,0,2.072.713,1.964,1.964,0,0,0,1.154-.3.949.949,0,0,0,.428-.819,1.084,1.084,0,0,0-.154-.609,1.255,1.255,0,0,0-.532-.406,7.2,7.2,0,0,0-1.106-.371,3.764,3.764,0,0,1-1.7-.827,1.762,1.762,0,0,1-.525-1.315,1.729,1.729,0,0,1,.342-1.043,2.224,2.224,0,0,1,.953-.728,3.467,3.467,0,0,1,1.365-.259A4.106,4.106,0,0,1,813.2,368.7Z"/><path class="cls-13" d="M817.668,365.533v10.5H816.38V365.687Zm4.242,3.122-2.717,3.261,3.025,4.117h-1.54L817.752,372l2.716-3.345Z"/><path class="cls-13" d="M828.462,374.976a.937.937,0,0,0,.462.329l-.294.9a1.97,1.97,0,0,1-.924-.322,1.474,1.474,0,0,1-.518-.784,2.477,2.477,0,0,1-2.2,1.106,2.352,2.352,0,0,1-1.722-.617,2.147,2.147,0,0,1-.63-1.609,2.116,2.116,0,0,1,.846-1.806,3.962,3.962,0,0,1,2.4-.631h1.134v-.545a1.438,1.438,0,0,0-.378-1.121,1.717,1.717,0,0,0-1.162-.335,6.471,6.471,0,0,0-1.988.392l-.322-.938a7.422,7.422,0,0,1,2.548-.5,2.671,2.671,0,0,1,1.946.636,2.441,2.441,0,0,1,.644,1.814v3.374A1.154,1.154,0,0,0,828.462,374.976Zm-1.694-10.157.574,1.078-2.968,1.2-.393-.687Zm.252,9.268v-1.694h-.966q-2.044,0-2.044,1.512a1.382,1.382,0,0,0,.322.994,1.263,1.263,0,0,0,.952.336A1.924,1.924,0,0,0,827.02,374.087Z"/><path class="cls-13" d="M838.024,368.7a4.092,4.092,0,0,1,1.148.63l-.546.812a4.518,4.518,0,0,0-.959-.477,2.992,2.992,0,0,0-.959-.153,1.685,1.685,0,0,0-.994.259.877.877,0,0,0-.021,1.407,3.976,3.976,0,0,0,1.239.489,4.445,4.445,0,0,1,1.841.841,1.834,1.834,0,0,1,.609,1.456,1.886,1.886,0,0,1-.847,1.666,3.593,3.593,0,0,1-2.065.574,4.081,4.081,0,0,1-2.786-.966l.686-.784a3.34,3.34,0,0,0,2.072.713,1.968,1.968,0,0,0,1.155-.3.95.95,0,0,0,.427-.819,1.076,1.076,0,0,0-.154-.609,1.248,1.248,0,0,0-.532-.406,7.2,7.2,0,0,0-1.106-.371,3.764,3.764,0,0,1-1.7-.827,1.766,1.766,0,0,1-.525-1.315,1.723,1.723,0,0,1,.343-1.043,2.221,2.221,0,0,1,.952-.728,3.467,3.467,0,0,1,1.365-.259A4.106,4.106,0,0,1,838.024,368.7Z"/><path class="cls-13" d="M846.661,369.5a5.18,5.18,0,0,1,.658,2.842,4.731,4.731,0,0,1-.756,2.8,2.472,2.472,0,0,1-2.142,1.064,2.38,2.38,0,0,1-1.932-.84v3.5l-1.288.154v-10.36h1.106l.1.994a2.843,2.843,0,0,1,.98-.862,2.566,2.566,0,0,1,1.2-.3A2.3,2.3,0,0,1,846.661,369.5Zm-.728,2.842q0-2.827-1.665-2.828a1.674,1.674,0,0,0-1,.321,3.185,3.185,0,0,0-.784.827v3.6a1.949,1.949,0,0,0,.7.665,1.886,1.886,0,0,0,.924.231Q845.933,375.151,845.933,372.337Z"/><path class="cls-13" d="M854.7,369.523a4.268,4.268,0,0,1,.861,2.814,4.91,4.91,0,0,1-.391,2.023,3.074,3.074,0,0,1-1.135,1.358,3.166,3.166,0,0,1-1.764.483,2.981,2.981,0,0,1-2.421-1.037,4.233,4.233,0,0,1-.869-2.813,4.894,4.894,0,0,1,.393-2.023,3.066,3.066,0,0,1,1.134-1.358,3.184,3.184,0,0,1,1.777-.483A2.964,2.964,0,0,1,854.7,369.523Zm-4.333,2.828q0,2.814,1.9,2.813t1.9-2.827q0-2.814-1.891-2.814Q850.372,369.523,850.371,372.351Z"/><path class="cls-13" d="M858.036,375.774a1.651,1.651,0,0,1-.413-1.2v-8.89l1.288-.154v9.016a.741.741,0,0,0,.106.447.413.413,0,0,0,.356.141,1.279,1.279,0,0,0,.477-.084l.336.9a2.107,2.107,0,0,1-1.023.252A1.5,1.5,0,0,1,858.036,375.774Z"/><path class="cls-13" d="M867.27,372.785h-4.7a2.872,2.872,0,0,0,.617,1.792,1.786,1.786,0,0,0,1.372.574,2.96,2.96,0,0,0,.979-.155,3.926,3.926,0,0,0,.939-.489l.559.77a4.077,4.077,0,0,1-2.576.924,2.986,2.986,0,0,1-2.4-1.008,4.127,4.127,0,0,1-.862-2.772,5.26,5.26,0,0,1,.371-2.037,3.2,3.2,0,0,1,1.065-1.393,2.7,2.7,0,0,1,1.631-.5,2.738,2.738,0,0,1,2.254.966,4.135,4.135,0,0,1,.784,2.674C867.3,372.341,867.288,372.561,867.27,372.785Zm-1.247-1.037a2.733,2.733,0,0,0-.433-1.666,1.535,1.535,0,0,0-1.3-.573q-1.583,0-1.722,2.323h3.458Z"/><path class="cls-13" d="M873.247,368.676a3.375,3.375,0,0,1,1.051.609l-.616.812a3.2,3.2,0,0,0-.764-.413,2.4,2.4,0,0,0-.818-.133,1.6,1.6,0,0,0-1.394.714,3.706,3.706,0,0,0-.5,2.114,3.5,3.5,0,0,0,.49,2.065,1.636,1.636,0,0,0,1.4.665,2.3,2.3,0,0,0,.8-.133,4.073,4.073,0,0,0,.812-.427l.589.84a3.509,3.509,0,0,1-2.255.812,2.938,2.938,0,0,1-2.358-1.008,4.15,4.15,0,0,1-.862-2.786,5.014,5.014,0,0,1,.393-2.058,3.169,3.169,0,0,1,1.112-1.372,2.977,2.977,0,0,1,1.715-.49A3.655,3.655,0,0,1,873.247,368.676Zm.6-3.634.546.631-1.89,1.582h-.855l-1.9-1.582.561-.631,1.763,1.177Z"/><path class="cls-13" d="M881.1,369.089a2.312,2.312,0,0,1,.567,1.652v5.292h-1.288v-5.11a1.641,1.641,0,0,0-.294-1.106,1.115,1.115,0,0,0-.868-.322,1.684,1.684,0,0,0-1.036.335,3.5,3.5,0,0,0-.84.967v5.236h-1.288v-7.378h1.105l.113,1.091a2.923,2.923,0,0,1,.973-.923,2.511,2.511,0,0,1,1.281-.336A2.061,2.061,0,0,1,881.1,369.089Z"/><path class="cls-13" d="M889.438,369.523a4.262,4.262,0,0,1,.862,2.814,4.91,4.91,0,0,1-.392,2.023,3.068,3.068,0,0,1-1.135,1.358,3.165,3.165,0,0,1-1.763.483,2.983,2.983,0,0,1-2.422-1.037,4.238,4.238,0,0,1-.868-2.813,4.91,4.91,0,0,1,.392-2.023,3.066,3.066,0,0,1,1.134-1.358,3.184,3.184,0,0,1,1.777-.483A2.963,2.963,0,0,1,889.438,369.523Zm-4.333,2.828q0,2.814,1.9,2.813t1.9-2.827q0-2.814-1.891-2.814Q885.106,369.523,885.105,372.351Z"/><path class="cls-13" d="M895.788,368.7a4.12,4.12,0,0,1,1.148.63l-.546.812a4.541,4.541,0,0,0-.959-.477,2.992,2.992,0,0,0-.959-.153,1.685,1.685,0,0,0-.994.259.876.876,0,0,0-.021,1.407,3.978,3.978,0,0,0,1.238.489,4.444,4.444,0,0,1,1.842.841,1.837,1.837,0,0,1,.609,1.456,1.888,1.888,0,0,1-.847,1.666,3.6,3.6,0,0,1-2.066.574,4.083,4.083,0,0,1-2.786-.966l.687-.784a3.338,3.338,0,0,0,2.072.713,1.966,1.966,0,0,0,1.154-.3.949.949,0,0,0,.428-.819,1.084,1.084,0,0,0-.154-.609,1.255,1.255,0,0,0-.532-.406,7.24,7.24,0,0,0-1.106-.371,3.764,3.764,0,0,1-1.7-.827,1.762,1.762,0,0,1-.525-1.315,1.729,1.729,0,0,1,.342-1.043,2.227,2.227,0,0,1,.952-.728,3.476,3.476,0,0,1,1.366-.259A4.106,4.106,0,0,1,895.788,368.7Z"/><path class="cls-13" d="M902.689,375.7a2.831,2.831,0,0,1-1.651.5,1.948,1.948,0,0,1-1.463-.539,2.146,2.146,0,0,1-.525-1.561v-4.452h-1.288v-.994h1.288v-1.666l1.288-.155v1.821h1.75l-.141.994h-1.609v4.4a1.353,1.353,0,0,0,.2.833.813.813,0,0,0,.679.259,2.125,2.125,0,0,0,.98-.294Z"/><path class="cls-13" d="M911.068,366.863a2.436,2.436,0,0,1,1.337,2.226,3.678,3.678,0,0,1-.384,1.638,8.065,8.065,0,0,1-1.183,1.694q-.8.911-2.423,2.533h4.215l-.154,1.079h-5.531v-1.022q1.876-1.947,2.66-2.849a8.037,8.037,0,0,0,1.121-1.575,3.191,3.191,0,0,0,.336-1.442,1.438,1.438,0,0,0-1.541-1.554,2.056,2.056,0,0,0-1.007.238,3.648,3.648,0,0,0-.924.784l-.841-.672a3.882,3.882,0,0,1,1.274-1.064,3.466,3.466,0,0,1,1.569-.35A3.117,3.117,0,0,1,911.068,366.863Z"/><path class="cls-13" d="M919.58,367.766a8.56,8.56,0,0,1,0,7.188,2.828,2.828,0,0,1-4.69,0,8.56,8.56,0,0,1,0-7.188,2.839,2.839,0,0,1,4.69,0Zm-3.7.679a9.858,9.858,0,0,0,0,5.831,1.457,1.457,0,0,0,2.695,0,9.688,9.688,0,0,0,0-5.824,1.459,1.459,0,0,0-2.695-.007Z"/><path class="cls-13" d="M925.643,366.863a2.441,2.441,0,0,1,1.337,2.226,3.666,3.666,0,0,1-.385,1.638,8.065,8.065,0,0,1-1.183,1.694q-.8.911-2.423,2.533H927.2l-.154,1.079h-5.53v-1.022q1.876-1.947,2.66-2.849a8.069,8.069,0,0,0,1.12-1.575,3.191,3.191,0,0,0,.336-1.442,1.438,1.438,0,0,0-1.54-1.554,2.058,2.058,0,0,0-1.008.238,3.648,3.648,0,0,0-.924.784l-.841-.672a3.875,3.875,0,0,1,1.275-1.064,3.459,3.459,0,0,1,1.568-.35A3.121,3.121,0,0,1,925.643,366.863Z"/><path class="cls-13" d="M934.154,367.766a8.56,8.56,0,0,1,0,7.188,2.828,2.828,0,0,1-4.69,0,8.56,8.56,0,0,1,0-7.188,2.839,2.839,0,0,1,4.69,0Zm-3.7.679a9.879,9.879,0,0,0,0,5.831,1.457,1.457,0,0,0,2.7,0,9.667,9.667,0,0,0,0-5.824,1.459,1.459,0,0,0-2.7-.007Z"/><path class="cls-13" d="M939.873,372.2v-1.092h6.384V372.2Z"/><path class="cls-13" d="M953.033,365.533v10.5h-1.288V365.687Zm4.242,3.122-2.716,3.261,3.024,4.117h-1.54L953.117,372l2.716-3.345Z"/><path class="cls-13" d="M959.256,375.774a1.647,1.647,0,0,1-.413-1.2v-8.89l1.288-.154v9.016a.749.749,0,0,0,.105.447.417.417,0,0,0,.357.141,1.27,1.27,0,0,0,.476-.084l.336.9a2.1,2.1,0,0,1-1.022.252A1.5,1.5,0,0,1,959.256,375.774Z"/><path class="cls-13" d="M964.3,365.365a.855.855,0,0,1,.252.63.834.834,0,0,1-.252.623.9.9,0,0,1-.658.245.882.882,0,0,1-.644-.245.834.834,0,0,1-.252-.623.855.855,0,0,1,.252-.63.871.871,0,0,1,.644-.252A.891.891,0,0,1,964.3,365.365Zm0,3.29v7.378h-1.288v-7.378Z"/><path class="cls-13" d="M975.825,369.1a2.377,2.377,0,0,1,.546,1.645v5.292h-1.288v-5.11q0-1.428-1.036-1.428a1.4,1.4,0,0,0-.924.315,4.4,4.4,0,0,0-.812.987v5.236h-1.289v-5.11q0-1.428-1.036-1.428a1.393,1.393,0,0,0-.937.322,4.412,4.412,0,0,0-.8.98v5.236h-1.288v-7.378h1.105l.113,1.078a2.471,2.471,0,0,1,2.128-1.246,1.856,1.856,0,0,1,1.862,1.33,3.489,3.489,0,0,1,.959-.988,2.219,2.219,0,0,1,1.239-.342A1.859,1.859,0,0,1,975.825,369.1Z"/><path class="cls-13" d="M984.085,374.976a.942.942,0,0,0,.462.329l-.294.9a1.974,1.974,0,0,1-.924-.322,1.474,1.474,0,0,1-.518-.784,2.477,2.477,0,0,1-2.2,1.106,2.352,2.352,0,0,1-1.722-.617,2.147,2.147,0,0,1-.63-1.609,2.116,2.116,0,0,1,.846-1.806,3.962,3.962,0,0,1,2.4-.631h1.134v-.545a1.438,1.438,0,0,0-.378-1.121,1.717,1.717,0,0,0-1.162-.335,6.476,6.476,0,0,0-1.988.392l-.322-.938a7.422,7.422,0,0,1,2.548-.5,2.671,2.671,0,0,1,1.946.636,2.441,2.441,0,0,1,.644,1.814v3.374A1.154,1.154,0,0,0,984.085,374.976Zm-1.442-.889v-1.694h-.966q-2.045,0-2.044,1.512a1.382,1.382,0,0,0,.322.994,1.263,1.263,0,0,0,.952.336A1.923,1.923,0,0,0,982.643,374.087Z"/><path class="cls-13" d="M990.3,375.7a2.834,2.834,0,0,1-1.652.5,1.944,1.944,0,0,1-1.462-.539,2.142,2.142,0,0,1-.526-1.561v-4.452h-1.288v-.994h1.288v-1.666l1.288-.155v1.821h1.75l-.14.994h-1.61v4.4a1.359,1.359,0,0,0,.2.833.814.814,0,0,0,.679.259,2.132,2.132,0,0,0,.981-.294Z"/><path class="cls-13" d="M992.919,365.365a.855.855,0,0,1,.252.63.834.834,0,0,1-.252.623.9.9,0,0,1-.658.245.882.882,0,0,1-.644-.245.834.834,0,0,1-.252-.623.855.855,0,0,1,.252-.63.871.871,0,0,1,.644-.252A.891.891,0,0,1,992.919,365.365Zm0,3.29v7.378h-1.288v-7.378Z"/><path class="cls-13" d="M999.471,368.676a3.359,3.359,0,0,1,1.05.609l-.616.812a3.178,3.178,0,0,0-.763-.413,2.4,2.4,0,0,0-.819-.133,1.6,1.6,0,0,0-1.393.714,3.706,3.706,0,0,0-.5,2.114,3.5,3.5,0,0,0,.49,2.065,1.635,1.635,0,0,0,1.4.665,2.3,2.3,0,0,0,.8-.133,4.1,4.1,0,0,0,.812-.427l.588.84a3.5,3.5,0,0,1-2.254.812,2.94,2.94,0,0,1-2.359-1.008,4.155,4.155,0,0,1-.861-2.786,5.031,5.031,0,0,1,.392-2.058,3.164,3.164,0,0,1,1.113-1.372,2.975,2.975,0,0,1,1.715-.49A3.659,3.659,0,0,1,999.471,368.676Z"/><path class="cls-13" d="M1003.559,365.533v10.5h-1.288V365.687Zm4.242,3.122-2.717,3.261,3.024,4.117h-1.54L1003.643,372l2.715-3.345Z"/><path class="cls-13" d="M1014.353,374.976a.934.934,0,0,0,.461.329l-.293.9a1.97,1.97,0,0,1-.924-.322,1.469,1.469,0,0,1-.519-.784,2.474,2.474,0,0,1-2.2,1.106,2.353,2.353,0,0,1-1.723-.617,2.147,2.147,0,0,1-.63-1.609,2.117,2.117,0,0,1,.847-1.806,3.957,3.957,0,0,1,2.4-.631h1.134v-.545a1.438,1.438,0,0,0-.378-1.121,1.715,1.715,0,0,0-1.162-.335,6.471,6.471,0,0,0-1.987.392l-.322-.938a7.417,7.417,0,0,1,2.547-.5,2.672,2.672,0,0,1,1.947.636,2.445,2.445,0,0,1,.643,1.814v3.374A1.153,1.153,0,0,0,1014.353,374.976Zm-1.695-10.157.574,1.078-2.967,1.2-.393-.687Zm.252,9.268v-1.694h-.966q-2.043,0-2.044,1.512a1.383,1.383,0,0,0,.323.994,1.263,1.263,0,0,0,.952.336A1.922,1.922,0,0,0,1012.91,374.087Z"/><path class="cls-13" d="M1024.881,368.655v.98l-3.851,5.319h3.893l-.154,1.079h-5.2v-.966l3.836-5.321H1019.9v-1.091Z"/><path class="cls-13" d="M1035.535,369.1a2.377,2.377,0,0,1,.546,1.645v5.292h-1.288v-5.11q0-1.428-1.036-1.428a1.4,1.4,0,0,0-.924.315,4.4,4.4,0,0,0-.812.987v5.236h-1.289v-5.11q0-1.428-1.036-1.428a1.393,1.393,0,0,0-.937.322,4.412,4.412,0,0,0-.8.98v5.236h-1.288v-7.378h1.105l.113,1.078a2.471,2.471,0,0,1,2.128-1.246,1.856,1.856,0,0,1,1.862,1.33,3.489,3.489,0,0,1,.959-.988,2.217,2.217,0,0,1,1.239-.342A1.859,1.859,0,0,1,1035.535,369.1Z"/><path class="cls-13" d="M1044.214,372.785h-4.7a2.866,2.866,0,0,0,.616,1.792,1.787,1.787,0,0,0,1.372.574,2.962,2.962,0,0,0,.98-.155,3.94,3.94,0,0,0,.938-.489l.56.77a4.081,4.081,0,0,1-2.577.924,2.986,2.986,0,0,1-2.4-1.008,4.132,4.132,0,0,1-.861-2.772,5.26,5.26,0,0,1,.371-2.037,3.192,3.192,0,0,1,1.064-1.393,2.7,2.7,0,0,1,1.631-.5,2.735,2.735,0,0,1,2.254.966,4.135,4.135,0,0,1,.784,2.674C1044.242,372.341,1044.232,372.561,1044.214,372.785Zm-1.191-7.743.547.631-1.89,1.582h-.854l-1.9-1.582.559-.631,1.765,1.177Zm-.055,6.706a2.732,2.732,0,0,0-.434-1.666,1.534,1.534,0,0,0-1.3-.573q-1.581,0-1.721,2.323h3.458Z"/><path class="cls-13" d="M1051.347,369.089a2.312,2.312,0,0,1,.567,1.652v5.292h-1.288v-5.11a1.641,1.641,0,0,0-.294-1.106,1.115,1.115,0,0,0-.868-.322,1.684,1.684,0,0,0-1.036.335,3.5,3.5,0,0,0-.84.967v5.236H1046.3v-7.378h1.105l.113,1.091a2.923,2.923,0,0,1,.973-.923,2.51,2.51,0,0,1,1.28-.336A2.062,2.062,0,0,1,1051.347,369.089Z"/><path class="cls-13" d="M1059.628,374.976a.937.937,0,0,0,.462.329l-.294.9a1.97,1.97,0,0,1-.924-.322,1.474,1.474,0,0,1-.518-.784,2.477,2.477,0,0,1-2.2,1.106,2.352,2.352,0,0,1-1.722-.617,2.147,2.147,0,0,1-.63-1.609,2.116,2.116,0,0,1,.846-1.806,3.962,3.962,0,0,1,2.4-.631h1.134v-.545a1.438,1.438,0,0,0-.378-1.121,1.717,1.717,0,0,0-1.162-.335,6.476,6.476,0,0,0-1.988.392l-.322-.938a7.422,7.422,0,0,1,2.548-.5,2.671,2.671,0,0,1,1.946.636,2.441,2.441,0,0,1,.644,1.814v3.374A1.154,1.154,0,0,0,1059.628,374.976Zm-1.442-.889v-1.694h-.966q-2.045,0-2.044,1.512a1.382,1.382,0,0,0,.322.994,1.263,1.263,0,0,0,.952.336A1.923,1.923,0,0,0,1058.186,374.087Z"/></svg>