<svg id="Layer_1" data-name="Layer 1" xmlns="http://www.w3.org/2000/svg" viewBox="0 0 720 304.648"><defs><style>.cls-1{fill:#2f5798;}.cls-2{fill:#9dc3e6;}.cls-3{fill:#d1d3d4;}.cls-3,.cls-6{stroke:#fff;stroke-miterlimit:10;stroke-width:3px;}.cls-4{fill:#eab7ad;}.cls-5{fill:#d1495b;}.cls-6{fill:none;}.cls-7{fill:#414042;}.cls-8{fill:#63a9e6;}.cls-9{fill:#8d9199;}.cls-10{fill:#ea9c8c;}.cls-11{opacity:0.8;}.cls-12{fill:#f1f2f2;}.cls-13{fill:#999;}</style></defs><path d="M14.888,5.408V8.264L5.956,21.732h9.016l-.392,3.024H1.644V21.928l9.1-13.58H2.568V5.408ZM12.312-1.228,13.684.34,9.792,3.7H7.552L3.66.34,5.032-1.228,8.672,1.1Z"/><path d="M29.588,18.456h-9.3a4.7,4.7,0,0,0,1.12,3.08,3.466,3.466,0,0,0,2.521.924,5.287,5.287,0,0,0,1.847-.322,8.648,8.648,0,0,0,1.848-.994l1.484,2.044a8.519,8.519,0,0,1-5.488,1.988A6.607,6.607,0,0,1,18.4,23.1a8.235,8.235,0,0,1-1.834-5.656,10.111,10.111,0,0,1,.785-4.074,6.459,6.459,0,0,1,2.267-2.828,6.067,6.067,0,0,1,3.528-1.022A6.025,6.025,0,0,1,27.964,11.5,8.139,8.139,0,0,1,29.672,17C29.672,17.186,29.645,17.672,29.588,18.456Zm-3.472-2.492q0-3.891-2.884-3.892a2.45,2.45,0,0,0-2.058.966,5.768,5.768,0,0,0-.882,3.094h5.824Z"/><path d="M43.883,10.714a4.692,4.692,0,0,1,1.1,3.318V24.756H41.4V14.592a2.845,2.845,0,0,0-.462-1.848,1.7,1.7,0,0,0-1.358-.532,2.655,2.655,0,0,0-1.666.574,6.517,6.517,0,0,0-1.441,1.666v10.3H32.893V9.944H36l.28,1.932a5.5,5.5,0,0,1,4.508-2.352A4.02,4.02,0,0,1,43.883,10.714Z"/><path d="M56.16,24.812a9.094,9.094,0,0,1-2.716,4.27A8.638,8.638,0,0,1,48.46,30.86l-.364-2.6a9.021,9.021,0,0,0,2.338-.63,3.794,3.794,0,0,0,1.414-1.078,7.253,7.253,0,0,0,.98-1.792H51.6l-4.7-14.812H50.7l3.22,12.432L57.28,9.944h3.7Z"/><path d="M82.06,9.944,77.244,24.756H72.96L68.06,9.944h3.892l3.164,11.928L78.364,9.944Z"/><path d="M95.262,10.714a4.692,4.692,0,0,1,1.105,3.318V24.756H92.783V14.592a2.845,2.845,0,0,0-.462-1.848,1.7,1.7,0,0,0-1.358-.532,2.655,2.655,0,0,0-1.666.574,6.538,6.538,0,0,0-1.442,1.666v10.3H84.271V9.944h3.108l.28,1.932a5.5,5.5,0,0,1,4.508-2.352A4.022,4.022,0,0,1,95.262,10.714Z"/><path d="M104.46,1.8l1.456,2.8-6.328,2.52L98.58,5.3Zm-.336,8.148V24.756H100.54V9.944Z"/><path d="M127,10.742a4.828,4.828,0,0,1,1.064,3.29V24.756H124.48V14.592q0-2.38-1.625-2.38a2.212,2.212,0,0,0-1.5.546,6.778,6.778,0,0,0-1.3,1.694v10.3h-3.584V14.592q0-2.38-1.624-2.38a2.252,2.252,0,0,0-1.527.546,6.778,6.778,0,0,0-1.3,1.694v10.3h-3.584V9.944h3.107l.28,1.932a5.073,5.073,0,0,1,4.284-2.352,3.78,3.78,0,0,1,2.226.658,3.686,3.686,0,0,1,1.358,1.834,6.9,6.9,0,0,1,1.974-1.848,4.744,4.744,0,0,1,2.479-.644A3.6,3.6,0,0,1,127,10.742Z"/><path d="M143.449,22.11a1.7,1.7,0,0,0,.854.63l-.756,2.38a4.584,4.584,0,0,1-2.058-.616,3.147,3.147,0,0,1-1.218-1.54,4.746,4.746,0,0,1-1.89,1.666,5.767,5.767,0,0,1-2.534.546,4.788,4.788,0,0,1-3.5-1.26,4.413,4.413,0,0,1-1.287-3.3,4.273,4.273,0,0,1,1.75-3.682,8.386,8.386,0,0,1,5-1.274h1.848v-.84a2.554,2.554,0,0,0-.658-2,3.182,3.182,0,0,0-2.114-.574,12.481,12.481,0,0,0-3.92.784l-.84-2.436A14.968,14.968,0,0,1,137.5,9.524q5.684,0,5.684,5.1v6.216A2.374,2.374,0,0,0,143.449,22.11Zm-3.794-1.358v-3h-1.484q-3.472,0-3.472,2.576a2.374,2.374,0,0,0,.532,1.652,2.007,2.007,0,0,0,1.568.588A3.171,3.171,0,0,0,139.655,20.752Z"/><path d="M150.8,23.44a8.677,8.677,0,0,1-.63,3.57,5.538,5.538,0,0,1-1.778,2.226,14.252,14.252,0,0,1-3,1.6l-1.148-2.6a8.564,8.564,0,0,0,1.708-.994,3.058,3.058,0,0,0,.938-1.33,6.41,6.41,0,0,0,.322-2.24V9.944H150.8Zm-.182-20.37a2.111,2.111,0,0,1,.63,1.554,2.066,2.066,0,0,1-.63,1.54,2.242,2.242,0,0,1-1.638.616,2.2,2.2,0,0,1-1.61-.616,2.066,2.066,0,0,1-.63-1.54,2.111,2.111,0,0,1,.63-1.554,2.179,2.179,0,0,1,1.61-.63A2.216,2.216,0,0,1,150.617,3.07Z"/><path d="M159.479,1.8l1.456,2.8-6.329,2.52L153.6,5.3Zm-.336,8.148V24.756h-3.584V9.944Z"/><path d="M178.938,24.056a5.7,5.7,0,0,1-1.75.84,7.068,7.068,0,0,1-1.973.28A4.4,4.4,0,0,1,171.9,23.93a5.11,5.11,0,0,1-1.133-3.6V12.52h-2.325V9.944h2.325V6.668l3.584-.42v3.7h3.444l-.364,2.576h-3.08v7.728a2.546,2.546,0,0,0,.378,1.568,1.428,1.428,0,0,0,1.19.476,3.655,3.655,0,0,0,1.764-.532Z"/><path d="M192.546,18.456h-9.3a4.7,4.7,0,0,0,1.12,3.08,3.466,3.466,0,0,0,2.521.924,5.287,5.287,0,0,0,1.847-.322,8.648,8.648,0,0,0,1.848-.994l1.484,2.044a8.519,8.519,0,0,1-5.488,1.988A6.607,6.607,0,0,1,181.36,23.1a8.235,8.235,0,0,1-1.834-5.656,10.111,10.111,0,0,1,.785-4.074,6.459,6.459,0,0,1,2.267-2.828,6.754,6.754,0,0,1,8.344.952A8.139,8.139,0,0,1,192.63,17C192.63,17.186,192.6,17.672,192.546,18.456ZM188.318,1.8l1.456,2.8-6.328,2.52L182.438,5.3Zm.756,14.168q0-3.891-2.884-3.892a2.45,2.45,0,0,0-2.058.966,5.768,5.768,0,0,0-.882,3.094h5.824Z"/><path d="M214.414,10.742a4.829,4.829,0,0,1,1.065,3.29V24.756H211.9V14.592q0-2.38-1.624-2.38a2.212,2.212,0,0,0-1.5.546,6.778,6.778,0,0,0-1.3,1.694v10.3h-3.584V14.592q0-2.38-1.624-2.38a2.252,2.252,0,0,0-1.527.546,6.778,6.778,0,0,0-1.3,1.694v10.3h-3.584V9.944h3.107l.28,1.932a5.073,5.073,0,0,1,4.284-2.352,3.78,3.78,0,0,1,2.226.658,3.686,3.686,0,0,1,1.358,1.834,6.9,6.9,0,0,1,1.974-1.848,4.744,4.744,0,0,1,2.479-.644A3.6,3.6,0,0,1,214.414,10.742Z"/><path d="M230.864,22.11a1.7,1.7,0,0,0,.854.63l-.756,2.38A4.588,4.588,0,0,1,228.9,24.5a3.14,3.14,0,0,1-1.217-1.54A4.755,4.755,0,0,1,225.8,24.63a5.767,5.767,0,0,1-2.534.546,4.788,4.788,0,0,1-3.5-1.26,4.413,4.413,0,0,1-1.287-3.3,4.273,4.273,0,0,1,1.75-3.682,8.386,8.386,0,0,1,5-1.274h1.848v-.84a2.554,2.554,0,0,0-.658-2,3.182,3.182,0,0,0-2.114-.574,12.481,12.481,0,0,0-3.92.784l-.84-2.436a14.968,14.968,0,0,1,5.376-1.064q5.684,0,5.684,5.1v6.216A2.383,2.383,0,0,0,230.864,22.11Zm-3.794-1.358v-3h-1.484q-3.473,0-3.472,2.576a2.374,2.374,0,0,0,.532,1.652,2.007,2.007,0,0,0,1.568.588A3.171,3.171,0,0,0,227.07,20.752Z"/><path d="M245.522,3.616v21.14h-3.584V4.008ZM254.4,9.944l-4.927,6.524,5.4,8.288h-4.116l-5.1-8.092,4.956-6.72Z"/><path d="M257.716,24.182a3.868,3.868,0,0,1-.967-2.814V4.008l3.584-.392v17.64q0,1.036.841,1.036a2.633,2.633,0,0,0,.84-.14l.756,2.52a5.738,5.738,0,0,1-2.38.5A3.556,3.556,0,0,1,257.716,24.182Z"/><path d="M268.552,3.07a2.112,2.112,0,0,1,.631,1.554,2.067,2.067,0,0,1-.631,1.54,2.242,2.242,0,0,1-1.638.616,2.208,2.208,0,0,1-1.61-.616,2.066,2.066,0,0,1-.63-1.54,2.111,2.111,0,0,1,.63-1.554,2.182,2.182,0,0,1,1.61-.63A2.216,2.216,0,0,1,268.552,3.07Zm.182,6.874V24.756H265.15V9.944Z"/><path d="M291.609,10.742a4.829,4.829,0,0,1,1.065,3.29V24.756H289.09V14.592q0-2.38-1.624-2.38a2.212,2.212,0,0,0-1.5.546,6.755,6.755,0,0,0-1.3,1.694v10.3h-3.584V14.592q0-2.38-1.624-2.38a2.249,2.249,0,0,0-1.526.546,6.778,6.778,0,0,0-1.3,1.694v10.3h-3.584V9.944h3.107l.281,1.932a5.072,5.072,0,0,1,4.284-2.352,3.779,3.779,0,0,1,2.225.658,3.693,3.693,0,0,1,1.359,1.834,6.9,6.9,0,0,1,1.973-1.848,4.744,4.744,0,0,1,2.479-.644A3.6,3.6,0,0,1,291.609,10.742Z"/><path d="M308.06,22.11a1.69,1.69,0,0,0,.853.63l-.756,2.38A4.579,4.579,0,0,1,306.1,24.5a3.136,3.136,0,0,1-1.218-1.54,4.755,4.755,0,0,1-1.891,1.666,5.764,5.764,0,0,1-2.534.546,4.788,4.788,0,0,1-3.5-1.26,4.416,4.416,0,0,1-1.287-3.3,4.273,4.273,0,0,1,1.75-3.682,8.386,8.386,0,0,1,5-1.274h1.849v-.84a2.554,2.554,0,0,0-.659-2,3.182,3.182,0,0,0-2.114-.574,12.486,12.486,0,0,0-3.92.784l-.84-2.436a14.968,14.968,0,0,1,5.376-1.064q5.684,0,5.684,5.1v6.216A2.373,2.373,0,0,0,308.06,22.11Zm-3.794-1.358v-3h-1.485q-3.471,0-3.471,2.576a2.37,2.37,0,0,0,.532,1.652,2,2,0,0,0,1.567.588A3.173,3.173,0,0,0,304.266,20.752Z"/><path d="M320.617,24.056a5.7,5.7,0,0,1-1.75.84,7.073,7.073,0,0,1-1.973.28,4.4,4.4,0,0,1-3.319-1.246,5.105,5.105,0,0,1-1.134-3.6V12.52h-2.324V9.944h2.324V6.668l3.584-.42v3.7h3.445l-.365,2.576h-3.08v7.728a2.546,2.546,0,0,0,.378,1.568,1.43,1.43,0,0,0,1.191.476,3.649,3.649,0,0,0,1.763-.532Z"/><path d="M334.478,24.756h-3.109l-.2-2.072a5.488,5.488,0,0,1-1.918,1.876,5.306,5.306,0,0,1-2.618.616,3.88,3.88,0,0,1-3.067-1.218,4.92,4.92,0,0,1-1.078-3.374V9.944h3.584V20.136a2.862,2.862,0,0,0,.435,1.792,1.684,1.684,0,0,0,1.385.532q1.709,0,3-2.1V9.944h3.584Z"/><path d="M356.779,10.714a4.688,4.688,0,0,1,1.106,3.318V24.756H354.3V14.592a2.851,2.851,0,0,0-.462-1.848,1.7,1.7,0,0,0-1.359-.532,2.657,2.657,0,0,0-1.666.574,6.536,6.536,0,0,0-1.441,1.666v10.3h-3.584V9.944H348.9l.281,1.932a5.5,5.5,0,0,1,4.508-2.352A4.018,4.018,0,0,1,356.779,10.714Z"/><path d="M373.271,22.11a1.69,1.69,0,0,0,.853.63l-.756,2.38a4.579,4.579,0,0,1-2.057-.616,3.136,3.136,0,0,1-1.218-1.54A4.755,4.755,0,0,1,368.2,24.63a5.764,5.764,0,0,1-2.534.546,4.788,4.788,0,0,1-3.5-1.26,4.416,4.416,0,0,1-1.287-3.3,4.273,4.273,0,0,1,1.75-3.682,8.386,8.386,0,0,1,5-1.274h1.849v-.84a2.554,2.554,0,0,0-.659-2,3.182,3.182,0,0,0-2.114-.574,12.481,12.481,0,0,0-3.92.784l-.84-2.436a14.968,14.968,0,0,1,5.376-1.064q5.683,0,5.684,5.1v6.216A2.373,2.373,0,0,0,373.271,22.11Zm-3.794-1.358v-3h-1.485q-3.471,0-3.471,2.576a2.37,2.37,0,0,0,.532,1.652,2,2,0,0,0,1.567.588A3.173,3.173,0,0,0,369.477,20.752Z"/><path d="M377.891,24.182a3.868,3.868,0,0,1-.967-2.814V4.008l3.584-.392v17.64q0,1.036.841,1.036a2.623,2.623,0,0,0,.839-.14l.756,2.52a5.734,5.734,0,0,1-2.38.5A3.555,3.555,0,0,1,377.891,24.182Z"/><path d="M397.253,18.456h-9.3a4.7,4.7,0,0,0,1.12,3.08,3.466,3.466,0,0,0,2.521.924,5.287,5.287,0,0,0,1.847-.322,8.648,8.648,0,0,0,1.848-.994l1.484,2.044a8.519,8.519,0,0,1-5.488,1.988,6.607,6.607,0,0,1-5.222-2.072,8.235,8.235,0,0,1-1.834-5.656,10.111,10.111,0,0,1,.785-4.074,6.459,6.459,0,0,1,2.267-2.828,6.754,6.754,0,0,1,8.344.952,8.139,8.139,0,0,1,1.708,5.5C397.337,17.186,397.31,17.672,397.253,18.456ZM393.025,1.8l1.456,2.8-6.328,2.52L387.146,5.3Zm.756,14.168q0-3.891-2.884-3.892a2.45,2.45,0,0,0-2.058.966,5.768,5.768,0,0,0-.882,3.094h5.824Z"/><path d="M411.532,10.728a4.665,4.665,0,0,1,1.12,3.3V24.756h-3.584V14.592a2.845,2.845,0,0,0-.462-1.848,1.7,1.7,0,0,0-1.358-.532,2.667,2.667,0,0,0-1.651.574,6.508,6.508,0,0,0-1.456,1.638V24.756h-3.584V4.036l3.584-.364v8.036a5.406,5.406,0,0,1,4.311-2.184A4,4,0,0,1,411.532,10.728Z"/><path d="M428.039,22.11a1.7,1.7,0,0,0,.854.63l-.756,2.38a4.584,4.584,0,0,1-2.058-.616,3.147,3.147,0,0,1-1.218-1.54,4.752,4.752,0,0,1-1.89,1.666,5.767,5.767,0,0,1-2.534.546,4.788,4.788,0,0,1-3.5-1.26,4.413,4.413,0,0,1-1.288-3.3,4.273,4.273,0,0,1,1.75-3.682,8.386,8.386,0,0,1,5-1.274h1.849v-.84a2.557,2.557,0,0,0-.658-2,3.186,3.186,0,0,0-2.114-.574,12.481,12.481,0,0,0-3.92.784l-.84-2.436a14.968,14.968,0,0,1,5.376-1.064q5.683,0,5.683,5.1v6.216A2.373,2.373,0,0,0,428.039,22.11Zm-3.794-1.358v-3h-1.484q-3.473,0-3.472,2.576a2.374,2.374,0,0,0,.532,1.652,2.007,2.007,0,0,0,1.568.588A3.171,3.171,0,0,0,424.245,20.752Z"/><path d="M443.592,9.944l-4.816,14.812h-4.284l-4.9-14.812h3.892l3.164,11.928L439.9,9.944Z"/><path d="M457.7,18.456h-9.3a4.712,4.712,0,0,0,1.12,3.08,3.466,3.466,0,0,0,2.521.924,5.287,5.287,0,0,0,1.847-.322,8.624,8.624,0,0,0,1.848-.994l1.485,2.044a8.524,8.524,0,0,1-5.489,1.988,6.6,6.6,0,0,1-5.221-2.072,8.23,8.23,0,0,1-1.834-5.656,10.111,10.111,0,0,1,.784-4.074,6.459,6.459,0,0,1,2.267-2.828,6.754,6.754,0,0,1,8.344.952,8.139,8.139,0,0,1,1.708,5.5C457.788,17.186,457.761,17.672,457.7,18.456Zm-2.716-16.1,1.372,1.568-3.891,3.5h-2.24l-3.892-3.5,1.371-1.568,3.641,2.464Zm-.756,13.608q0-3.891-2.883-3.892a2.451,2.451,0,0,0-2.059.966,5.768,5.768,0,0,0-.882,3.094h5.824Z"/><path d="M464.564,23.44a8.679,8.679,0,0,1-.629,3.57,5.532,5.532,0,0,1-1.779,2.226,14.2,14.2,0,0,1-3,1.6l-1.147-2.6a8.593,8.593,0,0,0,1.708-.994,3.056,3.056,0,0,0,.937-1.33,6.387,6.387,0,0,0,.322-2.24V9.944h3.584Zm-.181-20.37a2.111,2.111,0,0,1,.63,1.554,2.066,2.066,0,0,1-.63,1.54,2.243,2.243,0,0,1-1.639.616,2.2,2.2,0,0,1-1.609-.616,2.066,2.066,0,0,1-.63-1.54,2.111,2.111,0,0,1,.63-1.554,2.178,2.178,0,0,1,1.609-.63A2.217,2.217,0,0,1,464.383,3.07Z"/><path d="M472.277,3.07a2.112,2.112,0,0,1,.631,1.554,2.067,2.067,0,0,1-.631,1.54,2.24,2.24,0,0,1-1.637.616,2.209,2.209,0,0,1-1.611-.616,2.066,2.066,0,0,1-.63-1.54,2.111,2.111,0,0,1,.63-1.554,2.183,2.183,0,0,1,1.611-.63A2.213,2.213,0,0,1,472.277,3.07Zm.183,6.874V24.756h-3.584V9.944Z"/><path d="M10.063,47.35v1.462L3.584,58.9h6.479L9.854,60.44H1.57V59L8.106,48.87H2.254V47.35Z"/><path d="M24.465,51.026a3.22,3.22,0,0,1,.741,2.232V60.44H23.458V53.505q0-1.938-1.406-1.938A1.894,1.894,0,0,0,20.8,52a5.959,5.959,0,0,0-1.1,1.339V60.44H17.948V53.505q0-1.938-1.406-1.938A1.894,1.894,0,0,0,15.269,52a5.984,5.984,0,0,0-1.083,1.33V60.44H12.438V50.427h1.5l.153,1.464A3.353,3.353,0,0,1,16.979,50.2,2.519,2.519,0,0,1,19.506,52a4.687,4.687,0,0,1,1.3-1.339,3,3,0,0,1,1.681-.466A2.523,2.523,0,0,1,24.465,51.026Z"/><path d="M36.245,56.032H29.861a3.909,3.909,0,0,0,.836,2.432,2.423,2.423,0,0,0,1.862.78,4.081,4.081,0,0,0,1.33-.209,5.426,5.426,0,0,0,1.273-.665l.76,1.044a5.536,5.536,0,0,1-3.5,1.254A4.051,4.051,0,0,1,29.168,59.3,5.606,5.606,0,0,1,28,55.538a7.122,7.122,0,0,1,.5-2.764,4.334,4.334,0,0,1,1.443-1.891A3.665,3.665,0,0,1,32.16,50.2a3.711,3.711,0,0,1,3.059,1.311,5.6,5.6,0,0,1,1.064,3.63C36.283,55.431,36.271,55.728,36.245,56.032ZM34.63,45.525l.741.855-2.565,2.147H31.647L29.063,46.38l.76-.855,2.394,1.6Zm-.076,9.1a3.709,3.709,0,0,0-.589-2.261,2.076,2.076,0,0,0-1.767-.779q-2.147,0-2.337,3.154h4.693Z"/><path d="M45.925,51.016a3.139,3.139,0,0,1,.769,2.242V60.44H44.946V53.505a2.228,2.228,0,0,0-.4-1.5,1.52,1.52,0,0,0-1.179-.437,2.278,2.278,0,0,0-1.405.456,4.77,4.77,0,0,0-1.141,1.311V60.44H39.075V50.427h1.5l.153,1.483a3.94,3.94,0,0,1,1.32-1.255,3.408,3.408,0,0,1,1.738-.456A2.8,2.8,0,0,1,45.925,51.016Z"/><path d="M54.086,60.5a6.777,6.777,0,0,1-1.644,2.765,4.965,4.965,0,0,1-3.011,1.225L49.24,63.12a5.145,5.145,0,0,0,1.577-.495,2.723,2.723,0,0,0,.941-.826,5.786,5.786,0,0,0,.655-1.359h-.589L48.462,50.427h1.861L53,59.167l2.621-8.74H57.43Z"/><path d="M66.207,46.19V60.44H64.459V46.4Zm5.757,4.237-3.686,4.427,4.1,5.586h-2.09l-3.971-5.472,3.686-4.541Z"/><path d="M74.653,60.089a2.239,2.239,0,0,1-.56-1.625V46.4l1.748-.209V58.426a1.035,1.035,0,0,0,.142.609.57.57,0,0,0,.485.19,1.73,1.73,0,0,0,.646-.115l.455,1.217a2.857,2.857,0,0,1-1.386.341A2.03,2.03,0,0,1,74.653,60.089Z"/><path d="M81.5,45.962a1.16,1.16,0,0,1,.342.855,1.129,1.129,0,0,1-.342.846,1.225,1.225,0,0,1-.893.333,1.2,1.2,0,0,1-.874-.333,1.128,1.128,0,0,1-.341-.846,1.159,1.159,0,0,1,.341-.855,1.184,1.184,0,0,1,.874-.341A1.206,1.206,0,0,1,81.5,45.962Zm0,4.465V60.44H79.754V50.427Z"/><path d="M97.14,51.026a3.22,3.22,0,0,1,.741,2.232V60.44H96.133V53.505q0-1.938-1.406-1.938A1.89,1.89,0,0,0,93.473,52a5.959,5.959,0,0,0-1.1,1.339V60.44H90.623V53.505q0-1.938-1.406-1.938A1.9,1.9,0,0,0,87.943,52a6.04,6.04,0,0,0-1.083,1.33V60.44H85.112V50.427h1.5l.153,1.464A3.353,3.353,0,0,1,89.653,50.2,2.519,2.519,0,0,1,92.181,52a4.7,4.7,0,0,1,1.3-1.339,3,3,0,0,1,1.682-.466A2.524,2.524,0,0,1,97.14,51.026Z"/><path d="M108.349,59.006a1.272,1.272,0,0,0,.627.447l-.4,1.215a2.671,2.671,0,0,1-1.254-.437,1.989,1.989,0,0,1-.7-1.064,3.359,3.359,0,0,1-2.983,1.5,3.2,3.2,0,0,1-2.337-.836,2.918,2.918,0,0,1-.855-2.185A2.869,2.869,0,0,1,101.6,55.2a5.374,5.374,0,0,1,3.258-.855h1.539V53.6a1.948,1.948,0,0,0-.513-1.52,2.322,2.322,0,0,0-1.577-.456,8.84,8.84,0,0,0-2.7.532l-.437-1.273a10.076,10.076,0,0,1,3.458-.684,3.616,3.616,0,0,1,2.641.865,3.306,3.306,0,0,1,.874,2.46V58.1A1.566,1.566,0,0,0,108.349,59.006ZM106.392,57.8V55.5h-1.311q-2.775,0-2.774,2.052a1.873,1.873,0,0,0,.437,1.349,1.708,1.708,0,0,0,1.292.456A2.61,2.61,0,0,0,106.392,57.8Z"/><path d="M116.785,59.984a3.846,3.846,0,0,1-2.242.684,2.639,2.639,0,0,1-1.985-.731,2.912,2.912,0,0,1-.713-2.119V51.776H110.1V50.427h1.748V48.166l1.748-.209v2.47h2.375l-.191,1.349h-2.184v5.966a1.846,1.846,0,0,0,.275,1.131,1.1,1.1,0,0,0,.922.352,2.868,2.868,0,0,0,1.33-.4Z"/><path d="M126.038,60.44h-1.5l-.133-1.558a3.813,3.813,0,0,1-1.311,1.359,3.556,3.556,0,0,1-1.805.427,2.665,2.665,0,0,1-2.052-.8,3.2,3.2,0,0,1-.741-2.262V50.427h1.748v6.992a2.264,2.264,0,0,0,.362,1.454,1.458,1.458,0,0,0,1.177.427,2.973,2.973,0,0,0,2.508-1.729V50.427h1.748Z"/><path d="M141.979,51.577a6.422,6.422,0,0,1,1.007,3.847,7.371,7.371,0,0,1-.475,2.746,4.114,4.114,0,0,1-1.368,1.843,3.435,3.435,0,0,1-2.09.655,3.308,3.308,0,0,1-2.66-1.33l-.171,1.1h-1.539V46.4l1.748-.209v5.492a3.35,3.35,0,0,1,2.831-1.483A3.194,3.194,0,0,1,141.979,51.577Zm-1.53,6.764a5.152,5.152,0,0,0,.656-2.917,5.414,5.414,0,0,0-.608-2.935,1.964,1.964,0,0,0-1.729-.9,2.833,2.833,0,0,0-2.337,1.558v4.789a3.1,3.1,0,0,0,.978.987,2.28,2.28,0,0,0,1.226.361A2.09,2.09,0,0,0,140.449,58.341Z"/><path d="M149.9,60.5a6.776,6.776,0,0,1-1.643,2.765,4.965,4.965,0,0,1-3.012,1.225l-.19-1.367a5.154,5.154,0,0,0,1.577-.495,2.719,2.719,0,0,0,.94-.826,5.784,5.784,0,0,0,.656-1.359h-.589l-3.363-10.013h1.862l2.679,8.74,2.621-8.74h1.806Z"/><path d="M167.125,51.016a3.135,3.135,0,0,1,.77,2.242V60.44h-1.749V53.505a2.182,2.182,0,0,0-.408-1.5,1.547,1.547,0,0,0-1.187-.437,2.249,2.249,0,0,0-1.387.456,4.847,4.847,0,0,0-1.141,1.292V60.44h-1.748V46.418l1.748-.19v5.586a3.547,3.547,0,0,1,2.964-1.615A2.8,2.8,0,0,1,167.125,51.016Z"/><path d="M178.259,51.016a3.139,3.139,0,0,1,.769,2.242V60.44H177.28V53.505a2.228,2.228,0,0,0-.4-1.5,1.52,1.52,0,0,0-1.179-.437,2.278,2.278,0,0,0-1.405.456,4.77,4.77,0,0,0-1.141,1.311V60.44h-1.748V50.427h1.5l.153,1.483a3.94,3.94,0,0,1,1.32-1.255,3.408,3.408,0,0,1,1.738-.456A2.8,2.8,0,0,1,178.259,51.016Z"/><path d="M190.067,56.032h-6.383a3.9,3.9,0,0,0,.836,2.432,2.42,2.42,0,0,0,1.861.78,4.076,4.076,0,0,0,1.33-.209,5.426,5.426,0,0,0,1.273-.665l.76,1.044a5.532,5.532,0,0,1-3.5,1.254A4.054,4.054,0,0,1,182.99,59.3a5.606,5.606,0,0,1-1.169-3.762,7.122,7.122,0,0,1,.5-2.764,4.336,4.336,0,0,1,1.444-1.891,3.662,3.662,0,0,1,2.213-.684,3.71,3.71,0,0,1,3.059,1.311,5.6,5.6,0,0,1,1.064,3.63C190.105,55.431,190.093,55.728,190.067,56.032Zm-1.691-1.406a3.7,3.7,0,0,0-.589-2.261,2.073,2.073,0,0,0-1.766-.779q-2.148,0-2.337,3.154h4.692Z"/><path d="M200.65,46.4V60.44h-1.539l-.171-1.387a3.615,3.615,0,0,1-1.234,1.188,3.442,3.442,0,0,1-4.436-.979,6.413,6.413,0,0,1-1-3.781,7.358,7.358,0,0,1,.476-2.735,4.231,4.231,0,0,1,1.368-1.872,3.368,3.368,0,0,1,2.09-.675,3.594,3.594,0,0,1,2.7,1.235V46.19ZM197.8,58.911a4.258,4.258,0,0,0,1.1-1.112V52.9a3.8,3.8,0,0,0-1.053-.978,2.431,2.431,0,0,0-1.264-.333,2.03,2.03,0,0,0-1.8.97,5.3,5.3,0,0,0-.637,2.887,5.587,5.587,0,0,0,.59,2.888,1.875,1.875,0,0,0,1.691.95A2.455,2.455,0,0,0,197.8,58.911Z"/><path d="M214.425,45.525l.741.855L212.6,48.527h-1.16l-2.584-2.147.76-.855,2.4,1.6Zm.209,4.788-.322,1.71a3.61,3.61,0,0,0-.874-.113,1.854,1.854,0,0,0-1.5.683,5.1,5.1,0,0,0-.894,2.128V60.44H209.3V50.427h1.5l.171,2.033a3.8,3.8,0,0,1,1.083-1.691,2.423,2.423,0,0,1,1.6-.57A4.065,4.065,0,0,1,214.634,50.313Z"/><path d="M223.583,56.032H217.2a3.9,3.9,0,0,0,.836,2.432,2.423,2.423,0,0,0,1.861.78,4.082,4.082,0,0,0,1.331-.209,5.426,5.426,0,0,0,1.273-.665l.76,1.044a5.536,5.536,0,0,1-3.5,1.254,4.051,4.051,0,0,1-3.258-1.368,5.606,5.606,0,0,1-1.169-3.762,7.122,7.122,0,0,1,.5-2.764,4.334,4.334,0,0,1,1.443-1.891A3.663,3.663,0,0,1,219.5,50.2a3.711,3.711,0,0,1,3.059,1.311,5.6,5.6,0,0,1,1.064,3.63Q223.621,55.576,223.583,56.032Zm-1.691-1.406a3.709,3.709,0,0,0-.589-2.261,2.076,2.076,0,0,0-1.767-.779q-2.147,0-2.337,3.154h4.693Z"/><path d="M230.975,50.484a5.551,5.551,0,0,1,1.557.855l-.741,1.1a6.106,6.106,0,0,0-1.3-.646,4.041,4.041,0,0,0-1.3-.209,2.287,2.287,0,0,0-1.348.352,1.191,1.191,0,0,0-.029,1.91,5.423,5.423,0,0,0,1.681.664,6.029,6.029,0,0,1,2.5,1.14,2.488,2.488,0,0,1,.826,1.976,2.562,2.562,0,0,1-1.149,2.262,4.881,4.881,0,0,1-2.8.778,5.542,5.542,0,0,1-3.781-1.311l.932-1.064a4.534,4.534,0,0,0,2.811.969,2.677,2.677,0,0,0,1.568-.408,1.292,1.292,0,0,0,.58-1.112,1.476,1.476,0,0,0-.209-.826,1.7,1.7,0,0,0-.723-.551,9.885,9.885,0,0,0-1.5-.5,5.125,5.125,0,0,1-2.309-1.121,2.4,2.4,0,0,1-.712-1.786,2.343,2.343,0,0,1,.466-1.415,3.026,3.026,0,0,1,1.292-.988,4.694,4.694,0,0,1,1.853-.352A5.58,5.58,0,0,1,230.975,50.484Zm.7-4.959.74.855-2.564,2.147h-1.16L226.11,46.38l.76-.855,2.395,1.6Z"/><path d="M237.034,45.962a1.156,1.156,0,0,1,.342.855,1.125,1.125,0,0,1-.342.846,1.222,1.222,0,0,1-.892.333,1.2,1.2,0,0,1-.874-.333,1.125,1.125,0,0,1-.342-.846,1.156,1.156,0,0,1,.342-.855,1.181,1.181,0,0,1,.874-.341A1.2,1.2,0,0,1,237.034,45.962Zm0,4.465V60.44h-1.748V50.427Z"/><path d="M241.11,60.089a2.239,2.239,0,0,1-.56-1.625V46.4l1.748-.209V58.426a1.035,1.035,0,0,0,.142.609.57.57,0,0,0,.485.19,1.73,1.73,0,0,0,.646-.115l.455,1.217a2.857,2.857,0,0,1-1.386.341A2.03,2.03,0,0,1,241.11,60.089Z"/><path d="M253.156,51.605a5.8,5.8,0,0,1,1.168,3.819,6.67,6.67,0,0,1-.531,2.746,4.174,4.174,0,0,1-1.539,1.843,4.294,4.294,0,0,1-2.395.655,4.051,4.051,0,0,1-3.287-1.406,5.761,5.761,0,0,1-1.177-3.819,6.636,6.636,0,0,1,.532-2.745,4.161,4.161,0,0,1,1.539-1.843,4.323,4.323,0,0,1,2.413-.656A4.027,4.027,0,0,1,253.156,51.605Zm-5.881,3.838q0,3.819,2.584,3.819t2.584-3.838q0-3.819-2.564-3.819Q247.275,51.605,247.275,55.443Z"/><path d="M268.31,47.729V49.04l-4.75,11.59-1.6-.531,4.579-10.945h-5.624V47.729Z"/><path d="M274.674,47.729V60.44h-1.748V49.591l-2.964,1.8-.76-1.234,3.933-2.433Z"/><path d="M291.014,51.567a7.039,7.039,0,0,1,.893,3.857,6.434,6.434,0,0,1-1.026,3.8,3.357,3.357,0,0,1-2.907,1.443,3.228,3.228,0,0,1-2.622-1.14v4.75l-1.748.209V50.427h1.5l.133,1.349a3.83,3.83,0,0,1,1.329-1.168A3.482,3.482,0,0,1,288.2,50.2,3.116,3.116,0,0,1,291.014,51.567Zm-.989,3.857q0-3.837-2.26-3.838a2.26,2.26,0,0,0-1.349.437,4.31,4.31,0,0,0-1.064,1.121v4.883a2.633,2.633,0,0,0,.95.9,2.559,2.559,0,0,0,1.254.314Q290.025,59.244,290.025,55.424Z"/><path d="M300.229,50.313l-.323,1.71a3.6,3.6,0,0,0-.874-.113,1.857,1.857,0,0,0-1.5.683,5.1,5.1,0,0,0-.893,2.128V60.44H294.89V50.427h1.5l.171,2.033a3.792,3.792,0,0,1,1.083-1.691,2.423,2.423,0,0,1,1.6-.57A4.065,4.065,0,0,1,300.229,50.313Z"/><path d="M308.693,51.605a5.8,5.8,0,0,1,1.168,3.819,6.654,6.654,0,0,1-.531,2.746,4.174,4.174,0,0,1-1.539,1.843,4.294,4.294,0,0,1-2.395.655,4.052,4.052,0,0,1-3.287-1.406,5.761,5.761,0,0,1-1.177-3.819,6.636,6.636,0,0,1,.532-2.745A4.161,4.161,0,0,1,303,50.855a4.326,4.326,0,0,1,2.413-.656A4.027,4.027,0,0,1,308.693,51.605Zm-5.88,3.838q0,3.819,2.583,3.819t2.584-3.838q0-3.819-2.564-3.819Q302.812,51.605,302.813,55.443Z"/><path d="M318.031,50.456a4.557,4.557,0,0,1,1.425.826l-.836,1.1a4.286,4.286,0,0,0-1.035-.56,3.282,3.282,0,0,0-1.111-.181,2.171,2.171,0,0,0-1.891.969,5.023,5.023,0,0,0-.675,2.869,4.749,4.749,0,0,0,.665,2.8,2.218,2.218,0,0,0,1.9.9,3.147,3.147,0,0,0,1.083-.18,5.487,5.487,0,0,0,1.1-.58l.8,1.14a4.753,4.753,0,0,1-3.059,1.1,3.988,3.988,0,0,1-3.2-1.368,5.636,5.636,0,0,1-1.169-3.781,6.8,6.8,0,0,1,.533-2.793,4.291,4.291,0,0,1,1.51-1.862A4.041,4.041,0,0,1,316.4,50.2,4.969,4.969,0,0,1,318.031,50.456Z"/><path d="M328.976,56.032h-6.384a3.9,3.9,0,0,0,.836,2.432,2.42,2.42,0,0,0,1.861.78,4.072,4.072,0,0,0,1.33-.209,5.45,5.45,0,0,0,1.274-.665l.759,1.044a5.532,5.532,0,0,1-3.5,1.254A4.054,4.054,0,0,1,321.9,59.3a5.606,5.606,0,0,1-1.168-3.762,7.123,7.123,0,0,1,.5-2.764,4.336,4.336,0,0,1,1.444-1.891,3.663,3.663,0,0,1,2.214-.684,3.709,3.709,0,0,1,3.058,1.311,5.6,5.6,0,0,1,1.065,3.63Q329.014,55.576,328.976,56.032Zm-1.692-1.406a3.7,3.7,0,0,0-.589-2.261,2.073,2.073,0,0,0-1.766-.779q-2.148,0-2.337,3.154h4.692Z"/><path d="M338.656,51.016a3.135,3.135,0,0,1,.77,2.242V60.44h-1.748V53.505a2.222,2.222,0,0,0-.4-1.5,1.517,1.517,0,0,0-1.178-.437,2.281,2.281,0,0,0-1.406.456,4.751,4.751,0,0,0-1.14,1.311V60.44h-1.748V50.427h1.5l.152,1.483a3.949,3.949,0,0,1,1.32-1.255,3.414,3.414,0,0,1,1.739-.456A2.794,2.794,0,0,1,338.656,51.016Z"/><path d="M348,59.984a3.846,3.846,0,0,1-2.242.684,2.639,2.639,0,0,1-1.985-.731,2.912,2.912,0,0,1-.713-2.119V51.776h-1.748V50.427h1.748V48.166l1.748-.209v2.47h2.375l-.191,1.349H344.8v5.966a1.846,1.846,0,0,0,.275,1.131,1.1,1.1,0,0,0,.922.352,2.868,2.868,0,0,0,1.33-.4Z"/><path d="M360.705,50.427v1.33l-5.225,7.22h5.283l-.209,1.463H353.5V59.129l5.206-7.219h-4.769V50.427Zm-1.1-4.9.741.855-2.566,2.147H356.62l-2.584-2.147.76-.855,2.394,1.6Z"/><path d="M370.528,56.032h-6.383a3.9,3.9,0,0,0,.835,2.432,2.423,2.423,0,0,0,1.862.78,4.076,4.076,0,0,0,1.33-.209,5.426,5.426,0,0,0,1.273-.665l.76,1.044a5.532,5.532,0,0,1-3.5,1.254,4.053,4.053,0,0,1-3.258-1.368,5.606,5.606,0,0,1-1.169-3.762,7.122,7.122,0,0,1,.5-2.764,4.336,4.336,0,0,1,1.444-1.891,3.66,3.66,0,0,1,2.213-.684A3.711,3.711,0,0,1,369.5,51.51a5.6,5.6,0,0,1,1.064,3.63C370.566,55.431,370.554,55.728,370.528,56.032Zm-1.691-1.406a3.7,3.7,0,0,0-.589-2.261,2.075,2.075,0,0,0-1.767-.779q-2.146,0-2.336,3.154h4.692Z"/><path d="M380.209,51.016a3.135,3.135,0,0,1,.77,2.242V60.44H379.23V53.505a2.222,2.222,0,0,0-.4-1.5,1.52,1.52,0,0,0-1.179-.437,2.278,2.278,0,0,0-1.405.456,4.77,4.77,0,0,0-1.141,1.311V60.44h-1.748V50.427h1.5l.153,1.483a3.949,3.949,0,0,1,1.32-1.255,3.408,3.408,0,0,1,1.738-.456A2.8,2.8,0,0,1,380.209,51.016Z"/><path d="M385.9,58.407a1.269,1.269,0,0,1,.38.931,1.3,1.3,0,0,1-.38.941,1.274,1.274,0,0,1-.95.389,1.249,1.249,0,0,1-.93-.389,1.3,1.3,0,0,1-.38-.941,1.3,1.3,0,0,1,1.31-1.311A1.29,1.29,0,0,1,385.9,58.407Z"/><path d="M405.887,60.44H404.14l-.456-5.909q-.287-3.477-.324-5.339l-2.831,9.766h-1.691l-2.983-9.785q0,2.376-.247,5.491l-.437,5.776h-1.71l1.083-13.09h2.433l2.754,9.519,2.623-9.519h2.451Z"/><path d="M416.318,60.44h-1.5l-.132-1.558a3.815,3.815,0,0,1-1.312,1.359,3.556,3.556,0,0,1-1.805.427,2.663,2.663,0,0,1-2.051-.8,3.2,3.2,0,0,1-.742-2.262V50.427h1.748v6.992a2.27,2.27,0,0,0,.362,1.454,1.461,1.461,0,0,0,1.178.427,2.973,2.973,0,0,0,2.507-1.729V50.427h1.748Z"/><path d="M425.8,50.427v1.33l-5.225,7.22h5.282l-.209,1.463H418.6V59.129L423.8,51.91h-4.769V50.427Zm-1.1-4.9.741.855-2.565,2.147h-1.159L419.13,46.38l.76-.855,2.394,1.6Z"/><path d="M429.979,45.962a1.159,1.159,0,0,1,.341.855,1.128,1.128,0,0,1-.341.846,1.226,1.226,0,0,1-.893.333,1.2,1.2,0,0,1-.874-.333,1.125,1.125,0,0,1-.342-.846,1.156,1.156,0,0,1,.342-.855,1.181,1.181,0,0,1,.874-.341A1.208,1.208,0,0,1,429.979,45.962Zm0,4.465V60.44H428.23V50.427Z"/><path d="M443.184,50.484a5.551,5.551,0,0,1,1.557.855l-.741,1.1a6.106,6.106,0,0,0-1.3-.646,4.041,4.041,0,0,0-1.3-.209,2.287,2.287,0,0,0-1.348.352,1.191,1.191,0,0,0-.029,1.91,5.423,5.423,0,0,0,1.681.664,6.029,6.029,0,0,1,2.5,1.14,2.488,2.488,0,0,1,.826,1.976,2.562,2.562,0,0,1-1.149,2.262,4.881,4.881,0,0,1-2.8.778,5.542,5.542,0,0,1-3.781-1.311l.932-1.064a4.534,4.534,0,0,0,2.811.969,2.677,2.677,0,0,0,1.568-.408,1.292,1.292,0,0,0,.58-1.112,1.476,1.476,0,0,0-.209-.826,1.7,1.7,0,0,0-.723-.551,9.885,9.885,0,0,0-1.5-.5,5.125,5.125,0,0,1-2.309-1.121,2.4,2.4,0,0,1-.712-1.786,2.343,2.343,0,0,1,.466-1.415,3.026,3.026,0,0,1,1.292-.988,4.694,4.694,0,0,1,1.853-.352A5.58,5.58,0,0,1,443.184,50.484Z"/><path d="M455.021,56.032h-6.384a3.9,3.9,0,0,0,.836,2.432,2.42,2.42,0,0,0,1.861.78,4.076,4.076,0,0,0,1.33-.209,5.45,5.45,0,0,0,1.274-.665l.759,1.044a5.532,5.532,0,0,1-3.5,1.254,4.054,4.054,0,0,1-3.258-1.368,5.606,5.606,0,0,1-1.169-3.762,7.122,7.122,0,0,1,.5-2.764,4.336,4.336,0,0,1,1.444-1.891,3.663,3.663,0,0,1,2.214-.684,3.709,3.709,0,0,1,3.058,1.311,5.6,5.6,0,0,1,1.065,3.63Q455.059,55.576,455.021,56.032Zm-1.692-1.406a3.7,3.7,0,0,0-.589-2.261,2.073,2.073,0,0,0-1.766-.779q-2.148,0-2.337,3.154h4.692Z"/><path d="M464.635,46.19V60.44h-1.748V46.4Zm5.757,4.237-3.686,4.427,4.1,5.586h-2.09l-3.971-5.472,3.686-4.541Z"/><path d="M482.7,59.984a3.846,3.846,0,0,1-2.242.684,2.639,2.639,0,0,1-1.985-.731,2.912,2.912,0,0,1-.713-2.119V51.776h-1.748V50.427h1.748V48.166l1.748-.209v2.47h2.375l-.191,1.349h-2.184v5.966a1.846,1.846,0,0,0,.275,1.131,1.1,1.1,0,0,0,.922.352,2.868,2.868,0,0,0,1.33-.4Z"/><path d="M491.748,56.032h-6.384a3.9,3.9,0,0,0,.836,2.432,2.423,2.423,0,0,0,1.862.78,4.081,4.081,0,0,0,1.33-.209,5.426,5.426,0,0,0,1.273-.665l.76,1.044a5.536,5.536,0,0,1-3.5,1.254,4.051,4.051,0,0,1-3.258-1.368,5.606,5.606,0,0,1-1.169-3.762,7.122,7.122,0,0,1,.5-2.764,4.334,4.334,0,0,1,1.443-1.891,3.663,3.663,0,0,1,2.214-.684,3.711,3.711,0,0,1,3.059,1.311,5.6,5.6,0,0,1,1.064,3.63Q491.786,55.576,491.748,56.032Zm-1.691-1.406a3.709,3.709,0,0,0-.589-2.261,2.076,2.076,0,0,0-1.767-.779q-2.147,0-2.337,3.154h4.693Zm-.836-9.405L490,46.684l-4.028,1.634-.532-.931Z"/><path d="M499.633,59.984a3.846,3.846,0,0,1-2.242.684,2.643,2.643,0,0,1-1.986-.731,2.916,2.916,0,0,1-.713-2.119V51.776h-1.748V50.427h1.748V48.166l1.748-.209v2.47h2.375l-.19,1.349H496.44v5.966a1.839,1.839,0,0,0,.276,1.131,1.1,1.1,0,0,0,.922.352,2.871,2.871,0,0,0,1.33-.4Z"/><path d="M508.192,51.605a5.8,5.8,0,0,1,1.168,3.819,6.654,6.654,0,0,1-.531,2.746,4.174,4.174,0,0,1-1.539,1.843,4.293,4.293,0,0,1-2.394.655,4.053,4.053,0,0,1-3.288-1.406,5.761,5.761,0,0,1-1.177-3.819,6.636,6.636,0,0,1,.532-2.745,4.161,4.161,0,0,1,1.539-1.843,4.326,4.326,0,0,1,2.413-.656A4.027,4.027,0,0,1,508.192,51.605Zm-5.88,3.838q0,3.819,2.584,3.819t2.584-3.838q0-3.819-2.565-3.819Q502.311,51.605,502.312,55.443Z"/><path d="M524.637,50.427l-3.4,10.013h-2.108l-3.458-10.013h1.9l2.622,8.455,2.6-8.455Z"/><path d="M533.281,59.006a1.281,1.281,0,0,0,.627.447l-.4,1.215a2.663,2.663,0,0,1-1.254-.437,1.984,1.984,0,0,1-.7-1.064,3.36,3.36,0,0,1-2.984,1.5,3.2,3.2,0,0,1-2.337-.836,2.917,2.917,0,0,1-.854-2.185,2.871,2.871,0,0,1,1.149-2.451,5.378,5.378,0,0,1,3.258-.855h1.539V53.6a1.952,1.952,0,0,0-.512-1.52,2.325,2.325,0,0,0-1.578-.456,8.85,8.85,0,0,0-2.7.532l-.436-1.273a10.071,10.071,0,0,1,3.458-.684,3.615,3.615,0,0,1,2.64.865,3.306,3.306,0,0,1,.874,2.46V58.1A1.574,1.574,0,0,0,533.281,59.006ZM531.324,57.8V55.5h-1.31q-2.775,0-2.775,2.052a1.873,1.873,0,0,0,.438,1.349,1.707,1.707,0,0,0,1.292.456A2.607,2.607,0,0,0,531.324,57.8Z"/><path d="M542,50.313l-.322,1.71a3.61,3.61,0,0,0-.874-.113,1.857,1.857,0,0,0-1.5.683,5.1,5.1,0,0,0-.894,2.128V60.44h-1.748V50.427h1.5l.171,2.033a3.809,3.809,0,0,1,1.083-1.691,2.423,2.423,0,0,1,1.6-.57A4.062,4.062,0,0,1,542,50.313Z"/><path d="M545.744,45.962a1.156,1.156,0,0,1,.342.855,1.125,1.125,0,0,1-.342.846,1.222,1.222,0,0,1-.892.333,1.2,1.2,0,0,1-.874-.333,1.125,1.125,0,0,1-.342-.846,1.156,1.156,0,0,1,.342-.855,1.181,1.181,0,0,1,.874-.341A1.2,1.2,0,0,1,545.744,45.962Zm0,4.465V60.44H544V50.427Z"/><path d="M556.309,59.006a1.272,1.272,0,0,0,.627.447l-.4,1.215a2.671,2.671,0,0,1-1.254-.437,1.989,1.989,0,0,1-.7-1.064,3.359,3.359,0,0,1-2.983,1.5,3.2,3.2,0,0,1-2.337-.836,2.914,2.914,0,0,1-.855-2.185,2.869,2.869,0,0,1,1.15-2.451,5.374,5.374,0,0,1,3.258-.855h1.539V53.6a1.948,1.948,0,0,0-.513-1.52,2.322,2.322,0,0,0-1.577-.456,8.851,8.851,0,0,0-2.7.532l-.436-1.273a10.076,10.076,0,0,1,3.458-.684,3.616,3.616,0,0,1,2.641.865,3.306,3.306,0,0,1,.874,2.46V58.1A1.566,1.566,0,0,0,556.309,59.006ZM554.352,57.8V55.5h-1.311q-2.775,0-2.774,2.052A1.873,1.873,0,0,0,550.7,58.9a1.708,1.708,0,0,0,1.292.456A2.61,2.61,0,0,0,554.352,57.8Z"/><path d="M566.54,51.016a3.135,3.135,0,0,1,.77,2.242V60.44h-1.748V53.505a2.222,2.222,0,0,0-.4-1.5,1.52,1.52,0,0,0-1.179-.437,2.278,2.278,0,0,0-1.405.456,4.77,4.77,0,0,0-1.141,1.311V60.44H559.69V50.427h1.5l.153,1.483a3.949,3.949,0,0,1,1.32-1.255A3.41,3.41,0,0,1,564.4,50.2,2.8,2.8,0,0,1,566.54,51.016Z"/><path d="M575.879,59.984a3.846,3.846,0,0,1-2.242.684,2.643,2.643,0,0,1-1.986-.731,2.916,2.916,0,0,1-.713-2.119V51.776H569.19V50.427h1.748V48.166l1.749-.209v2.47h2.375l-.191,1.349h-2.184v5.966a1.84,1.84,0,0,0,.275,1.131,1.1,1.1,0,0,0,.922.352,2.871,2.871,0,0,0,1.33-.4Z"/><path d="M584.923,56.032h-6.384a3.9,3.9,0,0,0,.836,2.432,2.421,2.421,0,0,0,1.861.78,4.072,4.072,0,0,0,1.33-.209,5.431,5.431,0,0,0,1.274-.665l.76,1.044a5.536,5.536,0,0,1-3.5,1.254,4.051,4.051,0,0,1-3.258-1.368,5.6,5.6,0,0,1-1.169-3.762,7.122,7.122,0,0,1,.5-2.764,4.334,4.334,0,0,1,1.443-1.891,3.663,3.663,0,0,1,2.214-.684A3.708,3.708,0,0,1,583.9,51.51a5.6,5.6,0,0,1,1.065,3.63Q584.961,55.576,584.923,56.032Zm-1.615-10.507.741.855-2.566,2.147h-1.158l-2.584-2.147.76-.855,2.394,1.6Zm-.077,9.1a3.71,3.71,0,0,0-.588-2.261,2.076,2.076,0,0,0-1.767-.779q-2.148,0-2.337,3.154h4.692Z"/><path d="M600.2,51.567a7.03,7.03,0,0,1,.894,3.857,6.427,6.427,0,0,1-1.027,3.8,3.355,3.355,0,0,1-2.907,1.443,3.23,3.23,0,0,1-2.622-1.14v4.75l-1.748.209V50.427h1.5l.134,1.349a3.821,3.821,0,0,1,1.329-1.168,3.476,3.476,0,0,1,1.635-.409A3.113,3.113,0,0,1,600.2,51.567Zm-.988,3.857q0-3.837-2.261-3.838a2.257,2.257,0,0,0-1.348.437,4.313,4.313,0,0,0-1.065,1.121v4.883a2.641,2.641,0,0,0,.95.9,2.559,2.559,0,0,0,1.254.314Q599.21,59.244,599.21,55.424Z"/><path d="M609.2,45.525l.741.855-2.564,2.147h-1.159l-2.584-2.147.759-.855,2.395,1.6Zm.209,4.788-.322,1.71a3.61,3.61,0,0,0-.874-.113,1.857,1.857,0,0,0-1.5.683,5.1,5.1,0,0,0-.894,2.128V60.44h-1.748V50.427h1.5l.171,2.033a3.809,3.809,0,0,1,1.083-1.691,2.423,2.423,0,0,1,1.6-.57A4.062,4.062,0,0,1,609.413,50.313Z"/><path d="M613.156,45.962a1.156,1.156,0,0,1,.342.855,1.125,1.125,0,0,1-.342.846,1.222,1.222,0,0,1-.892.333,1.2,1.2,0,0,1-.874-.333,1.125,1.125,0,0,1-.342-.846,1.156,1.156,0,0,1,.342-.855,1.181,1.181,0,0,1,.874-.341A1.2,1.2,0,0,1,613.156,45.962Zm0,4.465V60.44h-1.748V50.427Z"/><path d="M618.514,46.19V60.44h-1.748V46.4Zm5.757,4.237-3.686,4.427,4.1,5.586H622.6l-3.971-5.472,3.685-4.541Z"/><path d="M626.959,60.089a2.239,2.239,0,0,1-.561-1.625V46.4l1.748-.209V58.426a1.027,1.027,0,0,0,.143.609.57.57,0,0,0,.484.19,1.731,1.731,0,0,0,.647-.115l.455,1.217a2.858,2.858,0,0,1-1.387.341A2.029,2.029,0,0,1,626.959,60.089Z"/><path d="M638.92,59.006a1.281,1.281,0,0,0,.627.447l-.4,1.215a2.663,2.663,0,0,1-1.253-.437,1.991,1.991,0,0,1-.7-1.064,3.358,3.358,0,0,1-2.983,1.5,3.2,3.2,0,0,1-2.337-.836,2.917,2.917,0,0,1-.854-2.185,2.868,2.868,0,0,1,1.149-2.451,5.378,5.378,0,0,1,3.258-.855h1.539V53.6a1.948,1.948,0,0,0-.513-1.52,2.322,2.322,0,0,0-1.577-.456,8.845,8.845,0,0,0-2.7.532l-.437-1.273A10.08,10.08,0,0,1,635.2,50.2a3.616,3.616,0,0,1,2.641.865,3.306,3.306,0,0,1,.874,2.46V58.1A1.566,1.566,0,0,0,638.92,59.006Zm-2.3-13.785.779,1.463-4.028,1.634-.532-.931Zm.342,12.578V55.5h-1.311q-2.774,0-2.774,2.052a1.873,1.873,0,0,0,.437,1.349,1.708,1.708,0,0,0,1.292.456A2.609,2.609,0,0,0,636.963,57.8Z"/><path d="M649.151,51.016a3.135,3.135,0,0,1,.77,2.242V60.44h-1.748V53.505a2.222,2.222,0,0,0-.4-1.5,1.517,1.517,0,0,0-1.178-.437,2.281,2.281,0,0,0-1.406.456,4.751,4.751,0,0,0-1.14,1.311V60.44H642.3V50.427h1.5l.152,1.483a3.958,3.958,0,0,1,1.32-1.255,3.414,3.414,0,0,1,1.739-.456A2.794,2.794,0,0,1,649.151,51.016Z"/><path d="M655.811,45.221l.779,1.463-4.028,1.634-.532-.931Zm-.627,5.206V60.44h-1.748V50.427Z"/><path d="M669.7,50.427v1.33l-5.224,7.22h5.282l-.209,1.463H662.5V59.129L667.7,51.91h-4.768V50.427Z"/><path d="M683.342,49.1h-4.959V52.84a4.416,4.416,0,0,1,2.032-.494,3.39,3.39,0,0,1,2.622,1.074,4.2,4.2,0,0,1,.988,2.954,4.477,4.477,0,0,1-.55,2.233,3.861,3.861,0,0,1-1.549,1.52,4.765,4.765,0,0,1-2.309.541,5.023,5.023,0,0,1-2.071-.408,5.521,5.521,0,0,1-1.691-1.207l1.026-1.007a4.3,4.3,0,0,0,1.255.9,3.488,3.488,0,0,0,1.463.3,2.456,2.456,0,0,0,1.909-.761,3.071,3.071,0,0,0,.693-2.147,2.761,2.761,0,0,0-.627-2.014,2.283,2.283,0,0,0-1.69-.627,3.731,3.731,0,0,0-.912.1,4.738,4.738,0,0,0-.894.332H676.71v-6.4h6.878Z"/><path d="M694.419,55.918v1.388h-1.653V60.44h-1.691V57.306h-5.434V56.051l3.819-8.512,1.463.608-3.44,7.771h3.611l.152-3.42h1.52v3.42Z"/><path d="M706.188,48.413a3.586,3.586,0,0,1,0,4.674,3.263,3.263,0,0,1-4.445,0,3.593,3.593,0,0,1,0-4.674,3.263,3.263,0,0,1,4.445,0Zm-3.419.874a3.2,3.2,0,0,0,0,2.917,1.276,1.276,0,0,0,1.187.579q1.539,0,1.539-2.033a2.811,2.811,0,0,0-.342-1.453,1.523,1.523,0,0,0-2.384-.01Zm8.9-2.355,1.216.8-8.8,13.3-1.217-.8Zm2.337,8.189a3.623,3.623,0,0,1,0,4.673,3.277,3.277,0,0,1-4.456,0,3.591,3.591,0,0,1,0-4.673,3.274,3.274,0,0,1,4.456,0ZM710.6,56a2.693,2.693,0,0,0-.352,1.453,2.755,2.755,0,0,0,.352,1.454,1.277,1.277,0,0,0,1.187.579q1.541,0,1.539-2.033a2.765,2.765,0,0,0-.342-1.443,1.277,1.277,0,0,0-1.2-.571A1.29,1.29,0,0,0,710.6,56Z"/><path d="M718.928,58.407a1.269,1.269,0,0,1,.38.931,1.3,1.3,0,0,1-.38.941,1.277,1.277,0,0,1-.95.389,1.251,1.251,0,0,1-.931-.389,1.3,1.3,0,0,1-.38-.941,1.3,1.3,0,0,1,1.311-1.311A1.293,1.293,0,0,1,718.928,58.407Z"/><rect class="cls-1" x="54.386" y="196.456" width="270.2" height="60"/><rect class="cls-2" x="324.586" y="196.456" width="164.756" height="60"/><rect class="cls-3" x="489.342" y="196.456" width="105.444" height="60"/><rect class="cls-4" x="595.598" y="196.456" width="85.673" height="60"/><rect class="cls-5" x="680.459" y="196.456" width="39.541" height="60"/><polygon class="cls-6" points="324.586 196.456 54.386 196.456 54.386 256.456 324.586 256.456 489.342 256.456 489.342 196.456 324.586 196.456"/><polygon class="cls-6" points="672.57 196.456 594.785 196.456 594.785 256.456 672.57 256.456 720 256.456 720 196.456 672.57 196.456"/><rect class="cls-1" x="54.386" y="125.687" width="185.492" height="60"/><rect class="cls-2" x="239.878" y="125.687" width="125.87" height="60"/><rect class="cls-3" x="365.748" y="125.687" width="145.744" height="60"/><rect class="cls-4" x="511.492" y="125.687" width="129.011" height="60"/><rect class="cls-5" x="640.503" y="125.687" width="79.497" height="60"/><polygon class="cls-6" points="640.805 125.687 510.924 125.687 510.924 185.687 640.805 185.687 720 185.687 720 125.687 640.805 125.687"/><polygon class="cls-6" points="247.808 125.687 54.386 125.687 54.386 185.687 247.808 185.687 365.748 185.687 365.748 125.687 247.808 125.687"/><path class="cls-1" d="M65.913,85.217a3.282,3.282,0,0,1,1.25,2.805,3.483,3.483,0,0,1-1.258,2.932,5.311,5.311,0,0,1-3.349.978H61.179v4.1H58.935V84.282H62.4A5.761,5.761,0,0,1,65.913,85.217Zm-1.708,4.53a2.117,2.117,0,0,0,.611-1.725q0-2.091-2.43-2.091H61.179v4.318h1.207A2.818,2.818,0,0,0,64.205,89.747Z"/><path class="cls-1" d="M73.487,82.429l.833.952-2.363,2.125H70.6l-2.363-2.125.832-.952,2.211,1.5Zm.425,4.488-.374,2.108a3.291,3.291,0,0,0-.8-.1,1.53,1.53,0,0,0-1.259.57,4.382,4.382,0,0,0-.73,1.742v4.794H68.574V87.036H70.46l.205,1.768a3.218,3.218,0,0,1,.935-1.487,2.117,2.117,0,0,1,1.411-.519A3.226,3.226,0,0,1,73.912,86.917Z"/><path class="cls-1" d="M82.089,92.2H76.445a2.851,2.851,0,0,0,.68,1.87,2.1,2.1,0,0,0,1.53.561,3.213,3.213,0,0,0,1.122-.2,5.257,5.257,0,0,0,1.121-.6l.9,1.241a5.178,5.178,0,0,1-3.332,1.207A4.01,4.01,0,0,1,75.3,95.026a5,5,0,0,1-1.113-3.434,6.139,6.139,0,0,1,.476-2.473A3.917,3.917,0,0,1,76.037,87.4a4.1,4.1,0,0,1,5.066.578,4.943,4.943,0,0,1,1.037,3.34Q82.14,91.49,82.089,92.2ZM79.98,90.691q0-2.363-1.75-2.363a1.488,1.488,0,0,0-1.25.587,3.492,3.492,0,0,0-.535,1.878H79.98Z"/><path class="cls-1" d="M90.13,87.852l-.85,1.275a4.23,4.23,0,0,0-2.261-.731,1.749,1.749,0,0,0-1,.246.761.761,0,0,0-.357.655.82.82,0,0,0,.153.51,1.394,1.394,0,0,0,.552.383,9.359,9.359,0,0,0,1.181.4,5.2,5.2,0,0,1,2.168,1.037,2.323,2.323,0,0,1,.705,1.8,2.417,2.417,0,0,1-1.087,2.1,4.627,4.627,0,0,1-2.7.756,5.7,5.7,0,0,1-2.014-.34,4.862,4.862,0,0,1-1.572-.935l1.087-1.224a4.02,4.02,0,0,0,2.449.884,2.068,2.068,0,0,0,1.164-.289.911.911,0,0,0,.434-.8,1.057,1.057,0,0,0-.162-.62,1.329,1.329,0,0,0-.578-.408,11.919,11.919,0,0,0-1.3-.434,4.344,4.344,0,0,1-2.023-1.045,2.32,2.32,0,0,1-.646-1.675,2.226,2.226,0,0,1,.433-1.343,2.884,2.884,0,0,1,1.224-.935,4.538,4.538,0,0,1,1.811-.34A5.062,5.062,0,0,1,90.13,87.852Z"/><path class="cls-1" d="M99.106,87.036l-2.924,8.993h-2.6l-2.975-8.993h2.363l1.921,7.242,1.972-7.242Z"/><path class="cls-1" d="M107.674,92.2H102.03a2.856,2.856,0,0,0,.679,1.87,2.106,2.106,0,0,0,1.531.561,3.213,3.213,0,0,0,1.122-.2,5.257,5.257,0,0,0,1.121-.6l.9,1.241a5.178,5.178,0,0,1-3.332,1.207,4.01,4.01,0,0,1-3.171-1.258,5,5,0,0,1-1.113-3.434,6.139,6.139,0,0,1,.476-2.473,3.917,3.917,0,0,1,1.377-1.717,4.1,4.1,0,0,1,5.066.578,4.943,4.943,0,0,1,1.037,3.34Q107.725,91.49,107.674,92.2Zm-1.65-9.775.833.952L104.5,85.506h-1.36l-2.364-2.125.834-.952,2.209,1.5Zm-.459,8.262q0-2.363-1.751-2.363a1.487,1.487,0,0,0-1.249.587,3.492,3.492,0,0,0-.535,1.878h3.535Z"/><path class="cls-1" d="M117.245,83.432v12.6h-1.921l-.154-1.139a3.14,3.14,0,0,1-1.079,1.02,2.936,2.936,0,0,1-1.487.374,2.9,2.9,0,0,1-2.533-1.275,5.992,5.992,0,0,1-.884-3.468,6.448,6.448,0,0,1,.441-2.456,3.877,3.877,0,0,1,1.267-1.692,3.2,3.2,0,0,1,4.174.357V83.194Zm-3.009,10.923a2.9,2.9,0,0,0,.833-.876V89.365a3.144,3.144,0,0,0-.791-.714,1.78,1.78,0,0,0-.926-.238,1.553,1.553,0,0,0-1.369.774,4.358,4.358,0,0,0-.5,2.337,4.788,4.788,0,0,0,.443,2.388,1.423,1.423,0,0,0,1.292.723A1.864,1.864,0,0,0,114.236,94.355Z"/><path class="cls-1" d="M125.073,87.036a4.27,4.27,0,0,1,1.335.8l-.97,1.309a3.47,3.47,0,0,0-.883-.493,2.75,2.75,0,0,0-.935-.153q-2.024,0-2.023,3.077a3.751,3.751,0,0,0,.527,2.253,1.772,1.772,0,0,0,1.5.688,2.426,2.426,0,0,0,.875-.153,5.648,5.648,0,0,0,.943-.493l.97,1.377a4.482,4.482,0,0,1-2.907,1.037,4.292,4.292,0,0,1-2.244-.569,3.737,3.737,0,0,1-1.462-1.624,5.64,5.64,0,0,1-.51-2.482,5.922,5.922,0,0,1,.51-2.524,3.905,3.905,0,0,1,1.462-1.7,4.063,4.063,0,0,1,2.227-.6A4.651,4.651,0,0,1,125.073,87.036Zm.621-4.607.833.952-2.363,2.125H122.8l-2.363-2.125.833-.952,2.21,1.5Z"/><path class="cls-1" d="M134.976,92.2h-5.644a2.851,2.851,0,0,0,.68,1.87,2.1,2.1,0,0,0,1.53.561,3.209,3.209,0,0,0,1.122-.2,5.286,5.286,0,0,0,1.122-.6l.9,1.241a5.176,5.176,0,0,1-3.332,1.207,4.006,4.006,0,0,1-3.17-1.258,5,5,0,0,1-1.114-3.434,6.156,6.156,0,0,1,.476-2.473,3.917,3.917,0,0,1,1.377-1.717,4.1,4.1,0,0,1,5.066.578,4.943,4.943,0,0,1,1.037,3.34Q135.027,91.49,134.976,92.2Zm-2.108-1.513q0-2.363-1.751-2.363a1.488,1.488,0,0,0-1.25.587,3.492,3.492,0,0,0-.535,1.878h3.536Z"/><path class="cls-1" d="M143.654,87.5a2.844,2.844,0,0,1,.672,2.014v6.511H142.15V89.858a1.729,1.729,0,0,0-.281-1.122,1.034,1.034,0,0,0-.824-.323,1.617,1.617,0,0,0-1.012.349,3.967,3.967,0,0,0-.875,1.011v6.256h-2.176V87.036h1.887l.17,1.173a3.341,3.341,0,0,1,2.737-1.428A2.434,2.434,0,0,1,143.654,87.5Z"/><path class="cls-1" d="M149.238,82.089l.885,1.7-3.843,1.53-.612-1.105Zm-.2,4.947v8.993h-2.176V87.036Z"/><path class="cls-7" d="M12.974,221.409v1.632l-5.1,7.7h5.151l-.224,1.728H5.406v-1.616l5.2-7.76H5.934v-1.68ZM11.5,217.617l.785.9-2.224,1.92H8.782l-2.224-1.92.784-.9,2.079,1.328Z"/><path class="cls-7" d="M21.374,228.865H16.062a2.684,2.684,0,0,0,.64,1.76,1.977,1.977,0,0,0,1.44.528,3.007,3.007,0,0,0,1.056-.184,4.946,4.946,0,0,0,1.055-.568l.849,1.168a4.869,4.869,0,0,1-3.136,1.136,3.775,3.775,0,0,1-2.985-1.184,4.7,4.7,0,0,1-1.047-3.232,5.785,5.785,0,0,1,.448-2.328,3.689,3.689,0,0,1,1.3-1.616,3.467,3.467,0,0,1,2.016-.584,3.445,3.445,0,0,1,2.752,1.128,4.655,4.655,0,0,1,.975,3.144C21.421,228.14,21.406,228.417,21.374,228.865Zm-1.984-1.424q0-2.225-1.648-2.224a1.4,1.4,0,0,0-1.177.552,3.3,3.3,0,0,0-.5,1.768H19.39Z"/><path class="cls-7" d="M29.542,224.441a2.682,2.682,0,0,1,.632,1.9v6.128H28.126v-5.808a1.626,1.626,0,0,0-.264-1.056.975.975,0,0,0-.776-.3,1.521,1.521,0,0,0-.952.328,3.729,3.729,0,0,0-.824.952v5.888H23.262V224h1.776l.16,1.1a3.145,3.145,0,0,1,2.576-1.344A2.3,2.3,0,0,1,29.542,224.441Z"/><path class="cls-7" d="M36.558,232.5a5.2,5.2,0,0,1-1.553,2.44,4.932,4.932,0,0,1-2.847,1.016l-.208-1.488a5.181,5.181,0,0,0,1.336-.36,2.144,2.144,0,0,0,.807-.616,4.1,4.1,0,0,0,.56-1.024h-.7L31.262,224h2.176l1.839,7.1L37.2,224H39.31Z"/><path class="cls-7" d="M17.662,161.036H15.6l-.288-4.624q-.144-2.48-.144-3.936V151.9l-2.016,7.936h-2l-2.144-7.952q.031,1.056.032,1.6,0,1.457-.1,2.992l-.272,4.56H6.622L7.5,149.98h2.72l1.968,7.744,1.856-7.744H16.8Z"/><path class="cls-7" d="M26.4,161.036H24.622l-.112-1.184a3.133,3.133,0,0,1-1.1,1.072,3.022,3.022,0,0,1-1.5.352,2.217,2.217,0,0,1-1.752-.7,2.806,2.806,0,0,1-.616-1.928v-6.08H21.6V158.4a1.639,1.639,0,0,0,.248,1.024.962.962,0,0,0,.792.3,2.067,2.067,0,0,0,1.712-1.2v-5.952H26.4Z"/><path class="cls-7" d="M34.366,152.572v1.472l-4.095,5.392h4.175l-.208,1.6h-6.32v-1.472l4.112-5.392H28.271v-1.6Zm-1.04-4.336.784.9-2.224,2h-1.28l-2.224-2,.785-.9,2.08,1.408Z"/><path class="cls-7" d="M37.99,148.644a1.207,1.207,0,0,1,.36.888,1.179,1.179,0,0,1-.36.88,1.281,1.281,0,0,1-.936.352,1.26,1.26,0,0,1-.92-.352,1.179,1.179,0,0,1-.36-.88,1.207,1.207,0,0,1,.36-.888,1.246,1.246,0,0,1,.92-.36A1.266,1.266,0,0,1,37.99,148.644Zm.1,3.928v8.464H36.046v-8.464Z"/><path class="cls-8" d="M250.361,84.282v1.734l-5.423,8.177h5.474l-.238,1.836H242.32V94.312l5.525-8.245h-4.964V84.282Z"/><path class="cls-8" d="M258.768,87.5a2.846,2.846,0,0,1,.671,2.014v6.512h-2.175V89.858a1.725,1.725,0,0,0-.281-1.122,1.031,1.031,0,0,0-.824-.324,1.615,1.615,0,0,0-1.012.349,3.994,3.994,0,0,0-.876,1.012v6.256H252.1V87.036h1.886l.171,1.173a3.341,3.341,0,0,1,2.737-1.428A2.44,2.44,0,0,1,258.768,87.5Z"/><path class="cls-8" d="M269.3,92.2h-5.644a2.856,2.856,0,0,0,.68,1.87,2.1,2.1,0,0,0,1.53.561,3.182,3.182,0,0,0,1.122-.2,5.234,5.234,0,0,0,1.122-.6l.9,1.241a5.174,5.174,0,0,1-3.332,1.207,4.009,4.009,0,0,1-3.17-1.258,5,5,0,0,1-1.114-3.434,6.161,6.161,0,0,1,.476-2.474,3.922,3.922,0,0,1,1.377-1.717,4.1,4.1,0,0,1,5.066.578,4.944,4.944,0,0,1,1.037,3.341Q269.35,91.49,269.3,92.2Zm-2.108-1.513q0-2.363-1.751-2.363a1.488,1.488,0,0,0-1.25.586,3.5,3.5,0,0,0-.535,1.879h3.536Z"/><path class="cls-8" d="M278.479,88.022a6.314,6.314,0,0,1,.816,3.485,6.826,6.826,0,0,1-.417,2.473,3.754,3.754,0,0,1-1.223,1.692,3.084,3.084,0,0,1-1.913.612,2.806,2.806,0,0,1-2.261-.986v4.2l-2.176.239v-12.7h1.9l.119,1.105a3.521,3.521,0,0,1,1.207-1.02,3.146,3.146,0,0,1,1.428-.34A2.8,2.8,0,0,1,278.479,88.022Zm-1.462,3.5a4.961,4.961,0,0,0-.425-2.38,1.384,1.384,0,0,0-1.275-.732,1.751,1.751,0,0,0-1.02.332,2.9,2.9,0,0,0-.816.893v4.046a1.91,1.91,0,0,0,1.649.935Q277.017,94.618,277.017,91.524Z"/><path class="cls-8" d="M288.211,88.047a5.082,5.082,0,0,1,1.114,3.477,5.762,5.762,0,0,1-.51,2.49,3.878,3.878,0,0,1-1.462,1.675,4.187,4.187,0,0,1-2.261.6,3.939,3.939,0,0,1-3.111-1.267,5.082,5.082,0,0,1-1.122-3.493,5.71,5.71,0,0,1,.51-2.482,3.861,3.861,0,0,1,1.47-1.666,4.222,4.222,0,0,1,2.27-.595A3.913,3.913,0,0,1,288.211,88.047Zm-5.057,3.477a4.455,4.455,0,0,0,.485,2.354,1.768,1.768,0,0,0,2.906-.008,5.9,5.9,0,0,0,0-4.684,1.594,1.594,0,0,0-1.436-.756Q283.155,88.43,283.154,91.524Z"/><path class="cls-8" d="M293.541,83.194V96.029h-2.176v-12.6Zm5.389,3.842L295.938,91l3.281,5.033h-2.5l-3.094-4.913,3.009-4.08Z"/><path class="cls-8" d="M307.031,88.047a5.086,5.086,0,0,1,1.113,3.477,5.762,5.762,0,0,1-.51,2.49,3.871,3.871,0,0,1-1.462,1.675,4.182,4.182,0,0,1-2.261.6,3.939,3.939,0,0,1-3.111-1.267,5.082,5.082,0,0,1-1.122-3.493,5.71,5.71,0,0,1,.51-2.482,3.863,3.863,0,0,1,1.471-1.666,4.218,4.218,0,0,1,2.269-.595A3.916,3.916,0,0,1,307.031,88.047Zm-5.058,3.477a4.464,4.464,0,0,0,.485,2.354,1.769,1.769,0,0,0,2.907-.008,5.908,5.908,0,0,0,0-4.684,1.6,1.6,0,0,0-1.437-.756Q301.974,88.43,301.973,91.524Z"/><path class="cls-8" d="M312.343,95.23a5.267,5.267,0,0,1-.382,2.167,3.36,3.36,0,0,1-1.08,1.352,8.616,8.616,0,0,1-1.818.969l-.7-1.581a5.168,5.168,0,0,0,1.036-.6,1.837,1.837,0,0,0,.57-.808,3.882,3.882,0,0,0,.195-1.359v-8.33h2.176Zm-.11-12.368a1.284,1.284,0,0,1,.383.944,1.254,1.254,0,0,1-.383.935,1.365,1.365,0,0,1-1,.374,1.341,1.341,0,0,1-.977-.374,1.254,1.254,0,0,1-.383-.935,1.284,1.284,0,0,1,.383-.944,1.323,1.323,0,0,1,.977-.382A1.346,1.346,0,0,1,312.233,82.862Z"/><path class="cls-8" d="M322.288,92.2h-5.644a2.851,2.851,0,0,0,.68,1.87,2.1,2.1,0,0,0,1.53.561,3.182,3.182,0,0,0,1.122-.2,5.234,5.234,0,0,0,1.122-.6l.9,1.241a5.176,5.176,0,0,1-3.332,1.207,4.006,4.006,0,0,1-3.17-1.258,5,5,0,0,1-1.114-3.434,6.161,6.161,0,0,1,.476-2.474,3.922,3.922,0,0,1,1.377-1.717,4.1,4.1,0,0,1,5.066.578,4.944,4.944,0,0,1,1.037,3.341Q322.339,91.49,322.288,92.2Zm-2.108-1.513q0-2.363-1.751-2.363a1.488,1.488,0,0,0-1.25.586,3.5,3.5,0,0,0-.535,1.879h3.536Z"/><path class="cls-8" d="M330.966,87.5a2.846,2.846,0,0,1,.672,2.014v6.512h-2.176V89.858a1.725,1.725,0,0,0-.281-1.122,1.031,1.031,0,0,0-.824-.324,1.617,1.617,0,0,0-1.012.349,3.973,3.973,0,0,0-.875,1.012v6.256h-2.176V87.036h1.887l.17,1.173a3.341,3.341,0,0,1,2.737-1.428A2.439,2.439,0,0,1,330.966,87.5Z"/><path class="cls-8" d="M336.551,82.089l.884,1.7-3.842,1.531-.612-1.105Zm-.2,4.947v8.993H334.17V87.036Z"/><path class="cls-9" d="M378.3,96.029H375.4l-4.028-9.5q.151,1.258.229,2.278t.076,2.431v4.794h-2.04V84.282h2.839l4.1,9.52q-.1-.68-.2-1.794t-.1-2.218V84.282h2.04Z"/><path class="cls-9" d="M388.316,92.2h-5.644a2.851,2.851,0,0,0,.68,1.87,2.105,2.105,0,0,0,1.53.561,3.182,3.182,0,0,0,1.122-.2,5.234,5.234,0,0,0,1.122-.6l.9,1.241a5.174,5.174,0,0,1-3.332,1.207,4.009,4.009,0,0,1-3.17-1.258,5,5,0,0,1-1.113-3.434,6.161,6.161,0,0,1,.475-2.474,3.936,3.936,0,0,1,1.377-1.717,4.1,4.1,0,0,1,5.067.578,4.949,4.949,0,0,1,1.036,3.341Q388.367,91.49,388.316,92.2Zm-2.107-1.513q0-2.363-1.751-2.363a1.486,1.486,0,0,0-1.25.586,3.5,3.5,0,0,0-.536,1.879h3.537Z"/><path class="cls-9" d="M392.481,95.23A5.267,5.267,0,0,1,392.1,97.4a3.369,3.369,0,0,1-1.08,1.352,8.651,8.651,0,0,1-1.819.969l-.7-1.581a5.22,5.22,0,0,0,1.038-.6,1.852,1.852,0,0,0,.569-.808,3.882,3.882,0,0,0,.195-1.359v-8.33h2.176Zm-.11-12.368a1.283,1.283,0,0,1,.382.944,1.253,1.253,0,0,1-.382.935,1.363,1.363,0,0,1-1,.374,1.34,1.34,0,0,1-.977-.374,1.254,1.254,0,0,1-.383-.935,1.284,1.284,0,0,1,.383-.944,1.322,1.322,0,0,1,.977-.382A1.345,1.345,0,0,1,392.371,82.862Z"/><path class="cls-9" d="M397.165,82.862a1.283,1.283,0,0,1,.382.944,1.253,1.253,0,0,1-.382.935,1.363,1.363,0,0,1-1,.374,1.341,1.341,0,0,1-.977-.374,1.254,1.254,0,0,1-.383-.935,1.284,1.284,0,0,1,.383-.944,1.323,1.323,0,0,1,.977-.382A1.345,1.345,0,0,1,397.165,82.862Zm.111,4.174v8.993H395.1V87.036Z"/><path class="cls-9" d="M405.928,87.852l-.849,1.275a4.23,4.23,0,0,0-2.261-.731,1.747,1.747,0,0,0-1,.246.761.761,0,0,0-.357.655.82.82,0,0,0,.153.51,1.386,1.386,0,0,0,.552.382,9.173,9.173,0,0,0,1.181.4,5.183,5.183,0,0,1,2.168,1.037,2.321,2.321,0,0,1,.7,1.8,2.414,2.414,0,0,1-1.088,2.1,4.622,4.622,0,0,1-2.7.757,5.727,5.727,0,0,1-2.014-.34,4.9,4.9,0,0,1-1.573-.935l1.088-1.224a4.018,4.018,0,0,0,2.449.884,2.068,2.068,0,0,0,1.164-.289.911.911,0,0,0,.433-.8,1.065,1.065,0,0,0-.161-.62,1.329,1.329,0,0,0-.578-.408,11.846,11.846,0,0,0-1.3-.433,4.331,4.331,0,0,1-2.022-1.046,2.318,2.318,0,0,1-.647-1.674,2.225,2.225,0,0,1,.434-1.343,2.876,2.876,0,0,1,1.224-.935,4.538,4.538,0,0,1,1.811-.34A5.057,5.057,0,0,1,405.928,87.852Z"/><path class="cls-9" d="M413.136,95.6a3.514,3.514,0,0,1-1.062.51,4.292,4.292,0,0,1-1.2.17,2.673,2.673,0,0,1-2.015-.757,3.1,3.1,0,0,1-.689-2.184V88.6h-1.411V87.036h1.411V85.047l2.176-.255v2.244h2.091l-.221,1.564h-1.87v4.692a1.539,1.539,0,0,0,.23.952.867.867,0,0,0,.722.289,2.232,2.232,0,0,0,1.072-.323Z"/><path class="cls-9" d="M416.741,82.089l.884,1.7-3.842,1.531-.613-1.105Zm-.2,4.947v8.993H414.36V87.036Z"/><path class="cls-10" d="M520.591,84.384a5.456,5.456,0,0,1,1.717,1.088l-1.1,1.274a4.391,4.391,0,0,0-1.267-.764,3.876,3.876,0,0,0-1.368-.238,2.189,2.189,0,0,0-1.318.365,1.2,1.2,0,0,0-.5,1.029,1.272,1.272,0,0,0,.2.731,1.8,1.8,0,0,0,.7.543,10.235,10.235,0,0,0,1.514.562,6.861,6.861,0,0,1,2.609,1.351,3.048,3.048,0,0,1,.875,2.355,3.33,3.33,0,0,1-.535,1.87,3.553,3.553,0,0,1-1.538,1.275,5.681,5.681,0,0,1-2.38.459,6.319,6.319,0,0,1-2.406-.434,5.63,5.63,0,0,1-1.828-1.181l1.157-1.292a5.209,5.209,0,0,0,1.411.875,4.225,4.225,0,0,0,1.614.3,2.5,2.5,0,0,0,1.565-.459A1.539,1.539,0,0,0,520.3,92.8a1.584,1.584,0,0,0-.2-.842,1.769,1.769,0,0,0-.7-.595,8.474,8.474,0,0,0-1.428-.553,6.688,6.688,0,0,1-2.7-1.393,3.133,3.133,0,0,1-.322-3.842,3.358,3.358,0,0,1,1.419-1.14,4.994,4.994,0,0,1,2.065-.407A5.945,5.945,0,0,1,520.591,84.384Z"/><path class="cls-10" d="M526.677,83.194V96.029H524.5v-12.6Zm5.389,3.842L529.074,91l3.281,5.033h-2.5l-3.094-4.913,3.009-4.08Z"/><path class="cls-10" d="M540.719,92.2h-5.643a2.851,2.851,0,0,0,.679,1.87,2.106,2.106,0,0,0,1.531.561,3.19,3.19,0,0,0,1.122-.2,5.281,5.281,0,0,0,1.122-.6l.9,1.241a5.172,5.172,0,0,1-3.332,1.207,4.009,4.009,0,0,1-3.17-1.258,5,5,0,0,1-1.113-3.434,6.144,6.144,0,0,1,.476-2.474,3.927,3.927,0,0,1,1.376-1.717,4.1,4.1,0,0,1,5.067.578,4.949,4.949,0,0,1,1.036,3.341Q540.77,91.49,540.719,92.2Zm-2.107-1.513q0-2.363-1.751-2.363a1.488,1.488,0,0,0-1.25.586,3.5,3.5,0,0,0-.535,1.879h3.536Z"/><path class="cls-10" d="M549.9,88.022a6.315,6.315,0,0,1,.815,3.485,6.827,6.827,0,0,1-.416,2.473,3.763,3.763,0,0,1-1.224,1.692,3.081,3.081,0,0,1-1.912.612A2.8,2.8,0,0,1,544.9,95.3v4.2l-2.177.239v-12.7h1.9l.12,1.105a3.512,3.512,0,0,1,1.207-1.02,3.142,3.142,0,0,1,1.427-.34A2.8,2.8,0,0,1,549.9,88.022Zm-1.462,3.5a4.972,4.972,0,0,0-.426-2.38,1.383,1.383,0,0,0-1.274-.732,1.756,1.756,0,0,0-1.021.332,2.889,2.889,0,0,0-.815.893v4.046a1.91,1.91,0,0,0,1.648.935Q548.437,94.618,548.438,91.524Z"/><path class="cls-10" d="M558.008,95.6a3.514,3.514,0,0,1-1.062.51,4.292,4.292,0,0,1-1.2.17,2.673,2.673,0,0,1-2.015-.757,3.1,3.1,0,0,1-.689-2.184V88.6h-1.411V87.036h1.411V85.047l2.176-.255v2.244h2.091L557.09,88.6h-1.87v4.692a1.539,1.539,0,0,0,.23.952.867.867,0,0,0,.722.289,2.228,2.228,0,0,0,1.072-.323Z"/><path class="cls-10" d="M561.3,82.862a1.28,1.28,0,0,1,.383.944,1.25,1.25,0,0,1-.383.935,1.362,1.362,0,0,1-.994.374,1.341,1.341,0,0,1-.977-.374,1.254,1.254,0,0,1-.383-.935,1.284,1.284,0,0,1,.383-.944,1.323,1.323,0,0,1,.977-.382A1.344,1.344,0,0,1,561.3,82.862Zm.112,4.174v8.993h-2.177V87.036Z"/><path class="cls-10" d="M569.237,87.036a4.217,4.217,0,0,1,1.334.8l-.969,1.309a3.492,3.492,0,0,0-.884-.493,2.736,2.736,0,0,0-.934-.153q-2.025,0-2.024,3.077a3.746,3.746,0,0,0,.528,2.252,1.771,1.771,0,0,0,1.5.689,2.434,2.434,0,0,0,.875-.153,5.648,5.648,0,0,0,.943-.493l.969,1.376a4.477,4.477,0,0,1-2.906,1.038,4.289,4.289,0,0,1-2.245-.57,3.732,3.732,0,0,1-1.461-1.623,5.643,5.643,0,0,1-.51-2.482,5.927,5.927,0,0,1,.51-2.525,3.909,3.909,0,0,1,1.461-1.7,4.073,4.073,0,0,1,2.227-.6A4.657,4.657,0,0,1,569.237,87.036Zm.62-4.607.833.952-2.362,2.125h-1.361L564.6,83.381l.833-.952,2.21,1.5Z"/><path class="cls-10" d="M577.3,95.6a3.514,3.514,0,0,1-1.062.51,4.294,4.294,0,0,1-1.2.17,2.672,2.672,0,0,1-2.014-.757,3.1,3.1,0,0,1-.689-2.184V88.6h-1.411V87.036h1.411V85.047l2.176-.255v2.244h2.091l-.221,1.564h-1.87v4.692a1.539,1.539,0,0,0,.23.952.867.867,0,0,0,.722.289,2.232,2.232,0,0,0,1.072-.323Z"/><path class="cls-10" d="M580.908,82.089l.884,1.7-3.842,1.531-.613-1.105Zm-.2,4.947v8.993h-2.177V87.036Z"/><path class="cls-5" d="M644.125,84.282V96.029H641.88V84.282Zm6.6,0L646.658,89.6l4.385,6.426h-2.668l-4.149-6.273,4.064-5.474Z"/><path class="cls-5" d="M657.572,86.917l-.374,2.108a3.3,3.3,0,0,0-.8-.1,1.532,1.532,0,0,0-1.258.569,4.365,4.365,0,0,0-.73,1.743v4.794h-2.177V87.036h1.888l.2,1.768a3.233,3.233,0,0,1,.934-1.488,2.121,2.121,0,0,1,1.411-.518A3.233,3.233,0,0,1,657.572,86.917Z"/><path class="cls-5" d="M661,82.862a1.283,1.283,0,0,1,.382.944,1.253,1.253,0,0,1-.382.935,1.363,1.363,0,0,1-1,.374,1.341,1.341,0,0,1-.977-.374,1.254,1.254,0,0,1-.383-.935,1.284,1.284,0,0,1,.383-.944A1.323,1.323,0,0,1,660,82.48,1.345,1.345,0,0,1,661,82.862Zm.111,4.174v8.993h-2.177V87.036Z"/><path class="cls-5" d="M668.876,95.6a3.5,3.5,0,0,1-1.062.51,4.292,4.292,0,0,1-1.2.17,2.673,2.673,0,0,1-2.015-.757,3.1,3.1,0,0,1-.688-2.184V88.6H662.5V87.036h1.412V85.047l2.175-.255v2.244h2.091l-.22,1.564h-1.871v4.692a1.545,1.545,0,0,0,.23.952.868.868,0,0,0,.723.289,2.228,2.228,0,0,0,1.071-.323Z"/><path class="cls-5" d="M672.166,82.862a1.283,1.283,0,0,1,.382.944,1.253,1.253,0,0,1-.382.935,1.363,1.363,0,0,1-1,.374,1.341,1.341,0,0,1-.977-.374,1.254,1.254,0,0,1-.383-.935,1.284,1.284,0,0,1,.383-.944,1.323,1.323,0,0,1,.977-.382A1.345,1.345,0,0,1,672.166,82.862Zm.111,4.174v8.993H670.1V87.036Z"/><path class="cls-5" d="M680.105,87.036a4.217,4.217,0,0,1,1.334.8l-.969,1.309a3.458,3.458,0,0,0-.884-.493,2.736,2.736,0,0,0-.934-.153q-2.025,0-2.024,3.077a3.746,3.746,0,0,0,.528,2.252,1.771,1.771,0,0,0,1.5.689,2.434,2.434,0,0,0,.875-.153,5.648,5.648,0,0,0,.943-.493l.969,1.376a4.475,4.475,0,0,1-2.906,1.038,4.283,4.283,0,0,1-2.244-.57,3.734,3.734,0,0,1-1.462-1.623,5.643,5.643,0,0,1-.51-2.482,5.927,5.927,0,0,1,.51-2.525,3.911,3.911,0,0,1,1.462-1.7,4.07,4.07,0,0,1,2.226-.6A4.657,4.657,0,0,1,680.105,87.036Zm.62-4.607.833.952L679.2,85.506h-1.361l-2.363-2.125.833-.952,2.21,1.5Z"/><path class="cls-5" d="M688.171,95.6a3.5,3.5,0,0,1-1.062.51,4.292,4.292,0,0,1-1.2.17,2.673,2.673,0,0,1-2.015-.757,3.1,3.1,0,0,1-.688-2.184V88.6H681.8V87.036h1.412V85.047l2.175-.255v2.244h2.091l-.221,1.564h-1.87v4.692a1.539,1.539,0,0,0,.23.952.867.867,0,0,0,.722.289,2.228,2.228,0,0,0,1.072-.323Z"/><path class="cls-5" d="M691.776,82.089l.884,1.7-3.842,1.531-.612-1.105Zm-.2,4.947v8.993H689.4V87.036Z"/><g class="cls-11"><path class="cls-12" d="M76.156,228.043v1.224H74.864v2.805H73.4v-2.805H68.948v-1.1l3.043-7.667,1.292.493-2.771,7.055h2.906l.154-3.094h1.292v3.094Z"/><path class="cls-12" d="M80.678,220.7v11.373H79.165V222.3L76.8,223.9l-.7-1.02,3.229-2.176Z"/><path class="cls-12" d="M91.294,221.277a3.543,3.543,0,0,1,0,4.2,2.465,2.465,0,0,1-3.57,0,3.011,3.011,0,0,1-.688-2.091,3.059,3.059,0,0,1,.68-2.108,2.273,2.273,0,0,1,1.785-.765A2.3,2.3,0,0,1,91.294,221.277Zm-3.051,2.108q0,1.854,1.258,1.853a1.033,1.033,0,0,0,.969-.493,2.745,2.745,0,0,0,.289-1.377q0-1.852-1.258-1.853T88.243,223.385Zm7.5-3.366,1,.595-7.106,11.951-1-.595Zm1.861,7.31a3.011,3.011,0,0,1,.689,2.091,3.062,3.062,0,0,1-.68,2.108,2.279,2.279,0,0,1-1.785.765,2.332,2.332,0,0,1-1.8-.765,3.515,3.515,0,0,1,0-4.2,2.328,2.328,0,0,1,1.8-.765A2.28,2.28,0,0,1,97.6,227.329Zm-3.051,2.108q0,1.852,1.275,1.852a1.013,1.013,0,0,0,.96-.492,2.807,2.807,0,0,0,.281-1.377q0-1.852-1.241-1.853Q94.55,227.567,94.55,229.437Z"/></g><g class="cls-11"><path class="cls-7" d="M505.993,220.7v11.373H504.48V222.3l-2.363,1.6-.7-1.02,3.23-2.176Z"/><path class="cls-7" d="M514.008,225a2.767,2.767,0,0,1,1.012,1.224,4.761,4.761,0,0,1,.374,1.989,5.3,5.3,0,0,1-.416,2.185,3.176,3.176,0,0,1-1.165,1.41,3.089,3.089,0,0,1-1.717.485,2.9,2.9,0,0,1-2.678-1.436,7.833,7.833,0,0,1-.858-4,10.589,10.589,0,0,1,.484-3.383,4.808,4.808,0,0,1,1.394-2.193,3.212,3.212,0,0,1,2.134-.765,3.4,3.4,0,0,1,2.108.7l-.595.969a2.634,2.634,0,0,0-1.479-.476,1.972,1.972,0,0,0-1.759,1.156,7.139,7.139,0,0,0-.74,3.2,2.887,2.887,0,0,1,2.482-1.462A2.575,2.575,0,0,1,514.008,225Zm-.594,5.364a4.106,4.106,0,0,0,.45-2.118,3.278,3.278,0,0,0-.433-1.9,1.387,1.387,0,0,0-1.182-.6,1.91,1.91,0,0,0-1.182.426,3.658,3.658,0,0,0-.96,1.173,6.791,6.791,0,0,0,.5,2.856,1.55,1.55,0,0,0,1.471.9A1.467,1.467,0,0,0,513.414,230.364Z"/><path class="cls-7" d="M525.041,221.277a3.543,3.543,0,0,1,0,4.2,2.465,2.465,0,0,1-3.57,0,3.011,3.011,0,0,1-.688-2.091,3.059,3.059,0,0,1,.68-2.108,2.273,2.273,0,0,1,1.785-.765A2.3,2.3,0,0,1,525.041,221.277Zm-3.051,2.108q0,1.854,1.258,1.853a1.033,1.033,0,0,0,.969-.493,2.745,2.745,0,0,0,.289-1.377q0-1.852-1.258-1.853T521.99,223.385Zm7.5-3.366,1,.595-7.106,11.951-1-.595Zm1.861,7.31a3.011,3.011,0,0,1,.689,2.091,3.062,3.062,0,0,1-.68,2.108,2.279,2.279,0,0,1-1.785.765,2.328,2.328,0,0,1-1.8-.765,3.511,3.511,0,0,1,0-4.2,2.325,2.325,0,0,1,1.8-.765A2.28,2.28,0,0,1,531.348,227.329Zm-3.051,2.108q0,1.852,1.275,1.852a1.013,1.013,0,0,0,.96-.492,2.807,2.807,0,0,0,.281-1.377q0-1.852-1.241-1.853Q528.3,227.567,528.3,229.437Z"/></g><g class="cls-11"><path class="cls-5" d="M606.9,220.7v11.373h-1.513V222.3l-2.363,1.6-.7-1.02,3.23-2.176Z"/><path class="cls-5" d="M613.65,220.894a2.7,2.7,0,0,1,1.071,1.038,2.846,2.846,0,0,1,.374,1.436,2.651,2.651,0,0,1-.561,1.759,2.826,2.826,0,0,1-1.6.91,2.733,2.733,0,0,1,1.8.816,2.769,2.769,0,0,1,.68,1.989,3.549,3.549,0,0,1-.433,1.751,3.184,3.184,0,0,1-1.241,1.241,3.74,3.74,0,0,1-1.879.459,3.935,3.935,0,0,1-1.76-.382,4.381,4.381,0,0,1-1.419-1.165l.918-.782a3.764,3.764,0,0,0,1.046.841,2.524,2.524,0,0,0,1.164.264,1.917,1.917,0,0,0,1.488-.6,2.361,2.361,0,0,0,.552-1.657,2.1,2.1,0,0,0-.552-1.624,2.29,2.29,0,0,0-1.59-.5H611l.187-1.139h.476a1.945,1.945,0,0,0,1.4-.527,1.99,1.99,0,0,0,.553-1.513,1.814,1.814,0,0,0-.467-1.326,1.72,1.72,0,0,0-1.284-.476,2.53,2.53,0,0,0-1.1.238,3.713,3.713,0,0,0-1.012.748l-.8-.816a4.157,4.157,0,0,1,3.06-1.36A3.347,3.347,0,0,1,613.65,220.894Z"/><path class="cls-5" d="M625.184,221.277a3.543,3.543,0,0,1,0,4.2,2.465,2.465,0,0,1-3.57,0,3.011,3.011,0,0,1-.688-2.091,3.059,3.059,0,0,1,.68-2.108,2.273,2.273,0,0,1,1.785-.765A2.3,2.3,0,0,1,625.184,221.277Zm-3.051,2.108q0,1.854,1.258,1.853a1.033,1.033,0,0,0,.969-.493,2.745,2.745,0,0,0,.289-1.377q0-1.852-1.258-1.853T622.133,223.385Zm7.5-3.366,1,.595-7.106,11.951-1-.595Zm1.861,7.31a3.011,3.011,0,0,1,.689,2.091,3.062,3.062,0,0,1-.68,2.108,2.279,2.279,0,0,1-1.785.765,2.328,2.328,0,0,1-1.8-.765,3.511,3.511,0,0,1,0-4.2,2.325,2.325,0,0,1,1.8-.765A2.28,2.28,0,0,1,631.491,227.329Zm-3.051,2.108q0,1.852,1.275,1.852a1.013,1.013,0,0,0,.96-.492,2.807,2.807,0,0,0,.281-1.377q0-1.852-1.241-1.853Q628.44,227.567,628.44,229.437Z"/></g><g class="cls-11"><path class="cls-12" d="M694.219,225a2.774,2.774,0,0,1,1.012,1.224,4.761,4.761,0,0,1,.374,1.989,5.288,5.288,0,0,1-.417,2.185,3.174,3.174,0,0,1-1.164,1.41,3.089,3.089,0,0,1-1.717.485,2.9,2.9,0,0,1-2.678-1.436,7.833,7.833,0,0,1-.858-4,10.589,10.589,0,0,1,.484-3.383,4.808,4.808,0,0,1,1.394-2.193,3.212,3.212,0,0,1,2.134-.765,3.4,3.4,0,0,1,2.108.7l-.595.969a2.634,2.634,0,0,0-1.479-.476,1.972,1.972,0,0,0-1.759,1.156,7.139,7.139,0,0,0-.74,3.2,2.887,2.887,0,0,1,2.482-1.462A2.578,2.578,0,0,1,694.219,225Zm-.594,5.364a4.106,4.106,0,0,0,.45-2.118,3.278,3.278,0,0,0-.433-1.9,1.387,1.387,0,0,0-1.182-.6,1.908,1.908,0,0,0-1.182.426,3.658,3.658,0,0,0-.96,1.173,6.791,6.791,0,0,0,.5,2.856,1.55,1.55,0,0,0,1.471.9A1.467,1.467,0,0,0,693.625,230.364Z"/><path class="cls-12" d="M705.252,221.277a3.543,3.543,0,0,1,0,4.2,2.465,2.465,0,0,1-3.57,0,3.011,3.011,0,0,1-.688-2.091,3.059,3.059,0,0,1,.68-2.108,2.273,2.273,0,0,1,1.785-.765A2.3,2.3,0,0,1,705.252,221.277Zm-3.051,2.108q0,1.854,1.258,1.853a1.033,1.033,0,0,0,.969-.493,2.745,2.745,0,0,0,.289-1.377q0-1.852-1.258-1.853T702.2,223.385Zm7.5-3.366,1,.595L703.6,232.565l-1-.595Zm1.861,7.31a3.011,3.011,0,0,1,.689,2.091,3.062,3.062,0,0,1-.68,2.108,2.279,2.279,0,0,1-1.785.765,2.332,2.332,0,0,1-1.8-.765,3.515,3.515,0,0,1,0-4.2,2.328,2.328,0,0,1,1.8-.765A2.28,2.28,0,0,1,711.559,227.329Zm-3.051,2.108q0,1.852,1.275,1.852a1.013,1.013,0,0,0,.96-.492,2.807,2.807,0,0,0,.281-1.377q0-1.852-1.241-1.853Q708.508,227.567,708.508,229.437Z"/></g><g class="cls-11"><path class="cls-12" d="M73.5,150.143a2.743,2.743,0,0,1,1.08,1.088,3.208,3.208,0,0,1,.374,1.556,4.909,4.909,0,0,1-.4,1.963,9.787,9.787,0,0,1-1.283,2.065q-.885,1.14-2.721,3.231H75.2l-.187,1.258H68.863v-1.191q1.971-2.277,2.881-3.45a9.678,9.678,0,0,0,1.267-2.015,4.5,4.5,0,0,0,.357-1.777,2,2,0,0,0-.451-1.394,1.567,1.567,0,0,0-1.215-.492,2.115,2.115,0,0,0-1.122.289,4,4,0,0,0-.986.918l-.952-.731a3.77,3.77,0,0,1,3.179-1.717A3.344,3.344,0,0,1,73.5,150.143Z"/><path class="cls-12" d="M83.16,156.493a2.937,2.937,0,0,1,.544,1.8,3.189,3.189,0,0,1-.442,1.682A2.985,2.985,0,0,1,82,161.117a4.26,4.26,0,0,1-1.912.407,4.192,4.192,0,0,1-1.879-.4A2.9,2.9,0,0,1,76.963,160a3.2,3.2,0,0,1-.433-1.666,3.124,3.124,0,0,1,2.158-3.026,3.521,3.521,0,0,1-1.325-1.122,2.721,2.721,0,0,1-.408-1.514,2.86,2.86,0,0,1,.425-1.58,2.693,2.693,0,0,1,1.147-1,3.7,3.7,0,0,1,1.59-.339,3.452,3.452,0,0,1,2.269.748,2.578,2.578,0,0,1,.91,2.108,2.539,2.539,0,0,1-.442,1.5,3.919,3.919,0,0,1-1.411,1.139A4.26,4.26,0,0,1,83.16,156.493Zm-1.53,3.323a2,2,0,0,0,.544-1.521,2.027,2.027,0,0,0-.451-1.4,4.5,4.5,0,0,0-1.606-.978l-.476-.187a3,3,0,0,0-1.2,1.038,2.837,2.837,0,0,0-.382,1.53,2,2,0,0,0,.544,1.53,2.482,2.482,0,0,0,3.026-.009Zm-2.737-8.5a1.841,1.841,0,0,0-.459,1.368,1.749,1.749,0,0,0,.382,1.2,3.505,3.505,0,0,0,1.3.808l.391.17a3.216,3.216,0,0,0,1.011-.978,2.347,2.347,0,0,0,.3-1.216,1.861,1.861,0,0,0-.442-1.351,1.661,1.661,0,0,0-1.241-.45A1.7,1.7,0,0,0,78.893,151.316Z"/><path class="cls-12" d="M93.351,150.509a3.542,3.542,0,0,1,0,4.2,2.463,2.463,0,0,1-3.57,0,3.009,3.009,0,0,1-.689-2.09,3.062,3.062,0,0,1,.68-2.108,2.271,2.271,0,0,1,1.785-.765A2.3,2.3,0,0,1,93.351,150.509ZM90.3,152.617q0,1.853,1.258,1.853a1.031,1.031,0,0,0,.969-.494,2.728,2.728,0,0,0,.289-1.376q0-1.852-1.258-1.854T90.3,152.617Zm7.5-3.367,1,.6L91.693,161.8l-1-.595Zm1.862,7.31a3.011,3.011,0,0,1,.688,2.091,3.064,3.064,0,0,1-.679,2.109,2.279,2.279,0,0,1-1.786.764,2.33,2.33,0,0,1-1.8-.764,3.512,3.512,0,0,1,0-4.2,2.33,2.33,0,0,1,1.8-.764A2.285,2.285,0,0,1,99.658,156.56Zm-3.052,2.109q0,1.852,1.275,1.852a1.014,1.014,0,0,0,.961-.493,2.8,2.8,0,0,0,.281-1.377q0-1.851-1.242-1.852Q96.606,156.8,96.606,158.669Z"/></g><g class="cls-11"><path class="cls-7" d="M473.448,150.143a2.734,2.734,0,0,1,1.079,1.088,3.208,3.208,0,0,1,.374,1.556,4.908,4.908,0,0,1-.4,1.963,9.8,9.8,0,0,1-1.284,2.065q-.883,1.14-2.72,3.231h4.658l-.187,1.258h-6.154v-1.191q1.973-2.277,2.882-3.45a9.624,9.624,0,0,0,1.266-2.015,4.5,4.5,0,0,0,.357-1.777,2,2,0,0,0-.45-1.394,1.569,1.569,0,0,0-1.216-.492,2.12,2.12,0,0,0-1.122.289,4.013,4.013,0,0,0-.986.918l-.952-.731a3.77,3.77,0,0,1,3.179-1.717A3.348,3.348,0,0,1,473.448,150.143Z"/><path class="cls-7" d="M480.945,150.143a2.734,2.734,0,0,1,1.079,1.088,3.208,3.208,0,0,1,.374,1.556,4.908,4.908,0,0,1-.4,1.963,9.8,9.8,0,0,1-1.284,2.065q-.883,1.14-2.72,3.231h4.658l-.187,1.258h-6.153v-1.191q1.971-2.277,2.881-3.45a9.624,9.624,0,0,0,1.266-2.015,4.5,4.5,0,0,0,.357-1.777,2,2,0,0,0-.45-1.394,1.569,1.569,0,0,0-1.216-.492,2.12,2.12,0,0,0-1.122.289,4.013,4.013,0,0,0-.986.918l-.952-.731a3.772,3.772,0,0,1,3.18-1.717A3.344,3.344,0,0,1,480.945,150.143Z"/><path class="cls-7" d="M492.3,150.509a3.542,3.542,0,0,1,0,4.2,2.463,2.463,0,0,1-3.57,0,3.008,3.008,0,0,1-.688-2.09,3.062,3.062,0,0,1,.68-2.108,2.27,2.27,0,0,1,1.785-.765A2.3,2.3,0,0,1,492.3,150.509Zm-3.051,2.108q0,1.853,1.258,1.853a1.032,1.032,0,0,0,.969-.494,2.738,2.738,0,0,0,.289-1.376q0-1.852-1.258-1.854T489.249,152.617Zm7.5-3.367,1,.6L490.643,161.8l-1-.595Zm1.861,7.31a3.011,3.011,0,0,1,.689,2.091,3.065,3.065,0,0,1-.68,2.109,2.277,2.277,0,0,1-1.785.764,2.329,2.329,0,0,1-1.8-.764,3.512,3.512,0,0,1,0-4.2,2.329,2.329,0,0,1,1.8-.764A2.282,2.282,0,0,1,498.607,156.56Zm-3.051,2.109q0,1.852,1.275,1.852a1.014,1.014,0,0,0,.961-.493,2.8,2.8,0,0,0,.28-1.377q0-1.851-1.241-1.852Q495.556,156.8,495.556,158.669Z"/></g><g class="cls-11"><path class="cls-5" d="M606.9,149.931V161.3h-1.513v-9.775l-2.363,1.6-.7-1.02,3.23-2.176Z"/><path class="cls-5" d="M615.138,150.916a5.543,5.543,0,0,1,.858,3.316,9.524,9.524,0,0,1-.612,3.7,5.284,5.284,0,0,1-1.827,2.295,11.07,11.07,0,0,1-3.222,1.453l-.34-1.122a7.58,7.58,0,0,0,3.154-1.726,4.649,4.649,0,0,0,1.249-2.983,3.259,3.259,0,0,1-1.011.961,2.629,2.629,0,0,1-2.763-.094,2.987,2.987,0,0,1-1.045-1.267,4.546,4.546,0,0,1-.383-1.93,4.373,4.373,0,0,1,.442-2.04,3.109,3.109,0,0,1,1.207-1.292,3.409,3.409,0,0,1,1.734-.441A2.97,2.97,0,0,1,615.138,150.916Zm-.706,3.639a6.425,6.425,0,0,0-.416-2.8,1.481,1.481,0,0,0-1.42-.842,1.628,1.628,0,0,0-1.377.655,3.245,3.245,0,0,0-.493,1.964,3.091,3.091,0,0,0,.459,1.836,1.474,1.474,0,0,0,1.258.629A2.366,2.366,0,0,0,614.432,154.555Z"/><path class="cls-5" d="M625.779,150.509a3.542,3.542,0,0,1,0,4.2,2.463,2.463,0,0,1-3.57,0,3.013,3.013,0,0,1-.688-2.09,3.062,3.062,0,0,1,.68-2.108,2.27,2.27,0,0,1,1.785-.765A2.3,2.3,0,0,1,625.779,150.509Zm-3.051,2.108q0,1.853,1.258,1.853a1.032,1.032,0,0,0,.969-.494,2.738,2.738,0,0,0,.289-1.376q0-1.852-1.258-1.854T622.728,152.617Zm7.5-3.367,1,.6L624.122,161.8l-1-.595Zm1.861,7.31a3.011,3.011,0,0,1,.689,2.091,3.065,3.065,0,0,1-.68,2.109,2.277,2.277,0,0,1-1.785.764,2.329,2.329,0,0,1-1.8-.764,3.512,3.512,0,0,1,0-4.2,2.329,2.329,0,0,1,1.8-.764A2.282,2.282,0,0,1,632.086,156.56Zm-3.051,2.109q0,1.852,1.275,1.852a1.014,1.014,0,0,0,.961-.493,2.8,2.8,0,0,0,.28-1.377q0-1.851-1.241-1.852Q629.035,156.8,629.035,158.669Z"/></g><g class="cls-11"><path class="cls-12" d="M687.139,149.931V161.3h-1.513v-9.775l-2.363,1.6-.7-1.02,3.23-2.176Z"/><path class="cls-12" d="M693.9,150.143a2.743,2.743,0,0,1,1.08,1.088,3.208,3.208,0,0,1,.374,1.556,4.909,4.909,0,0,1-.4,1.963,9.787,9.787,0,0,1-1.283,2.065q-.885,1.14-2.721,3.231h4.659l-.188,1.258h-6.153v-1.191q1.971-2.277,2.881-3.45a9.678,9.678,0,0,0,1.267-2.015,4.52,4.52,0,0,0,.357-1.777,2,2,0,0,0-.451-1.394,1.567,1.567,0,0,0-1.215-.492,2.121,2.121,0,0,0-1.123.289,3.993,3.993,0,0,0-.985.918l-.953-.731a3.773,3.773,0,0,1,3.18-1.717A3.344,3.344,0,0,1,693.9,150.143Z"/><path class="cls-12" d="M705.251,150.509a3.542,3.542,0,0,1,0,4.2,2.462,2.462,0,0,1-3.569,0,3.009,3.009,0,0,1-.689-2.09,3.062,3.062,0,0,1,.68-2.108,2.27,2.27,0,0,1,1.785-.765A2.3,2.3,0,0,1,705.251,150.509Zm-3.051,2.108q0,1.853,1.258,1.853a1.032,1.032,0,0,0,.969-.494,2.728,2.728,0,0,0,.289-1.376q0-1.852-1.258-1.854T702.2,152.617Zm7.5-3.367,1,.6L703.594,161.8l-1-.595Zm1.862,7.31a3.011,3.011,0,0,1,.688,2.091,3.06,3.06,0,0,1-.68,2.109,2.275,2.275,0,0,1-1.785.764,2.329,2.329,0,0,1-1.8-.764,3.512,3.512,0,0,1,0-4.2,2.329,2.329,0,0,1,1.8-.764A2.285,2.285,0,0,1,711.559,156.56Zm-3.052,2.109q0,1.852,1.275,1.852a1.014,1.014,0,0,0,.961-.493,2.8,2.8,0,0,0,.28-1.377q0-1.851-1.241-1.852Q708.507,156.8,708.507,158.669Z"/></g><g class="cls-11"><path class="cls-1" d="M338.643,220.912A2.734,2.734,0,0,1,339.722,222a3.208,3.208,0,0,1,.374,1.556,4.911,4.911,0,0,1-.4,1.963,9.838,9.838,0,0,1-1.284,2.065q-.884,1.14-2.72,3.231h4.658l-.187,1.258H334.01v-1.191q1.972-2.277,2.882-3.451a9.6,9.6,0,0,0,1.266-2.014,4.5,4.5,0,0,0,.357-1.776,1.994,1.994,0,0,0-.451-1.395,1.566,1.566,0,0,0-1.215-.492,2.115,2.115,0,0,0-1.122.289,4.013,4.013,0,0,0-.986.918l-.952-.731a3.77,3.77,0,0,1,3.179-1.717A3.351,3.351,0,0,1,338.643,220.912Z"/><path class="cls-1" d="M347.542,221.89h-3.978v3.4a3.212,3.212,0,0,1,1.666-.475,2.618,2.618,0,0,1,2.108.951,3.979,3.979,0,0,1,.8,2.636,4.394,4.394,0,0,1-.45,2.022,3.343,3.343,0,0,1-1.267,1.377,3.608,3.608,0,0,1-1.9.493,3.738,3.738,0,0,1-1.708-.374,4.878,4.878,0,0,1-1.4-1.1l.9-.817a3.72,3.72,0,0,0,1,.79,2.5,2.5,0,0,0,1.173.264,1.839,1.839,0,0,0,1.53-.688,3.132,3.132,0,0,0,.544-1.981q0-2.43-1.836-2.43a2.431,2.431,0,0,0-.748.11,4.342,4.342,0,0,0-.765.349H342.1V220.7h5.644Z"/><path class="cls-1" d="M357.8,221.278a3.542,3.542,0,0,1,0,4.2,2.463,2.463,0,0,1-3.57,0,3.01,3.01,0,0,1-.689-2.09,3.057,3.057,0,0,1,.681-2.108,2.269,2.269,0,0,1,1.784-.765A2.3,2.3,0,0,1,357.8,221.278Zm-3.051,2.108q0,1.853,1.257,1.853a1.034,1.034,0,0,0,.97-.493,2.748,2.748,0,0,0,.289-1.377q0-1.853-1.259-1.853T354.75,223.386Zm7.5-3.367,1,.6-7.106,11.951-1-.6Zm1.861,7.31a3.013,3.013,0,0,1,.688,2.091,3.066,3.066,0,0,1-.679,2.109,2.278,2.278,0,0,1-1.785.764,2.331,2.331,0,0,1-1.8-.764,3.516,3.516,0,0,1,0-4.2,2.331,2.331,0,0,1,1.8-.764A2.282,2.282,0,0,1,364.108,227.329Zm-3.051,2.109q0,1.853,1.275,1.852a1.012,1.012,0,0,0,.96-.493,2.8,2.8,0,0,0,.281-1.377q0-1.852-1.241-1.852Q361.056,227.568,361.057,229.438Z"/></g><g class="cls-11"><path class="cls-1" d="M332.936,149.93V161.3h-1.513v-9.775l-2.363,1.6-.7-1.02,3.23-2.176Z"/><path class="cls-1" d="M341.172,150.915a5.536,5.536,0,0,1,.859,3.316,9.524,9.524,0,0,1-.612,3.7,5.286,5.286,0,0,1-1.828,2.295,11.051,11.051,0,0,1-3.221,1.453l-.34-1.122a7.587,7.587,0,0,0,3.154-1.726,4.654,4.654,0,0,0,1.249-2.983,3.262,3.262,0,0,1-1.012.961,2.627,2.627,0,0,1-2.762-.094,2.989,2.989,0,0,1-1.046-1.267,4.547,4.547,0,0,1-.382-1.93,4.373,4.373,0,0,1,.442-2.04,3.1,3.1,0,0,1,1.207-1.292,3.409,3.409,0,0,1,1.734-.441A2.967,2.967,0,0,1,341.172,150.915Zm-.705,3.639a6.422,6.422,0,0,0-.417-2.8,1.479,1.479,0,0,0-1.419-.842,1.628,1.628,0,0,0-1.377.655,3.245,3.245,0,0,0-.493,1.964,3.091,3.091,0,0,0,.459,1.836,1.473,1.473,0,0,0,1.258.628A2.365,2.365,0,0,0,340.467,154.554Z"/><path class="cls-1" d="M351.814,150.508a3.542,3.542,0,0,1,0,4.2,2.463,2.463,0,0,1-3.57,0,3.008,3.008,0,0,1-.688-2.09,3.057,3.057,0,0,1,.68-2.108,2.27,2.27,0,0,1,1.785-.765A2.3,2.3,0,0,1,351.814,150.508Zm-3.051,2.108q0,1.852,1.258,1.853a1.032,1.032,0,0,0,.969-.494,2.738,2.738,0,0,0,.289-1.376q0-1.852-1.258-1.853T348.763,152.616Zm7.5-3.367,1,.6L350.157,161.8l-1-.595Zm1.861,7.31a3.011,3.011,0,0,1,.689,2.091,3.065,3.065,0,0,1-.68,2.109,2.278,2.278,0,0,1-1.785.764,2.331,2.331,0,0,1-1.8-.764,3.516,3.516,0,0,1,0-4.2,2.331,2.331,0,0,1,1.8-.764A2.282,2.282,0,0,1,358.121,156.559Zm-3.051,2.109q0,1.852,1.275,1.852a1.012,1.012,0,0,0,.96-.493,2.8,2.8,0,0,0,.281-1.377q0-1.851-1.241-1.852Q355.07,156.8,355.07,158.668Z"/></g><path class="cls-13" d="M257.7,284.076v1.309l-5.8,9.027h5.8l-.188,1.376H250.1V294.5l5.849-9.06h-5.237v-1.36Z"/><path class="cls-13" d="M266.645,283.226v12.562h-1.377l-.152-1.241a3.234,3.234,0,0,1-1.106,1.063,3.078,3.078,0,0,1-3.969-.875,5.74,5.74,0,0,1-.893-3.383,6.6,6.6,0,0,1,.425-2.448,3.785,3.785,0,0,1,1.224-1.675,3.027,3.027,0,0,1,1.87-.6,3.222,3.222,0,0,1,2.415,1.106v-4.693ZM264.1,294.42a3.813,3.813,0,0,0,.987-.994v-4.387a3.425,3.425,0,0,0-.944-.875,2.181,2.181,0,0,0-1.131-.3,1.815,1.815,0,0,0-1.606.867,4.744,4.744,0,0,0-.569,2.584,5,5,0,0,0,.526,2.584,1.68,1.68,0,0,0,1.514.849A2.2,2.2,0,0,0,264.1,294.42Z"/><path class="cls-13" d="M274.652,286.728l-.289,1.53a3.218,3.218,0,0,0-.781-.1,1.665,1.665,0,0,0-1.344.612,4.542,4.542,0,0,0-.8,1.9v5.117h-1.563v-8.959h1.342l.154,1.82a3.388,3.388,0,0,1,.968-1.513,2.161,2.161,0,0,1,1.428-.511A3.639,3.639,0,0,1,274.652,286.728Z"/><path class="cls-13" d="M282.225,287.884a5.184,5.184,0,0,1,1.046,3.417,5.959,5.959,0,0,1-.476,2.456,3.738,3.738,0,0,1-1.377,1.65,3.848,3.848,0,0,1-2.142.586,3.626,3.626,0,0,1-2.941-1.258,5.154,5.154,0,0,1-1.054-3.417,5.964,5.964,0,0,1,.476-2.457,3.73,3.73,0,0,1,1.377-1.649,3.881,3.881,0,0,1,2.159-.587A3.6,3.6,0,0,1,282.225,287.884Zm-5.261,3.434q0,3.417,2.312,3.417t2.312-3.434q0-3.417-2.3-3.417Q276.964,287.884,276.964,291.318Z"/><path class="cls-13" d="M287.384,295.245a5.354,5.354,0,0,1-.305,1.989,2.954,2.954,0,0,1-.893,1.216,7.856,7.856,0,0,1-1.641.943l-.459-1.14a4.649,4.649,0,0,0,1.021-.6,1.786,1.786,0,0,0,.535-.833,4.815,4.815,0,0,0,.179-1.47v-8.518h1.563Zm.018-12.411a1.039,1.039,0,0,1,.306.766,1.008,1.008,0,0,1-.306.756,1.1,1.1,0,0,1-.8.3,1.074,1.074,0,0,1-.782-.3,1.008,1.008,0,0,1-.306-.756,1.039,1.039,0,0,1,.306-.766,1.059,1.059,0,0,1,.782-.305A1.081,1.081,0,0,1,287.4,282.834Z"/><path class="cls-13" d="M302.055,283.226v12.562h-1.377l-.152-1.241a3.234,3.234,0,0,1-1.106,1.063,3.078,3.078,0,0,1-3.969-.875,5.74,5.74,0,0,1-.893-3.383,6.6,6.6,0,0,1,.425-2.448,3.779,3.779,0,0,1,1.225-1.675,3.023,3.023,0,0,1,1.87-.6,3.22,3.22,0,0,1,2.414,1.106v-4.693Zm-2.55,11.194a3.813,3.813,0,0,0,.987-.994v-4.387a3.425,3.425,0,0,0-.944-.875,2.181,2.181,0,0,0-1.131-.3,1.815,1.815,0,0,0-1.606.867,4.744,4.744,0,0,0-.569,2.584,5.009,5.009,0,0,0,.526,2.584,1.682,1.682,0,0,0,1.514.849A2.193,2.193,0,0,0,299.505,294.42Z"/><path class="cls-13" d="M311.507,294.505a1.142,1.142,0,0,0,.562.4l-.358,1.088a2.4,2.4,0,0,1-1.122-.391,1.793,1.793,0,0,1-.629-.952,3,3,0,0,1-2.668,1.343,2.859,2.859,0,0,1-2.091-.748,2.611,2.611,0,0,1-.766-1.956,2.566,2.566,0,0,1,1.029-2.192,4.806,4.806,0,0,1,2.915-.766h1.377v-.663a1.741,1.741,0,0,0-.459-1.359,2.075,2.075,0,0,0-1.411-.408,7.929,7.929,0,0,0-2.414.475l-.39-1.138a8.988,8.988,0,0,1,3.093-.613,3.236,3.236,0,0,1,2.364.774,2.966,2.966,0,0,1,.782,2.2v4.1A1.4,1.4,0,0,0,311.507,294.505Zm-1.751-1.079v-2.057h-1.172q-2.484,0-2.483,1.835a1.68,1.68,0,0,0,.392,1.208,1.525,1.525,0,0,0,1.155.408A2.335,2.335,0,0,0,309.756,293.426Z"/><path class="cls-13" d="M319.055,295.38a3.44,3.44,0,0,1-2.006.613,2.363,2.363,0,0,1-1.776-.655,2.607,2.607,0,0,1-.638-1.9v-5.406h-1.563v-1.208h1.563v-2.022l1.565-.187v2.209h2.125l-.17,1.208H316.2v5.337a1.652,1.652,0,0,0,.246,1.012.984.984,0,0,0,.824.315,2.574,2.574,0,0,0,1.19-.357Z"/><path class="cls-13" d="M322,287.713a1.138,1.138,0,0,1,.339.833,1.163,1.163,0,0,1-.339.842,1.137,1.137,0,0,1-.85.349,1.117,1.117,0,0,1-.833-.349,1.157,1.157,0,0,1-.341-.842,1.163,1.163,0,0,1,1.174-1.173A1.156,1.156,0,0,1,322,287.713Zm0,6.257a1.134,1.134,0,0,1,.339.833,1.162,1.162,0,0,1-.339.841,1.141,1.141,0,0,1-.85.349,1.121,1.121,0,0,1-.833-.349,1.156,1.156,0,0,1-.341-.841,1.164,1.164,0,0,1,1.174-1.174A1.157,1.157,0,0,1,322,293.97Z"/><path class="cls-13" d="M337.058,284.076l-3.739,11.712h-1.735l-3.774-11.712h1.734l2.942,9.961,2.94-9.961Z"/><path class="cls-13" d="M342.193,295.839a6.056,6.056,0,0,1-1.471,2.474,4.444,4.444,0,0,1-2.694,1.1l-.17-1.224a4.66,4.66,0,0,0,1.411-.442,2.443,2.443,0,0,0,.841-.74,5.188,5.188,0,0,0,.587-1.216h-.528l-3.008-8.959h1.666l2.4,7.821,2.346-7.821h1.615Zm.323-13.668.7,1.31-3.6,1.462-.477-.833Z"/><path class="cls-13" d="M352.222,286.829v1.191l-4.675,6.46h4.726l-.187,1.308h-6.307v-1.172l4.658-6.46H346.17v-1.327Z"/><path class="cls-13" d="M355.961,283.038v12.75H354.4V283.226Zm5.152,3.791-3.3,3.961,3.672,5h-1.87l-3.553-4.9,3.3-4.064Z"/><path class="cls-13" d="M369.647,295.788H368.3l-.118-1.393a3.407,3.407,0,0,1-1.174,1.215,3.166,3.166,0,0,1-1.614.383,2.384,2.384,0,0,1-1.836-.714,2.865,2.865,0,0,1-.663-2.024v-6.426h1.563v6.256a2.027,2.027,0,0,0,.324,1.3,1.306,1.306,0,0,0,1.053.383,2.664,2.664,0,0,0,2.245-1.547v-6.393h1.564Z"/><path class="cls-13" d="M383.638,287.366a2.873,2.873,0,0,1,.663,2v6.425h-1.564v-6.2q0-1.733-1.258-1.733a1.7,1.7,0,0,0-1.122.382,5.343,5.343,0,0,0-.985,1.2v6.357h-1.565v-6.2q0-1.733-1.258-1.733a1.69,1.69,0,0,0-1.138.391,5.307,5.307,0,0,0-.97,1.19v6.357h-1.564v-8.959h1.343l.136,1.31a3,3,0,0,1,2.584-1.514,2.257,2.257,0,0,1,2.262,1.616,4.189,4.189,0,0,1,1.164-1.2,2.694,2.694,0,0,1,1.5-.417A2.255,2.255,0,0,1,383.638,287.366Z"/><path class="cls-13" d="M397.909,284.144a5.336,5.336,0,0,1,1.47.884l-.883,1.037a3.542,3.542,0,0,0-2.261-.867,2.86,2.86,0,0,0-2.355,1.122,7.67,7.67,0,0,0-.008,7.165,2.813,2.813,0,0,0,2.345,1.148,3.14,3.14,0,0,0,1.31-.256,6.8,6.8,0,0,0,1.189-.714l.8,1.021a4.346,4.346,0,0,1-1.393.935,4.825,4.825,0,0,1-1.955.374,4.493,4.493,0,0,1-4.276-2.78,7.92,7.92,0,0,1-.621-3.29,7.647,7.647,0,0,1,.647-3.289,4.759,4.759,0,0,1,1.75-2.065,4.526,4.526,0,0,1,2.465-.7A5.056,5.056,0,0,1,397.909,284.144Zm.484-3.809.663.766-2.295,1.87h-1.037l-2.311-1.87.679-.766,2.143,1.377Z"/><path class="cls-13" d="M407.863,291.845h-5.712a3.492,3.492,0,0,0,.748,2.176,2.168,2.168,0,0,0,1.666.7,3.631,3.631,0,0,0,1.19-.187,4.829,4.829,0,0,0,1.139-.6l.68.935a4.949,4.949,0,0,1-3.128,1.122,3.631,3.631,0,0,1-2.915-1.224,5.019,5.019,0,0,1-1.046-3.366,6.369,6.369,0,0,1,.451-2.474,3.875,3.875,0,0,1,1.292-1.691,3.271,3.271,0,0,1,1.981-.613,3.324,3.324,0,0,1,2.736,1.173,5.015,5.015,0,0,1,.952,3.247C407.9,291.307,407.885,291.573,407.863,291.845Zm-1.513-1.259a3.314,3.314,0,0,0-.527-2.022,1.855,1.855,0,0,0-1.581-.7q-1.921,0-2.091,2.822h4.2Z"/><path class="cls-13" d="M414.476,286.88a5,5,0,0,1,1.394.766l-.663.985a5.414,5.414,0,0,0-1.165-.577,3.6,3.6,0,0,0-1.165-.187,2.056,2.056,0,0,0-1.207.314,1.067,1.067,0,0,0-.025,1.709,4.832,4.832,0,0,0,1.5.6,5.392,5.392,0,0,1,2.235,1.019,2.23,2.23,0,0,1,.74,1.769A2.289,2.289,0,0,1,415.1,295.3a4.361,4.361,0,0,1-2.508.7,4.955,4.955,0,0,1-3.382-1.173l.833-.952a4.058,4.058,0,0,0,2.516.867,2.4,2.4,0,0,0,1.4-.365,1.159,1.159,0,0,0,.518-1,1.312,1.312,0,0,0-.187-.739,1.53,1.53,0,0,0-.646-.493,8.906,8.906,0,0,0-1.344-.45,4.592,4.592,0,0,1-2.065-1,2.15,2.15,0,0,1-.637-1.6,2.1,2.1,0,0,1,.416-1.265,2.706,2.706,0,0,1,1.156-.885,4.21,4.21,0,0,1,1.658-.315A4.986,4.986,0,0,1,414.476,286.88Z"/><path class="cls-13" d="M419.9,283.038v12.75h-1.564V283.226Zm5.151,3.791-3.3,3.961,3.672,5h-1.87l-3.553-4.9,3.3-4.064Z"/><path class="cls-13" d="M433.005,294.505a1.142,1.142,0,0,0,.562.4l-.358,1.088a2.4,2.4,0,0,1-1.122-.391,1.787,1.787,0,0,1-.628-.952,3.007,3.007,0,0,1-2.669,1.343,2.861,2.861,0,0,1-2.091-.748,2.611,2.611,0,0,1-.766-1.956,2.566,2.566,0,0,1,1.029-2.192,4.806,4.806,0,0,1,2.915-.766h1.377v-.663a1.741,1.741,0,0,0-.459-1.359,2.075,2.075,0,0,0-1.411-.408,7.929,7.929,0,0,0-2.414.475l-.39-1.138a8.988,8.988,0,0,1,3.093-.613,3.236,3.236,0,0,1,2.364.774,2.966,2.966,0,0,1,.782,2.2v4.1A1.4,1.4,0,0,0,433.005,294.505Zm-2.056-12.334.7,1.31-3.6,1.462-.476-.833Zm.305,11.255v-2.057h-1.172q-2.484,0-2.483,1.835a1.68,1.68,0,0,0,.392,1.208,1.525,1.525,0,0,0,1.155.408A2.334,2.334,0,0,0,431.254,293.426Z"/><path class="cls-13" d="M444.617,286.88a4.978,4.978,0,0,1,1.393.766l-.663.985a5.408,5.408,0,0,0-1.164-.577,3.6,3.6,0,0,0-1.165-.187,2.053,2.053,0,0,0-1.207.314,1.067,1.067,0,0,0-.025,1.709,4.832,4.832,0,0,0,1.5.6,5.392,5.392,0,0,1,2.235,1.019,2.23,2.23,0,0,1,.739,1.769,2.291,2.291,0,0,1-1.028,2.022,4.365,4.365,0,0,1-2.508.7,4.959,4.959,0,0,1-3.383-1.173l.833-.952a4.062,4.062,0,0,0,2.517.867,2.4,2.4,0,0,0,1.4-.365,1.157,1.157,0,0,0,.519-1,1.312,1.312,0,0,0-.188-.739,1.533,1.533,0,0,0-.645-.493,8.906,8.906,0,0,0-1.344-.45,4.586,4.586,0,0,1-2.065-1,2.15,2.15,0,0,1-.637-1.6,2.088,2.088,0,0,1,.416-1.265,2.7,2.7,0,0,1,1.156-.885,4.205,4.205,0,0,1,1.657-.315A4.992,4.992,0,0,1,444.617,286.88Z"/><path class="cls-13" d="M455.106,287.85a6.3,6.3,0,0,1,.8,3.451,5.75,5.75,0,0,1-.918,3.4,3,3,0,0,1-2.6,1.292,2.887,2.887,0,0,1-2.346-1.02v4.25l-1.564.187V286.829h1.343l.119,1.208a3.41,3.41,0,0,1,1.189-1.045,3.1,3.1,0,0,1,1.462-.367A2.789,2.789,0,0,1,455.106,287.85Zm-.884,3.451q0-3.435-2.023-3.434a2.017,2.017,0,0,0-1.207.391,3.842,3.842,0,0,0-.952,1v4.368a2.35,2.35,0,0,0,.85.808,2.29,2.29,0,0,0,1.122.281Q454.222,294.718,454.222,291.3Z"/><path class="cls-13" d="M464.872,287.884a5.184,5.184,0,0,1,1.045,3.417,5.975,5.975,0,0,1-.475,2.456,3.738,3.738,0,0,1-1.377,1.65,3.852,3.852,0,0,1-2.143.586,3.624,3.624,0,0,1-2.94-1.258,5.154,5.154,0,0,1-1.055-3.417,5.948,5.948,0,0,1,.477-2.457,3.717,3.717,0,0,1,1.377-1.649,3.876,3.876,0,0,1,2.159-.587A3.6,3.6,0,0,1,464.872,287.884Zm-5.261,3.434q0,3.417,2.311,3.417t2.313-3.434q0-3.417-2.3-3.417Q459.609,287.884,459.611,291.318Z"/><path class="cls-13" d="M468.917,295.474a2.009,2.009,0,0,1-.5-1.453v-10.8l1.563-.188v10.949a.918.918,0,0,0,.128.544.508.508,0,0,0,.434.17,1.571,1.571,0,0,0,.578-.1l.407,1.088a2.546,2.546,0,0,1-1.24.306A1.817,1.817,0,0,1,468.917,295.474Z"/><path class="cls-13" d="M480.129,291.845h-5.712a3.5,3.5,0,0,0,.749,2.176,2.167,2.167,0,0,0,1.666.7,3.635,3.635,0,0,0,1.19-.187,4.868,4.868,0,0,0,1.139-.6l.679.935a4.949,4.949,0,0,1-3.128,1.122,3.632,3.632,0,0,1-2.915-1.224,5.019,5.019,0,0,1-1.046-3.366,6.369,6.369,0,0,1,.452-2.474,3.86,3.86,0,0,1,1.292-1.691,3.266,3.266,0,0,1,1.98-.613,3.321,3.321,0,0,1,2.736,1.173,5.015,5.015,0,0,1,.953,3.247C480.164,291.307,480.152,291.573,480.129,291.845Zm-1.512-1.259a3.307,3.307,0,0,0-.528-2.022,1.853,1.853,0,0,0-1.581-.7q-1.92,0-2.091,2.822h4.2Z"/><path class="cls-13" d="M487.388,286.855a4.066,4.066,0,0,1,1.276.74l-.748.985a3.893,3.893,0,0,0-.927-.5,2.948,2.948,0,0,0-.994-.162,1.942,1.942,0,0,0-1.692.868,4.5,4.5,0,0,0-.6,2.567,4.251,4.251,0,0,0,.594,2.507,1.983,1.983,0,0,0,1.7.807,2.8,2.8,0,0,0,.968-.161,4.917,4.917,0,0,0,.987-.518l.714,1.019a4.255,4.255,0,0,1-2.738.987,3.57,3.57,0,0,1-2.864-1.224,5.044,5.044,0,0,1-1.046-3.383,6.1,6.1,0,0,1,.477-2.5,3.829,3.829,0,0,1,1.351-1.666,3.619,3.619,0,0,1,2.082-.6A4.465,4.465,0,0,1,487.388,286.855Zm.732-4.411.663.764-2.3,1.921h-1.037l-2.313-1.921.681-.764,2.141,1.427Z"/><path class="cls-13" d="M496.917,287.357a2.808,2.808,0,0,1,.688,2.006v6.425h-1.563v-6.2a1.985,1.985,0,0,0-.358-1.342,1.353,1.353,0,0,0-1.054-.391,2.038,2.038,0,0,0-1.257.408,4.205,4.205,0,0,0-1.021,1.173v6.357h-1.563v-8.959h1.342l.136,1.327a3.533,3.533,0,0,1,1.182-1.122,3.049,3.049,0,0,1,1.555-.409A2.5,2.5,0,0,1,496.917,287.357Z"/><path class="cls-13" d="M507.048,287.884a5.179,5.179,0,0,1,1.046,3.417,5.975,5.975,0,0,1-.475,2.456,3.751,3.751,0,0,1-1.377,1.65,3.854,3.854,0,0,1-2.143.586,3.623,3.623,0,0,1-2.94-1.258,5.154,5.154,0,0,1-1.055-3.417,5.948,5.948,0,0,1,.477-2.457,3.717,3.717,0,0,1,1.377-1.649,3.876,3.876,0,0,1,2.159-.587A3.6,3.6,0,0,1,507.048,287.884Zm-5.26,3.434q0,3.417,2.311,3.417t2.313-3.434q0-3.417-2.295-3.417Q501.786,287.884,501.788,291.318Z"/><path class="cls-13" d="M514.758,286.88a4.983,4.983,0,0,1,1.394.766l-.663.985a5.408,5.408,0,0,0-1.164-.577,3.6,3.6,0,0,0-1.165-.187,2.053,2.053,0,0,0-1.207.314,1.066,1.066,0,0,0-.026,1.709,4.854,4.854,0,0,0,1.5.6,5.392,5.392,0,0,1,2.235,1.019,2.227,2.227,0,0,1,.74,1.769,2.289,2.289,0,0,1-1.029,2.022,4.36,4.36,0,0,1-2.507.7,4.956,4.956,0,0,1-3.383-1.173l.833-.952a4.06,4.06,0,0,0,2.516.867,2.4,2.4,0,0,0,1.4-.365,1.159,1.159,0,0,0,.518-1,1.312,1.312,0,0,0-.187-.739,1.53,1.53,0,0,0-.646-.493,8.886,8.886,0,0,0-1.343-.45,4.591,4.591,0,0,1-2.066-1,2.15,2.15,0,0,1-.637-1.6,2.1,2.1,0,0,1,.416-1.265,2.709,2.709,0,0,1,1.157-.885,4.205,4.205,0,0,1,1.657-.315A4.986,4.986,0,0,1,514.758,286.88Z"/><path class="cls-13" d="M523.139,295.38a3.44,3.44,0,0,1-2.006.613,2.363,2.363,0,0,1-1.776-.655,2.607,2.607,0,0,1-.638-1.9v-5.406h-1.563v-1.208h1.563v-2.022l1.565-.187v2.209h2.125l-.17,1.208h-1.955v5.337a1.652,1.652,0,0,0,.246,1.012.984.984,0,0,0,.824.315,2.574,2.574,0,0,0,1.19-.357Z"/><path class="cls-13" d="M533.314,284.654a2.992,2.992,0,0,1,1.2,1.113,3.027,3.027,0,0,1,.425,1.59,4.456,4.456,0,0,1-.468,1.989,9.674,9.674,0,0,1-1.436,2.057q-.969,1.105-2.941,3.077h5.117l-.187,1.308h-6.715v-1.241q2.279-2.361,3.23-3.459a9.7,9.7,0,0,0,1.36-1.912,3.866,3.866,0,0,0,.408-1.751,1.746,1.746,0,0,0-1.87-1.888,2.5,2.5,0,0,0-1.224.29,4.472,4.472,0,0,0-1.122.952l-1.02-.817a4.712,4.712,0,0,1,1.547-1.292,4.2,4.2,0,0,1,1.9-.424A3.783,3.783,0,0,1,533.314,284.654Z"/><path class="cls-13" d="M543.65,285.75a10.4,10.4,0,0,1,0,8.73,3.436,3.436,0,0,1-5.695,0,10.394,10.394,0,0,1,0-8.73,3.448,3.448,0,0,1,5.695,0Zm-4.488.825a11.961,11.961,0,0,0,0,7.081,1.77,1.77,0,0,0,3.272,0,11.767,11.767,0,0,0,0-7.073,1.772,1.772,0,0,0-3.272-.008Z"/><path class="cls-13" d="M551.011,284.654a2.963,2.963,0,0,1,1.623,2.7,4.468,4.468,0,0,1-.467,1.989,9.719,9.719,0,0,1-1.437,2.057q-.969,1.105-2.94,3.077h5.117l-.188,1.308H546v-1.241q2.279-2.361,3.23-3.459a9.654,9.654,0,0,0,1.36-1.912,3.853,3.853,0,0,0,.408-1.751,1.745,1.745,0,0,0-1.87-1.888,2.493,2.493,0,0,0-1.223.29,4.438,4.438,0,0,0-1.122.952l-1.021-.817a4.722,4.722,0,0,1,1.547-1.292,4.2,4.2,0,0,1,1.9-.424A3.78,3.78,0,0,1,551.011,284.654Z"/><path class="cls-13" d="M561.347,285.75a10.4,10.4,0,0,1,0,8.73,3.436,3.436,0,0,1-5.695,0,10.394,10.394,0,0,1,0-8.73,3.448,3.448,0,0,1,5.695,0Zm-4.488.825a11.983,11.983,0,0,0,0,7.081,1.77,1.77,0,0,0,3.272,0,11.767,11.767,0,0,0,0-7.073,1.772,1.772,0,0,0-3.272-.008Z"/><path class="cls-13" d="M568.292,291.13v-1.325h7.751v1.325Z"/><path class="cls-13" d="M584.271,283.038v12.75h-1.563V283.226Zm5.151,3.791-3.3,3.961,3.671,5h-1.87l-3.552-4.9,3.3-4.064Z"/><path class="cls-13" d="M591.827,295.474a2.005,2.005,0,0,1-.5-1.453v-10.8l1.563-.188v10.949a.918.918,0,0,0,.128.544.51.51,0,0,0,.434.17,1.567,1.567,0,0,0,.578-.1l.407,1.088a2.546,2.546,0,0,1-1.24.306A1.815,1.815,0,0,1,591.827,295.474Z"/><path class="cls-13" d="M597.956,282.834a1.039,1.039,0,0,1,.306.766,1.008,1.008,0,0,1-.306.756,1.1,1.1,0,0,1-.8.3,1.072,1.072,0,0,1-.782-.3,1,1,0,0,1-.306-.756,1.035,1.035,0,0,1,.306-.766,1.057,1.057,0,0,1,.782-.305A1.081,1.081,0,0,1,597.956,282.834Zm0,4v8.959h-1.564v-8.959Z"/><path class="cls-13" d="M611.947,287.366a2.878,2.878,0,0,1,.663,2v6.425h-1.565v-6.2q0-1.733-1.257-1.733a1.694,1.694,0,0,0-1.122.382,5.37,5.37,0,0,0-.986,1.2v6.357h-1.564v-6.2q0-1.733-1.258-1.733a1.694,1.694,0,0,0-1.139.391,5.307,5.307,0,0,0-.969,1.19v6.357h-1.564v-8.959h1.343l.136,1.31a3,3,0,0,1,2.584-1.514,2.257,2.257,0,0,1,2.261,1.616,4.216,4.216,0,0,1,1.164-1.2,2.7,2.7,0,0,1,1.5-.417A2.257,2.257,0,0,1,611.947,287.366Z"/><path class="cls-13" d="M621.976,294.505a1.142,1.142,0,0,0,.562.4l-.358,1.088a2.392,2.392,0,0,1-1.122-.391,1.793,1.793,0,0,1-.629-.952,3,3,0,0,1-2.669,1.343,2.861,2.861,0,0,1-2.091-.748,2.614,2.614,0,0,1-.765-1.956,2.566,2.566,0,0,1,1.029-2.192,4.8,4.8,0,0,1,2.915-.766h1.377v-.663a1.741,1.741,0,0,0-.459-1.359,2.076,2.076,0,0,0-1.411-.408,7.929,7.929,0,0,0-2.414.475l-.391-1.138a9,9,0,0,1,3.094-.613,3.232,3.232,0,0,1,2.363.774,2.963,2.963,0,0,1,.783,2.2v4.1A1.4,1.4,0,0,0,621.976,294.505Zm-1.751-1.079v-2.057h-1.173q-2.482,0-2.482,1.835a1.684,1.684,0,0,0,.391,1.208,1.529,1.529,0,0,0,1.156.408A2.336,2.336,0,0,0,620.225,293.426Z"/><path class="cls-13" d="M629.524,295.38a3.44,3.44,0,0,1-2.006.613,2.361,2.361,0,0,1-1.776-.655,2.607,2.607,0,0,1-.638-1.9v-5.406h-1.563v-1.208H625.1v-2.022l1.564-.187v2.209h2.125l-.169,1.208h-1.956v5.337a1.652,1.652,0,0,0,.247,1.012.984.984,0,0,0,.824.315,2.577,2.577,0,0,0,1.19-.357Z"/><path class="cls-13" d="M632.7,282.834a1.039,1.039,0,0,1,.306.766,1.008,1.008,0,0,1-.306.756,1.1,1.1,0,0,1-.8.3,1.072,1.072,0,0,1-.782-.3,1,1,0,0,1-.306-.756,1.035,1.035,0,0,1,.306-.766,1.057,1.057,0,0,1,.782-.305A1.079,1.079,0,0,1,632.7,282.834Zm0,4v8.959h-1.564v-8.959Z"/><path class="cls-13" d="M640.659,286.855a4.061,4.061,0,0,1,1.275.74l-.748.985a3.874,3.874,0,0,0-.927-.5,2.944,2.944,0,0,0-.994-.162,1.94,1.94,0,0,0-1.691.868,4.489,4.489,0,0,0-.6,2.567,4.243,4.243,0,0,0,.6,2.507,1.982,1.982,0,0,0,1.7.807,2.8,2.8,0,0,0,.969-.161,4.886,4.886,0,0,0,.986-.518l.714,1.019a4.251,4.251,0,0,1-2.737.987,3.57,3.57,0,0,1-2.864-1.224,5.039,5.039,0,0,1-1.046-3.383,6.112,6.112,0,0,1,.476-2.5,3.837,3.837,0,0,1,1.352-1.666,3.617,3.617,0,0,1,2.082-.6A4.474,4.474,0,0,1,640.659,286.855Z"/><path class="cls-13" d="M645.623,283.038v12.75h-1.564V283.226Zm5.151,3.791-3.3,3.961,3.672,5h-1.87l-3.553-4.9,3.3-4.064Z"/><path class="cls-13" d="M658.73,294.505a1.142,1.142,0,0,0,.562.4l-.358,1.088a2.392,2.392,0,0,1-1.122-.391,1.793,1.793,0,0,1-.629-.952,3,3,0,0,1-2.669,1.343,2.861,2.861,0,0,1-2.091-.748,2.614,2.614,0,0,1-.765-1.956,2.566,2.566,0,0,1,1.029-2.192,4.8,4.8,0,0,1,2.915-.766h1.377v-.663a1.741,1.741,0,0,0-.459-1.359,2.076,2.076,0,0,0-1.411-.408,7.929,7.929,0,0,0-2.414.475l-.391-1.138a9,9,0,0,1,3.094-.613,3.232,3.232,0,0,1,2.363.774,2.962,2.962,0,0,1,.782,2.2v4.1A1.4,1.4,0,0,0,658.73,294.505Zm-2.057-12.334.7,1.31-3.6,1.462-.475-.833Zm.306,11.255v-2.057h-1.173q-2.483,0-2.482,1.835a1.684,1.684,0,0,0,.391,1.208,1.529,1.529,0,0,0,1.156.408A2.336,2.336,0,0,0,656.979,293.426Z"/><path class="cls-13" d="M671.514,286.829v1.191l-4.675,6.46h4.726l-.187,1.308h-6.307v-1.172l4.658-6.46h-4.267v-1.327Z"/><path class="cls-13" d="M684.451,287.366a2.878,2.878,0,0,1,.663,2v6.425h-1.565v-6.2q0-1.733-1.257-1.733a1.7,1.7,0,0,0-1.123.382,5.4,5.4,0,0,0-.985,1.2v6.357H678.62v-6.2q0-1.733-1.258-1.733a1.694,1.694,0,0,0-1.139.391,5.335,5.335,0,0,0-.97,1.19v6.357H673.69v-8.959h1.343l.135,1.31a3,3,0,0,1,2.584-1.514,2.257,2.257,0,0,1,2.262,1.616,4.2,4.2,0,0,1,1.164-1.2,2.7,2.7,0,0,1,1.5-.417A2.258,2.258,0,0,1,684.451,287.366Z"/><path class="cls-13" d="M694.991,291.845h-5.712a3.492,3.492,0,0,0,.748,2.176,2.168,2.168,0,0,0,1.666.7,3.631,3.631,0,0,0,1.19-.187,4.829,4.829,0,0,0,1.139-.6l.68.935a4.949,4.949,0,0,1-3.128,1.122,3.631,3.631,0,0,1-2.915-1.224,5.014,5.014,0,0,1-1.046-3.366,6.369,6.369,0,0,1,.451-2.474,3.868,3.868,0,0,1,1.292-1.691,3.27,3.27,0,0,1,1.98-.613,3.324,3.324,0,0,1,2.737,1.173,5.015,5.015,0,0,1,.952,3.247C695.025,291.307,695.013,291.573,694.991,291.845Zm-1.445-9.4.663.764-2.295,1.921h-1.037l-2.312-1.921.68-.764,2.142,1.427Zm-.068,8.142a3.314,3.314,0,0,0-.527-2.022,1.855,1.855,0,0,0-1.581-.7q-1.921,0-2.091,2.822h4.2Z"/><path class="cls-13" d="M703.652,287.357a2.808,2.808,0,0,1,.688,2.006v6.425h-1.563v-6.2a1.979,1.979,0,0,0-.358-1.342,1.351,1.351,0,0,0-1.053-.391,2.038,2.038,0,0,0-1.258.408,4.238,4.238,0,0,0-1.021,1.173v6.357h-1.563v-8.959h1.343l.135,1.327a3.542,3.542,0,0,1,1.182-1.122,3.052,3.052,0,0,1,1.556-.409A2.5,2.5,0,0,1,703.652,287.357Z"/><path class="cls-13" d="M713.708,294.505a1.139,1.139,0,0,0,.561.4l-.357,1.088a2.392,2.392,0,0,1-1.122-.391,1.782,1.782,0,0,1-.629-.952,3.007,3.007,0,0,1-2.669,1.343,2.861,2.861,0,0,1-2.091-.748,2.611,2.611,0,0,1-.766-1.956,2.564,2.564,0,0,1,1.03-2.192,4.8,4.8,0,0,1,2.915-.766h1.377v-.663a1.745,1.745,0,0,0-.459-1.359,2.079,2.079,0,0,0-1.412-.408,7.935,7.935,0,0,0-2.414.475l-.39-1.138a8.988,8.988,0,0,1,3.094-.613,3.235,3.235,0,0,1,2.363.774,2.966,2.966,0,0,1,.782,2.2v4.1A1.4,1.4,0,0,0,713.708,294.505Zm-1.751-1.079v-2.057h-1.173q-2.484,0-2.483,1.835a1.68,1.68,0,0,0,.392,1.208,1.527,1.527,0,0,0,1.155.408A2.336,2.336,0,0,0,711.957,293.426Z"/></svg>