<svg id="Layer_1" data-name="Layer 1" xmlns="http://www.w3.org/2000/svg" viewBox="0 0 1070 289.359"><defs><style>.cls-1{fill:#2f5798;}.cls-2{fill:#63a9e6;}.cls-3{fill:#8d9199;}.cls-4{fill:#ea9c8c;}.cls-5{fill:#d1495b;}.cls-6{fill:#9dc3e6;}.cls-7{fill:#d1d3d4;}.cls-7,.cls-9{stroke:#fff;stroke-miterlimit:10;stroke-width:3px;}.cls-8{fill:#eab7ad;}.cls-9{fill:none;}.cls-10{opacity:0.8;}.cls-11{fill:#f1f2f2;}.cls-12{fill:#414042;}.cls-13{fill:#999;}</style></defs><path d="M17.417,10.245v2.142l-6.7,10.1H17.48l-.294,2.268h-9.7V22.635L14.309,12.45H8.177v-2.2ZM15.485,5.268l1.029,1.176L13.6,8.964h-1.68L9,6.444l1.029-1.176,2.73,1.743Z"/><path d="M28.442,20.031H21.471a3.522,3.522,0,0,0,.84,2.31,2.594,2.594,0,0,0,1.889.693,3.93,3.93,0,0,0,1.386-.242,6.47,6.47,0,0,0,1.387-.745l1.112,1.533a6.387,6.387,0,0,1-4.115,1.491,4.954,4.954,0,0,1-3.917-1.554,6.173,6.173,0,0,1-1.375-4.242,7.586,7.586,0,0,1,.588-3.056,4.853,4.853,0,0,1,1.7-2.121,4.544,4.544,0,0,1,2.645-.766,4.523,4.523,0,0,1,3.613,1.481,6.108,6.108,0,0,1,1.281,4.126C28.506,19.079,28.484,19.443,28.442,20.031Zm-2.6-1.869q0-2.919-2.163-2.919a1.84,1.84,0,0,0-1.544.724,4.314,4.314,0,0,0-.661,2.321h4.368Z"/><path d="M39.162,14.224a3.519,3.519,0,0,1,.83,2.489v8.043H37.3V17.133a2.133,2.133,0,0,0-.347-1.386,1.274,1.274,0,0,0-1.019-.4,1.992,1.992,0,0,0-1.249.431,4.91,4.91,0,0,0-1.082,1.249v7.728H30.92V13.647h2.331l.21,1.449a4.128,4.128,0,0,1,3.381-1.764A3.01,3.01,0,0,1,39.162,14.224Z"/><path d="M48.371,24.8A6.81,6.81,0,0,1,46.334,28,6.475,6.475,0,0,1,42.6,29.334l-.273-1.953a6.707,6.707,0,0,0,1.753-.472,2.84,2.84,0,0,0,1.061-.809,5.472,5.472,0,0,0,.735-1.344h-.924L41.42,13.647h2.856l2.415,9.324,2.52-9.324h2.772Z"/><path d="M67.8,13.647,64.184,24.756H60.971L57.3,13.647h2.919l2.373,8.946,2.435-8.946Z"/><path d="M77.7,14.224a3.519,3.519,0,0,1,.83,2.489v8.043H75.839V17.133a2.127,2.127,0,0,0-.347-1.386,1.273,1.273,0,0,0-1.018-.4,1.988,1.988,0,0,0-1.249.431,4.89,4.89,0,0,0-1.082,1.249v7.728H69.455V13.647h2.331L72,15.1a4.128,4.128,0,0,1,3.381-1.764A3.009,3.009,0,0,1,77.7,14.224Z"/><path d="M84.6,7.536l1.092,2.1-4.746,1.89-.755-1.365Zm-.252,6.111V24.756H81.656V13.647Z"/><path d="M101.5,14.246a3.618,3.618,0,0,1,.8,2.467v8.043H99.611V17.133q0-1.785-1.218-1.785a1.66,1.66,0,0,0-1.123.409,5.092,5.092,0,0,0-.977,1.271v7.728H93.605V17.133q0-1.785-1.218-1.785a1.693,1.693,0,0,0-1.145.409,5.14,5.14,0,0,0-.976,1.271v7.728H87.578V13.647h2.331l.21,1.449a3.805,3.805,0,0,1,3.213-1.764A2.824,2.824,0,0,1,95,13.826,2.756,2.756,0,0,1,96.02,15.2a5.18,5.18,0,0,1,1.48-1.386,3.565,3.565,0,0,1,1.859-.483A2.7,2.7,0,0,1,101.5,14.246Z"/><path d="M113.838,22.772a1.277,1.277,0,0,0,.641.472l-.568,1.785a3.432,3.432,0,0,1-1.543-.462,2.362,2.362,0,0,1-.914-1.155,3.561,3.561,0,0,1-1.417,1.25,4.322,4.322,0,0,1-1.9.409,3.589,3.589,0,0,1-2.625-.945,3.307,3.307,0,0,1-.966-2.478,3.207,3.207,0,0,1,1.312-2.762,6.292,6.292,0,0,1,3.748-.955h1.386V17.3a1.917,1.917,0,0,0-.493-1.5,2.391,2.391,0,0,0-1.586-.43,9.367,9.367,0,0,0-2.939.588l-.63-1.827a11.217,11.217,0,0,1,4.032-.8q4.263,0,4.263,3.822v4.662A1.786,1.786,0,0,0,113.838,22.772Zm-2.846-1.019V19.506H109.88q-2.6,0-2.6,1.932a1.777,1.777,0,0,0,.4,1.239,1.5,1.5,0,0,0,1.176.441A2.376,2.376,0,0,0,110.992,21.753Z"/><path d="M119.351,23.769a6.513,6.513,0,0,1-.473,2.678,4.158,4.158,0,0,1-1.334,1.669,10.666,10.666,0,0,1-2.246,1.2l-.861-1.953a6.451,6.451,0,0,0,1.281-.745,2.3,2.3,0,0,0,.7-1,4.8,4.8,0,0,0,.241-1.68V13.647h2.689Zm-.137-15.277a1.581,1.581,0,0,1,.473,1.165,1.549,1.549,0,0,1-.473,1.155,1.681,1.681,0,0,1-1.229.462,1.65,1.65,0,0,1-1.207-.462,1.549,1.549,0,0,1-.472-1.155,1.58,1.58,0,0,1,.472-1.165,1.631,1.631,0,0,1,1.207-.473A1.661,1.661,0,0,1,119.214,8.492Z"/><path d="M125.859,7.536l1.093,2.1-4.746,1.89-.756-1.365Zm-.252,6.111V24.756H122.92V13.647Z"/><path d="M140.455,24.231a4.306,4.306,0,0,1-1.312.63,5.339,5.339,0,0,1-1.482.21,3.292,3.292,0,0,1-2.488-.935,3.825,3.825,0,0,1-.851-2.7V15.579H132.58V13.647h1.742V11.19l2.689-.315v2.772h2.583l-.274,1.932h-2.309v5.8a1.909,1.909,0,0,0,.283,1.176,1.071,1.071,0,0,0,.893.357,2.746,2.746,0,0,0,1.323-.4Z"/><path d="M150.661,20.031h-6.972a3.527,3.527,0,0,0,.84,2.31,2.6,2.6,0,0,0,1.89.693,3.93,3.93,0,0,0,1.386-.242,6.465,6.465,0,0,0,1.386-.745L150.3,23.58a6.389,6.389,0,0,1-4.116,1.491,4.956,4.956,0,0,1-3.917-1.554,6.178,6.178,0,0,1-1.375-4.242,7.6,7.6,0,0,1,.588-3.056,4.855,4.855,0,0,1,1.7-2.121,5.064,5.064,0,0,1,6.257.715,6.1,6.1,0,0,1,1.282,4.126C150.725,19.079,150.7,19.443,150.661,20.031ZM147.49,7.536l1.092,2.1-4.746,1.89-.756-1.365Zm.568,10.626q0-2.919-2.163-2.919a1.839,1.839,0,0,0-1.544.724,4.322,4.322,0,0,0-.662,2.321h4.369Z"/><path d="M167.062,14.246a3.618,3.618,0,0,1,.8,2.467v8.043h-2.687V17.133q0-1.785-1.219-1.785a1.664,1.664,0,0,0-1.123.409,5.092,5.092,0,0,0-.976,1.271v7.728h-2.689V17.133q0-1.785-1.218-1.785a1.691,1.691,0,0,0-1.144.409,5.116,5.116,0,0,0-.977,1.271v7.728h-2.687V13.647h2.331l.21,1.449a3.805,3.805,0,0,1,3.213-1.764,2.827,2.827,0,0,1,1.669.494A2.76,2.76,0,0,1,161.58,15.2a5.17,5.17,0,0,1,1.481-1.386,3.565,3.565,0,0,1,1.859-.483A2.7,2.7,0,0,1,167.062,14.246Z"/><path d="M179.4,22.772a1.277,1.277,0,0,0,.641.472l-.567,1.785a3.428,3.428,0,0,1-1.543-.462,2.357,2.357,0,0,1-.914-1.155,3.568,3.568,0,0,1-1.417,1.25,4.329,4.329,0,0,1-1.9.409,3.592,3.592,0,0,1-2.625-.945,3.311,3.311,0,0,1-.966-2.478,3.208,3.208,0,0,1,1.313-2.762,6.292,6.292,0,0,1,3.748-.955h1.386V17.3a1.917,1.917,0,0,0-.493-1.5,2.394,2.394,0,0,0-1.586-.43,9.372,9.372,0,0,0-2.94.588l-.63-1.827a11.222,11.222,0,0,1,4.033-.8q4.262,0,4.262,3.822v4.662A1.8,1.8,0,0,0,179.4,22.772Zm-2.845-1.019V19.506h-1.113q-2.6,0-2.6,1.932a1.782,1.782,0,0,0,.4,1.239,1.505,1.505,0,0,0,1.176.441A2.378,2.378,0,0,0,176.554,21.753Z"/><path d="M190.392,8.9V24.756H187.7V9.2Zm6.657,4.746-3.7,4.893,4.053,6.216h-3.087L190.5,18.687l3.717-5.04Z"/><path d="M199.538,24.326a2.909,2.909,0,0,1-.725-2.111V9.2L201.5,8.9v13.23q0,.777.63.777a1.982,1.982,0,0,0,.63-.105l.567,1.89a4.3,4.3,0,0,1-1.785.378A2.666,2.666,0,0,1,199.538,24.326Z"/><path d="M207.665,8.492a1.58,1.58,0,0,1,.472,1.165,1.549,1.549,0,0,1-.472,1.155,1.679,1.679,0,0,1-1.228.462,1.651,1.651,0,0,1-1.208-.462,1.549,1.549,0,0,1-.473-1.155,1.581,1.581,0,0,1,.473-1.165,1.631,1.631,0,0,1,1.208-.473A1.659,1.659,0,0,1,207.665,8.492Zm.136,5.155V24.756h-2.688V13.647Z"/><path d="M224.958,14.246a3.618,3.618,0,0,1,.8,2.467v8.043h-2.688V17.133q0-1.785-1.218-1.785a1.66,1.66,0,0,0-1.123.409,5.092,5.092,0,0,0-.977,1.271v7.728h-2.688V17.133q0-1.785-1.218-1.785a1.7,1.7,0,0,0-1.145.409,5.14,5.14,0,0,0-.976,1.271v7.728h-2.688V13.647h2.331l.21,1.449a3.805,3.805,0,0,1,3.213-1.764,2.824,2.824,0,0,1,1.669.494,2.756,2.756,0,0,1,1.019,1.375,5.18,5.18,0,0,1,1.48-1.386,3.565,3.565,0,0,1,1.859-.483A2.7,2.7,0,0,1,224.958,14.246Z"/><path d="M237.3,22.772a1.277,1.277,0,0,0,.641.472l-.568,1.785a3.432,3.432,0,0,1-1.543-.462,2.362,2.362,0,0,1-.914-1.155,3.561,3.561,0,0,1-1.417,1.25,4.322,4.322,0,0,1-1.9.409,3.589,3.589,0,0,1-2.625-.945A3.307,3.307,0,0,1,228,21.648a3.207,3.207,0,0,1,1.312-2.762,6.292,6.292,0,0,1,3.748-.955h1.386V17.3a1.917,1.917,0,0,0-.493-1.5,2.391,2.391,0,0,0-1.586-.43,9.367,9.367,0,0,0-2.939.588l-.63-1.827a11.217,11.217,0,0,1,4.032-.8q4.263,0,4.263,3.822v4.662A1.786,1.786,0,0,0,237.3,22.772Zm-2.846-1.019V19.506h-1.112q-2.6,0-2.6,1.932a1.777,1.777,0,0,0,.4,1.239,1.5,1.5,0,0,0,1.176.441A2.376,2.376,0,0,0,234.449,21.753Z"/><path d="M246.714,24.231a4.311,4.311,0,0,1-1.313.63,5.327,5.327,0,0,1-1.481.21,3.292,3.292,0,0,1-2.488-.935,3.825,3.825,0,0,1-.851-2.7V15.579h-1.742V13.647h1.742V11.19l2.689-.315v2.772h2.583l-.274,1.932H243.27v5.8a1.909,1.909,0,0,0,.283,1.176,1.07,1.07,0,0,0,.892.357,2.746,2.746,0,0,0,1.324-.4Z"/><path d="M257.108,24.756h-2.331l-.146-1.554a4.109,4.109,0,0,1-1.439,1.407,3.984,3.984,0,0,1-1.963.462,2.908,2.908,0,0,1-2.3-.913,3.69,3.69,0,0,1-.809-2.531v-7.98h2.689v7.644a2.148,2.148,0,0,0,.325,1.344,1.264,1.264,0,0,0,1.04.4,2.713,2.713,0,0,0,2.246-1.575V13.647h2.688Z"/><path d="M273.835,14.224a3.519,3.519,0,0,1,.83,2.489v8.043h-2.688V17.133a2.133,2.133,0,0,0-.347-1.386,1.276,1.276,0,0,0-1.019-.4,1.988,1.988,0,0,0-1.249.431,4.91,4.91,0,0,0-1.082,1.249v7.728h-2.687V13.647h2.331l.21,1.449a4.128,4.128,0,0,1,3.381-1.764A3.01,3.01,0,0,1,273.835,14.224Z"/><path d="M286.2,22.772a1.277,1.277,0,0,0,.641.472l-.568,1.785a3.432,3.432,0,0,1-1.543-.462,2.362,2.362,0,0,1-.914-1.155,3.561,3.561,0,0,1-1.417,1.25,4.322,4.322,0,0,1-1.9.409,3.589,3.589,0,0,1-2.625-.945,3.307,3.307,0,0,1-.966-2.478,3.208,3.208,0,0,1,1.313-2.762,6.292,6.292,0,0,1,3.748-.955h1.385V17.3a1.917,1.917,0,0,0-.493-1.5,2.391,2.391,0,0,0-1.586-.43,9.367,9.367,0,0,0-2.939.588l-.63-1.827a11.217,11.217,0,0,1,4.032-.8q4.263,0,4.263,3.822v4.662A1.786,1.786,0,0,0,286.2,22.772Zm-2.846-1.019V19.506h-1.112q-2.6,0-2.6,1.932a1.777,1.777,0,0,0,.4,1.239,1.5,1.5,0,0,0,1.176.441A2.376,2.376,0,0,0,283.358,21.753Z"/><path d="M289.669,24.326a2.909,2.909,0,0,1-.725-2.111V9.2l2.689-.294v13.23q0,.777.63.777a1.982,1.982,0,0,0,.63-.105l.567,1.89a4.3,4.3,0,0,1-1.785.378A2.666,2.666,0,0,1,289.669,24.326Z"/><path d="M304.19,20.031h-6.971a3.522,3.522,0,0,0,.84,2.31,2.594,2.594,0,0,0,1.889.693,3.93,3.93,0,0,0,1.386-.242,6.47,6.47,0,0,0,1.387-.745l1.112,1.533a6.385,6.385,0,0,1-4.115,1.491,4.954,4.954,0,0,1-3.917-1.554,6.173,6.173,0,0,1-1.375-4.242,7.586,7.586,0,0,1,.588-3.056,4.853,4.853,0,0,1,1.7-2.121,5.066,5.066,0,0,1,6.258.715,6.108,6.108,0,0,1,1.281,4.126C304.254,19.079,304.232,19.443,304.19,20.031ZM301.02,7.536l1.091,2.1-4.746,1.89-.756-1.365Zm.567,10.626q0-2.919-2.163-2.919a1.84,1.84,0,0,0-1.544.724,4.314,4.314,0,0,0-.661,2.321h4.368Z"/><path d="M314.9,14.235a3.492,3.492,0,0,1,.841,2.478v8.043h-2.688V17.133a2.127,2.127,0,0,0-.347-1.386,1.273,1.273,0,0,0-1.018-.4,2,2,0,0,0-1.239.431,4.889,4.889,0,0,0-1.093,1.228v7.749h-2.687V9.216l2.687-.273V14.97a4.06,4.06,0,0,1,3.235-1.638A3,3,0,0,1,314.9,14.235Z"/><path d="M327.28,22.772a1.277,1.277,0,0,0,.641.472l-.567,1.785a3.428,3.428,0,0,1-1.543-.462,2.358,2.358,0,0,1-.915-1.155,3.559,3.559,0,0,1-1.416,1.25,4.329,4.329,0,0,1-1.9.409,3.592,3.592,0,0,1-2.625-.945,3.311,3.311,0,0,1-.966-2.478,3.208,3.208,0,0,1,1.313-2.762,6.292,6.292,0,0,1,3.748-.955h1.386V17.3a1.914,1.914,0,0,0-.494-1.5,2.391,2.391,0,0,0-1.586-.43,9.367,9.367,0,0,0-2.939.588l-.63-1.827a11.221,11.221,0,0,1,4.032-.8q4.263,0,4.263,3.822v4.662A1.786,1.786,0,0,0,327.28,22.772Zm-2.845-1.019V19.506h-1.113q-2.6,0-2.6,1.932a1.782,1.782,0,0,0,.4,1.239,1.5,1.5,0,0,0,1.176.441A2.378,2.378,0,0,0,324.435,21.753Z"/><path d="M338.945,13.647l-3.612,11.109H332.12l-3.675-11.109h2.919l2.373,8.946,2.436-8.946Z"/><path d="M349.529,20.031h-6.971a3.527,3.527,0,0,0,.839,2.31,2.6,2.6,0,0,0,1.89.693,3.93,3.93,0,0,0,1.386-.242,6.494,6.494,0,0,0,1.387-.745l1.112,1.533a6.388,6.388,0,0,1-4.115,1.491,4.954,4.954,0,0,1-3.917-1.554,6.173,6.173,0,0,1-1.375-4.242,7.586,7.586,0,0,1,.588-3.056,4.853,4.853,0,0,1,1.7-2.121,5.066,5.066,0,0,1,6.258.715,6.108,6.108,0,0,1,1.281,4.126C349.593,19.079,349.571,19.443,349.529,20.031ZM347.492,7.956l1.029,1.176L345.6,11.757h-1.681L341,9.132l1.029-1.176L344.763,9.8Zm-.566,10.206q0-2.919-2.163-2.919a1.84,1.84,0,0,0-1.544.724,4.314,4.314,0,0,0-.661,2.321h4.368Z"/><path d="M354.675,23.769a6.5,6.5,0,0,1-.473,2.678,4.158,4.158,0,0,1-1.334,1.669,10.666,10.666,0,0,1-2.246,1.2l-.861-1.953a6.422,6.422,0,0,0,1.281-.745,2.287,2.287,0,0,0,.7-1,4.8,4.8,0,0,0,.241-1.68V13.647h2.689Zm-.137-15.277a1.577,1.577,0,0,1,.473,1.165,1.546,1.546,0,0,1-.473,1.155,1.679,1.679,0,0,1-1.228.462,1.647,1.647,0,0,1-1.207-.462,1.546,1.546,0,0,1-.473-1.155,1.577,1.577,0,0,1,.473-1.165,1.627,1.627,0,0,1,1.207-.473A1.659,1.659,0,0,1,354.538,8.492Z"/><path d="M360.46,8.492a1.584,1.584,0,0,1,.472,1.165,1.552,1.552,0,0,1-.472,1.155,1.68,1.68,0,0,1-1.229.462,1.654,1.654,0,0,1-1.208-.462,1.552,1.552,0,0,1-.472-1.155,1.584,1.584,0,0,1,.472-1.165,1.634,1.634,0,0,1,1.208-.473A1.659,1.659,0,0,1,360.46,8.492Zm.136,5.155V24.756h-2.688V13.647Z"/><path class="cls-1" d="M83.521,61.1A3.281,3.281,0,0,1,84.77,63.9a3.48,3.48,0,0,1-1.258,2.932,5.311,5.311,0,0,1-3.349.978H78.786v4.1H76.542V60.16H80.01A5.765,5.765,0,0,1,83.521,61.1Zm-1.709,4.53a2.117,2.117,0,0,0,.612-1.725q0-2.091-2.431-2.091H78.786v4.318h1.207A2.814,2.814,0,0,0,81.812,65.625Z"/><path class="cls-1" d="M91.094,58.307l.833.952-2.363,2.125H88.2l-2.363-2.125.833-.952,2.21,1.5Zm.425,4.488L91.145,64.9a3.291,3.291,0,0,0-.8-.1,1.527,1.527,0,0,0-1.258.57,4.367,4.367,0,0,0-.731,1.742v4.794H86.181V62.914h1.887l.2,1.768a3.226,3.226,0,0,1,.935-1.487,2.117,2.117,0,0,1,1.411-.519A3.221,3.221,0,0,1,91.519,62.8Z"/><path class="cls-1" d="M99.7,68.082H94.052a2.856,2.856,0,0,0,.68,1.87,2.1,2.1,0,0,0,1.53.561,3.2,3.2,0,0,0,1.122-.2,5.286,5.286,0,0,0,1.122-.6l.9,1.241a5.174,5.174,0,0,1-3.332,1.207,4.007,4.007,0,0,1-3.17-1.258,5,5,0,0,1-1.114-3.434A6.161,6.161,0,0,1,92.267,65a3.919,3.919,0,0,1,1.377-1.716,4.1,4.1,0,0,1,5.066.578,4.943,4.943,0,0,1,1.037,3.34Q99.747,67.368,99.7,68.082Zm-2.108-1.513q0-2.362-1.751-2.363a1.489,1.489,0,0,0-1.25.587,3.489,3.489,0,0,0-.535,1.878h3.536Z"/><path class="cls-1" d="M107.737,63.73l-.85,1.275a4.227,4.227,0,0,0-2.261-.731,1.751,1.751,0,0,0-1,.246.761.761,0,0,0-.357.655.826.826,0,0,0,.153.51,1.391,1.391,0,0,0,.553.383,9.359,9.359,0,0,0,1.181.4,5.208,5.208,0,0,1,2.168,1.037,2.323,2.323,0,0,1,.7,1.8,2.418,2.418,0,0,1-1.088,2.1,4.624,4.624,0,0,1-2.7.756,5.7,5.7,0,0,1-2.014-.34,4.867,4.867,0,0,1-1.573-.935l1.088-1.224a4.015,4.015,0,0,0,2.448.884,2.071,2.071,0,0,0,1.165-.289.91.91,0,0,0,.433-.8,1.065,1.065,0,0,0-.161-.62,1.325,1.325,0,0,0-.579-.408,11.843,11.843,0,0,0-1.3-.434,4.344,4.344,0,0,1-2.023-1.045,2.32,2.32,0,0,1-.646-1.675,2.233,2.233,0,0,1,.433-1.343A2.882,2.882,0,0,1,102.73,63a4.542,4.542,0,0,1,1.811-.34A5.06,5.06,0,0,1,107.737,63.73Z"/><path class="cls-1" d="M116.713,62.914l-2.924,8.993h-2.6l-2.975-8.993h2.363l1.921,7.242,1.972-7.242Z"/><path class="cls-1" d="M125.281,68.082h-5.644a2.856,2.856,0,0,0,.68,1.87,2.1,2.1,0,0,0,1.53.561,3.2,3.2,0,0,0,1.122-.2,5.286,5.286,0,0,0,1.122-.6l.9,1.241a5.174,5.174,0,0,1-3.332,1.207,4.007,4.007,0,0,1-3.17-1.258,5,5,0,0,1-1.114-3.434A6.161,6.161,0,0,1,117.852,65a3.919,3.919,0,0,1,1.377-1.716,4.1,4.1,0,0,1,5.066.578,4.943,4.943,0,0,1,1.037,3.34Q125.332,67.368,125.281,68.082Zm-1.649-9.775.833.952L122.1,61.384h-1.36l-2.363-2.125.833-.952,2.21,1.5Zm-.459,8.262q0-2.362-1.751-2.363a1.489,1.489,0,0,0-1.25.587,3.489,3.489,0,0,0-.535,1.878h3.536Z"/><path class="cls-1" d="M134.852,59.31v12.6h-1.921l-.153-1.139a3.14,3.14,0,0,1-1.079,1.02,2.952,2.952,0,0,1-1.488.374,2.9,2.9,0,0,1-2.533-1.275,5.992,5.992,0,0,1-.884-3.468,6.429,6.429,0,0,1,.442-2.456,3.883,3.883,0,0,1,1.266-1.692,3.2,3.2,0,0,1,4.174.357V59.072Zm-3.009,10.923a2.89,2.89,0,0,0,.833-.876V65.243a3.141,3.141,0,0,0-.79-.714,1.786,1.786,0,0,0-.927-.238,1.556,1.556,0,0,0-1.369.774,4.357,4.357,0,0,0-.5,2.337,4.79,4.79,0,0,0,.442,2.388,1.424,1.424,0,0,0,1.292.723A1.864,1.864,0,0,0,131.843,70.233Z"/><path class="cls-1" d="M142.681,62.914a4.236,4.236,0,0,1,1.334.8l-.969,1.309a3.492,3.492,0,0,0-.884-.493,2.741,2.741,0,0,0-.935-.153q-2.024,0-2.023,3.077a3.754,3.754,0,0,0,.527,2.252,1.774,1.774,0,0,0,1.5.689,2.435,2.435,0,0,0,.876-.153,5.687,5.687,0,0,0,.943-.493l.969,1.377a4.482,4.482,0,0,1-2.907,1.037,4.3,4.3,0,0,1-2.244-.569,3.743,3.743,0,0,1-1.462-1.624,5.643,5.643,0,0,1-.51-2.482,5.922,5.922,0,0,1,.51-2.524,3.912,3.912,0,0,1,1.462-1.7,4.066,4.066,0,0,1,2.227-.6A4.661,4.661,0,0,1,142.681,62.914Zm.62-4.607.833.952-2.363,2.125h-1.36l-2.363-2.125.833-.952,2.21,1.5Z"/><path class="cls-1" d="M152.584,68.082h-5.645a2.856,2.856,0,0,0,.68,1.87,2.1,2.1,0,0,0,1.53.561,3.2,3.2,0,0,0,1.122-.2,5.239,5.239,0,0,0,1.122-.6l.9,1.241a5.174,5.174,0,0,1-3.332,1.207,4.009,4.009,0,0,1-3.17-1.258,5,5,0,0,1-1.114-3.434A6.161,6.161,0,0,1,145.154,65a3.926,3.926,0,0,1,1.377-1.716,4.1,4.1,0,0,1,5.066.578,4.938,4.938,0,0,1,1.037,3.34Q152.634,67.368,152.584,68.082Zm-2.109-1.513q0-2.362-1.751-2.363a1.486,1.486,0,0,0-1.249.587,3.488,3.488,0,0,0-.536,1.878h3.536Z"/><path class="cls-1" d="M161.262,63.382a2.849,2.849,0,0,1,.671,2.014v6.511h-2.176V65.736a1.728,1.728,0,0,0-.28-1.122,1.035,1.035,0,0,0-.825-.323,1.612,1.612,0,0,0-1.011.349,3.949,3.949,0,0,0-.876,1.011v6.256h-2.176V62.914h1.887l.17,1.173a3.343,3.343,0,0,1,2.737-1.428A2.438,2.438,0,0,1,161.262,63.382Z"/><path class="cls-1" d="M166.846,57.967l.884,1.7-3.842,1.53-.612-1.105Zm-.2,4.947v8.993h-2.176V62.914Z"/><path class="cls-2" d="M355.436,60.16v1.733l-5.424,8.178h5.475l-.238,1.836H347.4V70.19l5.524-8.245h-4.963V60.16Z"/><path class="cls-2" d="M363.842,63.381a2.842,2.842,0,0,1,.672,2.014v6.512h-2.176V65.736a1.719,1.719,0,0,0-.281-1.122,1.03,1.03,0,0,0-.824-.324,1.617,1.617,0,0,0-1.012.349,3.956,3.956,0,0,0-.875,1.012v6.256H357.17V62.913h1.887l.17,1.174a3.341,3.341,0,0,1,2.737-1.428A2.437,2.437,0,0,1,363.842,63.381Z"/><path class="cls-2" d="M374.374,68.081H368.73a2.849,2.849,0,0,0,.68,1.871,2.1,2.1,0,0,0,1.53.561,3.19,3.19,0,0,0,1.122-.2,5.205,5.205,0,0,0,1.121-.6l.9,1.24a5.17,5.17,0,0,1-3.332,1.208,4.005,4.005,0,0,1-3.169-1.258,4.992,4.992,0,0,1-1.115-3.434A6.144,6.144,0,0,1,366.945,65a3.915,3.915,0,0,1,1.377-1.717,4.1,4.1,0,0,1,5.065.578,4.939,4.939,0,0,1,1.037,3.341C374.424,67.311,374.408,67.606,374.374,68.081Zm-2.109-1.512q0-2.362-1.751-2.364a1.487,1.487,0,0,0-1.249.587,3.484,3.484,0,0,0-.535,1.879h3.535Z"/><path class="cls-2" d="M383.553,63.9a6.314,6.314,0,0,1,.817,3.485,6.826,6.826,0,0,1-.417,2.473,3.769,3.769,0,0,1-1.224,1.692,3.081,3.081,0,0,1-1.912.612,2.809,2.809,0,0,1-2.262-.986v4.2l-2.176.239v-12.7h1.9l.119,1.105A3.514,3.514,0,0,1,379.61,63a3.158,3.158,0,0,1,1.428-.339A2.8,2.8,0,0,1,383.553,63.9Zm-1.462,3.5a4.976,4.976,0,0,0-.424-2.38,1.385,1.385,0,0,0-1.276-.732,1.75,1.75,0,0,0-1.019.332,2.894,2.894,0,0,0-.817.893V69.56a1.912,1.912,0,0,0,1.65.936Q382.091,70.5,382.091,67.4Z"/><path class="cls-2" d="M393.286,63.925A5.086,5.086,0,0,1,394.4,67.4a5.762,5.762,0,0,1-.51,2.49,3.871,3.871,0,0,1-1.462,1.675,4.183,4.183,0,0,1-2.26.6,3.939,3.939,0,0,1-3.112-1.267,5.082,5.082,0,0,1-1.122-3.493,5.7,5.7,0,0,1,.511-2.482,3.855,3.855,0,0,1,1.47-1.666,4.218,4.218,0,0,1,2.269-.595A3.917,3.917,0,0,1,393.286,63.925ZM388.228,67.4a4.464,4.464,0,0,0,.485,2.354,1.768,1.768,0,0,0,2.907-.009,5.906,5.906,0,0,0,0-4.683,1.6,1.6,0,0,0-1.437-.756Q388.229,64.308,388.228,67.4Z"/><path class="cls-2" d="M398.616,59.072V71.907H396.44v-12.6ZM404,62.913l-2.992,3.961,3.281,5.033h-2.5L398.7,66.994l3.008-4.081Z"/><path class="cls-2" d="M412.105,63.925a5.086,5.086,0,0,1,1.113,3.477,5.777,5.777,0,0,1-.509,2.49,3.878,3.878,0,0,1-1.462,1.675,4.187,4.187,0,0,1-2.261.6,3.939,3.939,0,0,1-3.111-1.267,5.078,5.078,0,0,1-1.123-3.493,5.7,5.7,0,0,1,.511-2.482,3.855,3.855,0,0,1,1.47-1.666A4.221,4.221,0,0,1,409,62.659,3.914,3.914,0,0,1,412.105,63.925ZM407.047,67.4a4.454,4.454,0,0,0,.486,2.354,1.767,1.767,0,0,0,2.906-.009,5.906,5.906,0,0,0,0-4.683A1.6,1.6,0,0,0,409,64.308Q407.049,64.308,407.047,67.4Z"/><path class="cls-2" d="M417.417,71.108a5.268,5.268,0,0,1-.381,2.167,3.369,3.369,0,0,1-1.08,1.352,8.7,8.7,0,0,1-1.819.969l-.7-1.581a5.258,5.258,0,0,0,1.037-.6,1.836,1.836,0,0,0,.569-.808,3.883,3.883,0,0,0,.2-1.359V62.913h2.175Zm-.11-12.368a1.281,1.281,0,0,1,.383.943,1.255,1.255,0,0,1-.383.936,1.362,1.362,0,0,1-.994.374,1.344,1.344,0,0,1-.978-.374,1.257,1.257,0,0,1-.382-.936,1.284,1.284,0,0,1,.382-.943,1.326,1.326,0,0,1,.978-.382A1.344,1.344,0,0,1,417.307,58.74Z"/><path class="cls-2" d="M427.363,68.081h-5.645a2.865,2.865,0,0,0,.68,1.871,2.1,2.1,0,0,0,1.53.561,3.182,3.182,0,0,0,1.122-.2,5.187,5.187,0,0,0,1.122-.6l.9,1.24a5.174,5.174,0,0,1-3.332,1.208,4.01,4.01,0,0,1-3.171-1.258,5,5,0,0,1-1.113-3.434A6.161,6.161,0,0,1,419.933,65a3.929,3.929,0,0,1,1.377-1.717,4.1,4.1,0,0,1,5.066.578,4.939,4.939,0,0,1,1.038,3.341C427.414,67.311,427.4,67.606,427.363,68.081Zm-2.109-1.512q0-2.362-1.751-2.364a1.489,1.489,0,0,0-1.25.587,3.511,3.511,0,0,0-.535,1.879h3.536Z"/><path class="cls-2" d="M436.041,63.381a2.85,2.85,0,0,1,.671,2.014v6.512h-2.175V65.736a1.719,1.719,0,0,0-.282-1.122,1.03,1.03,0,0,0-.824-.324,1.617,1.617,0,0,0-1.012.349,4,4,0,0,0-.875,1.012v6.256h-2.175V62.913h1.886l.17,1.174a3.344,3.344,0,0,1,2.738-1.428A2.442,2.442,0,0,1,436.041,63.381Z"/><path class="cls-2" d="M441.626,57.967l.883,1.7L438.667,61.2l-.612-1.105Zm-.2,4.946v8.994h-2.176V62.913Z"/><path class="cls-3" d="M545.047,71.907H542.14l-4.029-9.5q.153,1.258.23,2.278t.076,2.431v4.794h-2.04V60.16h2.839l4.1,9.52q-.1-.681-.2-1.794t-.1-2.218V60.16h2.04Z"/><path class="cls-3" d="M555.06,68.081h-5.644a2.849,2.849,0,0,0,.68,1.871,2.1,2.1,0,0,0,1.53.561,3.19,3.19,0,0,0,1.122-.2,5.234,5.234,0,0,0,1.122-.6l.9,1.24a5.172,5.172,0,0,1-3.333,1.208,4.007,4.007,0,0,1-3.169-1.258,5,5,0,0,1-1.114-3.434A6.144,6.144,0,0,1,547.631,65a3.922,3.922,0,0,1,1.377-1.717,4.1,4.1,0,0,1,5.066.578A4.944,4.944,0,0,1,555.11,67.2C555.11,67.311,555.094,67.606,555.06,68.081Zm-2.108-1.512q0-2.362-1.751-2.364a1.489,1.489,0,0,0-1.25.587,3.5,3.5,0,0,0-.535,1.879h3.536Z"/><path class="cls-3" d="M559.225,71.108a5.267,5.267,0,0,1-.382,2.167,3.369,3.369,0,0,1-1.08,1.352,8.708,8.708,0,0,1-1.82.969l-.7-1.581a5.287,5.287,0,0,0,1.037-.6,1.853,1.853,0,0,0,.57-.808,3.909,3.909,0,0,0,.195-1.359V62.913h2.176Zm-.111-12.368a1.281,1.281,0,0,1,.383.943,1.255,1.255,0,0,1-.383.936,1.362,1.362,0,0,1-.994.374,1.338,1.338,0,0,1-.977-.374,1.255,1.255,0,0,1-.383-.936,1.281,1.281,0,0,1,.383-.943,1.32,1.32,0,0,1,.977-.382A1.344,1.344,0,0,1,559.114,58.74Z"/><path class="cls-3" d="M563.908,58.74a1.277,1.277,0,0,1,.383.943,1.251,1.251,0,0,1-.383.936,1.362,1.362,0,0,1-.994.374,1.34,1.34,0,0,1-.977-.374,1.255,1.255,0,0,1-.383-.936,1.281,1.281,0,0,1,.383-.943,1.322,1.322,0,0,1,.977-.382A1.344,1.344,0,0,1,563.908,58.74Zm.112,4.173v8.994h-2.177V62.913Z"/><path class="cls-3" d="M572.672,63.73l-.85,1.275a4.216,4.216,0,0,0-2.26-.731,1.747,1.747,0,0,0-1,.246.759.759,0,0,0-.358.655.815.815,0,0,0,.154.509,1.379,1.379,0,0,0,.551.383,9.2,9.2,0,0,0,1.182.4,5.177,5.177,0,0,1,2.168,1.037,2.32,2.32,0,0,1,.705,1.8,2.414,2.414,0,0,1-1.088,2.1,4.625,4.625,0,0,1-2.7.757,5.737,5.737,0,0,1-2.015-.34,4.89,4.89,0,0,1-1.572-.935l1.088-1.225a4.013,4.013,0,0,0,2.448.885,2.068,2.068,0,0,0,1.164-.289.911.911,0,0,0,.434-.8,1.065,1.065,0,0,0-.161-.62,1.335,1.335,0,0,0-.578-.408,12.1,12.1,0,0,0-1.3-.434,4.339,4.339,0,0,1-2.023-1.045,2.322,2.322,0,0,1-.646-1.674,2.227,2.227,0,0,1,.433-1.344A2.887,2.887,0,0,1,567.666,63a4.552,4.552,0,0,1,1.811-.339A5.059,5.059,0,0,1,572.672,63.73Z"/><path class="cls-3" d="M579.88,71.482a3.509,3.509,0,0,1-1.063.51,4.287,4.287,0,0,1-1.2.17,2.669,2.669,0,0,1-2.014-.757,3.1,3.1,0,0,1-.689-2.184V64.477h-1.411V62.913h1.411V60.925l2.176-.255v2.243h2.091l-.221,1.564h-1.87V69.17a1.541,1.541,0,0,0,.229.951.868.868,0,0,0,.723.29,2.225,2.225,0,0,0,1.071-.323Z"/><path class="cls-3" d="M583.484,57.967l.884,1.7L580.526,61.2l-.612-1.105Zm-.2,4.946v8.994H581.1V62.913Z"/><path class="cls-4" d="M757.725,60.262a5.467,5.467,0,0,1,1.717,1.088l-1.105,1.274a4.364,4.364,0,0,0-1.266-.764,3.877,3.877,0,0,0-1.368-.239,2.194,2.194,0,0,0-1.319.366,1.2,1.2,0,0,0-.5,1.029,1.269,1.269,0,0,0,.2.73,1.794,1.794,0,0,0,.705.544,10.119,10.119,0,0,0,1.513.561,6.873,6.873,0,0,1,2.61,1.352,3.048,3.048,0,0,1,.875,2.355,3.33,3.33,0,0,1-.535,1.87,3.559,3.559,0,0,1-1.538,1.275,5.681,5.681,0,0,1-2.38.459,6.324,6.324,0,0,1-2.407-.434,5.625,5.625,0,0,1-1.827-1.181l1.156-1.292a5.213,5.213,0,0,0,1.412.875,4.225,4.225,0,0,0,1.614.3,2.492,2.492,0,0,0,1.564-.459,1.538,1.538,0,0,0,.6-1.292,1.584,1.584,0,0,0-.2-.842,1.769,1.769,0,0,0-.7-.595,8.474,8.474,0,0,0-1.428-.553,6.681,6.681,0,0,1-2.7-1.393,3.133,3.133,0,0,1-.322-3.842,3.352,3.352,0,0,1,1.419-1.14,4.991,4.991,0,0,1,2.065-.407A5.945,5.945,0,0,1,757.725,60.262Z"/><path class="cls-4" d="M763.811,59.072V71.907h-2.177v-12.6Zm5.389,3.841-2.992,3.961,3.281,5.033h-2.5L763.9,66.994l3.009-4.081Z"/><path class="cls-4" d="M777.853,68.081h-5.644a2.854,2.854,0,0,0,.68,1.871,2.105,2.105,0,0,0,1.53.561,3.192,3.192,0,0,0,1.123-.2,5.281,5.281,0,0,0,1.122-.6l.9,1.24a5.168,5.168,0,0,1-3.332,1.208,4.009,4.009,0,0,1-3.17-1.258,5,5,0,0,1-1.113-3.434A6.161,6.161,0,0,1,770.424,65a3.936,3.936,0,0,1,1.377-1.717,4.1,4.1,0,0,1,5.067.578A4.949,4.949,0,0,1,777.9,67.2C777.9,67.311,777.887,67.606,777.853,68.081Zm-2.107-1.512q0-2.362-1.751-2.364a1.486,1.486,0,0,0-1.25.587,3.5,3.5,0,0,0-.536,1.879h3.537Z"/><path class="cls-4" d="M787.034,63.9a6.315,6.315,0,0,1,.815,3.485,6.848,6.848,0,0,1-.416,2.473,3.769,3.769,0,0,1-1.224,1.692,3.084,3.084,0,0,1-1.913.612,2.8,2.8,0,0,1-2.26-.986v4.2l-2.177.239v-12.7h1.9l.119,1.105A3.541,3.541,0,0,1,783.089,63a3.158,3.158,0,0,1,1.428-.339A2.8,2.8,0,0,1,787.034,63.9Zm-1.462,3.5a4.972,4.972,0,0,0-.426-2.38,1.383,1.383,0,0,0-1.274-.732,1.752,1.752,0,0,0-1.021.332,2.889,2.889,0,0,0-.815.893V69.56a1.907,1.907,0,0,0,1.648.936Q785.571,70.5,785.572,67.4Z"/><path class="cls-4" d="M795.142,71.482a3.514,3.514,0,0,1-1.062.51,4.294,4.294,0,0,1-1.2.17,2.672,2.672,0,0,1-2.014-.757,3.1,3.1,0,0,1-.689-2.184V64.477h-1.411V62.913h1.411V60.925l2.176-.255v2.243h2.091l-.221,1.564h-1.87V69.17a1.533,1.533,0,0,0,.23.951.865.865,0,0,0,.722.29,2.225,2.225,0,0,0,1.071-.323Z"/><path class="cls-4" d="M798.431,58.74a1.277,1.277,0,0,1,.383.943,1.251,1.251,0,0,1-.383.936,1.362,1.362,0,0,1-.994.374,1.344,1.344,0,0,1-.978-.374,1.257,1.257,0,0,1-.382-.936,1.284,1.284,0,0,1,.382-.943,1.326,1.326,0,0,1,.978-.382A1.344,1.344,0,0,1,798.431,58.74Zm.111,4.173v8.994h-2.176V62.913Z"/><path class="cls-4" d="M806.371,62.913a4.25,4.25,0,0,1,1.334.8l-.969,1.309a3.492,3.492,0,0,0-.884-.493,2.741,2.741,0,0,0-.935-.153q-2.024,0-2.023,3.077a3.754,3.754,0,0,0,.527,2.252,1.772,1.772,0,0,0,1.5.688,2.426,2.426,0,0,0,.875-.152,5.555,5.555,0,0,0,.944-.494l.969,1.377a4.478,4.478,0,0,1-2.907,1.038,4.288,4.288,0,0,1-2.244-.57,3.734,3.734,0,0,1-1.462-1.623,5.643,5.643,0,0,1-.509-2.482,5.927,5.927,0,0,1,.509-2.525,3.905,3.905,0,0,1,1.462-1.7,4.073,4.073,0,0,1,2.227-.6A4.681,4.681,0,0,1,806.371,62.913Zm.62-4.606.833.952-2.363,2.125H804.1l-2.363-2.125.833-.952,2.21,1.5Z"/><path class="cls-4" d="M814.437,71.482a3.514,3.514,0,0,1-1.062.51,4.3,4.3,0,0,1-1.2.17,2.67,2.67,0,0,1-2.014-.757,3.1,3.1,0,0,1-.689-2.184V64.477h-1.411V62.913h1.411V60.925l2.176-.255v2.243h2.091l-.221,1.564h-1.87V69.17a1.541,1.541,0,0,0,.229.951.868.868,0,0,0,.723.29,2.225,2.225,0,0,0,1.071-.323Z"/><path class="cls-4" d="M818.042,57.967l.883,1.7L815.084,61.2l-.613-1.105Zm-.205,4.946v8.994h-2.176V62.913Z"/><path class="cls-5" d="M946.226,60.16V71.907h-2.245V60.16Zm6.6,0-4.062,5.321,4.386,6.426h-2.669l-4.149-6.273,4.064-5.474Z"/><path class="cls-5" d="M959.673,62.8,959.3,64.9a3.3,3.3,0,0,0-.8-.1,1.532,1.532,0,0,0-1.258.569,4.373,4.373,0,0,0-.73,1.743v4.794h-2.177V62.913h1.888l.2,1.769a3.233,3.233,0,0,1,.934-1.488,2.123,2.123,0,0,1,1.411-.518A3.233,3.233,0,0,1,959.673,62.8Z"/><path class="cls-5" d="M963.1,58.74a1.277,1.277,0,0,1,.382.943,1.25,1.25,0,0,1-.382.936,1.362,1.362,0,0,1-.994.374,1.342,1.342,0,0,1-.978-.374,1.255,1.255,0,0,1-.383-.936,1.281,1.281,0,0,1,.383-.943,1.324,1.324,0,0,1,.978-.382A1.344,1.344,0,0,1,963.1,58.74Zm.111,4.173v8.994h-2.177V62.913Z"/><path class="cls-5" d="M970.978,71.482a3.52,3.52,0,0,1-1.063.51,4.292,4.292,0,0,1-1.2.17,2.673,2.673,0,0,1-2.015-.757,3.1,3.1,0,0,1-.688-2.184V64.477H964.6V62.913h1.411V60.925l2.175-.255v2.243h2.091l-.22,1.564h-1.871V69.17a1.54,1.54,0,0,0,.23.951.867.867,0,0,0,.723.29,2.228,2.228,0,0,0,1.071-.323Z"/><path class="cls-5" d="M974.267,58.74a1.28,1.28,0,0,1,.382.943,1.254,1.254,0,0,1-.382.936,1.363,1.363,0,0,1-1,.374,1.341,1.341,0,0,1-.977-.374,1.255,1.255,0,0,1-.383-.936,1.281,1.281,0,0,1,.383-.943,1.323,1.323,0,0,1,.977-.382A1.345,1.345,0,0,1,974.267,58.74Zm.111,4.173v8.994H972.2V62.913Z"/><path class="cls-5" d="M982.206,62.913a4.239,4.239,0,0,1,1.334.8l-.969,1.309a3.47,3.47,0,0,0-.883-.493,2.745,2.745,0,0,0-.935-.153q-2.025,0-2.023,3.077a3.747,3.747,0,0,0,.527,2.252,1.77,1.77,0,0,0,1.5.688,2.433,2.433,0,0,0,.875-.152,5.551,5.551,0,0,0,.943-.494l.969,1.377a4.475,4.475,0,0,1-2.906,1.038,4.283,4.283,0,0,1-2.244-.57,3.734,3.734,0,0,1-1.462-1.623,5.643,5.643,0,0,1-.51-2.482,5.927,5.927,0,0,1,.51-2.525,3.905,3.905,0,0,1,1.462-1.7,4.07,4.07,0,0,1,2.226-.6A4.681,4.681,0,0,1,982.206,62.913Zm.62-4.606.833.952L981.3,61.384h-1.36l-2.364-2.125.833-.952,2.21,1.5Z"/><path class="cls-5" d="M990.272,71.482a3.5,3.5,0,0,1-1.062.51,4.292,4.292,0,0,1-1.2.17A2.673,2.673,0,0,1,986,71.405a3.1,3.1,0,0,1-.688-2.184V64.477H983.9V62.913h1.412V60.925l2.175-.255v2.243h2.091l-.22,1.564h-1.871V69.17a1.54,1.54,0,0,0,.23.951.866.866,0,0,0,.723.29,2.228,2.228,0,0,0,1.071-.323Z"/><path class="cls-5" d="M993.877,57.967l.884,1.7L990.919,61.2l-.612-1.105Zm-.2,4.946v8.994H991.5V62.913Z"/><rect class="cls-1" x="71.237" y="176.058" width="401.994" height="60"/><rect class="cls-6" x="473.231" y="176.058" width="245.118" height="60"/><rect class="cls-7" x="718.349" y="176.058" width="156.544" height="60"/><rect class="cls-8" x="876.099" y="176.058" width="127.192" height="60"/><rect class="cls-5" x="1002.086" y="176.058" width="58.704" height="60"/><polygon class="cls-9" points="473.231 176.058 71.237 176.058 71.237 236.058 473.231 236.058 718.349 236.058 718.349 176.058 473.231 176.058"/><polygon class="cls-9" points="990.375 176.058 874.894 176.058 874.894 236.058 990.375 236.058 1060.79 236.058 1060.79 176.058 990.375 176.058"/><path d="M19.634,198.2v1.836l-5.742,8.658h5.8l-.252,1.944H11.12v-1.818l5.85-8.73H11.713V198.2Zm-1.656-4.266.881,1.008-2.5,2.16h-1.44l-2.5-2.16.881-1.008,2.341,1.494Z"/><path d="M29.084,206.583H23.107a3.023,3.023,0,0,0,.721,1.98,2.223,2.223,0,0,0,1.619.594,3.388,3.388,0,0,0,1.188-.207,5.545,5.545,0,0,0,1.188-.639l.954,1.314A5.48,5.48,0,0,1,25.25,210.9a4.244,4.244,0,0,1-3.357-1.332,5.285,5.285,0,0,1-1.18-3.636,6.515,6.515,0,0,1,.5-2.619,4.156,4.156,0,0,1,1.458-1.818,3.9,3.9,0,0,1,2.268-.657,3.877,3.877,0,0,1,3.1,1.269,5.238,5.238,0,0,1,1.1,3.537Q29.138,205.827,29.084,206.583Zm-2.232-1.6q0-2.5-1.854-2.5a1.575,1.575,0,0,0-1.324.621,3.7,3.7,0,0,0-.567,1.989h3.745Z"/><path d="M38.272,201.606a3.017,3.017,0,0,1,.711,2.133v6.894h-2.3V204.1a1.828,1.828,0,0,0-.3-1.188,1.094,1.094,0,0,0-.873-.342,1.706,1.706,0,0,0-1.071.369,4.21,4.21,0,0,0-.927,1.071v6.624h-2.3v-9.522h2l.18,1.242a3.539,3.539,0,0,1,2.9-1.512A2.581,2.581,0,0,1,38.272,201.606Z"/><path d="M46.166,210.669a5.852,5.852,0,0,1-1.747,2.745,5.55,5.55,0,0,1-3.2,1.143l-.234-1.674a5.761,5.761,0,0,0,1.5-.405,2.433,2.433,0,0,0,.91-.693,4.667,4.667,0,0,0,.629-1.152h-.792l-3.023-9.522h2.447l2.071,7.992,2.159-7.992h2.376Z"/><g class="cls-10"><path class="cls-11" d="M94.5,207.027v1.223H93.211v2.806H91.75V208.25H87.3v-1.1l3.043-7.667,1.292.494-2.77,7.055h2.906l.153-3.094h1.292v3.094Z"/><path class="cls-11" d="M99.026,199.683v11.373H97.512v-9.775l-2.362,1.6-.7-1.02,3.229-2.176Z"/><path class="cls-11" d="M109.642,200.261a3.542,3.542,0,0,1,0,4.2,2.463,2.463,0,0,1-3.57,0,3.009,3.009,0,0,1-.689-2.09,3.057,3.057,0,0,1,.681-2.108,2.269,2.269,0,0,1,1.784-.765A2.3,2.3,0,0,1,109.642,200.261Zm-3.052,2.108q0,1.853,1.258,1.853a1.033,1.033,0,0,0,.97-.494,2.74,2.74,0,0,0,.289-1.377q0-1.851-1.259-1.853T106.59,202.369Zm7.5-3.367,1,.6-7.105,11.951-1-.595Zm1.862,7.31a3.014,3.014,0,0,1,.688,2.092,3.065,3.065,0,0,1-.679,2.108,2.28,2.28,0,0,1-1.786.765,2.327,2.327,0,0,1-1.8-.765,3.508,3.508,0,0,1,0-4.2,2.326,2.326,0,0,1,1.8-.764A2.283,2.283,0,0,1,115.949,206.312Zm-3.051,2.109q0,1.853,1.274,1.852a1.014,1.014,0,0,0,.961-.492,2.807,2.807,0,0,0,.281-1.377q0-1.854-1.242-1.853Q112.9,206.551,112.9,208.421Z"/></g><g class="cls-10"><path class="cls-1" d="M494.5,199.894a2.735,2.735,0,0,1,1.081,1.089,3.207,3.207,0,0,1,.374,1.555,4.909,4.909,0,0,1-.4,1.963,9.759,9.759,0,0,1-1.284,2.066q-.883,1.14-2.72,3.23h4.658l-.187,1.258H489.87v-1.19q1.971-2.277,2.881-3.451a9.647,9.647,0,0,0,1.266-2.014,4.506,4.506,0,0,0,.358-1.777,1.99,1.99,0,0,0-.452-1.394,1.561,1.561,0,0,0-1.214-.493,2.121,2.121,0,0,0-1.123.289,4.032,4.032,0,0,0-.986.918l-.952-.731a3.772,3.772,0,0,1,3.18-1.717A3.34,3.34,0,0,1,494.5,199.894Z"/><path class="cls-1" d="M503.4,200.872h-3.978v3.4a3.214,3.214,0,0,1,1.666-.476,2.622,2.622,0,0,1,2.109.952,3.981,3.981,0,0,1,.8,2.635,4.386,4.386,0,0,1-.452,2.023,3.327,3.327,0,0,1-1.266,1.377,3.607,3.607,0,0,1-1.9.493,3.74,3.74,0,0,1-1.709-.374,4.879,4.879,0,0,1-1.4-1.1l.9-.816a3.757,3.757,0,0,0,1,.79,2.5,2.5,0,0,0,1.173.264,1.841,1.841,0,0,0,1.531-.688,3.14,3.14,0,0,0,.544-1.981q0-2.43-1.836-2.431a2.392,2.392,0,0,0-.748.111,4.377,4.377,0,0,0-.766.348h-1.1v-5.712h5.644Z"/><path class="cls-1" d="M513.66,200.26a3.543,3.543,0,0,1,0,4.2,2.465,2.465,0,0,1-3.57,0,3.011,3.011,0,0,1-.688-2.091,3.059,3.059,0,0,1,.68-2.108,2.272,2.272,0,0,1,1.785-.765A2.3,2.3,0,0,1,513.66,200.26Zm-3.051,2.108q0,1.853,1.258,1.853a1.03,1.03,0,0,0,.968-.493,2.734,2.734,0,0,0,.29-1.377q0-1.852-1.258-1.853T510.609,202.368Zm7.5-3.366,1,.595L512,211.548l-1-.595Zm1.861,7.31a3.011,3.011,0,0,1,.689,2.091,3.062,3.062,0,0,1-.68,2.108,2.276,2.276,0,0,1-1.785.765,2.328,2.328,0,0,1-1.8-.765,3.515,3.515,0,0,1,0-4.2,2.328,2.328,0,0,1,1.8-.765A2.28,2.28,0,0,1,519.967,206.312Zm-3.051,2.108q0,1.854,1.275,1.853a1.012,1.012,0,0,0,.96-.493,2.8,2.8,0,0,0,.281-1.377q0-1.852-1.241-1.853Q516.915,206.55,516.916,208.42Z"/></g><g class="cls-10"><path class="cls-12" d="M736.447,199.682v11.373h-1.513V201.28l-2.363,1.6-.7-1.02,3.23-2.176Z"/><path class="cls-12" d="M744.462,203.983a2.772,2.772,0,0,1,1.011,1.224,4.745,4.745,0,0,1,.374,1.989,5.288,5.288,0,0,1-.416,2.185,3.181,3.181,0,0,1-1.164,1.41,3.082,3.082,0,0,1-1.718.485,2.894,2.894,0,0,1-2.676-1.436,7.811,7.811,0,0,1-.86-4,10.53,10.53,0,0,1,.486-3.383,4.79,4.79,0,0,1,1.393-2.193,3.212,3.212,0,0,1,2.134-.765,3.386,3.386,0,0,1,2.107.7l-.594.969a2.634,2.634,0,0,0-1.479-.476,1.973,1.973,0,0,0-1.76,1.156,7.153,7.153,0,0,0-.739,3.2,2.887,2.887,0,0,1,2.481-1.462A2.576,2.576,0,0,1,744.462,203.983Zm-.6,5.364a4.1,4.1,0,0,0,.451-2.117,3.279,3.279,0,0,0-.434-1.9,1.385,1.385,0,0,0-1.181-.595,1.9,1.9,0,0,0-1.182.425,3.658,3.658,0,0,0-.96,1.173,6.807,6.807,0,0,0,.5,2.856,1.55,1.55,0,0,0,1.471.9A1.464,1.464,0,0,0,743.867,209.347Z"/><path class="cls-12" d="M755.5,200.26a3.547,3.547,0,0,1,0,4.2,2.465,2.465,0,0,1-3.57,0,3.011,3.011,0,0,1-.688-2.091,3.059,3.059,0,0,1,.68-2.108,2.272,2.272,0,0,1,1.785-.765A2.3,2.3,0,0,1,755.5,200.26Zm-3.051,2.108q0,1.853,1.258,1.853a1.031,1.031,0,0,0,.968-.493,2.734,2.734,0,0,0,.289-1.377q0-1.852-1.257-1.853T752.444,202.368Zm7.5-3.366,1,.595-7.107,11.951-1-.595Zm1.862,7.31a3.011,3.011,0,0,1,.689,2.091,3.062,3.062,0,0,1-.681,2.108,2.273,2.273,0,0,1-1.785.765,2.327,2.327,0,0,1-1.8-.765,3.515,3.515,0,0,1,0-4.2,2.327,2.327,0,0,1,1.8-.765A2.281,2.281,0,0,1,761.8,206.312Zm-3.051,2.108q0,1.854,1.274,1.853a1.013,1.013,0,0,0,.961-.493,2.8,2.8,0,0,0,.28-1.377q0-1.852-1.241-1.853Q758.75,206.55,758.751,208.42Z"/></g><g class="cls-10"><path class="cls-5" d="M899.644,199.682v11.373h-1.513V201.28l-2.363,1.6-.7-1.02,3.23-2.176Z"/><path class="cls-5" d="M906.393,199.877a2.708,2.708,0,0,1,1.071,1.037,2.852,2.852,0,0,1,.373,1.437,2.654,2.654,0,0,1-.56,1.76,2.831,2.831,0,0,1-1.6.909,2.733,2.733,0,0,1,1.8.816,2.769,2.769,0,0,1,.68,1.989,3.549,3.549,0,0,1-.434,1.751,3.181,3.181,0,0,1-1.24,1.241,3.74,3.74,0,0,1-1.879.459,3.922,3.922,0,0,1-1.76-.383,4.364,4.364,0,0,1-1.419-1.164l.918-.782a3.747,3.747,0,0,0,1.045.841,2.532,2.532,0,0,0,1.165.264,1.918,1.918,0,0,0,1.487-.6,2.361,2.361,0,0,0,.553-1.658,2.1,2.1,0,0,0-.553-1.624,2.286,2.286,0,0,0-1.589-.5h-.714l.187-1.139h.476a1.951,1.951,0,0,0,1.4-.527,1.994,1.994,0,0,0,.553-1.513,1.809,1.809,0,0,0-.468-1.326,1.716,1.716,0,0,0-1.283-.476,2.534,2.534,0,0,0-1.1.238,3.725,3.725,0,0,0-1.011.748l-.8-.816a4.155,4.155,0,0,1,3.06-1.36A3.341,3.341,0,0,1,906.393,199.877Z"/><path class="cls-5" d="M917.927,200.26a3.543,3.543,0,0,1,0,4.2,2.464,2.464,0,0,1-3.569,0,3.011,3.011,0,0,1-.689-2.091,3.064,3.064,0,0,1,.68-2.108,2.273,2.273,0,0,1,1.785-.765A2.3,2.3,0,0,1,917.927,200.26Zm-3.051,2.108q0,1.853,1.258,1.853a1.033,1.033,0,0,0,.969-.493,2.745,2.745,0,0,0,.289-1.377q0-1.852-1.258-1.853T914.876,202.368Zm7.5-3.366,1,.595-7.106,11.951-1-.595Zm1.862,7.31a3.011,3.011,0,0,1,.688,2.091,3.062,3.062,0,0,1-.68,2.108,2.273,2.273,0,0,1-1.785.765,2.326,2.326,0,0,1-1.8-.765,3.511,3.511,0,0,1,0-4.2,2.326,2.326,0,0,1,1.8-.765A2.282,2.282,0,0,1,924.235,206.312Zm-3.052,2.108q0,1.854,1.275,1.853a1.01,1.01,0,0,0,.96-.493,2.79,2.79,0,0,0,.281-1.377q0-1.852-1.241-1.853Q921.183,206.55,921.183,208.42Z"/></g><g class="cls-10"><path class="cls-11" d="M1025.662,203.983a2.772,2.772,0,0,1,1.011,1.224,4.745,4.745,0,0,1,.374,1.989,5.3,5.3,0,0,1-.416,2.185,3.181,3.181,0,0,1-1.164,1.41,3.082,3.082,0,0,1-1.718.485,2.9,2.9,0,0,1-2.677-1.436,7.822,7.822,0,0,1-.859-4,10.559,10.559,0,0,1,.485-3.383,4.792,4.792,0,0,1,1.394-2.193,3.211,3.211,0,0,1,2.134-.765,3.386,3.386,0,0,1,2.107.7l-.6.969a2.628,2.628,0,0,0-1.478-.476,1.972,1.972,0,0,0-1.76,1.156,7.126,7.126,0,0,0-.739,3.2,2.884,2.884,0,0,1,2.481-1.462A2.578,2.578,0,0,1,1025.662,203.983Zm-.6,5.364a4.093,4.093,0,0,0,.452-2.117,3.279,3.279,0,0,0-.434-1.9,1.387,1.387,0,0,0-1.182-.595,1.9,1.9,0,0,0-1.181.425,3.645,3.645,0,0,0-.96,1.173,6.775,6.775,0,0,0,.5,2.856,1.548,1.548,0,0,0,1.47.9A1.463,1.463,0,0,0,1025.066,209.347Z"/><path class="cls-11" d="M1036.694,200.26a3.543,3.543,0,0,1,0,4.2,2.464,2.464,0,0,1-3.569,0,3.011,3.011,0,0,1-.688-2.091,3.063,3.063,0,0,1,.679-2.108,2.273,2.273,0,0,1,1.785-.765A2.3,2.3,0,0,1,1036.694,200.26Zm-3.05,2.108q0,1.853,1.257,1.853a1.032,1.032,0,0,0,.969-.493,2.734,2.734,0,0,0,.289-1.377q0-1.852-1.258-1.853T1033.644,202.368Zm7.5-3.366,1,.595-7.107,11.951-1-.595Zm1.862,7.31a3.011,3.011,0,0,1,.688,2.091,3.062,3.062,0,0,1-.68,2.108,2.273,2.273,0,0,1-1.785.765,2.326,2.326,0,0,1-1.8-.765,3.515,3.515,0,0,1,0-4.2,2.326,2.326,0,0,1,1.8-.765A2.282,2.282,0,0,1,1043,206.312Zm-3.052,2.108q0,1.854,1.275,1.853a1.013,1.013,0,0,0,.961-.493,2.8,2.8,0,0,0,.28-1.377q0-1.852-1.241-1.853Q1039.95,206.55,1039.95,208.42Z"/></g><rect class="cls-1" x="71.237" y="91.019" width="275.767" height="60"/><rect class="cls-6" x="347.004" y="91.019" width="187.128" height="60"/><rect class="cls-7" x="534.132" y="91.019" width="216.674" height="60"/><rect class="cls-8" x="750.806" y="91.019" width="191.798" height="60"/><rect class="cls-5" x="942.604" y="91.019" width="118.186" height="60"/><polygon class="cls-9" points="943.052 91.019 749.962 91.019 749.962 151.019 943.052 151.019 1060.79 151.019 1060.79 91.019 943.052 91.019"/><polygon class="cls-9" points="358.793 91.019 71.237 91.019 71.237 151.019 358.793 151.019 534.132 151.019 534.132 91.019 358.793 91.019"/><path d="M23.954,128.2H21.631l-.323-5.2q-.162-2.789-.162-4.427v-.648l-2.269,8.927h-2.25l-2.412-8.945q.036,1.188.036,1.8,0,1.64-.107,3.367l-.307,5.13h-2.3l.989-12.438h3.061l2.213,8.712,2.089-8.712h3.1Z"/><path d="M33.782,128.2h-2l-.126-1.332a3.529,3.529,0,0,1-1.233,1.206,3.416,3.416,0,0,1-1.683.4,2.493,2.493,0,0,1-1.971-.784,3.158,3.158,0,0,1-.693-2.169v-6.839h2.3v6.551a1.846,1.846,0,0,0,.279,1.153,1.084,1.084,0,0,0,.891.342,2.325,2.325,0,0,0,1.926-1.351v-6.695h2.3Z"/><path d="M42.746,118.679v1.655L38.138,126.4h4.7l-.233,1.8h-7.11v-1.656l4.626-6.067h-4.23v-1.8Zm-1.17-4.878.882,1.007-2.5,2.25h-1.44l-2.5-2.25L36.9,113.8l2.339,1.584Z"/><path d="M46.823,114.26a1.361,1.361,0,0,1,.405,1,1.328,1.328,0,0,1-.405.989,1.438,1.438,0,0,1-1.053.4,1.416,1.416,0,0,1-1.036-.4,1.323,1.323,0,0,1-.4-.989,1.357,1.357,0,0,1,.4-1,1.4,1.4,0,0,1,1.036-.406A1.425,1.425,0,0,1,46.823,114.26Zm.116,4.419V128.2h-2.3v-9.522Z"/><g class="cls-10"><path class="cls-11" d="M91.843,117.462a2.728,2.728,0,0,1,1.079,1.088,3.207,3.207,0,0,1,.374,1.555,4.892,4.892,0,0,1-.4,1.964,9.883,9.883,0,0,1-1.283,2.066q-.885,1.139-2.721,3.23h4.658l-.186,1.257H87.21v-1.189q1.973-2.279,2.882-3.452a9.607,9.607,0,0,0,1.267-2.014,4.519,4.519,0,0,0,.356-1.777,2,2,0,0,0-.45-1.394,1.569,1.569,0,0,0-1.216-.492,2.12,2.12,0,0,0-1.122.289,4.011,4.011,0,0,0-.985.918l-.952-.731a3.769,3.769,0,0,1,3.178-1.718A3.346,3.346,0,0,1,91.843,117.462Z"/><path class="cls-11" d="M101.507,123.811a2.928,2.928,0,0,1,.544,1.8,3.191,3.191,0,0,1-.441,1.682,2.983,2.983,0,0,1-1.267,1.139,4.262,4.262,0,0,1-1.913.409,4.188,4.188,0,0,1-1.878-.4,2.894,2.894,0,0,1-1.241-1.131,3.2,3.2,0,0,1-.434-1.666,3.125,3.125,0,0,1,2.16-3.026A3.5,3.5,0,0,1,95.71,121.5a2.726,2.726,0,0,1-.408-1.513,2.858,2.858,0,0,1,.426-1.58,2.69,2.69,0,0,1,1.148-1,3.687,3.687,0,0,1,1.588-.34,3.458,3.458,0,0,1,2.27.748,2.579,2.579,0,0,1,.91,2.108,2.53,2.53,0,0,1-.442,1.5,3.91,3.91,0,0,1-1.411,1.14A4.247,4.247,0,0,1,101.507,123.811Zm-1.529,3.324a2.4,2.4,0,0,0,.093-2.924,4.5,4.5,0,0,0-1.607-.978l-.475-.187a3,3,0,0,0-1.2,1.037,2.832,2.832,0,0,0-.383,1.531,1.992,1.992,0,0,0,.544,1.529,2.484,2.484,0,0,0,3.026-.008Zm-2.737-8.5A1.838,1.838,0,0,0,96.782,120a1.744,1.744,0,0,0,.383,1.2,3.5,3.5,0,0,0,1.3.808l.392.17a3.227,3.227,0,0,0,1.011-.978,2.347,2.347,0,0,0,.3-1.216,1.855,1.855,0,0,0-.443-1.351,1.659,1.659,0,0,0-1.24-.451A1.694,1.694,0,0,0,97.241,118.635Z"/><path class="cls-11" d="M111.7,117.828a3.546,3.546,0,0,1,0,4.2,2.466,2.466,0,0,1-3.571,0,3.011,3.011,0,0,1-.688-2.091,3.055,3.055,0,0,1,.681-2.107,2.268,2.268,0,0,1,1.784-.766A2.3,2.3,0,0,1,111.7,117.828Zm-3.052,2.107q0,1.854,1.258,1.853a1.035,1.035,0,0,0,.97-.493,2.74,2.74,0,0,0,.289-1.377q0-1.852-1.259-1.853T108.647,119.935Zm7.5-3.366,1,.595-7.105,11.952-1-.6Zm1.861,7.31a3.014,3.014,0,0,1,.689,2.092,3.065,3.065,0,0,1-.68,2.108,2.278,2.278,0,0,1-1.785.765,2.331,2.331,0,0,1-1.8-.765,3.512,3.512,0,0,1,0-4.2,2.33,2.33,0,0,1,1.8-.764A2.281,2.281,0,0,1,118.005,123.879Zm-3.05,2.109q0,1.852,1.274,1.852a1.016,1.016,0,0,0,.961-.492,2.819,2.819,0,0,0,.28-1.377q0-1.854-1.241-1.853Q114.954,124.118,114.955,125.988Z"/></g><g class="cls-10"><path class="cls-1" d="M494.375,117.249v11.373h-1.514v-9.774l-2.362,1.6-.7-1.02,3.23-2.177Z"/><path class="cls-1" d="M502.611,118.235a5.539,5.539,0,0,1,.858,3.316,9.518,9.518,0,0,1-.612,3.7,5.279,5.279,0,0,1-1.827,2.3A11.018,11.018,0,0,1,497.808,129l-.34-1.122a7.569,7.569,0,0,0,3.154-1.725,4.658,4.658,0,0,0,1.25-2.984,3.26,3.26,0,0,1-1.012.961,2.62,2.62,0,0,1-2.763-.093,2.989,2.989,0,0,1-1.046-1.267,4.547,4.547,0,0,1-.382-1.93,4.37,4.37,0,0,1,.442-2.04,3.109,3.109,0,0,1,1.207-1.292,3.409,3.409,0,0,1,1.734-.442A2.97,2.97,0,0,1,502.611,118.235Zm-.706,3.638a6.408,6.408,0,0,0-.416-2.8,1.481,1.481,0,0,0-1.42-.842,1.628,1.628,0,0,0-1.377.655,3.243,3.243,0,0,0-.493,1.963,3.089,3.089,0,0,0,.459,1.836,1.472,1.472,0,0,0,1.259.629A2.364,2.364,0,0,0,501.905,121.873Z"/><path class="cls-1" d="M513.252,117.828a3.542,3.542,0,0,1,0,4.2,2.465,2.465,0,0,1-3.57,0,3.011,3.011,0,0,1-.688-2.091,3.054,3.054,0,0,1,.68-2.107,2.27,2.27,0,0,1,1.785-.766A2.3,2.3,0,0,1,513.252,117.828Zm-3.051,2.107q0,1.854,1.258,1.853a1.033,1.033,0,0,0,.969-.493,2.729,2.729,0,0,0,.289-1.377q0-1.852-1.258-1.853T510.2,119.935Zm7.5-3.366,1,.595L511.6,129.116l-1-.6Zm1.861,7.31a3.014,3.014,0,0,1,.689,2.092,3.065,3.065,0,0,1-.68,2.108,2.278,2.278,0,0,1-1.785.765,2.329,2.329,0,0,1-1.8-.765,3.512,3.512,0,0,1,0-4.2,2.329,2.329,0,0,1,1.8-.764A2.282,2.282,0,0,1,519.559,123.879Zm-3.051,2.109q0,1.852,1.275,1.852a1.016,1.016,0,0,0,.961-.492,2.819,2.819,0,0,0,.28-1.377q0-1.854-1.241-1.853Q516.508,124.118,516.508,125.988Z"/></g><g class="cls-10"><path class="cls-12" d="M712.647,117.462a2.728,2.728,0,0,1,1.079,1.088,3.207,3.207,0,0,1,.374,1.555,4.926,4.926,0,0,1-.4,1.964,9.893,9.893,0,0,1-1.284,2.066q-.884,1.139-2.72,3.23h4.658l-.187,1.257h-6.154v-1.189q1.972-2.279,2.881-3.452a9.607,9.607,0,0,0,1.267-2.014,4.5,4.5,0,0,0,.357-1.777,2,2,0,0,0-.45-1.394,1.569,1.569,0,0,0-1.216-.492,2.115,2.115,0,0,0-1.122.289,4.013,4.013,0,0,0-.986.918l-.952-.731a3.772,3.772,0,0,1,3.179-1.718A3.351,3.351,0,0,1,712.647,117.462Z"/><path class="cls-12" d="M720.144,117.462a2.728,2.728,0,0,1,1.079,1.088,3.207,3.207,0,0,1,.374,1.555,4.926,4.926,0,0,1-.4,1.964,9.926,9.926,0,0,1-1.283,2.066q-.885,1.139-2.721,3.23h4.658l-.186,1.257h-6.155v-1.189q1.973-2.279,2.881-3.452a9.565,9.565,0,0,0,1.267-2.014,4.5,4.5,0,0,0,.357-1.777,2,2,0,0,0-.45-1.394,1.569,1.569,0,0,0-1.216-.492,2.115,2.115,0,0,0-1.122.289,4.03,4.03,0,0,0-.986.918l-.951-.731a3.769,3.769,0,0,1,3.178-1.718A3.351,3.351,0,0,1,720.144,117.462Z"/><path class="cls-12" d="M731.5,117.828a3.546,3.546,0,0,1,0,4.2,2.465,2.465,0,0,1-3.57,0,3.011,3.011,0,0,1-.688-2.091,3.059,3.059,0,0,1,.679-2.107,2.273,2.273,0,0,1,1.786-.766A2.3,2.3,0,0,1,731.5,117.828Zm-3.051,2.107q0,1.854,1.258,1.853a1.031,1.031,0,0,0,.968-.493,2.729,2.729,0,0,0,.289-1.377q0-1.852-1.257-1.853T728.448,119.935Zm7.5-3.366,1,.595-7.107,11.952-1-.6Zm1.862,7.31a3.014,3.014,0,0,1,.689,2.092,3.066,3.066,0,0,1-.681,2.108,2.276,2.276,0,0,1-1.785.765,2.329,2.329,0,0,1-1.8-.765,3.516,3.516,0,0,1,0-4.2,2.329,2.329,0,0,1,1.8-.764A2.285,2.285,0,0,1,737.806,123.879Zm-3.052,2.109q0,1.852,1.275,1.852a1.014,1.014,0,0,0,.961-.492,2.808,2.808,0,0,0,.28-1.377q0-1.854-1.241-1.853Q734.754,124.118,734.754,125.988Z"/></g><g class="cls-10"><path class="cls-5" d="M899.644,117.249v11.373h-1.513v-9.774l-2.363,1.6-.7-1.02,3.23-2.177Z"/><path class="cls-5" d="M907.88,118.235a5.532,5.532,0,0,1,.859,3.316,9.5,9.5,0,0,1-.613,3.7,5.258,5.258,0,0,1-1.827,2.3A11,11,0,0,1,903.078,129l-.34-1.122a7.564,7.564,0,0,0,3.153-1.725,4.643,4.643,0,0,0,1.25-2.984,3.239,3.239,0,0,1-1.012.961,2.619,2.619,0,0,1-2.762-.093,2.987,2.987,0,0,1-1.045-1.267,4.531,4.531,0,0,1-.383-1.93,4.37,4.37,0,0,1,.442-2.04,3.107,3.107,0,0,1,1.206-1.292,3.415,3.415,0,0,1,1.735-.442A2.968,2.968,0,0,1,907.88,118.235Zm-.705,3.638a6.42,6.42,0,0,0-.417-2.8,1.479,1.479,0,0,0-1.419-.842,1.631,1.631,0,0,0-1.378.655,3.251,3.251,0,0,0-.492,1.963,3.089,3.089,0,0,0,.459,1.836,1.471,1.471,0,0,0,1.258.629A2.364,2.364,0,0,0,907.175,121.873Z"/><path class="cls-5" d="M918.522,117.828a3.546,3.546,0,0,1,0,4.2,2.464,2.464,0,0,1-3.569,0,3.011,3.011,0,0,1-.689-2.091,3.059,3.059,0,0,1,.68-2.107,2.27,2.27,0,0,1,1.785-.766A2.3,2.3,0,0,1,918.522,117.828Zm-3.051,2.107q0,1.854,1.258,1.853a1.034,1.034,0,0,0,.969-.493,2.74,2.74,0,0,0,.289-1.377q0-1.852-1.258-1.853T915.471,119.935Zm7.5-3.366,1,.595-7.106,11.952-1-.6Zm1.863,7.31a3.014,3.014,0,0,1,.688,2.092,3.061,3.061,0,0,1-.681,2.108,2.275,2.275,0,0,1-1.785.765,2.327,2.327,0,0,1-1.8-.765,3.512,3.512,0,0,1,0-4.2,2.326,2.326,0,0,1,1.8-.764A2.285,2.285,0,0,1,924.83,123.879Zm-3.052,2.109q0,1.852,1.274,1.852a1.013,1.013,0,0,0,.961-.492,2.8,2.8,0,0,0,.28-1.377q0-1.854-1.241-1.853Q921.778,124.118,921.778,125.988Z"/></g><g class="cls-10"><path class="cls-11" d="M1018.582,117.249v11.373h-1.513v-9.774l-2.363,1.6-.7-1.02,3.23-2.177Z"/><path class="cls-11" d="M1025.34,117.462a2.728,2.728,0,0,1,1.079,1.088,3.207,3.207,0,0,1,.374,1.555,4.926,4.926,0,0,1-.4,1.964,9.893,9.893,0,0,1-1.284,2.066q-.883,1.139-2.72,3.23h4.658l-.187,1.257h-6.154v-1.189q1.971-2.279,2.881-3.452a9.607,9.607,0,0,0,1.267-2.014,4.5,4.5,0,0,0,.357-1.777,2,2,0,0,0-.45-1.394,1.569,1.569,0,0,0-1.216-.492,2.115,2.115,0,0,0-1.122.289,4,4,0,0,0-.986.918l-.952-.731a3.771,3.771,0,0,1,3.179-1.718A3.351,3.351,0,0,1,1025.34,117.462Z"/><path class="cls-11" d="M1036.7,117.828a3.542,3.542,0,0,1,0,4.2,2.464,2.464,0,0,1-3.569,0,3.011,3.011,0,0,1-.688-2.091,3.059,3.059,0,0,1,.679-2.107,2.27,2.27,0,0,1,1.785-.766A2.3,2.3,0,0,1,1036.7,117.828Zm-3.05,2.107q0,1.854,1.257,1.853a1.033,1.033,0,0,0,.969-.493,2.74,2.74,0,0,0,.289-1.377q0-1.852-1.258-1.853T1033.645,119.935Zm7.5-3.366,1,.595-7.107,11.952-1-.6Zm1.862,7.31a3.014,3.014,0,0,1,.688,2.092,3.065,3.065,0,0,1-.68,2.108,2.276,2.276,0,0,1-1.785.765,2.329,2.329,0,0,1-1.8-.765,3.516,3.516,0,0,1,0-4.2,2.329,2.329,0,0,1,1.8-.764A2.285,2.285,0,0,1,1043,123.879Zm-3.052,2.109q0,1.852,1.275,1.852a1.014,1.014,0,0,0,.961-.492,2.808,2.808,0,0,0,.28-1.377q0-1.854-1.241-1.853Q1039.951,124.118,1039.951,125.988Z"/></g><path class="cls-13" d="M684.1,267.029v1.078l-4.774,7.434H684.1l-.154,1.134h-6.1v-1.064l4.816-7.462h-4.312v-1.12Z"/><path class="cls-13" d="M691.459,266.329v10.346h-1.134l-.126-1.022a2.666,2.666,0,0,1-.91.875,2.536,2.536,0,0,1-3.269-.721,4.725,4.725,0,0,1-.735-2.786,5.42,5.42,0,0,1,.35-2.016,3.114,3.114,0,0,1,1.008-1.379,2.48,2.48,0,0,1,1.54-.5,2.649,2.649,0,0,1,1.988.909v-3.863Zm-2.1,9.219a3.139,3.139,0,0,0,.812-.819v-3.612a2.8,2.8,0,0,0-.777-.721,1.793,1.793,0,0,0-.931-.245,1.5,1.5,0,0,0-1.323.714,3.906,3.906,0,0,0-.469,2.128,4.112,4.112,0,0,0,.434,2.128,1.385,1.385,0,0,0,1.246.7A1.809,1.809,0,0,0,689.359,275.548Z"/><path class="cls-13" d="M698.053,269.213l-.238,1.26a2.657,2.657,0,0,0-.644-.084,1.37,1.37,0,0,0-1.106.5,3.733,3.733,0,0,0-.658,1.568v4.214h-1.288V269.3h1.106l.126,1.5a2.8,2.8,0,0,1,.8-1.246,1.781,1.781,0,0,1,1.176-.42A3,3,0,0,1,698.053,269.213Z"/><path class="cls-13" d="M704.29,270.165a4.273,4.273,0,0,1,.86,2.814,4.894,4.894,0,0,1-.392,2.023,3.081,3.081,0,0,1-1.133,1.358,3.164,3.164,0,0,1-1.765.483,2.989,2.989,0,0,1-2.422-1.036,4.248,4.248,0,0,1-.868-2.814,4.91,4.91,0,0,1,.392-2.023,3.08,3.08,0,0,1,1.135-1.358,3.185,3.185,0,0,1,1.778-.483A2.967,2.967,0,0,1,704.29,270.165Zm-4.333,2.828q0,2.814,1.9,2.814t1.9-2.828q0-2.814-1.89-2.814Q699.957,270.165,699.957,272.993Z"/><path class="cls-13" d="M708.539,276.227a4.4,4.4,0,0,1-.252,1.638,2.427,2.427,0,0,1-.735,1,6.559,6.559,0,0,1-1.351.777l-.378-.939a3.836,3.836,0,0,0,.84-.5,1.476,1.476,0,0,0,.441-.686,3.966,3.966,0,0,0,.147-1.211V269.3h1.288Zm.014-10.22a.855.855,0,0,1,.252.63.831.831,0,0,1-.252.623.9.9,0,0,1-.658.245.886.886,0,0,1-.644-.245.831.831,0,0,1-.252-.623.855.855,0,0,1,.252-.63.871.871,0,0,1,.644-.252A.889.889,0,0,1,708.553,266.007Z"/><path class="cls-13" d="M720.621,266.329v10.346h-1.134l-.126-1.022a2.675,2.675,0,0,1-.91.875,2.4,2.4,0,0,1-1.219.315,2.372,2.372,0,0,1-2.05-1.036,4.718,4.718,0,0,1-.735-2.786,5.44,5.44,0,0,1,.349-2.016,3.123,3.123,0,0,1,1.009-1.379,2.478,2.478,0,0,1,1.54-.5,2.65,2.65,0,0,1,1.988.909v-3.863Zm-2.1,9.219a3.155,3.155,0,0,0,.812-.819v-3.612a2.8,2.8,0,0,0-.777-.721,1.8,1.8,0,0,0-.931-.245,1.493,1.493,0,0,0-1.323.714,3.906,3.906,0,0,0-.469,2.128,4.112,4.112,0,0,0,.434,2.128,1.384,1.384,0,0,0,1.246.7A1.809,1.809,0,0,0,718.521,275.548Z"/><path class="cls-13" d="M728.405,275.618a.933.933,0,0,0,.462.329l-.294.9a1.97,1.97,0,0,1-.924-.322,1.468,1.468,0,0,1-.518-.784,2.477,2.477,0,0,1-2.2,1.106,2.36,2.36,0,0,1-1.723-.616,2.153,2.153,0,0,1-.629-1.61,2.114,2.114,0,0,1,.847-1.806,3.96,3.96,0,0,1,2.4-.63h1.134v-.546a1.433,1.433,0,0,0-.379-1.12,1.707,1.707,0,0,0-1.161-.336,6.506,6.506,0,0,0-1.988.392l-.322-.938a7.418,7.418,0,0,1,2.548-.5,2.659,2.659,0,0,1,1.945.637,2.435,2.435,0,0,1,.645,1.813v3.374A1.156,1.156,0,0,0,728.405,275.618Zm-1.442-.889v-1.694H726q-2.044,0-2.044,1.512a1.382,1.382,0,0,0,.322.994,1.258,1.258,0,0,0,.952.336A1.923,1.923,0,0,0,726.963,274.729Z"/><path class="cls-13" d="M734.621,276.339a2.838,2.838,0,0,1-1.653.5,1.95,1.95,0,0,1-1.463-.539,2.148,2.148,0,0,1-.525-1.561v-4.452h-1.288V269.3h1.288v-1.666l1.289-.154v1.82h1.75l-.141.994h-1.609v4.4a1.36,1.36,0,0,0,.2.833.811.811,0,0,0,.679.259,2.11,2.11,0,0,0,.98-.294Z"/><path class="cls-13" d="M737.042,270.025a.932.932,0,0,1,.28.686.955.955,0,0,1-.28.693.94.94,0,0,1-.7.287.923.923,0,0,1-.686-.287.955.955,0,0,1-.28-.693.956.956,0,0,1,.966-.966A.949.949,0,0,1,737.042,270.025Zm0,5.152a.932.932,0,0,1,.28.686.954.954,0,0,1-.28.693.94.94,0,0,1-.7.287.923.923,0,0,1-.686-.287.954.954,0,0,1-.28-.693.956.956,0,0,1,.966-.966A.953.953,0,0,1,737.042,275.177Z"/><path class="cls-13" d="M749.446,267.029l-3.08,9.646h-1.428l-3.108-9.646h1.428l2.422,8.2,2.422-8.2Z"/><path class="cls-13" d="M753.675,276.717a5.009,5.009,0,0,1-1.211,2.037,3.665,3.665,0,0,1-2.22.9l-.14-1.008a3.783,3.783,0,0,0,1.162-.364,2.014,2.014,0,0,0,.693-.609,4.251,4.251,0,0,0,.483-1h-.434L749.53,269.3H750.9l1.974,6.44,1.932-6.44h1.33Zm.265-11.256.575,1.077-2.969,1.2-.392-.686Z"/><path class="cls-13" d="M761.935,269.3v.98l-3.851,5.32h3.893l-.155,1.078h-5.194v-.966l3.836-5.32H756.95V269.3Z"/><path class="cls-13" d="M765.015,266.175v10.5h-1.288V266.329Zm4.242,3.122-2.717,3.262,3.024,4.116h-1.54l-2.925-4.032,2.715-3.346Z"/><path class="cls-13" d="M776.284,276.675h-1.106l-.1-1.148a2.8,2.8,0,0,1-.966,1,2.621,2.621,0,0,1-1.33.315,1.965,1.965,0,0,1-1.513-.588,2.361,2.361,0,0,1-.545-1.666V269.3h1.288v5.152a1.675,1.675,0,0,0,.266,1.071,1.075,1.075,0,0,0,.867.315A2.193,2.193,0,0,0,775,274.561V269.3h1.288Z"/><path class="cls-13" d="M787.807,269.738a2.379,2.379,0,0,1,.546,1.645v5.292h-1.289v-5.11q0-1.428-1.036-1.428a1.391,1.391,0,0,0-.923.315,4.4,4.4,0,0,0-.813.987v5.236H783v-5.11q0-1.428-1.036-1.428a1.4,1.4,0,0,0-.938.322,4.441,4.441,0,0,0-.8.98v5.236h-1.288V269.3h1.106l.112,1.078a2.471,2.471,0,0,1,2.128-1.246,1.939,1.939,0,0,1,1.169.35,1.908,1.908,0,0,1,.693.98,3.485,3.485,0,0,1,.959-.987,2.22,2.22,0,0,1,1.24-.343A1.862,1.862,0,0,1,787.807,269.738Z"/><path class="cls-13" d="M799.56,267.085a4.416,4.416,0,0,1,1.211.728l-.729.854a2.917,2.917,0,0,0-1.861-.714,2.358,2.358,0,0,0-1.94.924,6.316,6.316,0,0,0-.007,5.9,2.319,2.319,0,0,0,1.932.945,2.579,2.579,0,0,0,1.078-.21,5.655,5.655,0,0,0,.981-.588l.657.84a3.6,3.6,0,0,1-1.148.77,3.952,3.952,0,0,1-1.61.308,3.7,3.7,0,0,1-3.52-2.289,6.519,6.519,0,0,1-.512-2.709,6.311,6.311,0,0,1,.532-2.709,3.928,3.928,0,0,1,1.442-1.7,3.727,3.727,0,0,1,2.031-.574A4.191,4.191,0,0,1,799.56,267.085Zm.4-3.136.546.63-1.89,1.54h-.853l-1.9-1.54.56-.63,1.765,1.134Z"/><path class="cls-13" d="M807.756,273.427h-4.7a2.868,2.868,0,0,0,.616,1.792,1.784,1.784,0,0,0,1.372.574,2.988,2.988,0,0,0,.98-.154,3.946,3.946,0,0,0,.938-.49l.56.77a4.081,4.081,0,0,1-2.577.924,2.986,2.986,0,0,1-2.4-1.008,4.134,4.134,0,0,1-.861-2.772,5.26,5.26,0,0,1,.371-2.037,3.192,3.192,0,0,1,1.064-1.393,2.7,2.7,0,0,1,1.631-.5A2.735,2.735,0,0,1,807,270.1a4.133,4.133,0,0,1,.784,2.674C807.784,272.984,807.774,273.2,807.756,273.427Zm-1.246-1.036a2.728,2.728,0,0,0-.434-1.666,1.529,1.529,0,0,0-1.3-.574q-1.581,0-1.721,2.324h3.458Z"/><path class="cls-13" d="M813.2,269.339a4.106,4.106,0,0,1,1.148.63l-.546.812a4.534,4.534,0,0,0-.959-.476,2.992,2.992,0,0,0-.959-.154,1.692,1.692,0,0,0-.994.259.876.876,0,0,0-.021,1.407,3.974,3.974,0,0,0,1.238.49,4.419,4.419,0,0,1,1.842.84,1.835,1.835,0,0,1,.609,1.456,1.891,1.891,0,0,1-.847,1.666,3.6,3.6,0,0,1-2.066.574,4.083,4.083,0,0,1-2.786-.966l.687-.784a3.339,3.339,0,0,0,2.072.714,1.972,1.972,0,0,0,1.154-.3.948.948,0,0,0,.428-.819,1.086,1.086,0,0,0-.154-.609,1.247,1.247,0,0,0-.532-.406,7.313,7.313,0,0,0-1.106-.371,3.764,3.764,0,0,1-1.7-.826,1.768,1.768,0,0,1-.525-1.316,1.731,1.731,0,0,1,.342-1.043,2.224,2.224,0,0,1,.953-.728,3.45,3.45,0,0,1,1.365-.259A4.106,4.106,0,0,1,813.2,269.339Z"/><path class="cls-13" d="M817.668,266.175v10.5H816.38V266.329Zm4.242,3.122-2.717,3.262,3.025,4.116h-1.54l-2.926-4.032,2.716-3.346Z"/><path class="cls-13" d="M828.462,275.618a.937.937,0,0,0,.462.329l-.294.9a1.97,1.97,0,0,1-.924-.322,1.474,1.474,0,0,1-.518-.784,2.477,2.477,0,0,1-2.2,1.106,2.356,2.356,0,0,1-1.722-.616,2.15,2.15,0,0,1-.63-1.61,2.116,2.116,0,0,1,.846-1.806,3.969,3.969,0,0,1,2.4-.63h1.134v-.546a1.436,1.436,0,0,0-.378-1.12,1.712,1.712,0,0,0-1.162-.336,6.5,6.5,0,0,0-1.988.392l-.322-.938a7.422,7.422,0,0,1,2.548-.5,2.663,2.663,0,0,1,1.946.637,2.439,2.439,0,0,1,.644,1.813v3.374A1.156,1.156,0,0,0,828.462,275.618Zm-1.694-10.157.574,1.077-2.968,1.2-.393-.686Zm.252,9.268v-1.694h-.966q-2.044,0-2.044,1.512a1.382,1.382,0,0,0,.322.994,1.259,1.259,0,0,0,.952.336A1.922,1.922,0,0,0,827.02,274.729Z"/><path class="cls-13" d="M838.024,269.339a4.092,4.092,0,0,1,1.148.63l-.546.812a4.51,4.51,0,0,0-.959-.476,2.992,2.992,0,0,0-.959-.154,1.692,1.692,0,0,0-.994.259.877.877,0,0,0-.021,1.407,3.972,3.972,0,0,0,1.239.49,4.42,4.42,0,0,1,1.841.84,1.832,1.832,0,0,1,.609,1.456,1.888,1.888,0,0,1-.847,1.666,3.593,3.593,0,0,1-2.065.574,4.081,4.081,0,0,1-2.786-.966l.686-.784a3.341,3.341,0,0,0,2.072.714,1.975,1.975,0,0,0,1.155-.3.949.949,0,0,0,.427-.819,1.078,1.078,0,0,0-.154-.609,1.241,1.241,0,0,0-.532-.406,7.313,7.313,0,0,0-1.106-.371,3.764,3.764,0,0,1-1.7-.826,1.771,1.771,0,0,1-.525-1.316,1.725,1.725,0,0,1,.343-1.043,2.221,2.221,0,0,1,.952-.728,3.45,3.45,0,0,1,1.365-.259A4.106,4.106,0,0,1,838.024,269.339Z"/><path class="cls-13" d="M846.661,270.137a5.18,5.18,0,0,1,.658,2.842,4.733,4.733,0,0,1-.756,2.8,2.47,2.47,0,0,1-2.142,1.064,2.38,2.38,0,0,1-1.932-.84v3.5l-1.288.154V269.3h1.106l.1.994a2.82,2.82,0,0,1,.98-.861,2.555,2.555,0,0,1,1.2-.3A2.3,2.3,0,0,1,846.661,270.137Zm-.728,2.842q0-2.827-1.665-2.828a1.661,1.661,0,0,0-1,.322,3.18,3.18,0,0,0-.784.826v3.6a1.949,1.949,0,0,0,.7.665,1.886,1.886,0,0,0,.924.231Q845.933,275.793,845.933,272.979Z"/><path class="cls-13" d="M854.7,270.165a4.268,4.268,0,0,1,.861,2.814,4.91,4.91,0,0,1-.391,2.023,3.085,3.085,0,0,1-1.135,1.358,3.158,3.158,0,0,1-1.764.483,2.986,2.986,0,0,1-2.421-1.036,4.237,4.237,0,0,1-.869-2.814,4.894,4.894,0,0,1,.393-2.023,3.071,3.071,0,0,1,1.134-1.358,3.184,3.184,0,0,1,1.777-.483A2.964,2.964,0,0,1,854.7,270.165Zm-4.333,2.828q0,2.814,1.9,2.814t1.9-2.828q0-2.814-1.891-2.814Q850.372,270.165,850.371,272.993Z"/><path class="cls-13" d="M858.036,276.416a1.651,1.651,0,0,1-.413-1.2v-8.89l1.288-.154v9.016a.748.748,0,0,0,.106.448.413.413,0,0,0,.356.14,1.279,1.279,0,0,0,.477-.084l.336.9a2.107,2.107,0,0,1-1.023.252A1.5,1.5,0,0,1,858.036,276.416Z"/><path class="cls-13" d="M867.27,273.427h-4.7a2.874,2.874,0,0,0,.617,1.792,1.782,1.782,0,0,0,1.372.574,2.986,2.986,0,0,0,.979-.154,3.933,3.933,0,0,0,.939-.49l.559.77a4.077,4.077,0,0,1-2.576.924,2.986,2.986,0,0,1-2.4-1.008,4.129,4.129,0,0,1-.862-2.772,5.26,5.26,0,0,1,.371-2.037,3.2,3.2,0,0,1,1.065-1.393,2.7,2.7,0,0,1,1.631-.5,2.738,2.738,0,0,1,2.254.966,4.133,4.133,0,0,1,.784,2.674C867.3,272.984,867.288,273.2,867.27,273.427Zm-1.247-1.036a2.729,2.729,0,0,0-.433-1.666,1.53,1.53,0,0,0-1.3-.574q-1.583,0-1.722,2.324h3.458Z"/><path class="cls-13" d="M873.247,269.318a3.375,3.375,0,0,1,1.051.609l-.616.812a3.133,3.133,0,0,0-.764-.413,2.424,2.424,0,0,0-.818-.133,1.6,1.6,0,0,0-1.394.714,3.7,3.7,0,0,0-.5,2.114,3.5,3.5,0,0,0,.49,2.065,1.633,1.633,0,0,0,1.4.665,2.322,2.322,0,0,0,.8-.133,4.022,4.022,0,0,0,.812-.427l.589.84a3.5,3.5,0,0,1-2.255.812,2.938,2.938,0,0,1-2.358-1.008,4.15,4.15,0,0,1-.862-2.786,5.018,5.018,0,0,1,.393-2.058,3.169,3.169,0,0,1,1.112-1.372,2.977,2.977,0,0,1,1.715-.49A3.655,3.655,0,0,1,873.247,269.318Zm.6-3.633.546.63-1.89,1.582h-.855l-1.9-1.582.561-.63,1.763,1.176Z"/><path class="cls-13" d="M881.1,269.731a2.312,2.312,0,0,1,.567,1.652v5.292h-1.288v-5.11a1.641,1.641,0,0,0-.294-1.106,1.119,1.119,0,0,0-.868-.322,1.678,1.678,0,0,0-1.036.336,3.485,3.485,0,0,0-.84.966v5.236h-1.288V269.3h1.105l.113,1.092a2.906,2.906,0,0,1,.973-.924,2.511,2.511,0,0,1,1.281-.336A2.058,2.058,0,0,1,881.1,269.731Z"/><path class="cls-13" d="M889.438,270.165a4.262,4.262,0,0,1,.862,2.814,4.91,4.91,0,0,1-.392,2.023,3.079,3.079,0,0,1-1.135,1.358,3.157,3.157,0,0,1-1.763.483,2.988,2.988,0,0,1-2.422-1.036,4.242,4.242,0,0,1-.868-2.814,4.91,4.91,0,0,1,.392-2.023,3.071,3.071,0,0,1,1.134-1.358,3.184,3.184,0,0,1,1.777-.483A2.963,2.963,0,0,1,889.438,270.165Zm-4.333,2.828q0,2.814,1.9,2.814t1.9-2.828q0-2.814-1.891-2.814Q885.106,270.165,885.105,272.993Z"/><path class="cls-13" d="M895.788,269.339a4.12,4.12,0,0,1,1.148.63l-.546.812a4.534,4.534,0,0,0-.959-.476,2.992,2.992,0,0,0-.959-.154,1.692,1.692,0,0,0-.994.259.876.876,0,0,0-.021,1.407,3.974,3.974,0,0,0,1.238.49,4.419,4.419,0,0,1,1.842.84,1.835,1.835,0,0,1,.609,1.456,1.891,1.891,0,0,1-.847,1.666,3.6,3.6,0,0,1-2.066.574,4.083,4.083,0,0,1-2.786-.966l.687-.784a3.339,3.339,0,0,0,2.072.714,1.974,1.974,0,0,0,1.154-.3.948.948,0,0,0,.428-.819,1.086,1.086,0,0,0-.154-.609,1.247,1.247,0,0,0-.532-.406A7.353,7.353,0,0,0,894,273.3a3.764,3.764,0,0,1-1.7-.826,1.768,1.768,0,0,1-.525-1.316,1.731,1.731,0,0,1,.342-1.043,2.227,2.227,0,0,1,.952-.728,3.458,3.458,0,0,1,1.366-.259A4.106,4.106,0,0,1,895.788,269.339Z"/><path class="cls-13" d="M902.689,276.339a2.831,2.831,0,0,1-1.651.5,1.948,1.948,0,0,1-1.463-.539,2.148,2.148,0,0,1-.525-1.561v-4.452h-1.288V269.3h1.288v-1.666l1.288-.154v1.82h1.75l-.141.994h-1.609v4.4a1.353,1.353,0,0,0,.2.833.81.81,0,0,0,.679.259,2.113,2.113,0,0,0,.98-.294Z"/><path class="cls-13" d="M911.068,267.505a2.436,2.436,0,0,1,1.337,2.226,3.681,3.681,0,0,1-.384,1.638,8.04,8.04,0,0,1-1.183,1.694q-.8.909-2.423,2.534h4.215l-.154,1.078h-5.531v-1.022q1.876-1.946,2.66-2.849a8.037,8.037,0,0,0,1.121-1.575,3.194,3.194,0,0,0,.336-1.442,1.438,1.438,0,0,0-1.541-1.554,2.056,2.056,0,0,0-1.007.238,3.648,3.648,0,0,0-.924.784l-.841-.672a3.87,3.87,0,0,1,1.274-1.064,3.466,3.466,0,0,1,1.569-.35A3.117,3.117,0,0,1,911.068,267.505Z"/><path class="cls-13" d="M919.58,268.408a8.563,8.563,0,0,1,0,7.189,2.83,2.83,0,0,1-4.69,0,8.563,8.563,0,0,1,0-7.189,2.839,2.839,0,0,1,4.69,0Zm-3.7.679a9.858,9.858,0,0,0,0,5.831,1.457,1.457,0,0,0,2.695,0,9.688,9.688,0,0,0,0-5.824,1.459,1.459,0,0,0-2.695-.007Z"/><path class="cls-13" d="M925.643,267.505a2.441,2.441,0,0,1,1.337,2.226,3.669,3.669,0,0,1-.385,1.638,8.04,8.04,0,0,1-1.183,1.694q-.8.909-2.423,2.534H927.2l-.154,1.078h-5.53v-1.022q1.876-1.946,2.66-2.849a8.069,8.069,0,0,0,1.12-1.575,3.194,3.194,0,0,0,.336-1.442,1.438,1.438,0,0,0-1.54-1.554,2.058,2.058,0,0,0-1.008.238,3.648,3.648,0,0,0-.924.784l-.841-.672a3.863,3.863,0,0,1,1.275-1.064,3.459,3.459,0,0,1,1.568-.35A3.121,3.121,0,0,1,925.643,267.505Z"/><path class="cls-13" d="M934.154,268.408a8.563,8.563,0,0,1,0,7.189,2.83,2.83,0,0,1-4.69,0,8.563,8.563,0,0,1,0-7.189,2.839,2.839,0,0,1,4.69,0Zm-3.7.679a9.879,9.879,0,0,0,0,5.831,1.457,1.457,0,0,0,2.7,0,9.667,9.667,0,0,0,0-5.824,1.459,1.459,0,0,0-2.7-.007Z"/><path class="cls-13" d="M939.873,272.839v-1.093h6.384v1.093Z"/><path class="cls-13" d="M953.033,266.175v10.5h-1.288V266.329Zm4.242,3.122-2.716,3.262,3.024,4.116h-1.54l-2.926-4.032,2.716-3.346Z"/><path class="cls-13" d="M959.256,276.416a1.647,1.647,0,0,1-.413-1.2v-8.89l1.288-.154v9.016a.756.756,0,0,0,.105.448.416.416,0,0,0,.357.14,1.27,1.27,0,0,0,.476-.084l.336.9a2.1,2.1,0,0,1-1.022.252A1.493,1.493,0,0,1,959.256,276.416Z"/><path class="cls-13" d="M964.3,266.007a.855.855,0,0,1,.252.63.831.831,0,0,1-.252.623.906.906,0,0,1-.658.245.886.886,0,0,1-.644-.245.831.831,0,0,1-.252-.623.855.855,0,0,1,.252-.63.871.871,0,0,1,.644-.252A.891.891,0,0,1,964.3,266.007Zm0,3.29v7.378h-1.288V269.3Z"/><path class="cls-13" d="M975.825,269.738a2.379,2.379,0,0,1,.546,1.645v5.292h-1.288v-5.11q0-1.428-1.036-1.428a1.4,1.4,0,0,0-.924.315,4.4,4.4,0,0,0-.812.987v5.236h-1.289v-5.11q0-1.428-1.036-1.428a1.4,1.4,0,0,0-.937.322,4.412,4.412,0,0,0-.8.98v5.236h-1.288V269.3h1.105l.113,1.078a2.469,2.469,0,0,1,2.128-1.246,1.941,1.941,0,0,1,1.169.35,1.914,1.914,0,0,1,.693.98,3.471,3.471,0,0,1,.959-.987,2.219,2.219,0,0,1,1.239-.343A1.859,1.859,0,0,1,975.825,269.738Z"/><path class="cls-13" d="M984.085,275.618a.942.942,0,0,0,.462.329l-.294.9a1.974,1.974,0,0,1-.924-.322,1.474,1.474,0,0,1-.518-.784,2.477,2.477,0,0,1-2.2,1.106,2.356,2.356,0,0,1-1.722-.616,2.15,2.15,0,0,1-.63-1.61,2.116,2.116,0,0,1,.846-1.806,3.969,3.969,0,0,1,2.4-.63h1.134v-.546a1.436,1.436,0,0,0-.378-1.12,1.712,1.712,0,0,0-1.162-.336,6.506,6.506,0,0,0-1.988.392l-.322-.938a7.422,7.422,0,0,1,2.548-.5,2.663,2.663,0,0,1,1.946.637,2.439,2.439,0,0,1,.644,1.813v3.374A1.156,1.156,0,0,0,984.085,275.618Zm-1.442-.889v-1.694h-.966q-2.045,0-2.044,1.512a1.382,1.382,0,0,0,.322.994,1.259,1.259,0,0,0,.952.336A1.921,1.921,0,0,0,982.643,274.729Z"/><path class="cls-13" d="M990.3,276.339a2.834,2.834,0,0,1-1.652.5,1.944,1.944,0,0,1-1.462-.539,2.144,2.144,0,0,1-.526-1.561v-4.452h-1.288V269.3h1.288v-1.666l1.288-.154v1.82h1.75l-.14.994h-1.61v4.4a1.359,1.359,0,0,0,.2.833.811.811,0,0,0,.679.259,2.12,2.12,0,0,0,.981-.294Z"/><path class="cls-13" d="M992.919,266.007a.855.855,0,0,1,.252.63.831.831,0,0,1-.252.623.906.906,0,0,1-.658.245.886.886,0,0,1-.644-.245.831.831,0,0,1-.252-.623.855.855,0,0,1,.252-.63.871.871,0,0,1,.644-.252A.891.891,0,0,1,992.919,266.007Zm0,3.29v7.378h-1.288V269.3Z"/><path class="cls-13" d="M999.471,269.318a3.359,3.359,0,0,1,1.05.609l-.616.812a3.11,3.11,0,0,0-.763-.413,2.426,2.426,0,0,0-.819-.133,1.6,1.6,0,0,0-1.393.714,3.7,3.7,0,0,0-.5,2.114,3.5,3.5,0,0,0,.49,2.065,1.633,1.633,0,0,0,1.4.665,2.328,2.328,0,0,0,.8-.133,4.048,4.048,0,0,0,.812-.427l.588.84a3.5,3.5,0,0,1-2.254.812,2.94,2.94,0,0,1-2.359-1.008,4.155,4.155,0,0,1-.861-2.786,5.034,5.034,0,0,1,.392-2.058,3.164,3.164,0,0,1,1.113-1.372,2.975,2.975,0,0,1,1.715-.49A3.659,3.659,0,0,1,999.471,269.318Z"/><path class="cls-13" d="M1003.559,266.175v10.5h-1.288V266.329Zm4.242,3.122-2.717,3.262,3.024,4.116h-1.54l-2.925-4.032,2.715-3.346Z"/><path class="cls-13" d="M1014.353,275.618a.934.934,0,0,0,.461.329l-.293.9a1.97,1.97,0,0,1-.924-.322,1.469,1.469,0,0,1-.519-.784,2.474,2.474,0,0,1-2.2,1.106,2.357,2.357,0,0,1-1.723-.616,2.15,2.15,0,0,1-.63-1.61,2.117,2.117,0,0,1,.847-1.806,3.964,3.964,0,0,1,2.4-.63h1.134v-.546a1.436,1.436,0,0,0-.378-1.12,1.71,1.71,0,0,0-1.162-.336,6.5,6.5,0,0,0-1.987.392l-.322-.938a7.417,7.417,0,0,1,2.547-.5,2.664,2.664,0,0,1,1.947.637,2.442,2.442,0,0,1,.643,1.813v3.374A1.155,1.155,0,0,0,1014.353,275.618Zm-1.695-10.157.574,1.077-2.967,1.2-.393-.686Zm.252,9.268v-1.694h-.966q-2.043,0-2.044,1.512a1.383,1.383,0,0,0,.323.994,1.259,1.259,0,0,0,.952.336A1.921,1.921,0,0,0,1012.91,274.729Z"/><path class="cls-13" d="M1024.881,269.3v.98l-3.851,5.32h3.893l-.154,1.078h-5.2v-.966l3.836-5.32H1019.9V269.3Z"/><path class="cls-13" d="M1035.535,269.738a2.379,2.379,0,0,1,.546,1.645v5.292h-1.288v-5.11q0-1.428-1.036-1.428a1.4,1.4,0,0,0-.924.315,4.4,4.4,0,0,0-.812.987v5.236h-1.289v-5.11q0-1.428-1.036-1.428a1.4,1.4,0,0,0-.937.322,4.412,4.412,0,0,0-.8.98v5.236h-1.288V269.3h1.105l.113,1.078a2.469,2.469,0,0,1,2.128-1.246,1.941,1.941,0,0,1,1.169.35,1.914,1.914,0,0,1,.693.98,3.471,3.471,0,0,1,.959-.987,2.217,2.217,0,0,1,1.239-.343A1.859,1.859,0,0,1,1035.535,269.738Z"/><path class="cls-13" d="M1044.214,273.427h-4.7a2.868,2.868,0,0,0,.616,1.792,1.784,1.784,0,0,0,1.372.574,2.988,2.988,0,0,0,.98-.154,3.946,3.946,0,0,0,.938-.49l.56.77a4.081,4.081,0,0,1-2.577.924,2.986,2.986,0,0,1-2.4-1.008,4.134,4.134,0,0,1-.861-2.772,5.26,5.26,0,0,1,.371-2.037,3.192,3.192,0,0,1,1.064-1.393,2.7,2.7,0,0,1,1.631-.5,2.735,2.735,0,0,1,2.254.966,4.133,4.133,0,0,1,.784,2.674C1044.242,272.984,1044.232,273.2,1044.214,273.427Zm-1.191-7.742.547.63-1.89,1.582h-.854l-1.9-1.582.559-.63,1.765,1.176Zm-.055,6.706a2.728,2.728,0,0,0-.434-1.666,1.529,1.529,0,0,0-1.3-.574q-1.581,0-1.721,2.324h3.458Z"/><path class="cls-13" d="M1051.347,269.731a2.312,2.312,0,0,1,.567,1.652v5.292h-1.288v-5.11a1.641,1.641,0,0,0-.294-1.106,1.119,1.119,0,0,0-.868-.322,1.678,1.678,0,0,0-1.036.336,3.485,3.485,0,0,0-.84.966v5.236H1046.3V269.3h1.105l.113,1.092a2.906,2.906,0,0,1,.973-.924,2.51,2.51,0,0,1,1.28-.336A2.059,2.059,0,0,1,1051.347,269.731Z"/><path class="cls-13" d="M1059.628,275.618a.937.937,0,0,0,.462.329l-.294.9a1.97,1.97,0,0,1-.924-.322,1.474,1.474,0,0,1-.518-.784,2.477,2.477,0,0,1-2.2,1.106,2.356,2.356,0,0,1-1.722-.616,2.15,2.15,0,0,1-.63-1.61,2.116,2.116,0,0,1,.846-1.806,3.969,3.969,0,0,1,2.4-.63h1.134v-.546a1.436,1.436,0,0,0-.378-1.12,1.712,1.712,0,0,0-1.162-.336,6.506,6.506,0,0,0-1.988.392l-.322-.938a7.422,7.422,0,0,1,2.548-.5,2.663,2.663,0,0,1,1.946.637,2.439,2.439,0,0,1,.644,1.813v3.374A1.156,1.156,0,0,0,1059.628,275.618Zm-1.442-.889v-1.694h-.966q-2.045,0-2.044,1.512a1.382,1.382,0,0,0,.322.994,1.259,1.259,0,0,0,.952.336A1.921,1.921,0,0,0,1058.186,274.729Z"/></svg>