<svg id="Layer_1" data-name="Layer 1" xmlns="http://www.w3.org/2000/svg" viewBox="0 0 733.593 976.451"><defs><style>.cls-1{fill:#999;}</style></defs><path d="M21.608,24.756H18l-.5-8.092q-.252-4.341-.252-6.888V8.768L13.712,22.655h-3.5L6.46,8.739q.055,1.849.056,2.8,0,2.549-.168,5.236l-.476,7.98H2.288L3.828,5.407h4.76L12.032,18.96,15.28,5.407H20.1Z"/><path d="M36.9,24.756H33.787l-.2-2.071a5.494,5.494,0,0,1-1.918,1.875,5.306,5.306,0,0,1-2.618.616,3.88,3.88,0,0,1-3.067-1.218,4.921,4.921,0,0,1-1.078-3.374V9.944H28.5V20.136a2.862,2.862,0,0,0,.435,1.792,1.687,1.687,0,0,0,1.385.532q1.708,0,3-2.1V9.944H36.9Z"/><path d="M50.84,9.944V12.52l-7.168,9.436H50.98l-.364,2.8H39.556V22.18l7.2-9.437h-6.58v-2.8ZM49.02,2.356l1.372,1.568L46.5,7.424H44.26l-3.892-3.5L41.74,2.356l3.64,2.463Z"/><path d="M57.181,3.069a2.115,2.115,0,0,1,.631,1.555,2.068,2.068,0,0,1-.631,1.54,2.242,2.242,0,0,1-1.638.616,2.208,2.208,0,0,1-1.61-.616,2.067,2.067,0,0,1-.63-1.54,2.114,2.114,0,0,1,.63-1.555,2.182,2.182,0,0,1,1.61-.629A2.215,2.215,0,0,1,57.181,3.069Zm.182,6.875V24.756H53.779V9.944Z"/><path d="M80.575,9.944,75.76,24.756H71.476l-4.9-14.812h3.893l3.164,11.928L76.88,9.944Z"/><path d="M92.5,11.288l-1.4,2.1a6.957,6.957,0,0,0-3.725-1.2,2.874,2.874,0,0,0-1.651.4,1.248,1.248,0,0,0-.588,1.078,1.361,1.361,0,0,0,.252.84,2.3,2.3,0,0,0,.909.63,15.132,15.132,0,0,0,1.946.658,8.538,8.538,0,0,1,3.57,1.708,3.821,3.821,0,0,1,1.163,2.968,3.982,3.982,0,0,1-1.792,3.458,7.614,7.614,0,0,1-4.453,1.246,9.421,9.421,0,0,1-3.318-.56,8.044,8.044,0,0,1-2.59-1.541l1.792-2.015a6.614,6.614,0,0,0,4.032,1.456,3.416,3.416,0,0,0,1.918-.476,1.5,1.5,0,0,0,.714-1.316,1.755,1.755,0,0,0-.265-1.022,2.2,2.2,0,0,0-.953-.672,20.191,20.191,0,0,0-2.142-.715,7.155,7.155,0,0,1-3.332-1.721,3.824,3.824,0,0,1-1.064-2.758,3.67,3.67,0,0,1,.714-2.212,4.751,4.751,0,0,1,2.016-1.54,7.474,7.474,0,0,1,2.982-.56A8.332,8.332,0,0,1,92.5,11.288Z"/><path d="M112.523,9.944V12.52l-7.168,9.436h7.308l-.363,2.8H101.239V22.18l7.2-9.437h-6.581v-2.8ZM110.7,2.356l1.372,1.568-3.891,3.5h-2.241l-3.891-3.5,1.372-1.568,3.64,2.463Z"/><path d="M127.307,18.456h-9.3a4.7,4.7,0,0,0,1.12,3.08,3.468,3.468,0,0,0,2.52.924,5.288,5.288,0,0,0,1.848-.322,8.635,8.635,0,0,0,1.848-1l1.484,2.045a8.521,8.521,0,0,1-5.488,1.988,6.607,6.607,0,0,1-5.222-2.072,8.23,8.23,0,0,1-1.834-5.656,10.125,10.125,0,0,1,.784-4.074,6.468,6.468,0,0,1,2.268-2.828,6.754,6.754,0,0,1,8.344.952,8.141,8.141,0,0,1,1.708,5.5Q127.391,17.279,127.307,18.456Zm-3.472-2.492q0-3.891-2.884-3.893a2.447,2.447,0,0,0-2.058.967,5.762,5.762,0,0,0-.882,3.094h5.824Z"/><path d="M141.6,10.714a4.692,4.692,0,0,1,1.1,3.318V24.756h-3.584V14.592a2.851,2.851,0,0,0-.462-1.849,1.705,1.705,0,0,0-1.358-.531,2.655,2.655,0,0,0-1.666.574,6.555,6.555,0,0,0-1.442,1.666v10.3h-3.584V9.944h3.108l.28,1.932a5.5,5.5,0,0,1,4.508-2.352A4.022,4.022,0,0,1,141.6,10.714Z"/><path d="M153.879,24.811a9.1,9.1,0,0,1-2.716,4.271,8.638,8.638,0,0,1-4.984,1.778l-.365-2.6a9.05,9.05,0,0,0,2.338-.63,3.788,3.788,0,0,0,1.414-1.078,7.184,7.184,0,0,0,.981-1.792h-1.233l-4.7-14.812h3.809l3.22,12.432L155,9.944h3.695Z"/><path d="M9.861,48.684a3.479,3.479,0,0,1,1.3,2.95,3.641,3.641,0,0,1-1.35,3.108A5.816,5.816,0,0,1,6.217,55.76H4.607v4.68H2.85V47.694H6.2A5.921,5.921,0,0,1,9.861,48.684Zm-1.378,5.1a2.477,2.477,0,0,0,.8-2.127,2.326,2.326,0,0,0-.8-1.98,3.759,3.759,0,0,0-2.3-.61H4.607v5.309H6.143A3.91,3.91,0,0,0,8.483,53.78Z"/><path d="M19.805,51.838a5.638,5.638,0,0,1,1.137,3.719,6.483,6.483,0,0,1-.517,2.672,4.062,4.062,0,0,1-1.5,1.8,4.18,4.18,0,0,1-2.331.639,3.949,3.949,0,0,1-3.2-1.369,5.608,5.608,0,0,1-1.147-3.719,6.492,6.492,0,0,1,.518-2.674,4.053,4.053,0,0,1,1.5-1.794,4.212,4.212,0,0,1,2.349-.638A3.919,3.919,0,0,1,19.805,51.838Zm-5.726,3.737q0,3.718,2.517,3.719t2.515-3.737q0-3.72-2.5-3.719Q14.079,51.838,14.079,55.575Z"/><path d="M31.3,46.768V60.44H29.8l-.166-1.35a3.544,3.544,0,0,1-1.2,1.156,3.173,3.173,0,0,1-1.611.417,3.138,3.138,0,0,1-2.71-1.369,6.254,6.254,0,0,1-.97-3.682,7.187,7.187,0,0,1,.461-2.664,4.115,4.115,0,0,1,1.333-1.822,3.28,3.28,0,0,1,2.035-.657,3.5,3.5,0,0,1,2.627,1.2V46.565ZM28.527,58.951A4.159,4.159,0,0,0,29.6,57.869V53.1a3.7,3.7,0,0,0-1.027-.953,2.374,2.374,0,0,0-1.23-.324,1.974,1.974,0,0,0-1.748.944,5.158,5.158,0,0,0-.62,2.812,5.45,5.45,0,0,0,.573,2.812,1.827,1.827,0,0,0,1.646.924A2.384,2.384,0,0,0,28.527,58.951Z"/><path d="M41.487,51.265a3.055,3.055,0,0,1,.749,2.182V60.44h-1.7V53.688a2.166,2.166,0,0,0-.387-1.461A1.475,1.475,0,0,0,39,51.8a2.212,2.212,0,0,0-1.369.444,4.587,4.587,0,0,0-1.109,1.276V60.44h-1.7V50.69h1.461l.149,1.444a3.837,3.837,0,0,1,1.285-1.221,3.311,3.311,0,0,1,1.693-.444A2.717,2.717,0,0,1,41.487,51.265Z"/><path d="M52.43,59.044a1.233,1.233,0,0,0,.61.434l-.388,1.185a2.607,2.607,0,0,1-1.221-.426,1.948,1.948,0,0,1-.685-1.036,3.27,3.27,0,0,1-2.9,1.462,3.115,3.115,0,0,1-2.276-.814,2.848,2.848,0,0,1-.833-2.128,2.791,2.791,0,0,1,1.121-2.386,5.226,5.226,0,0,1,3.171-.833h1.5V53.78a1.9,1.9,0,0,0-.5-1.48,2.263,2.263,0,0,0-1.535-.444,8.6,8.6,0,0,0-2.627.518l-.425-1.239a9.79,9.79,0,0,1,3.367-.666,3.518,3.518,0,0,1,2.571.841,3.225,3.225,0,0,1,.852,2.4v4.459A1.528,1.528,0,0,0,52.43,59.044Zm-1.906-1.175V55.63H49.248q-2.7,0-2.7,2a1.83,1.83,0,0,0,.426,1.314,1.665,1.665,0,0,0,1.257.444A2.541,2.541,0,0,0,50.524,57.869Z"/><path d="M63.271,46.768V60.44h-1.5l-.167-1.35a3.527,3.527,0,0,1-1.2,1.156,3.35,3.35,0,0,1-4.32-.952,6.254,6.254,0,0,1-.971-3.682,7.187,7.187,0,0,1,.462-2.664,4.121,4.121,0,0,1,1.332-1.822,3.282,3.282,0,0,1,2.035-.657,3.5,3.5,0,0,1,2.627,1.2V46.565ZM60.5,58.951a4.141,4.141,0,0,0,1.073-1.082V53.1a3.692,3.692,0,0,0-1.026-.953,2.374,2.374,0,0,0-1.23-.324,1.974,1.974,0,0,0-1.748.944,5.148,5.148,0,0,0-.621,2.812,5.449,5.449,0,0,0,.574,2.812,1.826,1.826,0,0,0,1.646.924A2.384,2.384,0,0,0,60.5,58.951Z"/><path d="M74,51.8a6.853,6.853,0,0,1,.869,3.756,6.257,6.257,0,0,1-1,3.7,3.267,3.267,0,0,1-2.83,1.406,3.144,3.144,0,0,1-2.553-1.111v4.625l-1.7.2V50.69h1.461l.13,1.315a3.727,3.727,0,0,1,1.3-1.139,3.394,3.394,0,0,1,1.591-.4A3.033,3.033,0,0,1,74,51.8Zm-.962,3.756q0-3.738-2.2-3.738a2.206,2.206,0,0,0-1.314.426,4.18,4.18,0,0,0-1.035,1.092v4.754a2.553,2.553,0,0,0,.925.879,2.493,2.493,0,0,0,1.221.3Q73.039,59.274,73.039,55.557Z"/><path d="M79.477,46.343a1.135,1.135,0,0,1,.333.833,1.1,1.1,0,0,1-.333.823,1.2,1.2,0,0,1-.871.324,1.164,1.164,0,0,1-.85-.324,1.093,1.093,0,0,1-.333-.823,1.127,1.127,0,0,1,.333-.833,1.154,1.154,0,0,1,.85-.332A1.184,1.184,0,0,1,79.477,46.343Zm0,4.347v9.75h-1.7V50.69Z"/><path d="M87.431,50.747a5.4,5.4,0,0,1,1.517.832l-.721,1.072a6.03,6.03,0,0,0-1.268-.629,3.966,3.966,0,0,0-1.267-.2,2.239,2.239,0,0,0-1.314.342,1.09,1.09,0,0,0-.481.935,1.078,1.078,0,0,0,.454.924,5.217,5.217,0,0,0,1.637.649,5.86,5.86,0,0,1,2.433,1.109,2.426,2.426,0,0,1,.8,1.924,2.49,2.49,0,0,1-1.12,2.2,4.751,4.751,0,0,1-2.729.76A5.392,5.392,0,0,1,81.7,59.386l.907-1.035a4.421,4.421,0,0,0,2.738.943,2.6,2.6,0,0,0,1.525-.4,1.253,1.253,0,0,0,.565-1.082,1.43,1.43,0,0,0-.2-.8,1.661,1.661,0,0,0-.7-.537,9.693,9.693,0,0,0-1.461-.491,4.976,4.976,0,0,1-2.248-1.09,2.343,2.343,0,0,1-.694-1.74,2.284,2.284,0,0,1,.453-1.379,2.959,2.959,0,0,1,1.259-.961,4.568,4.568,0,0,1,1.8-.342A5.4,5.4,0,0,1,87.431,50.747Z"/><path d="M103.748,51.8a6.853,6.853,0,0,1,.869,3.756,6.257,6.257,0,0,1-1,3.7,3.267,3.267,0,0,1-2.83,1.406,3.144,3.144,0,0,1-2.553-1.111v4.625l-1.7.2V50.69h1.461l.13,1.315a3.727,3.727,0,0,1,1.3-1.139,3.394,3.394,0,0,1,1.591-.4A3.033,3.033,0,0,1,103.748,51.8Zm-.962,3.756q0-3.738-2.2-3.738a2.2,2.2,0,0,0-1.313.426,4.167,4.167,0,0,0-1.036,1.092v4.754a2.553,2.553,0,0,0,.925.879,2.5,2.5,0,0,0,1.221.3Q102.785,59.274,102.786,55.557Z"/><path d="M114.376,51.838a5.638,5.638,0,0,1,1.138,3.719A6.483,6.483,0,0,1,115,58.229a4.062,4.062,0,0,1-1.5,1.8,4.178,4.178,0,0,1-2.331.639,3.949,3.949,0,0,1-3.2-1.369,5.608,5.608,0,0,1-1.147-3.719,6.492,6.492,0,0,1,.518-2.674,4.066,4.066,0,0,1,1.5-1.794,4.213,4.213,0,0,1,2.35-.638A3.917,3.917,0,0,1,114.376,51.838Zm-5.726,3.737q0,3.718,2.517,3.719t2.516-3.737q0-3.72-2.5-3.719Q108.65,51.838,108.65,55.575Z"/><path d="M125.874,46.768V60.44h-1.5l-.166-1.35a3.535,3.535,0,0,1-1.2,1.156,3.172,3.172,0,0,1-1.61.417,3.135,3.135,0,0,1-2.71-1.369,6.247,6.247,0,0,1-.971-3.682,7.166,7.166,0,0,1,.462-2.664,4.114,4.114,0,0,1,1.332-1.822,3.282,3.282,0,0,1,2.035-.657,3.5,3.5,0,0,1,2.627,1.2V46.565ZM123.1,58.951a4.156,4.156,0,0,0,1.073-1.082V53.1a3.692,3.692,0,0,0-1.026-.953,2.38,2.38,0,0,0-1.231-.324,1.974,1.974,0,0,0-1.748.944,5.158,5.158,0,0,0-.62,2.812,5.45,5.45,0,0,0,.573,2.812,1.828,1.828,0,0,0,1.647.924A2.386,2.386,0,0,0,123.1,58.951Z"/><path d="M136.058,51.265a3.055,3.055,0,0,1,.749,2.182V60.44h-1.7V53.688a2.16,2.16,0,0,0-.388-1.461,1.475,1.475,0,0,0-1.148-.426,2.216,2.216,0,0,0-1.369.444,4.62,4.62,0,0,0-1.109,1.276V60.44h-1.7V50.69h1.461L131,52.134a3.856,3.856,0,0,1,1.285-1.221,3.312,3.312,0,0,1,1.694-.444A2.719,2.719,0,0,1,136.058,51.265Z"/><path d="M147,59.044a1.238,1.238,0,0,0,.61.434l-.387,1.185A2.611,2.611,0,0,1,146,60.237a1.948,1.948,0,0,1-.685-1.036,3.27,3.27,0,0,1-2.9,1.462,3.111,3.111,0,0,1-2.275-.814,2.844,2.844,0,0,1-.833-2.128,2.792,2.792,0,0,1,1.12-2.386A5.229,5.229,0,0,1,143.6,54.5h1.5V53.78a1.9,1.9,0,0,0-.5-1.48,2.265,2.265,0,0,0-1.535-.444,8.6,8.6,0,0,0-2.627.518l-.426-1.239a9.79,9.79,0,0,1,3.367-.666,3.518,3.518,0,0,1,2.571.841,3.221,3.221,0,0,1,.852,2.4v4.459A1.528,1.528,0,0,0,147,59.044ZM145.1,57.869V55.63h-1.277q-2.7,0-2.7,2a1.83,1.83,0,0,0,.426,1.314,1.666,1.666,0,0,0,1.258.444A2.543,2.543,0,0,0,145.1,57.869Z"/><path d="M157.842,46.768V60.44h-1.5l-.166-1.35a3.544,3.544,0,0,1-1.2,1.156,3.173,3.173,0,0,1-1.611.417,3.138,3.138,0,0,1-2.71-1.369,6.254,6.254,0,0,1-.97-3.682,7.166,7.166,0,0,1,.462-2.664,4.106,4.106,0,0,1,1.332-1.822,3.28,3.28,0,0,1,2.035-.657,3.5,3.5,0,0,1,2.627,1.2V46.565Zm-2.776,12.183a4.143,4.143,0,0,0,1.074-1.082V53.1a3.7,3.7,0,0,0-1.027-.953,2.374,2.374,0,0,0-1.23-.324,1.974,1.974,0,0,0-1.748.944,5.158,5.158,0,0,0-.62,2.812,5.45,5.45,0,0,0,.573,2.812,1.828,1.828,0,0,0,1.646.924A2.384,2.384,0,0,0,155.066,58.951Z"/><path d="M168.571,51.8a6.853,6.853,0,0,1,.869,3.756,6.257,6.257,0,0,1-1,3.7,3.267,3.267,0,0,1-2.83,1.406,3.14,3.14,0,0,1-2.552-1.111v4.625l-1.7.2V50.69h1.461l.13,1.315a3.736,3.736,0,0,1,1.295-1.139,3.394,3.394,0,0,1,1.591-.4A3.033,3.033,0,0,1,168.571,51.8Zm-.962,3.756q0-3.738-2.2-3.738a2.2,2.2,0,0,0-1.313.426,4.164,4.164,0,0,0-1.035,1.092v4.754a2.551,2.551,0,0,0,.924.879,2.5,2.5,0,0,0,1.221.3Q167.61,59.274,167.609,55.557Z"/><path d="M174.048,46.343a1.131,1.131,0,0,1,.333.833,1.1,1.1,0,0,1-.333.823,1.194,1.194,0,0,1-.87.324,1.165,1.165,0,0,1-.851-.324,1.1,1.1,0,0,1-.333-.823,1.131,1.131,0,0,1,.333-.833,1.155,1.155,0,0,1,.851-.332A1.183,1.183,0,0,1,174.048,46.343Zm0,4.347v9.75h-1.7V50.69Z"/><path d="M182,50.747a5.423,5.423,0,0,1,1.518.832l-.722,1.072a5.983,5.983,0,0,0-1.268-.629,3.965,3.965,0,0,0-1.266-.2,2.243,2.243,0,0,0-1.315.342,1.089,1.089,0,0,0-.48.935,1.078,1.078,0,0,0,.453.924,5.235,5.235,0,0,0,1.638.649,5.855,5.855,0,0,1,2.432,1.109A2.426,2.426,0,0,1,183.8,57.7a2.492,2.492,0,0,1-1.119,2.2,4.752,4.752,0,0,1-2.73.76,5.39,5.39,0,0,1-3.68-1.277l.906-1.035a4.421,4.421,0,0,0,2.738.943,2.6,2.6,0,0,0,1.526-.4A1.255,1.255,0,0,0,182,57.813a1.422,1.422,0,0,0-.2-.8,1.657,1.657,0,0,0-.7-.537,9.712,9.712,0,0,0-1.462-.491,4.977,4.977,0,0,1-2.247-1.09,2.34,2.34,0,0,1-.695-1.74,2.285,2.285,0,0,1,.454-1.379,2.95,2.95,0,0,1,1.258-.961,4.568,4.568,0,0,1,1.8-.342A5.4,5.4,0,0,1,182,50.747Z"/><path class="cls-1" d="M257.7,946.61v1.309l-5.8,9.027h5.8l-.187,1.377h-7.412V957.03l5.848-9.06h-5.236v-1.36Z"/><path class="cls-1" d="M266.646,945.76v12.563h-1.377l-.153-1.242a3.218,3.218,0,0,1-1.1,1.062,3.079,3.079,0,0,1-3.97-.875,5.733,5.733,0,0,1-.893-3.382,6.6,6.6,0,0,1,.425-2.448,3.786,3.786,0,0,1,1.225-1.675,3.017,3.017,0,0,1,1.87-.6,3.215,3.215,0,0,1,2.414,1.106v-4.692Zm-2.55,11.194a3.826,3.826,0,0,0,.986-.994v-4.387a3.391,3.391,0,0,0-.943-.875,2.181,2.181,0,0,0-1.131-.3,1.815,1.815,0,0,0-1.607.867,4.753,4.753,0,0,0-.569,2.584,5,5,0,0,0,.526,2.583,1.68,1.68,0,0,0,1.514.851A2.2,2.2,0,0,0,264.1,956.954Z"/><path class="cls-1" d="M274.652,949.262l-.289,1.53a3.212,3.212,0,0,0-.781-.1,1.662,1.662,0,0,0-1.344.612,4.554,4.554,0,0,0-.8,1.9v5.117h-1.563v-8.959h1.343l.153,1.819a3.394,3.394,0,0,1,.969-1.513,2.159,2.159,0,0,1,1.428-.511A3.625,3.625,0,0,1,274.652,949.262Z"/><path class="cls-1" d="M282.226,950.418a5.182,5.182,0,0,1,1.046,3.417,5.972,5.972,0,0,1-.476,2.456,3.725,3.725,0,0,1-1.377,1.649,3.843,3.843,0,0,1-2.143.586,3.624,3.624,0,0,1-2.94-1.258,5.148,5.148,0,0,1-1.055-3.416,5.948,5.948,0,0,1,.477-2.457,3.717,3.717,0,0,1,1.377-1.649,3.868,3.868,0,0,1,2.159-.587A3.6,3.6,0,0,1,282.226,950.418Zm-5.261,3.434q0,3.417,2.311,3.416t2.313-3.433q0-3.417-2.3-3.417Q276.963,950.418,276.965,953.852Z"/><path class="cls-1" d="M287.385,957.778a5.357,5.357,0,0,1-.306,1.99,2.945,2.945,0,0,1-.892,1.215,7.88,7.88,0,0,1-1.641.944l-.459-1.139a4.743,4.743,0,0,0,1.02-.6,1.8,1.8,0,0,0,.536-.834,4.82,4.82,0,0,0,.178-1.47v-8.517h1.564Zm.017-12.41a1.04,1.04,0,0,1,.306.766,1.008,1.008,0,0,1-.306.756,1.094,1.094,0,0,1-.8.3,1.074,1.074,0,0,1-.783-.3,1.007,1.007,0,0,1-.305-.756,1.039,1.039,0,0,1,.305-.766,1.063,1.063,0,0,1,.783-.305A1.083,1.083,0,0,1,287.4,945.368Z"/><path class="cls-1" d="M302.056,945.76v12.563h-1.377l-.153-1.242a3.218,3.218,0,0,1-1.105,1.062,3.079,3.079,0,0,1-3.97-.875,5.733,5.733,0,0,1-.892-3.382,6.6,6.6,0,0,1,.424-2.448,3.794,3.794,0,0,1,1.225-1.675,3.017,3.017,0,0,1,1.87-.6,3.215,3.215,0,0,1,2.414,1.106v-4.692Zm-2.55,11.194a3.826,3.826,0,0,0,.986-.994v-4.387a3.391,3.391,0,0,0-.943-.875,2.181,2.181,0,0,0-1.131-.3,1.814,1.814,0,0,0-1.606.867,4.743,4.743,0,0,0-.57,2.584,4.991,4.991,0,0,0,.527,2.583,1.677,1.677,0,0,0,1.513.851A2.2,2.2,0,0,0,299.506,956.954Z"/><path class="cls-1" d="M311.508,957.039a1.12,1.12,0,0,0,.561.4l-.357,1.088a2.381,2.381,0,0,1-1.122-.39,1.793,1.793,0,0,1-.629-.952,3.005,3.005,0,0,1-2.669,1.342,2.857,2.857,0,0,1-2.091-.748,2.607,2.607,0,0,1-.765-1.955,2.565,2.565,0,0,1,1.029-2.192,4.8,4.8,0,0,1,2.915-.765h1.377V952.2a1.74,1.74,0,0,0-.459-1.359,2.076,2.076,0,0,0-1.411-.408,7.9,7.9,0,0,0-2.414.476l-.391-1.139a9.016,9.016,0,0,1,3.094-.613,3.232,3.232,0,0,1,2.363.774,2.962,2.962,0,0,1,.782,2.2v4.1A1.4,1.4,0,0,0,311.508,957.039Zm-1.751-1.079V953.9h-1.173q-2.483,0-2.482,1.836a1.681,1.681,0,0,0,.391,1.207,1.528,1.528,0,0,0,1.155.407A2.333,2.333,0,0,0,309.757,955.96Z"/><path class="cls-1" d="M319.056,957.915a3.438,3.438,0,0,1-2.006.611,2.363,2.363,0,0,1-1.777-.654,2.611,2.611,0,0,1-.637-1.895v-5.406h-1.564v-1.207h1.564v-2.023l1.564-.188v2.211h2.125l-.17,1.207H316.2v5.338a1.654,1.654,0,0,0,.246,1.012.989.989,0,0,0,.825.314,2.565,2.565,0,0,0,1.19-.357Z"/><path class="cls-1" d="M322,950.247a1.135,1.135,0,0,1,.34.834,1.163,1.163,0,0,1-.34.842,1.138,1.138,0,0,1-.85.347,1.119,1.119,0,0,1-.833-.347,1.163,1.163,0,0,1-.34-.842,1.161,1.161,0,0,1,1.173-1.174A1.151,1.151,0,0,1,322,950.247Zm0,6.257a1.131,1.131,0,0,1,.34.833,1.163,1.163,0,0,1-.34.842,1.138,1.138,0,0,1-.85.347,1.119,1.119,0,0,1-.833-.347,1.163,1.163,0,0,1-.34-.842,1.163,1.163,0,0,1,1.173-1.174A1.152,1.152,0,0,1,322,956.5Z"/><path class="cls-1" d="M337.059,946.61l-3.74,11.713h-1.734l-3.774-11.713h1.734l2.941,9.961,2.941-9.961Z"/><path class="cls-1" d="M342.193,958.374a6.033,6.033,0,0,1-1.47,2.473,4.441,4.441,0,0,1-2.695,1.1l-.17-1.224a4.639,4.639,0,0,0,1.412-.442,2.438,2.438,0,0,0,.84-.74,5.159,5.159,0,0,0,.587-1.215h-.527l-3.009-8.959h1.666l2.4,7.82,2.345-7.82h1.616Zm.324-13.668.7,1.309-3.6,1.462-.476-.834Z"/><path class="cls-1" d="M352.223,949.364v1.19l-4.675,6.46h4.725l-.186,1.309h-6.308v-1.174l4.659-6.459h-4.267v-1.326Z"/><path class="cls-1" d="M355.962,945.573v12.75H354.4V945.76Zm5.151,3.791-3.3,3.961,3.672,5h-1.87l-3.553-4.9,3.3-4.063Z"/><path class="cls-1" d="M369.647,958.323H368.3l-.118-1.394a3.4,3.4,0,0,1-1.174,1.214,3.172,3.172,0,0,1-1.615.383,2.381,2.381,0,0,1-1.835-.713,2.858,2.858,0,0,1-.664-2.023v-6.426h1.564v6.256a2.033,2.033,0,0,0,.323,1.3,1.311,1.311,0,0,0,1.054.382,2.662,2.662,0,0,0,2.244-1.547v-6.392h1.564Z"/><path class="cls-1" d="M383.639,949.9a2.882,2.882,0,0,1,.663,2v6.426h-1.565v-6.2q0-1.734-1.257-1.734a1.694,1.694,0,0,0-1.123.383,5.342,5.342,0,0,0-.985,1.2v6.358h-1.564v-6.2q0-1.734-1.258-1.734a1.7,1.7,0,0,0-1.139.39,5.415,5.415,0,0,0-.97,1.191v6.358h-1.563v-8.959h1.343l.135,1.309a3,3,0,0,1,2.584-1.514,2.257,2.257,0,0,1,2.262,1.615,4.211,4.211,0,0,1,1.164-1.2,2.7,2.7,0,0,1,1.5-.417A2.261,2.261,0,0,1,383.639,949.9Z"/><path class="cls-1" d="M397.909,946.678a5.3,5.3,0,0,1,1.471.883L398.5,948.6a3.538,3.538,0,0,0-2.261-.868,2.863,2.863,0,0,0-2.354,1.122,7.667,7.667,0,0,0-.009,7.165,2.813,2.813,0,0,0,2.346,1.149,3.135,3.135,0,0,0,1.309-.256,6.852,6.852,0,0,0,1.19-.713l.8,1.02a4.368,4.368,0,0,1-1.394.935,4.839,4.839,0,0,1-1.955.373,4.488,4.488,0,0,1-4.275-2.779,7.915,7.915,0,0,1-.621-3.289,7.644,7.644,0,0,1,.646-3.289,4.768,4.768,0,0,1,1.751-2.067,4.531,4.531,0,0,1,2.465-.7A5.069,5.069,0,0,1,397.909,946.678Zm.485-3.808.663.765-2.3,1.87h-1.037l-2.312-1.87.68-.765,2.142,1.377Z"/><path class="cls-1" d="M407.863,954.379h-5.712a3.5,3.5,0,0,0,.748,2.176,2.173,2.173,0,0,0,1.666.7,3.663,3.663,0,0,0,1.191-.187,4.868,4.868,0,0,0,1.139-.6l.679.935a4.947,4.947,0,0,1-3.128,1.121,3.631,3.631,0,0,1-2.915-1.223,5.02,5.02,0,0,1-1.046-3.367,6.358,6.358,0,0,1,.452-2.472,3.858,3.858,0,0,1,1.292-1.692,3.272,3.272,0,0,1,1.98-.613,3.32,3.32,0,0,1,2.736,1.174,5.01,5.01,0,0,1,.952,3.246C407.9,953.841,407.886,954.106,407.863,954.379Zm-1.512-1.259a3.3,3.3,0,0,0-.528-2.022,1.856,1.856,0,0,0-1.581-.7q-1.92,0-2.091,2.822h4.2Z"/><path class="cls-1" d="M414.477,949.415a4.949,4.949,0,0,1,1.393.765l-.663.985a5.408,5.408,0,0,0-1.164-.577,3.627,3.627,0,0,0-1.165-.187,2.046,2.046,0,0,0-1.207.315,1.066,1.066,0,0,0-.025,1.708,4.814,4.814,0,0,0,1.5.594,5.4,5.4,0,0,1,2.236,1.02,2.23,2.23,0,0,1,.739,1.769,2.292,2.292,0,0,1-1.028,2.022,4.365,4.365,0,0,1-2.508.7,4.955,4.955,0,0,1-3.383-1.173l.833-.952a4.062,4.062,0,0,0,2.517.867,2.39,2.39,0,0,0,1.4-.365,1.154,1.154,0,0,0,.519-.994,1.309,1.309,0,0,0-.188-.74,1.508,1.508,0,0,0-.645-.492,8.776,8.776,0,0,0-1.344-.451,4.6,4.6,0,0,1-2.066-1,2.154,2.154,0,0,1-.636-1.6,2.093,2.093,0,0,1,.416-1.266,2.706,2.706,0,0,1,1.156-.884,4.205,4.205,0,0,1,1.657-.315A5,5,0,0,1,414.477,949.415Z"/><path class="cls-1" d="M419.9,945.573v12.75h-1.563V945.76Zm5.152,3.791-3.3,3.961,3.672,5h-1.87l-3.553-4.9,3.3-4.063Z"/><path class="cls-1" d="M433.006,957.039a1.12,1.12,0,0,0,.561.4l-.357,1.088a2.381,2.381,0,0,1-1.122-.39,1.793,1.793,0,0,1-.629-.952,3.005,3.005,0,0,1-2.669,1.342,2.857,2.857,0,0,1-2.091-.748,2.611,2.611,0,0,1-.765-1.955,2.565,2.565,0,0,1,1.029-2.192,4.8,4.8,0,0,1,2.915-.765h1.377V952.2a1.74,1.74,0,0,0-.459-1.359,2.076,2.076,0,0,0-1.411-.408,7.9,7.9,0,0,0-2.414.476l-.391-1.139a9.016,9.016,0,0,1,3.094-.613,3.232,3.232,0,0,1,2.363.774,2.962,2.962,0,0,1,.782,2.2v4.1A1.4,1.4,0,0,0,433.006,957.039Zm-2.057-12.333.7,1.309-3.6,1.462-.476-.834Zm.306,11.254V953.9h-1.173q-2.482,0-2.482,1.836a1.681,1.681,0,0,0,.391,1.207,1.529,1.529,0,0,0,1.156.407A2.333,2.333,0,0,0,431.255,955.96Z"/><path class="cls-1" d="M444.617,949.415a4.954,4.954,0,0,1,1.394.765l-.663.985a5.431,5.431,0,0,0-1.164-.577,3.632,3.632,0,0,0-1.165-.187,2.044,2.044,0,0,0-1.207.315,1.065,1.065,0,0,0-.026,1.708,4.822,4.822,0,0,0,1.5.594,5.392,5.392,0,0,1,2.235,1.02,2.227,2.227,0,0,1,.74,1.769,2.29,2.29,0,0,1-1.029,2.022,4.359,4.359,0,0,1-2.507.7,4.951,4.951,0,0,1-3.383-1.173l.833-.952a4.058,4.058,0,0,0,2.516.867,2.394,2.394,0,0,0,1.4-.365,1.155,1.155,0,0,0,.518-.994,1.309,1.309,0,0,0-.187-.74,1.506,1.506,0,0,0-.646-.492,8.738,8.738,0,0,0-1.344-.451,4.592,4.592,0,0,1-2.065-1,2.151,2.151,0,0,1-.637-1.6,2.1,2.1,0,0,1,.416-1.266,2.709,2.709,0,0,1,1.157-.884,4.2,4.2,0,0,1,1.657-.315A4.985,4.985,0,0,1,444.617,949.415Z"/><path class="cls-1" d="M455.106,950.384a6.293,6.293,0,0,1,.8,3.451,5.741,5.741,0,0,1-.918,3.4,3,3,0,0,1-2.6,1.291,2.891,2.891,0,0,1-2.347-1.019v4.25l-1.563.187v-12.58h1.342l.12,1.207a3.414,3.414,0,0,1,1.189-1.046,3.116,3.116,0,0,1,1.462-.366A2.786,2.786,0,0,1,455.106,950.384Zm-.883,3.451q0-3.433-2.024-3.434a2.021,2.021,0,0,0-1.207.391,3.875,3.875,0,0,0-.952,1v4.368a2.372,2.372,0,0,0,.851.809,2.3,2.3,0,0,0,1.122.28Q454.221,957.252,454.223,953.835Z"/><path class="cls-1" d="M464.872,950.418a5.182,5.182,0,0,1,1.046,3.417,5.956,5.956,0,0,1-.476,2.456,3.725,3.725,0,0,1-1.377,1.649,3.84,3.84,0,0,1-2.142.586,3.626,3.626,0,0,1-2.941-1.258,5.147,5.147,0,0,1-1.054-3.416,5.964,5.964,0,0,1,.476-2.457,3.73,3.73,0,0,1,1.377-1.649,3.873,3.873,0,0,1,2.159-.587A3.6,3.6,0,0,1,464.872,950.418Zm-5.261,3.434q0,3.417,2.312,3.416t2.312-3.433q0-3.417-2.3-3.417Q459.611,950.418,459.611,953.852Z"/><path class="cls-1" d="M468.918,958.009a2.006,2.006,0,0,1-.5-1.454V945.76l1.563-.187V956.52a.917.917,0,0,0,.128.545.507.507,0,0,0,.434.17,1.567,1.567,0,0,0,.578-.1l.407,1.088a2.545,2.545,0,0,1-1.24.3A1.817,1.817,0,0,1,468.918,958.009Z"/><path class="cls-1" d="M480.13,954.379h-5.712a3.49,3.49,0,0,0,.748,2.176,2.172,2.172,0,0,0,1.666.7,3.657,3.657,0,0,0,1.19-.187,4.829,4.829,0,0,0,1.139-.6l.68.935a4.947,4.947,0,0,1-3.128,1.121A3.63,3.63,0,0,1,473.8,957.3a5.02,5.02,0,0,1-1.046-3.367,6.359,6.359,0,0,1,.451-2.472,3.872,3.872,0,0,1,1.292-1.692,3.277,3.277,0,0,1,1.981-.613,3.322,3.322,0,0,1,2.736,1.174,5.01,5.01,0,0,1,.952,3.246C480.164,953.841,480.152,954.106,480.13,954.379Zm-1.513-1.259a3.312,3.312,0,0,0-.527-2.022,1.857,1.857,0,0,0-1.581-.7q-1.92,0-2.091,2.822h4.2Z"/><path class="cls-1" d="M487.389,949.39a4.039,4.039,0,0,1,1.275.739l-.748.985a3.91,3.91,0,0,0-.927-.5,2.944,2.944,0,0,0-.994-.161,1.942,1.942,0,0,0-1.691.867,4.491,4.491,0,0,0-.6,2.567,4.247,4.247,0,0,0,.6,2.507,1.982,1.982,0,0,0,1.7.807,2.8,2.8,0,0,0,.969-.161,4.845,4.845,0,0,0,.986-.519l.714,1.02a4.25,4.25,0,0,1-2.737.986,3.569,3.569,0,0,1-2.864-1.223,5.04,5.04,0,0,1-1.046-3.383,6.112,6.112,0,0,1,.476-2.5,3.832,3.832,0,0,1,1.352-1.666,3.609,3.609,0,0,1,2.082-.6A4.421,4.421,0,0,1,487.389,949.39Zm.731-4.413.663.766-2.3,1.92h-1.037l-2.312-1.92.68-.766,2.142,1.428Z"/><path class="cls-1" d="M496.917,949.891a2.808,2.808,0,0,1,.688,2.006v6.426h-1.563v-6.2a1.991,1.991,0,0,0-.357-1.344,1.361,1.361,0,0,0-1.054-.39,2.032,2.032,0,0,0-1.258.408,4.2,4.2,0,0,0-1.02,1.173v6.358h-1.564v-8.959h1.343l.136,1.326a3.552,3.552,0,0,1,1.181-1.123,3.064,3.064,0,0,1,1.556-.408A2.5,2.5,0,0,1,496.917,949.891Z"/><path class="cls-1" d="M507.049,950.418a5.182,5.182,0,0,1,1.046,3.417,5.956,5.956,0,0,1-.476,2.456,3.725,3.725,0,0,1-1.377,1.649,3.84,3.84,0,0,1-2.142.586,3.625,3.625,0,0,1-2.941-1.258,5.147,5.147,0,0,1-1.054-3.416,5.964,5.964,0,0,1,.476-2.457,3.717,3.717,0,0,1,1.377-1.649,3.87,3.87,0,0,1,2.159-.587A3.6,3.6,0,0,1,507.049,950.418Zm-5.261,3.434q0,3.417,2.312,3.416t2.312-3.433q0-3.417-2.295-3.417Q501.788,950.418,501.788,953.852Z"/><path class="cls-1" d="M514.759,949.415a4.949,4.949,0,0,1,1.393.765l-.663.985a5.408,5.408,0,0,0-1.164-.577,3.627,3.627,0,0,0-1.165-.187,2.046,2.046,0,0,0-1.207.315,1.066,1.066,0,0,0-.025,1.708,4.812,4.812,0,0,0,1.5.594,5.392,5.392,0,0,1,2.235,1.02,2.23,2.23,0,0,1,.739,1.769,2.292,2.292,0,0,1-1.028,2.022,4.365,4.365,0,0,1-2.508.7,4.955,4.955,0,0,1-3.383-1.173l.833-.952a4.062,4.062,0,0,0,2.517.867,2.388,2.388,0,0,0,1.4-.365,1.154,1.154,0,0,0,.519-.994,1.309,1.309,0,0,0-.188-.74,1.508,1.508,0,0,0-.645-.492,8.776,8.776,0,0,0-1.344-.451,4.586,4.586,0,0,1-2.065-1,2.151,2.151,0,0,1-.637-1.6,2.1,2.1,0,0,1,.416-1.266,2.706,2.706,0,0,1,1.156-.884,4.205,4.205,0,0,1,1.657-.315A4.987,4.987,0,0,1,514.759,949.415Z"/><path class="cls-1" d="M523.14,957.915a3.438,3.438,0,0,1-2.006.611,2.363,2.363,0,0,1-1.777-.654,2.611,2.611,0,0,1-.637-1.895v-5.406h-1.564v-1.207h1.564v-2.023l1.564-.188v2.211h2.125l-.17,1.207h-1.955v5.338a1.654,1.654,0,0,0,.246,1.012.989.989,0,0,0,.825.314,2.565,2.565,0,0,0,1.19-.357Z"/><path class="cls-1" d="M533.314,947.188a2.965,2.965,0,0,1,1.624,2.7,4.469,4.469,0,0,1-.468,1.989,9.654,9.654,0,0,1-1.437,2.056q-.967,1.107-2.94,3.078h5.117l-.188,1.309h-6.714v-1.242q2.277-2.361,3.229-3.459a9.625,9.625,0,0,0,1.36-1.912,3.854,3.854,0,0,0,.409-1.751,1.746,1.746,0,0,0-1.87-1.888,2.511,2.511,0,0,0-1.224.289,4.465,4.465,0,0,0-1.122.953l-1.021-.816a4.713,4.713,0,0,1,1.547-1.293,4.206,4.206,0,0,1,1.9-.424A3.779,3.779,0,0,1,533.314,947.188Z"/><path class="cls-1" d="M543.65,948.284a10.4,10.4,0,0,1,0,8.73,3.437,3.437,0,0,1-5.695,0,10.394,10.394,0,0,1,0-8.73,3.448,3.448,0,0,1,5.695,0Zm-4.488.824a11.983,11.983,0,0,0,0,7.081,1.769,1.769,0,0,0,3.273,0,11.764,11.764,0,0,0,0-7.072,1.772,1.772,0,0,0-3.273-.009Z"/><path class="cls-1" d="M551.012,947.188a2.966,2.966,0,0,1,1.623,2.7,4.456,4.456,0,0,1-.468,1.989,9.654,9.654,0,0,1-1.437,2.056q-.967,1.107-2.94,3.078h5.117l-.187,1.309h-6.715v-1.242q2.277-2.361,3.229-3.459a9.678,9.678,0,0,0,1.361-1.912,3.866,3.866,0,0,0,.408-1.751,1.746,1.746,0,0,0-1.87-1.888,2.511,2.511,0,0,0-1.224.289,4.5,4.5,0,0,0-1.122.953l-1.02-.816a4.693,4.693,0,0,1,1.547-1.293,4.2,4.2,0,0,1,1.9-.424A3.785,3.785,0,0,1,551.012,947.188Z"/><path class="cls-1" d="M561.348,948.284a10.4,10.4,0,0,1,0,8.73,3.438,3.438,0,0,1-5.7,0,10.394,10.394,0,0,1,0-8.73,3.449,3.449,0,0,1,5.7,0Zm-4.489.824a11.983,11.983,0,0,0,0,7.081,1.769,1.769,0,0,0,3.273,0,11.764,11.764,0,0,0,0-7.072,1.772,1.772,0,0,0-3.273-.009Z"/><path class="cls-1" d="M568.292,953.665v-1.326h7.752v1.326Z"/><path class="cls-1" d="M584.272,945.573v12.75h-1.564V945.76Zm5.151,3.791-3.3,3.961,3.672,5h-1.87l-3.553-4.9,3.3-4.063Z"/><path class="cls-1" d="M591.827,958.009a2.006,2.006,0,0,1-.5-1.454V945.76l1.564-.187V956.52a.917.917,0,0,0,.128.545.5.5,0,0,0,.433.17,1.567,1.567,0,0,0,.578-.1l.408,1.088a2.549,2.549,0,0,1-1.241.3A1.817,1.817,0,0,1,591.827,958.009Z"/><path class="cls-1" d="M597.956,945.368a1.041,1.041,0,0,1,.307.766,1.009,1.009,0,0,1-.307.756,1.1,1.1,0,0,1-.8.3,1.074,1.074,0,0,1-.782-.3,1.008,1.008,0,0,1-.306-.756,1.04,1.04,0,0,1,.306-.766,1.063,1.063,0,0,1,.782-.305A1.083,1.083,0,0,1,597.956,945.368Zm0,4v8.959h-1.563v-8.959Z"/><path class="cls-1" d="M611.947,949.9a2.878,2.878,0,0,1,.663,2v6.426h-1.564v-6.2q0-1.734-1.258-1.734a1.693,1.693,0,0,0-1.122.383,5.288,5.288,0,0,0-.985,1.2v6.358h-1.565v-6.2q0-1.734-1.258-1.734a1.7,1.7,0,0,0-1.138.39,5.386,5.386,0,0,0-.97,1.191v6.358h-1.563v-8.959h1.342l.136,1.309a3,3,0,0,1,2.584-1.514,2.257,2.257,0,0,1,2.262,1.615,4.2,4.2,0,0,1,1.164-1.2,2.7,2.7,0,0,1,1.5-.417A2.257,2.257,0,0,1,611.947,949.9Z"/><path class="cls-1" d="M621.977,957.039a1.12,1.12,0,0,0,.561.4l-.357,1.088a2.381,2.381,0,0,1-1.122-.39,1.782,1.782,0,0,1-.629-.952,3.006,3.006,0,0,1-2.669,1.342,2.857,2.857,0,0,1-2.091-.748,2.608,2.608,0,0,1-.766-1.955,2.565,2.565,0,0,1,1.03-2.192,4.8,4.8,0,0,1,2.915-.765h1.377V952.2a1.743,1.743,0,0,0-.459-1.359,2.079,2.079,0,0,0-1.412-.408,7.91,7.91,0,0,0-2.414.476l-.39-1.139a9.012,9.012,0,0,1,3.094-.613,3.235,3.235,0,0,1,2.363.774,2.966,2.966,0,0,1,.782,2.2v4.1A1.4,1.4,0,0,0,621.977,957.039Zm-1.751-1.079V953.9h-1.173q-2.484,0-2.483,1.836a1.681,1.681,0,0,0,.392,1.207,1.526,1.526,0,0,0,1.155.407A2.333,2.333,0,0,0,620.226,955.96Z"/><path class="cls-1" d="M629.524,957.915a3.433,3.433,0,0,1-2,.611,2.363,2.363,0,0,1-1.777-.654,2.607,2.607,0,0,1-.637-1.895v-5.406h-1.564v-1.207h1.564v-2.023l1.564-.188v2.211h2.125l-.17,1.207h-1.955v5.338a1.654,1.654,0,0,0,.246,1.012.988.988,0,0,0,.824.314,2.569,2.569,0,0,0,1.191-.357Z"/><path class="cls-1" d="M632.7,945.368a1.041,1.041,0,0,1,.307.766,1.009,1.009,0,0,1-.307.756,1.1,1.1,0,0,1-.8.3,1.074,1.074,0,0,1-.782-.3,1.008,1.008,0,0,1-.306-.756,1.04,1.04,0,0,1,.306-.766,1.063,1.063,0,0,1,.782-.305A1.083,1.083,0,0,1,632.7,945.368Zm0,4v8.959H631.14v-8.959Z"/><path class="cls-1" d="M640.659,949.39a4.043,4.043,0,0,1,1.276.739l-.748.985a3.929,3.929,0,0,0-.927-.5,2.948,2.948,0,0,0-.994-.161,1.944,1.944,0,0,0-1.692.867,4.5,4.5,0,0,0-.6,2.567,4.255,4.255,0,0,0,.594,2.507,1.983,1.983,0,0,0,1.7.807,2.8,2.8,0,0,0,.968-.161,4.876,4.876,0,0,0,.987-.519l.714,1.02a4.254,4.254,0,0,1-2.738.986,3.569,3.569,0,0,1-2.864-1.223,5.046,5.046,0,0,1-1.046-3.383,6.1,6.1,0,0,1,.477-2.5,3.823,3.823,0,0,1,1.351-1.666,3.612,3.612,0,0,1,2.082-.6A4.413,4.413,0,0,1,640.659,949.39Z"/><path class="cls-1" d="M645.623,945.573v12.75H644.06V945.76Zm5.151,3.791-3.3,3.961,3.671,5h-1.87l-3.552-4.9,3.3-4.063Z"/><path class="cls-1" d="M658.73,957.039a1.123,1.123,0,0,0,.562.4l-.357,1.088a2.381,2.381,0,0,1-1.122-.39,1.782,1.782,0,0,1-.629-.952,3.006,3.006,0,0,1-2.669,1.342,2.857,2.857,0,0,1-2.091-.748,2.608,2.608,0,0,1-.766-1.955,2.565,2.565,0,0,1,1.03-2.192,4.8,4.8,0,0,1,2.915-.765h1.377V952.2a1.743,1.743,0,0,0-.459-1.359,2.079,2.079,0,0,0-1.412-.408,7.9,7.9,0,0,0-2.414.476l-.39-1.139a9.011,9.011,0,0,1,3.093-.613,3.236,3.236,0,0,1,2.364.774,2.966,2.966,0,0,1,.782,2.2v4.1A1.4,1.4,0,0,0,658.73,957.039Zm-2.056-12.333.7,1.309-3.6,1.462-.476-.834Zm.306,11.254V953.9h-1.173q-2.484,0-2.483,1.836a1.681,1.681,0,0,0,.392,1.207,1.526,1.526,0,0,0,1.155.407A2.333,2.333,0,0,0,656.98,955.96Z"/><path class="cls-1" d="M671.515,949.364v1.19l-4.675,6.46h4.725l-.186,1.309h-6.308v-1.174l4.659-6.459h-4.267v-1.326Z"/><path class="cls-1" d="M684.451,949.9a2.878,2.878,0,0,1,.663,2v6.426H683.55v-6.2q0-1.734-1.258-1.734a1.693,1.693,0,0,0-1.122.383,5.288,5.288,0,0,0-.985,1.2v6.358H678.62v-6.2q0-1.734-1.258-1.734a1.7,1.7,0,0,0-1.138.39,5.386,5.386,0,0,0-.97,1.191v6.358H673.69v-8.959h1.343l.136,1.309a3,3,0,0,1,2.584-1.514,2.257,2.257,0,0,1,2.262,1.615,4.2,4.2,0,0,1,1.164-1.2,2.694,2.694,0,0,1,1.5-.417A2.257,2.257,0,0,1,684.451,949.9Z"/><path class="cls-1" d="M694.991,954.379h-5.712a3.5,3.5,0,0,0,.748,2.176,2.173,2.173,0,0,0,1.666.7,3.663,3.663,0,0,0,1.191-.187,4.843,4.843,0,0,0,1.138-.6l.68.935a4.947,4.947,0,0,1-3.128,1.121,3.63,3.63,0,0,1-2.915-1.223,5.02,5.02,0,0,1-1.046-3.367,6.377,6.377,0,0,1,.451-2.472,3.872,3.872,0,0,1,1.292-1.692,3.277,3.277,0,0,1,1.981-.613,3.32,3.32,0,0,1,2.736,1.174,5.01,5.01,0,0,1,.952,3.246C695.025,953.841,695.014,954.106,694.991,954.379Zm-1.444-9.4.663.766-2.3,1.92h-1.036l-2.313-1.92.68-.766,2.143,1.428Zm-.068,8.143a3.3,3.3,0,0,0-.528-2.022,1.856,1.856,0,0,0-1.581-.7q-1.92,0-2.091,2.822h4.2Z"/><path class="cls-1" d="M703.652,949.891a2.808,2.808,0,0,1,.689,2.006v6.426h-1.564v-6.2a1.991,1.991,0,0,0-.357-1.344,1.36,1.36,0,0,0-1.054-.39,2.036,2.036,0,0,0-1.258.408,4.2,4.2,0,0,0-1.02,1.173v6.358h-1.564v-8.959h1.343L699,950.69a3.546,3.546,0,0,1,1.182-1.123,3.058,3.058,0,0,1,1.555-.408A2.5,2.5,0,0,1,703.652,949.891Z"/><path class="cls-1" d="M713.708,957.039a1.123,1.123,0,0,0,.562.4l-.358,1.088a2.381,2.381,0,0,1-1.122-.39,1.793,1.793,0,0,1-.629-.952,3,3,0,0,1-2.669,1.342,2.857,2.857,0,0,1-2.091-.748,2.611,2.611,0,0,1-.765-1.955,2.567,2.567,0,0,1,1.029-2.192,4.8,4.8,0,0,1,2.915-.765h1.377V952.2a1.74,1.74,0,0,0-.459-1.359,2.076,2.076,0,0,0-1.411-.408,7.9,7.9,0,0,0-2.414.476l-.391-1.139a9.021,9.021,0,0,1,3.094-.613,3.232,3.232,0,0,1,2.363.774,2.963,2.963,0,0,1,.783,2.2v4.1A1.4,1.4,0,0,0,713.708,957.039Zm-1.751-1.079V953.9h-1.173q-2.482,0-2.482,1.836a1.685,1.685,0,0,0,.391,1.207,1.529,1.529,0,0,0,1.156.407A2.333,2.333,0,0,0,711.957,955.96Z"/></svg>