<svg id="Layer_1" data-name="Layer 1" xmlns="http://www.w3.org/2000/svg" viewBox="0 0 733.593 976.451"><defs><style>.cls-1{fill:#999;}</style></defs><path d="M15.2,6.164a7.588,7.588,0,0,1,2.926,3.444,13.266,13.266,0,0,1,1.021,5.46A13.025,13.025,0,0,1,18.109,20.5a7.837,7.837,0,0,1-2.941,3.472,8.209,8.209,0,0,1-4.479,1.2A8.415,8.415,0,0,1,6.179,24,7.655,7.655,0,0,1,3.24,20.556,13.052,13.052,0,0,1,2.205,15.1,13,13,0,0,1,3.24,9.678,7.792,7.792,0,0,1,6.2,6.192a8.272,8.272,0,0,1,4.494-1.2A8.413,8.413,0,0,1,15.2,6.164Zm-7.924,3.4Q6.1,11.317,6.1,15.1q0,7.253,4.594,7.252a3.832,3.832,0,0,0,3.4-1.736q1.164-1.737,1.163-5.544,0-3.78-1.163-5.516a3.83,3.83,0,0,0-3.4-1.736A3.858,3.858,0,0,0,7.273,9.566Z"/><path d="M33.48,10.728a4.664,4.664,0,0,1,1.119,3.3V24.756H31.015V14.592a2.852,2.852,0,0,0-.461-1.848,1.7,1.7,0,0,0-1.359-.532,2.667,2.667,0,0,0-1.651.574,6.568,6.568,0,0,0-1.457,1.638V24.756H22.5V4.036l3.584-.364v8.036A5.412,5.412,0,0,1,30.4,9.524,4,4,0,0,1,33.48,10.728Z"/><path d="M47.564,9.748l-.617,3.472a5.412,5.412,0,0,0-1.317-.168,2.514,2.514,0,0,0-2.07.938,7.22,7.22,0,0,0-1.205,2.87v7.9H38.771V9.944h3.107l.336,2.912a5.345,5.345,0,0,1,1.541-2.45,3.491,3.491,0,0,1,2.325-.854A5.319,5.319,0,0,1,47.564,9.748Z"/><path d="M60.123,11.61a8.386,8.386,0,0,1,1.834,5.726,9.5,9.5,0,0,1-.842,4.1A6.381,6.381,0,0,1,58.709,24.2a6.894,6.894,0,0,1-3.725.98,6.5,6.5,0,0,1-5.125-2.086,8.38,8.38,0,0,1-1.848-5.754,9.437,9.437,0,0,1,.84-4.088A6.371,6.371,0,0,1,51.273,10.5a6.95,6.95,0,0,1,3.738-.98A6.457,6.457,0,0,1,60.123,11.61Zm-8.33,5.726a7.369,7.369,0,0,0,.8,3.878,2.914,2.914,0,0,0,4.789-.014,7.37,7.37,0,0,0,.8-3.864,7.291,7.291,0,0,0-.8-3.85,2.631,2.631,0,0,0-2.367-1.246Q51.792,12.24,51.793,17.336Z"/><path d="M74.724,9.944V12.52l-7.168,9.436h7.307l-.363,2.8H63.439V22.18l7.2-9.436h-6.58v-2.8ZM72.9,2.356l1.371,1.568-3.891,3.5h-2.24l-3.892-3.5,1.373-1.568L69.263,4.82Z"/><path d="M89.507,18.456h-9.3a4.712,4.712,0,0,0,1.122,3.08,3.461,3.461,0,0,0,2.519.924,5.288,5.288,0,0,0,1.848-.322,8.619,8.619,0,0,0,1.847-.994l1.485,2.044a8.521,8.521,0,0,1-5.488,1.988A6.605,6.605,0,0,1,78.322,23.1a8.23,8.23,0,0,1-1.834-5.656,10.128,10.128,0,0,1,.783-4.074,6.468,6.468,0,0,1,2.268-2.828,6.752,6.752,0,0,1,8.343.952A8.139,8.139,0,0,1,89.591,17C89.591,17.186,89.564,17.672,89.507,18.456Zm-3.472-2.492q0-3.891-2.883-3.892a2.448,2.448,0,0,0-2.059.966,5.767,5.767,0,0,0-.883,3.094h5.825Z"/><path d="M103.8,10.714a4.688,4.688,0,0,1,1.106,3.318V24.756h-3.584V14.592a2.845,2.845,0,0,0-.463-1.848,1.7,1.7,0,0,0-1.358-.532,2.655,2.655,0,0,0-1.666.574A6.517,6.517,0,0,0,96.4,14.452v10.3H92.812V9.944h3.107l.28,1.932a5.506,5.506,0,0,1,4.508-2.352A4.019,4.019,0,0,1,103.8,10.714Z"/><path d="M113,1.8l1.455,2.8-6.328,2.52L107.119,5.3Zm-.336,8.148V24.756H109.08V9.944Z"/><path d="M133.607,9.944V12.52l-7.168,9.436h7.309l-.364,2.8h-11.06V22.18l7.2-9.436h-6.58v-2.8Zm-1.82-7.588,1.373,1.568-3.893,3.5h-2.24l-3.891-3.5,1.371-1.568,3.641,2.464Z"/><path d="M139.949,3.07a2.112,2.112,0,0,1,.631,1.554,2.067,2.067,0,0,1-.631,1.54,2.244,2.244,0,0,1-1.639.616,2.205,2.205,0,0,1-1.609-.616,2.067,2.067,0,0,1-.631-1.54A2.112,2.112,0,0,1,136.7,3.07a2.18,2.18,0,0,1,1.609-.63A2.218,2.218,0,0,1,139.949,3.07Zm.181,6.874V24.756h-3.584V9.944Z"/><path d="M156.343,9.944l-4.816,14.812h-4.283l-4.9-14.812h3.893L149.4,21.872l3.248-11.928Z"/><path d="M169.544,11.61a8.371,8.371,0,0,1,1.834,5.726,9.5,9.5,0,0,1-.839,4.1A6.394,6.394,0,0,1,168.13,24.2a6.885,6.885,0,0,1-3.724.98,6.49,6.49,0,0,1-5.123-2.086,8.37,8.37,0,0,1-1.848-5.754,9.394,9.394,0,0,1,.84-4.088A6.359,6.359,0,0,1,160.7,10.5a6.95,6.95,0,0,1,3.738-.98A6.446,6.446,0,0,1,169.544,11.61Zm-8.33,5.726a7.347,7.347,0,0,0,.8,3.878A2.913,2.913,0,0,0,166.8,21.2a7.367,7.367,0,0,0,.8-3.864,7.289,7.289,0,0,0-.8-3.85,2.626,2.626,0,0,0-2.365-1.246Q161.216,12.24,161.214,17.336Z"/><path d="M183.222,24.056a5.692,5.692,0,0,1-1.75.84,7.061,7.061,0,0,1-1.972.28,4.4,4.4,0,0,1-3.319-1.246,5.105,5.105,0,0,1-1.135-3.6V12.52h-2.324V9.944h2.324V6.668l3.584-.42v3.7h3.446l-.366,2.576h-3.08v7.728a2.546,2.546,0,0,0,.379,1.568,1.429,1.429,0,0,0,1.19.476,3.649,3.649,0,0,0,1.763-.532Z"/><path d="M196.23,10.714a4.692,4.692,0,0,1,1.105,3.318V24.756h-3.583V14.592a2.845,2.845,0,0,0-.463-1.848,1.7,1.7,0,0,0-1.358-.532,2.653,2.653,0,0,0-1.666.574,6.517,6.517,0,0,0-1.441,1.666v10.3H185.24V9.944h3.107l.28,1.932a5.5,5.5,0,0,1,4.507-2.352A4.021,4.021,0,0,1,196.23,10.714Z"/><path d="M205.427,1.8l1.455,2.8-6.328,2.52L199.546,5.3Zm-.336,8.148V24.756h-3.584V9.944Z"/><path d="M220.91,10.728a4.665,4.665,0,0,1,1.121,3.3V24.756h-3.584V14.592a2.839,2.839,0,0,0-.463-1.848,1.7,1.7,0,0,0-1.357-.532,2.672,2.672,0,0,0-1.653.574,6.506,6.506,0,0,0-1.455,1.638V24.756h-3.584V4.036l3.584-.364v8.036a5.4,5.4,0,0,1,4.311-2.184A4,4,0,0,1,220.91,10.728Z"/><path d="M237.361,11.61a8.371,8.371,0,0,1,1.834,5.726,9.489,9.489,0,0,1-.84,4.1,6.392,6.392,0,0,1-2.408,2.758,6.886,6.886,0,0,1-3.725.98A6.493,6.493,0,0,1,227.1,23.09a8.374,8.374,0,0,1-1.847-5.754,9.408,9.408,0,0,1,.839-4.088,6.365,6.365,0,0,1,2.422-2.744,6.951,6.951,0,0,1,3.739-.98A6.449,6.449,0,0,1,237.361,11.61Zm-8.33,5.726a7.337,7.337,0,0,0,.8,3.878,2.913,2.913,0,0,0,4.787-.014,7.377,7.377,0,0,0,.8-3.864,7.3,7.3,0,0,0-.8-3.85,2.628,2.628,0,0,0-2.365-1.246Q229.032,12.24,229.031,17.336Z"/><path d="M261.371,11.568a10.4,10.4,0,0,1,1.343,5.74,11.267,11.267,0,0,1-.685,4.074,6.2,6.2,0,0,1-2.016,2.786,5.065,5.065,0,0,1-3.15,1.008,4.619,4.619,0,0,1-3.725-1.624v6.916l-3.584.392V9.944h3.137l.195,1.82a5.792,5.792,0,0,1,1.989-1.68,5.182,5.182,0,0,1,2.351-.56A4.614,4.614,0,0,1,261.371,11.568Zm-2.409,5.768a8.207,8.207,0,0,0-.7-3.92,2.279,2.279,0,0,0-2.1-1.2,2.885,2.885,0,0,0-1.68.546,4.77,4.77,0,0,0-1.344,1.47v6.664a3.149,3.149,0,0,0,2.717,1.54Q258.963,22.432,258.962,17.336Z"/><path d="M275.035,9.748l-.617,3.472a5.418,5.418,0,0,0-1.317-.168,2.514,2.514,0,0,0-2.07.938,7.22,7.22,0,0,0-1.2,2.87v7.9h-3.584V9.944h3.107l.336,2.912a5.337,5.337,0,0,1,1.541-2.45,3.488,3.488,0,0,1,2.324-.854A5.331,5.331,0,0,1,275.035,9.748Z"/><path d="M287.593,11.61a8.381,8.381,0,0,1,1.834,5.726,9.489,9.489,0,0,1-.842,4.1,6.368,6.368,0,0,1-2.406,2.758,6.89,6.89,0,0,1-3.724.98,6.5,6.5,0,0,1-5.125-2.086,8.38,8.38,0,0,1-1.848-5.754,9.422,9.422,0,0,1,.84-4.088,6.365,6.365,0,0,1,2.422-2.744,6.945,6.945,0,0,1,3.738-.98A6.453,6.453,0,0,1,287.593,11.61Zm-8.33,5.726a7.368,7.368,0,0,0,.8,3.878,2.914,2.914,0,0,0,4.789-.014,7.38,7.38,0,0,0,.8-3.864,7.3,7.3,0,0,0-.8-3.85,2.631,2.631,0,0,0-2.367-1.246Q279.261,12.24,279.263,17.336Z"/><path d="M302.726,11.288l-1.4,2.1a6.956,6.956,0,0,0-3.725-1.2,2.868,2.868,0,0,0-1.65.406,1.25,1.25,0,0,0-.588,1.078,1.361,1.361,0,0,0,.252.84,2.291,2.291,0,0,0,.908.63,15.157,15.157,0,0,0,1.947.658,8.537,8.537,0,0,1,3.571,1.708,3.828,3.828,0,0,1,1.162,2.968,3.979,3.979,0,0,1-1.793,3.458,7.617,7.617,0,0,1-4.451,1.246,9.415,9.415,0,0,1-3.319-.56,8.049,8.049,0,0,1-2.59-1.54l1.791-2.016a6.614,6.614,0,0,0,4.034,1.456,3.423,3.423,0,0,0,1.918-.476,1.5,1.5,0,0,0,.712-1.316,1.74,1.74,0,0,0-.265-1.022,2.192,2.192,0,0,0-.951-.672,20.121,20.121,0,0,0-2.143-.714,7.159,7.159,0,0,1-3.332-1.722,3.824,3.824,0,0,1-1.064-2.758,3.664,3.664,0,0,1,.714-2.212,4.737,4.737,0,0,1,2.016-1.54,7.467,7.467,0,0,1,2.982-.56A8.332,8.332,0,0,1,302.726,11.288Z"/><path d="M314.6,24.056a5.692,5.692,0,0,1-1.75.84,7.061,7.061,0,0,1-1.972.28,4.4,4.4,0,0,1-3.319-1.246,5.105,5.105,0,0,1-1.135-3.6V12.52H304.1V9.944h2.324V6.668l3.584-.42v3.7h3.446l-.366,2.576h-3.08v7.728a2.546,2.546,0,0,0,.379,1.568,1.429,1.429,0,0,0,1.19.476,3.649,3.649,0,0,0,1.763-.532Z"/><path d="M324.707,2.356l1.371,1.568-3.893,3.5h-2.238l-3.893-3.5,1.371-1.568,3.641,2.464Zm.7,7.392-.615,3.472a5.43,5.43,0,0,0-1.317-.168,2.518,2.518,0,0,0-2.072.938,7.193,7.193,0,0,0-1.2,2.87v7.9h-3.584V9.944h3.107l.336,2.912a5.318,5.318,0,0,1,1.539-2.45,3.492,3.492,0,0,1,2.324-.854A5.316,5.316,0,0,1,325.406,9.748Z"/><path d="M338.875,18.456h-9.3a4.707,4.707,0,0,0,1.121,3.08,3.463,3.463,0,0,0,2.519.924,5.284,5.284,0,0,0,1.848-.322,8.648,8.648,0,0,0,1.848-.994l1.484,2.044a8.521,8.521,0,0,1-5.488,1.988,6.607,6.607,0,0,1-5.221-2.072,8.23,8.23,0,0,1-1.834-5.656,10.128,10.128,0,0,1,.783-4.074,6.482,6.482,0,0,1,2.268-2.828,6.754,6.754,0,0,1,8.344.952,8.144,8.144,0,0,1,1.709,5.5Q338.959,17.279,338.875,18.456ZM335.4,15.964q0-3.891-2.883-3.892a2.45,2.45,0,0,0-2.059.966,5.759,5.759,0,0,0-.882,3.094H335.4Z"/><path d="M354.638,4.008V24.756h-3.164l-.252-1.876a5.194,5.194,0,0,1-1.779,1.68,4.855,4.855,0,0,1-2.449.616,4.77,4.77,0,0,1-4.172-2.1,9.875,9.875,0,0,1-1.457-5.712,10.587,10.587,0,0,1,.728-4.046,6.394,6.394,0,0,1,2.086-2.786,5.265,5.265,0,0,1,6.875.588v-7.5ZM349.681,22a4.745,4.745,0,0,0,1.373-1.442V13.78a5.166,5.166,0,0,0-1.3-1.176,2.933,2.933,0,0,0-1.526-.392,2.558,2.558,0,0,0-2.254,1.274,7.171,7.171,0,0,0-.826,3.85,7.911,7.911,0,0,0,.727,3.934A2.348,2.348,0,0,0,348,22.46,3.063,3.063,0,0,0,349.681,22Z"/><path d="M363.4,1.8l1.457,2.8-6.328,2.52L357.523,5.3Zm-.336,8.148V24.756h-3.584V9.944Z"/><path d="M9.861,48.683a3.485,3.485,0,0,1,1.3,2.951,3.638,3.638,0,0,1-1.35,3.108,5.815,5.815,0,0,1-3.59,1.018H4.607v4.68H2.849V47.694H6.2A5.926,5.926,0,0,1,9.861,48.683Zm-1.377,5.1a2.482,2.482,0,0,0,.8-2.127,2.331,2.331,0,0,0-.8-1.98,3.757,3.757,0,0,0-2.3-.61H4.607v5.309H6.142A3.912,3.912,0,0,0,8.484,53.78Z"/><path d="M19.8,51.838a5.633,5.633,0,0,1,1.139,3.719,6.5,6.5,0,0,1-.518,2.672,4.061,4.061,0,0,1-1.5,1.8,4.176,4.176,0,0,1-2.332.638,3.949,3.949,0,0,1-3.2-1.369,5.611,5.611,0,0,1-1.146-3.718,6.5,6.5,0,0,1,.517-2.673,4.07,4.07,0,0,1,1.5-1.8,4.213,4.213,0,0,1,2.35-.638A3.916,3.916,0,0,1,19.8,51.838ZM14.08,55.575q0,3.718,2.515,3.718t2.516-3.736q0-3.718-2.5-3.719Q14.077,51.838,14.08,55.575Z"/><path d="M31.3,46.769V60.44H29.8l-.166-1.35a3.538,3.538,0,0,1-1.2,1.156,3.352,3.352,0,0,1-4.32-.953,6.246,6.246,0,0,1-.971-3.681,7.166,7.166,0,0,1,.463-2.664,4.13,4.13,0,0,1,1.332-1.823,3.287,3.287,0,0,1,2.035-.656,3.505,3.505,0,0,1,2.627,1.2V46.565ZM28.527,58.951A4.159,4.159,0,0,0,29.6,57.869V53.1a3.724,3.724,0,0,0-1.027-.953,2.375,2.375,0,0,0-1.231-.324,1.976,1.976,0,0,0-1.748.944,5.159,5.159,0,0,0-.619,2.812,5.471,5.471,0,0,0,.572,2.812,1.829,1.829,0,0,0,1.647.925A2.382,2.382,0,0,0,28.527,58.951Z"/><path d="M41.488,51.265a3.059,3.059,0,0,1,.748,2.182V60.44h-1.7V53.688a2.158,2.158,0,0,0-.389-1.462A1.478,1.478,0,0,0,39,51.8a2.223,2.223,0,0,0-1.37.444,4.6,4.6,0,0,0-1.109,1.276V60.44h-1.7V50.691h1.461l.148,1.443a3.865,3.865,0,0,1,1.285-1.221,3.325,3.325,0,0,1,1.694-.444A2.721,2.721,0,0,1,41.488,51.265Z"/><path d="M52.429,59.043a1.239,1.239,0,0,0,.612.435l-.389,1.184a2.606,2.606,0,0,1-1.221-.425,1.948,1.948,0,0,1-.685-1.036,3.269,3.269,0,0,1-2.905,1.461,3.118,3.118,0,0,1-2.275-.813,2.843,2.843,0,0,1-.832-2.128,2.8,2.8,0,0,1,1.119-2.387,5.238,5.238,0,0,1,3.172-.832h1.5V53.78a1.9,1.9,0,0,0-.5-1.48,2.263,2.263,0,0,0-1.535-.444,8.6,8.6,0,0,0-2.627.518l-.426-1.239a9.809,9.809,0,0,1,3.367-.666,3.518,3.518,0,0,1,2.571.841,3.219,3.219,0,0,1,.851,2.4v4.459A1.532,1.532,0,0,0,52.429,59.043Zm-1.9-1.174V55.63H49.248q-2.7,0-2.7,2a1.833,1.833,0,0,0,.426,1.314,1.663,1.663,0,0,0,1.258.444A2.542,2.542,0,0,0,50.525,57.869Z"/><path d="M63.271,46.769V60.44h-1.5l-.166-1.35a3.524,3.524,0,0,1-1.2,1.156,3.175,3.175,0,0,1-1.611.416,3.131,3.131,0,0,1-2.709-1.369,6.232,6.232,0,0,1-.971-3.681,7.167,7.167,0,0,1,.461-2.664,4.123,4.123,0,0,1,1.332-1.823,3.287,3.287,0,0,1,2.035-.656,3.5,3.5,0,0,1,2.627,1.2V46.565ZM60.5,58.951a4.185,4.185,0,0,0,1.072-1.082V53.1a3.691,3.691,0,0,0-1.025-.953,2.385,2.385,0,0,0-1.231-.324,1.972,1.972,0,0,0-1.748.944,5.157,5.157,0,0,0-.621,2.812,5.439,5.439,0,0,0,.574,2.812,1.829,1.829,0,0,0,1.647.925A2.391,2.391,0,0,0,60.5,58.951Z"/><path d="M74,51.8a6.866,6.866,0,0,1,.869,3.756,6.252,6.252,0,0,1-1,3.7,3.266,3.266,0,0,1-2.83,1.406,3.143,3.143,0,0,1-2.553-1.11v4.625l-1.7.2V50.691h1.461L68.377,52a3.727,3.727,0,0,1,1.294-1.137,3.379,3.379,0,0,1,1.592-.4A3.036,3.036,0,0,1,74,51.8Zm-.963,3.756q0-3.738-2.2-3.738a2.2,2.2,0,0,0-1.314.426,4.191,4.191,0,0,0-1.035,1.091v4.755a2.565,2.565,0,0,0,.926.879,2.487,2.487,0,0,0,1.22.3Q73.04,59.275,73.039,55.557Z"/><path d="M79.476,46.343a1.128,1.128,0,0,1,.334.833,1.094,1.094,0,0,1-.334.823,1.2,1.2,0,0,1-.869.324A1.173,1.173,0,0,1,77.755,48a1.1,1.1,0,0,1-.332-.823,1.13,1.13,0,0,1,.332-.833,1.155,1.155,0,0,1,.852-.333A1.177,1.177,0,0,1,79.476,46.343Zm0,4.348V60.44h-1.7V50.691Z"/><path d="M87.431,50.746a5.48,5.48,0,0,1,1.518.833l-.723,1.073a5.883,5.883,0,0,0-1.267-.629,3.915,3.915,0,0,0-1.266-.2,2.224,2.224,0,0,0-1.315.343,1.16,1.16,0,0,0-.027,1.859,5.235,5.235,0,0,0,1.637.647,5.866,5.866,0,0,1,2.433,1.11,2.427,2.427,0,0,1,.8,1.925,2.5,2.5,0,0,1-1.119,2.2,4.753,4.753,0,0,1-2.73.758,5.387,5.387,0,0,1-3.68-1.276L82.6,58.35a4.413,4.413,0,0,0,2.738.943,2.6,2.6,0,0,0,1.526-.4,1.252,1.252,0,0,0,.564-1.082,1.43,1.43,0,0,0-.2-.8,1.662,1.662,0,0,0-.7-.537,9.71,9.71,0,0,0-1.463-.49,4.977,4.977,0,0,1-2.246-1.091,2.342,2.342,0,0,1-.7-1.74,2.288,2.288,0,0,1,.453-1.378,2.943,2.943,0,0,1,1.26-.962,4.555,4.555,0,0,1,1.8-.342A5.433,5.433,0,0,1,87.431,50.746Z"/><path d="M103.748,51.8a6.848,6.848,0,0,1,.869,3.756,6.251,6.251,0,0,1-1,3.7,3.266,3.266,0,0,1-2.83,1.406,3.14,3.14,0,0,1-2.553-1.11v4.625l-1.7.2V50.691h1.461L98.125,52a3.727,3.727,0,0,1,1.294-1.137,3.371,3.371,0,0,1,1.59-.4A3.035,3.035,0,0,1,103.748,51.8Zm-.961,3.756q0-3.738-2.2-3.738a2.2,2.2,0,0,0-1.313.426,4.175,4.175,0,0,0-1.035,1.091v4.755a2.576,2.576,0,0,0,.924.879,2.5,2.5,0,0,0,1.22.3Q102.786,59.275,102.787,55.557Z"/><path d="M114.377,51.838a5.649,5.649,0,0,1,1.136,3.719A6.479,6.479,0,0,1,115,58.229a4.061,4.061,0,0,1-1.5,1.8,4.178,4.178,0,0,1-2.33.638,3.947,3.947,0,0,1-3.2-1.369,5.605,5.605,0,0,1-1.146-3.718,6.487,6.487,0,0,1,.517-2.673,4.066,4.066,0,0,1,1.5-1.8,4.222,4.222,0,0,1,2.35-.638A3.92,3.92,0,0,1,114.377,51.838Zm-5.727,3.737q0,3.718,2.518,3.718t2.515-3.736q0-3.718-2.5-3.719Q108.652,51.838,108.65,55.575Z"/><path d="M125.875,46.769V60.44h-1.5l-.166-1.35a3.527,3.527,0,0,1-1.2,1.156,3.17,3.17,0,0,1-1.611.416,3.133,3.133,0,0,1-2.709-1.369,6.239,6.239,0,0,1-.971-3.681,7.187,7.187,0,0,1,.461-2.664,4.13,4.13,0,0,1,1.332-1.823,3.287,3.287,0,0,1,2.035-.656,3.5,3.5,0,0,1,2.627,1.2V46.565ZM123.1,58.951a4.17,4.17,0,0,0,1.072-1.082V53.1a3.691,3.691,0,0,0-1.025-.953,2.379,2.379,0,0,0-1.23-.324,1.972,1.972,0,0,0-1.748.944,5.148,5.148,0,0,0-.622,2.812,5.437,5.437,0,0,0,.575,2.812,1.827,1.827,0,0,0,1.646.925A2.389,2.389,0,0,0,123.1,58.951Z"/><path d="M136.058,51.265a3.059,3.059,0,0,1,.748,2.182V60.44h-1.7V53.688a2.158,2.158,0,0,0-.389-1.462,1.475,1.475,0,0,0-1.146-.425,2.218,2.218,0,0,0-1.369.444,4.589,4.589,0,0,0-1.11,1.276V60.44h-1.7V50.691h1.461L131,52.134a3.846,3.846,0,0,1,1.285-1.221,3.319,3.319,0,0,1,1.693-.444A2.719,2.719,0,0,1,136.058,51.265Z"/><path d="M147,59.043a1.217,1.217,0,0,0,.609.435l-.387,1.184A2.607,2.607,0,0,1,146,60.237a1.941,1.941,0,0,1-.684-1.036,3.272,3.272,0,0,1-2.9,1.461,3.117,3.117,0,0,1-2.276-.813,2.849,2.849,0,0,1-.834-2.128,2.794,2.794,0,0,1,1.121-2.387A5.234,5.234,0,0,1,143.6,54.5h1.5V53.78a1.894,1.894,0,0,0-.5-1.48,2.255,2.255,0,0,0-1.535-.444,8.606,8.606,0,0,0-2.627.518l-.426-1.239a9.819,9.819,0,0,1,3.368-.666,3.522,3.522,0,0,1,2.572.841,3.227,3.227,0,0,1,.851,2.4v4.459A1.516,1.516,0,0,0,147,59.043ZM145.1,57.869V55.63H143.82q-2.7,0-2.7,2a1.824,1.824,0,0,0,.425,1.314,1.666,1.666,0,0,0,1.258.444A2.54,2.54,0,0,0,145.1,57.869Z"/><path d="M157.841,46.769V60.44h-1.5l-.166-1.35a3.538,3.538,0,0,1-1.2,1.156,3.352,3.352,0,0,1-4.32-.953,6.246,6.246,0,0,1-.971-3.681,7.166,7.166,0,0,1,.463-2.664,4.13,4.13,0,0,1,1.332-1.823,3.287,3.287,0,0,1,2.035-.656,3.505,3.505,0,0,1,2.627,1.2V46.565Zm-2.775,12.182a4.159,4.159,0,0,0,1.074-1.082V53.1a3.724,3.724,0,0,0-1.027-.953,2.372,2.372,0,0,0-1.231-.324,1.976,1.976,0,0,0-1.748.944,5.159,5.159,0,0,0-.619,2.812,5.471,5.471,0,0,0,.572,2.812,1.829,1.829,0,0,0,1.647.925A2.382,2.382,0,0,0,155.066,58.951Z"/><path d="M168.572,51.8a6.866,6.866,0,0,1,.869,3.756,6.252,6.252,0,0,1-1,3.7,3.265,3.265,0,0,1-2.83,1.406,3.143,3.143,0,0,1-2.553-1.11v4.625l-1.7.2V50.691h1.461L162.947,52a3.721,3.721,0,0,1,1.295-1.137,3.376,3.376,0,0,1,1.592-.4A3.033,3.033,0,0,1,168.572,51.8Zm-.963,3.756q0-3.738-2.2-3.738a2.2,2.2,0,0,0-1.315.426,4.208,4.208,0,0,0-1.035,1.091v4.755a2.565,2.565,0,0,0,.926.879,2.489,2.489,0,0,0,1.221.3Q167.609,59.275,167.609,55.557Z"/><path d="M174.048,46.343a1.134,1.134,0,0,1,.332.833,1.1,1.1,0,0,1-.332.823,1.2,1.2,0,0,1-.871.324,1.162,1.162,0,0,1-.849-.324,1.094,1.094,0,0,1-.334-.823,1.128,1.128,0,0,1,.334-.833,1.145,1.145,0,0,1,.849-.333A1.179,1.179,0,0,1,174.048,46.343Zm0,4.348V60.44h-1.7V50.691Z"/><path d="M182,50.746a5.405,5.405,0,0,1,1.517.833l-.721,1.073a5.928,5.928,0,0,0-1.267-.629,3.922,3.922,0,0,0-1.268-.2,2.229,2.229,0,0,0-1.314.343,1.159,1.159,0,0,0-.028,1.859,5.252,5.252,0,0,0,1.639.647,5.874,5.874,0,0,1,2.432,1.11,2.423,2.423,0,0,1,.8,1.925,2.5,2.5,0,0,1-1.119,2.2,4.747,4.747,0,0,1-2.728.758,5.394,5.394,0,0,1-3.682-1.276l.906-1.036a4.422,4.422,0,0,0,2.739.943,2.594,2.594,0,0,0,1.525-.4A1.253,1.253,0,0,0,182,57.813a1.414,1.414,0,0,0-.2-.8,1.631,1.631,0,0,0-.7-.537,9.671,9.671,0,0,0-1.461-.49,5,5,0,0,1-2.248-1.091,2.34,2.34,0,0,1-.693-1.74,2.275,2.275,0,0,1,.453-1.378,2.943,2.943,0,0,1,1.258-.962,4.577,4.577,0,0,1,1.805-.342A5.417,5.417,0,0,1,182,50.746Z"/><path class="cls-1" d="M257.705,946.61v1.308l-5.8,9.028h5.8l-.188,1.377h-7.412v-1.292l5.848-9.062h-5.237V946.61Z"/><path class="cls-1" d="M266.646,945.759v12.564h-1.377l-.152-1.242a3.242,3.242,0,0,1-1.106,1.063,2.91,2.91,0,0,1-1.48.383,2.881,2.881,0,0,1-2.49-1.259,5.745,5.745,0,0,1-.893-3.383,6.6,6.6,0,0,1,.426-2.447,3.779,3.779,0,0,1,1.224-1.675,3.018,3.018,0,0,1,1.87-.6,3.219,3.219,0,0,1,2.414,1.1v-4.691ZM264.1,956.954a3.8,3.8,0,0,0,.987-1v-4.385a3.384,3.384,0,0,0-.944-.876,2.166,2.166,0,0,0-1.131-.3,1.813,1.813,0,0,0-1.605.866,4.734,4.734,0,0,0-.57,2.584,5,5,0,0,0,.527,2.584,1.679,1.679,0,0,0,1.514.851A2.195,2.195,0,0,0,264.1,956.954Z"/><path class="cls-1" d="M274.652,949.261l-.289,1.53a3.209,3.209,0,0,0-.781-.1,1.667,1.667,0,0,0-1.344.611,4.554,4.554,0,0,0-.8,1.9v5.118h-1.562v-8.959h1.341l.155,1.818a3.385,3.385,0,0,1,.968-1.513,2.162,2.162,0,0,1,1.428-.509A3.689,3.689,0,0,1,274.652,949.261Z"/><path class="cls-1" d="M282.226,950.417a5.184,5.184,0,0,1,1.045,3.417,5.956,5.956,0,0,1-.475,2.456,3.74,3.74,0,0,1-1.377,1.65,3.851,3.851,0,0,1-2.142.587,3.63,3.63,0,0,1-2.942-1.259,5.152,5.152,0,0,1-1.054-3.417,5.975,5.975,0,0,1,.476-2.456,3.73,3.73,0,0,1,1.377-1.649,3.876,3.876,0,0,1,2.16-.586A3.6,3.6,0,0,1,282.226,950.417Zm-5.262,3.434q0,3.417,2.313,3.417t2.312-3.434q0-3.417-2.3-3.417Q276.963,950.417,276.964,953.851Z"/><path class="cls-1" d="M287.384,957.779a5.367,5.367,0,0,1-.3,1.988,2.959,2.959,0,0,1-.893,1.216,7.856,7.856,0,0,1-1.641.943l-.459-1.139a4.7,4.7,0,0,0,1.02-.6,1.786,1.786,0,0,0,.535-.833,4.818,4.818,0,0,0,.18-1.471v-8.516h1.562Zm.018-12.41a1.034,1.034,0,0,1,.307.764,1.006,1.006,0,0,1-.307.757,1.1,1.1,0,0,1-.8.3,1.075,1.075,0,0,1-.781-.3,1.006,1.006,0,0,1-.307-.757,1.034,1.034,0,0,1,.307-.764,1.053,1.053,0,0,1,.781-.306A1.076,1.076,0,0,1,287.4,945.369Z"/><path class="cls-1" d="M302.056,945.759v12.564h-1.377l-.152-1.242a3.242,3.242,0,0,1-1.106,1.063,3.078,3.078,0,0,1-3.97-.876,5.745,5.745,0,0,1-.893-3.383,6.6,6.6,0,0,1,.426-2.447,3.773,3.773,0,0,1,1.225-1.675,3.013,3.013,0,0,1,1.869-.6,3.218,3.218,0,0,1,2.414,1.1v-4.691Zm-2.551,11.195a3.8,3.8,0,0,0,.987-1v-4.385a3.384,3.384,0,0,0-.944-.876,2.165,2.165,0,0,0-1.13-.3,1.814,1.814,0,0,0-1.606.866,4.734,4.734,0,0,0-.57,2.584,5.005,5.005,0,0,0,.527,2.584,1.682,1.682,0,0,0,1.514.851A2.192,2.192,0,0,0,299.505,956.954Z"/><path class="cls-1" d="M311.507,957.038a1.14,1.14,0,0,0,.563.4l-.358,1.088a2.415,2.415,0,0,1-1.123-.392,1.791,1.791,0,0,1-.629-.952,3,3,0,0,1-2.667,1.344,2.86,2.86,0,0,1-2.092-.748,2.614,2.614,0,0,1-.766-1.955,2.571,2.571,0,0,1,1.029-2.194,4.824,4.824,0,0,1,2.916-.764h1.377V952.2a1.75,1.75,0,0,0-.459-1.361,2.084,2.084,0,0,0-1.412-.408,7.891,7.891,0,0,0-2.414.477l-.39-1.139a9.017,9.017,0,0,1,3.093-.612,3.234,3.234,0,0,1,2.364.773,2.96,2.96,0,0,1,.783,2.2v4.1A1.4,1.4,0,0,0,311.507,957.038Zm-1.75-1.079V953.9h-1.173q-2.483,0-2.483,1.836a1.678,1.678,0,0,0,.393,1.207,1.525,1.525,0,0,0,1.154.407A2.333,2.333,0,0,0,309.757,955.959Z"/><path class="cls-1" d="M319.056,957.914a3.435,3.435,0,0,1-2.006.613,2.367,2.367,0,0,1-1.777-.656,2.608,2.608,0,0,1-.637-1.895v-5.4h-1.564v-1.207h1.564V947.34l1.565-.186v2.21h2.125l-.17,1.207H316.2v5.338a1.651,1.651,0,0,0,.246,1.011.987.987,0,0,0,.824.315,2.546,2.546,0,0,0,1.189-.358Z"/><path class="cls-1" d="M322,950.247a1.134,1.134,0,0,1,.339.833,1.161,1.161,0,0,1-.339.842,1.137,1.137,0,0,1-.85.349,1.117,1.117,0,0,1-.834-.349,1.158,1.158,0,0,1-.34-.842,1.159,1.159,0,0,1,1.174-1.172A1.156,1.156,0,0,1,322,950.247Zm0,6.256a1.136,1.136,0,0,1,.339.833,1.163,1.163,0,0,1-.339.842,1.137,1.137,0,0,1-.85.349,1.117,1.117,0,0,1-.834-.349,1.16,1.16,0,0,1-.34-.842,1.161,1.161,0,0,1,1.174-1.173A1.156,1.156,0,0,1,322,956.5Z"/><path class="cls-1" d="M337.058,946.61l-3.738,11.713h-1.735L327.81,946.61h1.734l2.942,9.962,2.941-9.962Z"/><path class="cls-1" d="M342.193,958.373a6.05,6.05,0,0,1-1.471,2.474,4.438,4.438,0,0,1-2.693,1.1l-.17-1.225a4.6,4.6,0,0,0,1.41-.441,2.449,2.449,0,0,0,.842-.741,5.211,5.211,0,0,0,.586-1.214h-.528l-3.007-8.959h1.666l2.4,7.819,2.346-7.819h1.615Zm.324-13.668.695,1.309-3.6,1.462-.477-.833Z"/><path class="cls-1" d="M352.222,949.364v1.189l-4.674,6.46h4.725l-.186,1.31h-6.308V957.15l4.658-6.46h-4.266v-1.326Z"/><path class="cls-1" d="M355.962,945.573v12.75H354.4V945.759Zm5.151,3.791-3.3,3.961,3.672,5h-1.871l-3.553-4.9,3.3-4.062Z"/><path class="cls-1" d="M369.648,958.323H368.3l-.119-1.395a3.394,3.394,0,0,1-1.174,1.216,3.172,3.172,0,0,1-1.613.383,2.383,2.383,0,0,1-1.836-.714,2.862,2.862,0,0,1-.664-2.024v-6.425h1.564v6.256a2.034,2.034,0,0,0,.323,1.3,1.307,1.307,0,0,0,1.054.382,2.662,2.662,0,0,0,2.245-1.547v-6.391h1.564Z"/><path class="cls-1" d="M383.638,949.9a2.873,2.873,0,0,1,.664,2v6.426h-1.564v-6.2q0-1.736-1.258-1.735a1.7,1.7,0,0,0-1.123.383,5.311,5.311,0,0,0-.984,1.2v6.359h-1.565v-6.2q0-1.736-1.258-1.735a1.689,1.689,0,0,0-1.138.392,5.345,5.345,0,0,0-.971,1.189v6.359h-1.563v-8.959h1.342l.137,1.308a3,3,0,0,1,2.584-1.512,2.251,2.251,0,0,1,2.262,1.615,4.163,4.163,0,0,1,1.164-1.2,2.682,2.682,0,0,1,1.5-.416A2.255,2.255,0,0,1,383.638,949.9Z"/><path class="cls-1" d="M397.91,946.677a5.39,5.39,0,0,1,1.47.884L398.5,948.6a3.542,3.542,0,0,0-2.26-.866,2.864,2.864,0,0,0-2.356,1.121,7.669,7.669,0,0,0-.007,7.166,2.811,2.811,0,0,0,2.345,1.147,3.152,3.152,0,0,0,1.309-.254,6.845,6.845,0,0,0,1.189-.714l.8,1.019a4.332,4.332,0,0,1-1.392.936,4.828,4.828,0,0,1-1.955.374,4.49,4.49,0,0,1-4.276-2.781,7.912,7.912,0,0,1-.621-3.289,7.632,7.632,0,0,1,.647-3.289,4.75,4.75,0,0,1,1.75-2.066,4.527,4.527,0,0,1,2.464-.7A5.092,5.092,0,0,1,397.91,946.677Zm.484-3.807.662.764-2.295,1.87h-1.037l-2.31-1.87.679-.764,2.143,1.376Z"/><path class="cls-1" d="M407.863,954.378h-5.711a3.48,3.48,0,0,0,.748,2.176,2.167,2.167,0,0,0,1.666.7,3.655,3.655,0,0,0,1.189-.186,4.743,4.743,0,0,0,1.139-.6l.68.936a4.948,4.948,0,0,1-3.127,1.122,3.627,3.627,0,0,1-2.916-1.225,5.014,5.014,0,0,1-1.045-3.366,6.364,6.364,0,0,1,.451-2.473,3.873,3.873,0,0,1,1.291-1.691,3.277,3.277,0,0,1,1.981-.612,3.32,3.32,0,0,1,2.736,1.172,5.017,5.017,0,0,1,.953,3.247C407.9,953.84,407.886,954.107,407.863,954.378Zm-1.512-1.257a3.318,3.318,0,0,0-.527-2.024,1.86,1.86,0,0,0-1.582-.7q-1.92,0-2.09,2.821h4.2Z"/><path class="cls-1" d="M414.476,949.414a4.959,4.959,0,0,1,1.395.765l-.664.986a5.462,5.462,0,0,0-1.164-.578,3.622,3.622,0,0,0-1.165-.186,2.048,2.048,0,0,0-1.207.314,1.066,1.066,0,0,0-.025,1.708,4.81,4.81,0,0,0,1.5.6,5.4,5.4,0,0,1,2.236,1.02,2.229,2.229,0,0,1,.739,1.768,2.289,2.289,0,0,1-1.028,2.023,4.361,4.361,0,0,1-2.508.7,4.954,4.954,0,0,1-3.382-1.174l.832-.951a4.059,4.059,0,0,0,2.517.866,2.4,2.4,0,0,0,1.4-.365,1.153,1.153,0,0,0,.517-.994,1.309,1.309,0,0,0-.187-.74,1.525,1.525,0,0,0-.645-.493,9,9,0,0,0-1.344-.451,4.586,4.586,0,0,1-2.066-1,2.151,2.151,0,0,1-.637-1.6,2.1,2.1,0,0,1,.416-1.266,2.71,2.71,0,0,1,1.156-.884,4.2,4.2,0,0,1,1.659-.314A5.006,5.006,0,0,1,414.476,949.414Z"/><path class="cls-1" d="M419.9,945.573v12.75h-1.565V945.759Zm5.15,3.791-3.3,3.961,3.672,5h-1.871l-3.552-4.9,3.3-4.062Z"/><path class="cls-1" d="M433.005,957.038a1.14,1.14,0,0,0,.563.4l-.358,1.088a2.415,2.415,0,0,1-1.123-.392,1.784,1.784,0,0,1-.628-.952,3,3,0,0,1-2.668,1.344,2.862,2.862,0,0,1-2.092-.748,2.614,2.614,0,0,1-.766-1.955,2.571,2.571,0,0,1,1.029-2.194,4.824,4.824,0,0,1,2.916-.764h1.377V952.2a1.75,1.75,0,0,0-.459-1.361,2.084,2.084,0,0,0-1.412-.408,7.891,7.891,0,0,0-2.414.477l-.39-1.139a9.017,9.017,0,0,1,3.093-.612,3.234,3.234,0,0,1,2.364.773,2.96,2.96,0,0,1,.783,2.2v4.1A1.4,1.4,0,0,0,433.005,957.038Zm-2.056-12.333.7,1.309-3.6,1.462-.477-.833Zm.306,11.254V953.9h-1.173q-2.482,0-2.483,1.836a1.678,1.678,0,0,0,.393,1.207,1.526,1.526,0,0,0,1.154.407A2.332,2.332,0,0,0,431.255,955.959Z"/><path class="cls-1" d="M444.617,949.414a4.941,4.941,0,0,1,1.394.765l-.664.986a5.439,5.439,0,0,0-1.164-.578,3.616,3.616,0,0,0-1.164-.186,2.046,2.046,0,0,0-1.207.314,1.066,1.066,0,0,0-.025,1.708,4.81,4.81,0,0,0,1.5.6,5.4,5.4,0,0,1,2.236,1.02,2.228,2.228,0,0,1,.738,1.768,2.29,2.29,0,0,1-1.027,2.023,4.365,4.365,0,0,1-2.508.7,4.958,4.958,0,0,1-3.383-1.174l.832-.951a4.064,4.064,0,0,0,2.518.866,2.393,2.393,0,0,0,1.4-.365,1.152,1.152,0,0,0,.518-.994,1.309,1.309,0,0,0-.188-.74,1.528,1.528,0,0,0-.644-.493,9,9,0,0,0-1.344-.451,4.581,4.581,0,0,1-2.066-1,2.151,2.151,0,0,1-.637-1.6,2.1,2.1,0,0,1,.416-1.266,2.7,2.7,0,0,1,1.156-.884,4.192,4.192,0,0,1,1.658-.314A5.013,5.013,0,0,1,444.617,949.414Z"/><path class="cls-1" d="M455.107,950.383a6.313,6.313,0,0,1,.8,3.451,5.758,5.758,0,0,1-.918,3.4,3.005,3.005,0,0,1-2.6,1.292,2.886,2.886,0,0,1-2.345-1.021v4.25l-1.565.188v-12.58h1.344l.119,1.207a3.433,3.433,0,0,1,1.189-1.046,3.114,3.114,0,0,1,1.461-.365A2.79,2.79,0,0,1,455.107,950.383Zm-.885,3.451q0-3.433-2.023-3.433a2.025,2.025,0,0,0-1.207.39,3.838,3.838,0,0,0-.951,1v4.369a2.347,2.347,0,0,0,.849.808,2.293,2.293,0,0,0,1.123.28Q454.222,957.251,454.222,953.834Z"/><path class="cls-1" d="M464.873,950.417a5.184,5.184,0,0,1,1.045,3.417,5.972,5.972,0,0,1-.475,2.456,3.74,3.74,0,0,1-1.377,1.65,3.854,3.854,0,0,1-2.143.587,3.628,3.628,0,0,1-2.941-1.259,5.152,5.152,0,0,1-1.055-3.417,5.959,5.959,0,0,1,.477-2.456,3.717,3.717,0,0,1,1.377-1.649,3.871,3.871,0,0,1,2.16-.586A3.6,3.6,0,0,1,464.873,950.417Zm-5.262,3.434q0,3.417,2.312,3.417t2.313-3.434q0-3.417-2.3-3.417Q459.609,950.417,459.611,953.851Z"/><path class="cls-1" d="M468.918,958.008a2.006,2.006,0,0,1-.5-1.454V945.759l1.562-.186v10.948a.907.907,0,0,0,.129.544.506.506,0,0,0,.434.17,1.531,1.531,0,0,0,.578-.1l.406,1.088a2.544,2.544,0,0,1-1.24.307A1.815,1.815,0,0,1,468.918,958.008Z"/><path class="cls-1" d="M480.13,954.378h-5.712a3.491,3.491,0,0,0,.748,2.176,2.168,2.168,0,0,0,1.666.7,3.663,3.663,0,0,0,1.191-.186,4.818,4.818,0,0,0,1.139-.6l.679.936a4.949,4.949,0,0,1-3.129,1.122A3.624,3.624,0,0,1,473.8,957.3a5.014,5.014,0,0,1-1.046-3.366,6.364,6.364,0,0,1,.451-2.473,3.862,3.862,0,0,1,1.293-1.691,3.272,3.272,0,0,1,1.98-.612,3.318,3.318,0,0,1,2.736,1.172,5.016,5.016,0,0,1,.952,3.247C480.164,953.84,480.152,954.107,480.13,954.378Zm-1.513-1.257a3.311,3.311,0,0,0-.528-2.024,1.852,1.852,0,0,0-1.58-.7q-1.922,0-2.091,2.821h4.2Z"/><path class="cls-1" d="M487.388,949.389a4.07,4.07,0,0,1,1.276.739l-.748.987a3.859,3.859,0,0,0-.926-.5,2.928,2.928,0,0,0-.994-.161,1.941,1.941,0,0,0-1.692.867,4.5,4.5,0,0,0-.6,2.566,4.253,4.253,0,0,0,.593,2.508,1.987,1.987,0,0,0,1.7.808,2.778,2.778,0,0,0,.968-.163,4.96,4.96,0,0,0,.987-.517l.713,1.019a4.254,4.254,0,0,1-2.737.987,3.567,3.567,0,0,1-2.865-1.225,5.042,5.042,0,0,1-1.045-3.383,6.079,6.079,0,0,1,.477-2.5,3.834,3.834,0,0,1,1.351-1.666,3.616,3.616,0,0,1,2.082-.594A4.438,4.438,0,0,1,487.388,949.389Zm.733-4.412.662.766-2.3,1.92h-1.037l-2.313-1.92.682-.766,2.14,1.429Z"/><path class="cls-1" d="M496.918,949.89a2.81,2.81,0,0,1,.687,2.007v6.426h-1.562v-6.2a1.986,1.986,0,0,0-.358-1.343,1.357,1.357,0,0,0-1.055-.392,2.042,2.042,0,0,0-1.257.408,4.216,4.216,0,0,0-1.02,1.173v6.359h-1.564v-8.959h1.343l.135,1.326a3.523,3.523,0,0,1,1.182-1.122,3.039,3.039,0,0,1,1.556-.408A2.5,2.5,0,0,1,496.918,949.89Z"/><path class="cls-1" d="M507.048,950.417a5.179,5.179,0,0,1,1.047,3.417,5.972,5.972,0,0,1-.476,2.456,3.727,3.727,0,0,1-1.377,1.65,3.852,3.852,0,0,1-2.143.587,3.62,3.62,0,0,1-2.939-1.259,5.152,5.152,0,0,1-1.055-3.417,5.927,5.927,0,0,1,.477-2.456,3.717,3.717,0,0,1,1.377-1.649,3.864,3.864,0,0,1,2.158-.586A3.6,3.6,0,0,1,507.048,950.417Zm-5.259,3.434q0,3.417,2.31,3.417t2.313-3.434q0-3.417-2.295-3.417Q501.788,950.417,501.789,953.851Z"/><path class="cls-1" d="M514.759,949.414a4.963,4.963,0,0,1,1.393.765l-.662.986a5.485,5.485,0,0,0-1.164-.578,3.637,3.637,0,0,0-1.166-.186,2.046,2.046,0,0,0-1.207.314,1.065,1.065,0,0,0-.026,1.708,4.826,4.826,0,0,0,1.506.6,5.4,5.4,0,0,1,2.235,1.02,2.224,2.224,0,0,1,.74,1.768,2.291,2.291,0,0,1-1.03,2.023,4.36,4.36,0,0,1-2.507.7,4.958,4.958,0,0,1-3.383-1.174l.834-.951a4.056,4.056,0,0,0,2.515.866,2.392,2.392,0,0,0,1.4-.365,1.155,1.155,0,0,0,.519-.994,1.309,1.309,0,0,0-.187-.74,1.52,1.52,0,0,0-.647-.493,8.983,8.983,0,0,0-1.343-.451,4.576,4.576,0,0,1-2.065-1,2.143,2.143,0,0,1-.637-1.6,2.1,2.1,0,0,1,.416-1.266,2.7,2.7,0,0,1,1.157-.884,4.182,4.182,0,0,1,1.656-.314A5.019,5.019,0,0,1,514.759,949.414Z"/><path class="cls-1" d="M523.14,957.914a3.435,3.435,0,0,1-2.006.613,2.367,2.367,0,0,1-1.777-.656,2.608,2.608,0,0,1-.637-1.895v-5.4h-1.564v-1.207h1.564V947.34l1.565-.186v2.21h2.125l-.17,1.207h-1.955v5.338a1.651,1.651,0,0,0,.246,1.011.987.987,0,0,0,.824.315,2.546,2.546,0,0,0,1.189-.358Z"/><path class="cls-1" d="M533.314,947.188a2.981,2.981,0,0,1,1.2,1.113,3.021,3.021,0,0,1,.424,1.589,4.465,4.465,0,0,1-.467,1.989,9.694,9.694,0,0,1-1.437,2.057q-.967,1.106-2.94,3.077h5.117l-.187,1.31h-6.715v-1.242q2.277-2.363,3.229-3.46a9.678,9.678,0,0,0,1.361-1.912,3.876,3.876,0,0,0,.408-1.751,1.745,1.745,0,0,0-1.871-1.886,2.482,2.482,0,0,0-1.223.289,4.474,4.474,0,0,0-1.123.952l-1.019-.817a4.7,4.7,0,0,1,1.547-1.292,4.2,4.2,0,0,1,1.9-.424A3.776,3.776,0,0,1,533.314,947.188Z"/><path class="cls-1" d="M543.65,948.284a10.391,10.391,0,0,1,0,8.729,3.435,3.435,0,0,1-5.695,0,10.391,10.391,0,0,1,0-8.729,3.448,3.448,0,0,1,5.695,0Zm-4.488.825a11.979,11.979,0,0,0,0,7.08,1.769,1.769,0,0,0,3.273,0,11.785,11.785,0,0,0,0-7.072,1.772,1.772,0,0,0-3.273-.008Z"/><path class="cls-1" d="M551.011,947.188a2.981,2.981,0,0,1,1.2,1.113,3.011,3.011,0,0,1,.424,1.589,4.477,4.477,0,0,1-.466,1.989,9.7,9.7,0,0,1-1.438,2.057q-.967,1.106-2.939,3.077h5.117l-.188,1.31h-6.715v-1.242q2.277-2.363,3.229-3.46a9.636,9.636,0,0,0,1.361-1.912,3.863,3.863,0,0,0,.408-1.751,1.744,1.744,0,0,0-1.871-1.886,2.478,2.478,0,0,0-1.222.289,4.44,4.44,0,0,0-1.123.952l-1.02-.817a4.71,4.71,0,0,1,1.547-1.292,4.2,4.2,0,0,1,1.9-.424A3.773,3.773,0,0,1,551.011,947.188Z"/><path class="cls-1" d="M561.347,948.284a10.391,10.391,0,0,1,0,8.729,3.435,3.435,0,0,1-5.695,0,10.391,10.391,0,0,1,0-8.729,3.448,3.448,0,0,1,5.695,0Zm-4.488.825a11.979,11.979,0,0,0,0,7.08,1.769,1.769,0,0,0,3.273,0,11.785,11.785,0,0,0,0-7.072,1.772,1.772,0,0,0-3.273-.008Z"/><path class="cls-1" d="M568.293,953.664v-1.326h7.751v1.326Z"/><path class="cls-1" d="M584.271,945.573v12.75h-1.562V945.759Zm5.152,3.791-3.3,3.961,3.671,5h-1.869l-3.552-4.9,3.3-4.062Z"/><path class="cls-1" d="M591.828,958.008a2.007,2.007,0,0,1-.5-1.454V945.759l1.564-.186v10.948a.924.924,0,0,0,.127.544.512.512,0,0,0,.434.17,1.527,1.527,0,0,0,.578-.1l.408,1.088a2.549,2.549,0,0,1-1.24.307A1.815,1.815,0,0,1,591.828,958.008Z"/><path class="cls-1" d="M597.957,945.369a1.041,1.041,0,0,1,.306.764,1.013,1.013,0,0,1-.306.757,1.1,1.1,0,0,1-.8.3,1.078,1.078,0,0,1-.783-.3,1.008,1.008,0,0,1-.3-.757,1.036,1.036,0,0,1,.3-.764,1.056,1.056,0,0,1,.783-.306A1.079,1.079,0,0,1,597.957,945.369Zm0,4v8.959h-1.565v-8.959Z"/><path class="cls-1" d="M611.947,949.9a2.878,2.878,0,0,1,.664,2v6.426h-1.565v-6.2q0-1.736-1.257-1.735a1.7,1.7,0,0,0-1.123.383,5.338,5.338,0,0,0-.985,1.2v6.359h-1.564v-6.2q0-1.736-1.258-1.735a1.693,1.693,0,0,0-1.139.392,5.345,5.345,0,0,0-.97,1.189v6.359h-1.563v-8.959h1.342l.137,1.308a3,3,0,0,1,2.584-1.512,2.251,2.251,0,0,1,2.261,1.615,4.189,4.189,0,0,1,1.164-1.2,2.682,2.682,0,0,1,1.5-.416A2.257,2.257,0,0,1,611.947,949.9Z"/><path class="cls-1" d="M621.976,957.038a1.14,1.14,0,0,0,.563.4l-.358,1.088a2.407,2.407,0,0,1-1.123-.392,1.791,1.791,0,0,1-.629-.952,3,3,0,0,1-2.668,1.344,2.863,2.863,0,0,1-2.092-.748,2.617,2.617,0,0,1-.765-1.955,2.571,2.571,0,0,1,1.029-2.194,4.822,4.822,0,0,1,2.916-.764h1.377V952.2a1.75,1.75,0,0,0-.459-1.361,2.086,2.086,0,0,0-1.412-.408,7.891,7.891,0,0,0-2.414.477l-.391-1.139a9.027,9.027,0,0,1,3.094-.612,3.23,3.23,0,0,1,2.363.773,2.957,2.957,0,0,1,.784,2.2v4.1A1.4,1.4,0,0,0,621.976,957.038Zm-1.75-1.079V953.9h-1.174q-2.481,0-2.482,1.836a1.683,1.683,0,0,0,.392,1.207,1.529,1.529,0,0,0,1.155.407A2.334,2.334,0,0,0,620.226,955.959Z"/><path class="cls-1" d="M629.525,957.914a3.435,3.435,0,0,1-2.006.613,2.365,2.365,0,0,1-1.777-.656,2.608,2.608,0,0,1-.637-1.895v-5.4h-1.564v-1.207h1.564V947.34l1.564-.186v2.21h2.125l-.169,1.207h-1.956v5.338a1.65,1.65,0,0,0,.247,1.011.987.987,0,0,0,.824.315,2.55,2.55,0,0,0,1.189-.358Z"/><path class="cls-1" d="M632.7,945.369a1.033,1.033,0,0,1,.306.764,1,1,0,0,1-.306.757,1.1,1.1,0,0,1-.8.3,1.074,1.074,0,0,1-.781-.3,1.006,1.006,0,0,1-.307-.757,1.034,1.034,0,0,1,.307-.764,1.052,1.052,0,0,1,.781-.306A1.073,1.073,0,0,1,632.7,945.369Zm0,4v8.959H631.14v-8.959Z"/><path class="cls-1" d="M640.66,949.389a4.088,4.088,0,0,1,1.275.739l-.748.987a3.85,3.85,0,0,0-.928-.5,2.915,2.915,0,0,0-.994-.161,1.944,1.944,0,0,0-1.691.867,4.488,4.488,0,0,0-.6,2.566,4.244,4.244,0,0,0,.6,2.508,1.984,1.984,0,0,0,1.7.808,2.772,2.772,0,0,0,.969-.163,4.928,4.928,0,0,0,.986-.517l.715,1.019a4.251,4.251,0,0,1-2.738.987,3.563,3.563,0,0,1-2.863-1.225,5.037,5.037,0,0,1-1.047-3.383,6.128,6.128,0,0,1,.476-2.5,3.843,3.843,0,0,1,1.352-1.666,3.618,3.618,0,0,1,2.082-.594A4.45,4.45,0,0,1,640.66,949.389Z"/><path class="cls-1" d="M645.623,945.573v12.75H644.06V945.759Zm5.152,3.791-3.3,3.961,3.672,5h-1.869l-3.553-4.9,3.3-4.062Z"/><path class="cls-1" d="M658.73,957.038a1.14,1.14,0,0,0,.563.4l-.358,1.088a2.407,2.407,0,0,1-1.123-.392,1.791,1.791,0,0,1-.629-.952,3,3,0,0,1-2.668,1.344,2.862,2.862,0,0,1-2.092-.748,2.617,2.617,0,0,1-.765-1.955,2.571,2.571,0,0,1,1.029-2.194,4.822,4.822,0,0,1,2.916-.764h1.377V952.2a1.75,1.75,0,0,0-.459-1.361,2.086,2.086,0,0,0-1.412-.408,7.891,7.891,0,0,0-2.414.477l-.391-1.139a9.027,9.027,0,0,1,3.094-.612,3.23,3.23,0,0,1,2.363.773,2.956,2.956,0,0,1,.783,2.2v4.1A1.4,1.4,0,0,0,658.73,957.038Zm-2.057-12.333.7,1.309-3.6,1.462-.476-.833Zm.307,11.254V953.9h-1.174q-2.481,0-2.482,1.836a1.683,1.683,0,0,0,.392,1.207,1.529,1.529,0,0,0,1.155.407A2.334,2.334,0,0,0,656.98,955.959Z"/><path class="cls-1" d="M671.515,949.364v1.189l-4.676,6.46h4.727l-.188,1.31h-6.306V957.15l4.658-6.46h-4.268v-1.326Z"/><path class="cls-1" d="M684.451,949.9a2.878,2.878,0,0,1,.664,2v6.426H683.55v-6.2q0-1.736-1.257-1.735a1.7,1.7,0,0,0-1.124.383,5.365,5.365,0,0,0-.984,1.2v6.359h-1.564v-6.2q0-1.736-1.258-1.735a1.693,1.693,0,0,0-1.139.392,5.373,5.373,0,0,0-.971,1.189v6.359h-1.562v-8.959h1.342l.136,1.308a3,3,0,0,1,2.584-1.512,2.251,2.251,0,0,1,2.262,1.615,4.176,4.176,0,0,1,1.164-1.2,2.682,2.682,0,0,1,1.5-.416A2.259,2.259,0,0,1,684.451,949.9Z"/><path class="cls-1" d="M694.992,954.378h-5.713a3.491,3.491,0,0,0,.748,2.176,2.17,2.17,0,0,0,1.666.7,3.659,3.659,0,0,0,1.191-.186,4.781,4.781,0,0,0,1.139-.6l.68.936a4.949,4.949,0,0,1-3.129,1.122,3.623,3.623,0,0,1-2.914-1.225,5.009,5.009,0,0,1-1.047-3.366,6.364,6.364,0,0,1,.451-2.473,3.869,3.869,0,0,1,1.293-1.691,3.276,3.276,0,0,1,1.98-.612,3.321,3.321,0,0,1,2.737,1.172,5.016,5.016,0,0,1,.951,3.247C695.025,953.84,695.013,954.107,694.992,954.378Zm-1.446-9.4.664.766-2.3,1.92h-1.036l-2.312-1.92.68-.766,2.142,1.429Zm-.068,8.144a3.318,3.318,0,0,0-.527-2.024,1.853,1.853,0,0,0-1.58-.7q-1.923,0-2.092,2.821h4.2Z"/><path class="cls-1" d="M703.652,949.89a2.811,2.811,0,0,1,.689,2.007v6.426h-1.564v-6.2a1.981,1.981,0,0,0-.358-1.343,1.347,1.347,0,0,0-1.052-.392,2.034,2.034,0,0,0-1.258.408,4.285,4.285,0,0,0-1.022,1.173v6.359h-1.562v-8.959h1.342L699,950.69a3.513,3.513,0,0,1,1.182-1.122,3.041,3.041,0,0,1,1.555-.408A2.5,2.5,0,0,1,703.652,949.89Z"/><path class="cls-1" d="M713.709,957.038a1.132,1.132,0,0,0,.56.4l-.357,1.088a2.4,2.4,0,0,1-1.121-.392,1.769,1.769,0,0,1-.629-.952,3.007,3.007,0,0,1-2.67,1.344,2.86,2.86,0,0,1-2.09-.748,2.607,2.607,0,0,1-.766-1.955,2.564,2.564,0,0,1,1.03-2.194,4.813,4.813,0,0,1,2.914-.764h1.377V952.2a1.746,1.746,0,0,0-.459-1.361,2.08,2.08,0,0,0-1.411-.408,7.874,7.874,0,0,0-2.414.477l-.39-1.139a9,9,0,0,1,3.094-.612,3.236,3.236,0,0,1,2.363.773,2.967,2.967,0,0,1,.781,2.2v4.1A1.393,1.393,0,0,0,713.709,957.038Zm-1.752-1.079V953.9h-1.172q-2.485,0-2.483,1.836a1.687,1.687,0,0,0,.391,1.207,1.534,1.534,0,0,0,1.156.407A2.334,2.334,0,0,0,711.957,955.959Z"/></svg>