<svg id="Layer_1" data-name="Layer 1" xmlns="http://www.w3.org/2000/svg" viewBox="0 0 720 283.285"><defs><style>.cls-1{fill:#2f5798;}.cls-2{fill:#9dc3e6;}.cls-3{fill:#d1d3d4;}.cls-3,.cls-6{stroke:#fff;stroke-miterlimit:10;stroke-width:3px;}.cls-4{fill:#eab7ad;}.cls-5{fill:#d1495b;}.cls-6{fill:none;}.cls-7{fill:#414042;}.cls-8{fill:#63a9e6;}.cls-9{fill:#8d9199;}.cls-10{fill:#ea9c8c;}.cls-11{opacity:0.8;}.cls-12{fill:#f1f2f2;}.cls-13{fill:#999;}</style></defs><path d="M14.888,5.408V8.264L5.956,21.732h9.016l-.392,3.024H1.644V21.928l9.1-13.58H2.568V5.408ZM12.312-1.228,13.684.34,9.792,3.7H7.552L3.66.34,5.032-1.228,8.672,1.1Z"/><path d="M29.588,18.456h-9.3a4.7,4.7,0,0,0,1.12,3.08,3.466,3.466,0,0,0,2.521.924,5.287,5.287,0,0,0,1.847-.322,8.648,8.648,0,0,0,1.848-.994l1.484,2.044a8.519,8.519,0,0,1-5.488,1.988A6.607,6.607,0,0,1,18.4,23.1a8.235,8.235,0,0,1-1.834-5.656,10.111,10.111,0,0,1,.785-4.074,6.459,6.459,0,0,1,2.267-2.828,6.067,6.067,0,0,1,3.528-1.022A6.025,6.025,0,0,1,27.964,11.5,8.139,8.139,0,0,1,29.672,17C29.672,17.186,29.645,17.672,29.588,18.456Zm-3.472-2.492q0-3.891-2.884-3.892a2.45,2.45,0,0,0-2.058.966,5.768,5.768,0,0,0-.882,3.094h5.824Z"/><path d="M43.883,10.714a4.692,4.692,0,0,1,1.1,3.318V24.756H41.4V14.592a2.845,2.845,0,0,0-.462-1.848,1.7,1.7,0,0,0-1.358-.532,2.655,2.655,0,0,0-1.666.574,6.517,6.517,0,0,0-1.441,1.666v10.3H32.893V9.944H36l.28,1.932a5.5,5.5,0,0,1,4.508-2.352A4.02,4.02,0,0,1,43.883,10.714Z"/><path d="M56.16,24.812a9.094,9.094,0,0,1-2.716,4.27A8.638,8.638,0,0,1,48.46,30.86l-.364-2.6a9.021,9.021,0,0,0,2.338-.63,3.794,3.794,0,0,0,1.414-1.078,7.253,7.253,0,0,0,.98-1.792H51.6l-4.7-14.812H50.7l3.22,12.432L57.28,9.944h3.7Z"/><path d="M82.06,9.944,77.244,24.756H72.96L68.06,9.944h3.892l3.164,11.928L78.364,9.944Z"/><path d="M95.262,10.714a4.692,4.692,0,0,1,1.105,3.318V24.756H92.783V14.592a2.845,2.845,0,0,0-.462-1.848,1.7,1.7,0,0,0-1.358-.532,2.655,2.655,0,0,0-1.666.574,6.538,6.538,0,0,0-1.442,1.666v10.3H84.271V9.944h3.108l.28,1.932a5.5,5.5,0,0,1,4.508-2.352A4.022,4.022,0,0,1,95.262,10.714Z"/><path d="M104.46,1.8l1.456,2.8-6.328,2.52L98.58,5.3Zm-.336,8.148V24.756H100.54V9.944Z"/><path d="M127,10.742a4.828,4.828,0,0,1,1.064,3.29V24.756H124.48V14.592q0-2.38-1.625-2.38a2.212,2.212,0,0,0-1.5.546,6.778,6.778,0,0,0-1.3,1.694v10.3h-3.584V14.592q0-2.38-1.624-2.38a2.252,2.252,0,0,0-1.527.546,6.778,6.778,0,0,0-1.3,1.694v10.3h-3.584V9.944h3.107l.28,1.932a5.073,5.073,0,0,1,4.284-2.352,3.78,3.78,0,0,1,2.226.658,3.686,3.686,0,0,1,1.358,1.834,6.9,6.9,0,0,1,1.974-1.848,4.744,4.744,0,0,1,2.479-.644A3.6,3.6,0,0,1,127,10.742Z"/><path d="M143.449,22.11a1.7,1.7,0,0,0,.854.63l-.756,2.38a4.584,4.584,0,0,1-2.058-.616,3.147,3.147,0,0,1-1.218-1.54,4.746,4.746,0,0,1-1.89,1.666,5.767,5.767,0,0,1-2.534.546,4.788,4.788,0,0,1-3.5-1.26,4.413,4.413,0,0,1-1.287-3.3,4.273,4.273,0,0,1,1.75-3.682,8.386,8.386,0,0,1,5-1.274h1.848v-.84a2.554,2.554,0,0,0-.658-2,3.182,3.182,0,0,0-2.114-.574,12.481,12.481,0,0,0-3.92.784l-.84-2.436A14.968,14.968,0,0,1,137.5,9.524q5.684,0,5.684,5.1v6.216A2.374,2.374,0,0,0,143.449,22.11Zm-3.794-1.358v-3h-1.484q-3.472,0-3.472,2.576a2.374,2.374,0,0,0,.532,1.652,2.007,2.007,0,0,0,1.568.588A3.171,3.171,0,0,0,139.655,20.752Z"/><path d="M150.8,23.44a8.677,8.677,0,0,1-.63,3.57,5.538,5.538,0,0,1-1.778,2.226,14.252,14.252,0,0,1-3,1.6l-1.148-2.6a8.564,8.564,0,0,0,1.708-.994,3.058,3.058,0,0,0,.938-1.33,6.41,6.41,0,0,0,.322-2.24V9.944H150.8Zm-.182-20.37a2.111,2.111,0,0,1,.63,1.554,2.066,2.066,0,0,1-.63,1.54,2.242,2.242,0,0,1-1.638.616,2.2,2.2,0,0,1-1.61-.616,2.066,2.066,0,0,1-.63-1.54,2.111,2.111,0,0,1,.63-1.554,2.179,2.179,0,0,1,1.61-.63A2.216,2.216,0,0,1,150.617,3.07Z"/><path d="M159.479,1.8l1.456,2.8-6.329,2.52L153.6,5.3Zm-.336,8.148V24.756h-3.584V9.944Z"/><path d="M178.938,24.056a5.7,5.7,0,0,1-1.75.84,7.068,7.068,0,0,1-1.973.28A4.4,4.4,0,0,1,171.9,23.93a5.11,5.11,0,0,1-1.133-3.6V12.52h-2.325V9.944h2.325V6.668l3.584-.42v3.7h3.444l-.364,2.576h-3.08v7.728a2.546,2.546,0,0,0,.378,1.568,1.428,1.428,0,0,0,1.19.476,3.655,3.655,0,0,0,1.764-.532Z"/><path d="M192.546,18.456h-9.3a4.7,4.7,0,0,0,1.12,3.08,3.466,3.466,0,0,0,2.521.924,5.287,5.287,0,0,0,1.847-.322,8.648,8.648,0,0,0,1.848-.994l1.484,2.044a8.519,8.519,0,0,1-5.488,1.988A6.607,6.607,0,0,1,181.36,23.1a8.235,8.235,0,0,1-1.834-5.656,10.111,10.111,0,0,1,.785-4.074,6.459,6.459,0,0,1,2.267-2.828,6.754,6.754,0,0,1,8.344.952A8.139,8.139,0,0,1,192.63,17C192.63,17.186,192.6,17.672,192.546,18.456ZM188.318,1.8l1.456,2.8-6.328,2.52L182.438,5.3Zm.756,14.168q0-3.891-2.884-3.892a2.45,2.45,0,0,0-2.058.966,5.768,5.768,0,0,0-.882,3.094h5.824Z"/><path d="M214.414,10.742a4.829,4.829,0,0,1,1.065,3.29V24.756H211.9V14.592q0-2.38-1.624-2.38a2.212,2.212,0,0,0-1.5.546,6.778,6.778,0,0,0-1.3,1.694v10.3h-3.584V14.592q0-2.38-1.624-2.38a2.252,2.252,0,0,0-1.527.546,6.778,6.778,0,0,0-1.3,1.694v10.3h-3.584V9.944h3.107l.28,1.932a5.073,5.073,0,0,1,4.284-2.352,3.78,3.78,0,0,1,2.226.658,3.686,3.686,0,0,1,1.358,1.834,6.9,6.9,0,0,1,1.974-1.848,4.744,4.744,0,0,1,2.479-.644A3.6,3.6,0,0,1,214.414,10.742Z"/><path d="M230.864,22.11a1.7,1.7,0,0,0,.854.63l-.756,2.38A4.588,4.588,0,0,1,228.9,24.5a3.14,3.14,0,0,1-1.217-1.54A4.755,4.755,0,0,1,225.8,24.63a5.767,5.767,0,0,1-2.534.546,4.788,4.788,0,0,1-3.5-1.26,4.413,4.413,0,0,1-1.287-3.3,4.273,4.273,0,0,1,1.75-3.682,8.386,8.386,0,0,1,5-1.274h1.848v-.84a2.554,2.554,0,0,0-.658-2,3.182,3.182,0,0,0-2.114-.574,12.481,12.481,0,0,0-3.92.784l-.84-2.436a14.968,14.968,0,0,1,5.376-1.064q5.684,0,5.684,5.1v6.216A2.383,2.383,0,0,0,230.864,22.11Zm-3.794-1.358v-3h-1.484q-3.473,0-3.472,2.576a2.374,2.374,0,0,0,.532,1.652,2.007,2.007,0,0,0,1.568.588A3.171,3.171,0,0,0,227.07,20.752Z"/><path d="M245.522,3.616v21.14h-3.584V4.008ZM254.4,9.944l-4.927,6.524,5.4,8.288h-4.116l-5.1-8.092,4.956-6.72Z"/><path d="M257.716,24.182a3.868,3.868,0,0,1-.967-2.814V4.008l3.584-.392v17.64q0,1.036.841,1.036a2.633,2.633,0,0,0,.84-.14l.756,2.52a5.738,5.738,0,0,1-2.38.5A3.556,3.556,0,0,1,257.716,24.182Z"/><path d="M268.552,3.07a2.112,2.112,0,0,1,.631,1.554,2.067,2.067,0,0,1-.631,1.54,2.242,2.242,0,0,1-1.638.616,2.208,2.208,0,0,1-1.61-.616,2.066,2.066,0,0,1-.63-1.54,2.111,2.111,0,0,1,.63-1.554,2.182,2.182,0,0,1,1.61-.63A2.216,2.216,0,0,1,268.552,3.07Zm.182,6.874V24.756H265.15V9.944Z"/><path d="M291.609,10.742a4.829,4.829,0,0,1,1.065,3.29V24.756H289.09V14.592q0-2.38-1.624-2.38a2.212,2.212,0,0,0-1.5.546,6.755,6.755,0,0,0-1.3,1.694v10.3h-3.584V14.592q0-2.38-1.624-2.38a2.249,2.249,0,0,0-1.526.546,6.778,6.778,0,0,0-1.3,1.694v10.3h-3.584V9.944h3.107l.281,1.932a5.072,5.072,0,0,1,4.284-2.352,3.779,3.779,0,0,1,2.225.658,3.693,3.693,0,0,1,1.359,1.834,6.9,6.9,0,0,1,1.973-1.848,4.744,4.744,0,0,1,2.479-.644A3.6,3.6,0,0,1,291.609,10.742Z"/><path d="M308.06,22.11a1.69,1.69,0,0,0,.853.63l-.756,2.38A4.579,4.579,0,0,1,306.1,24.5a3.136,3.136,0,0,1-1.218-1.54,4.755,4.755,0,0,1-1.891,1.666,5.764,5.764,0,0,1-2.534.546,4.788,4.788,0,0,1-3.5-1.26,4.416,4.416,0,0,1-1.287-3.3,4.273,4.273,0,0,1,1.75-3.682,8.386,8.386,0,0,1,5-1.274h1.849v-.84a2.554,2.554,0,0,0-.659-2,3.182,3.182,0,0,0-2.114-.574,12.486,12.486,0,0,0-3.92.784l-.84-2.436a14.968,14.968,0,0,1,5.376-1.064q5.684,0,5.684,5.1v6.216A2.373,2.373,0,0,0,308.06,22.11Zm-3.794-1.358v-3h-1.485q-3.471,0-3.471,2.576a2.37,2.37,0,0,0,.532,1.652,2,2,0,0,0,1.567.588A3.173,3.173,0,0,0,304.266,20.752Z"/><path d="M320.617,24.056a5.7,5.7,0,0,1-1.75.84,7.073,7.073,0,0,1-1.973.28,4.4,4.4,0,0,1-3.319-1.246,5.105,5.105,0,0,1-1.134-3.6V12.52h-2.324V9.944h2.324V6.668l3.584-.42v3.7h3.445l-.365,2.576h-3.08v7.728a2.546,2.546,0,0,0,.378,1.568,1.43,1.43,0,0,0,1.191.476,3.649,3.649,0,0,0,1.763-.532Z"/><path d="M334.478,24.756h-3.109l-.2-2.072a5.488,5.488,0,0,1-1.918,1.876,5.306,5.306,0,0,1-2.618.616,3.88,3.88,0,0,1-3.067-1.218,4.92,4.92,0,0,1-1.078-3.374V9.944h3.584V20.136a2.862,2.862,0,0,0,.435,1.792,1.684,1.684,0,0,0,1.385.532q1.709,0,3-2.1V9.944h3.584Z"/><path d="M356.779,10.714a4.688,4.688,0,0,1,1.106,3.318V24.756H354.3V14.592a2.851,2.851,0,0,0-.462-1.848,1.7,1.7,0,0,0-1.359-.532,2.657,2.657,0,0,0-1.666.574,6.536,6.536,0,0,0-1.441,1.666v10.3h-3.584V9.944H348.9l.281,1.932a5.5,5.5,0,0,1,4.508-2.352A4.018,4.018,0,0,1,356.779,10.714Z"/><path d="M373.271,22.11a1.69,1.69,0,0,0,.853.63l-.756,2.38a4.579,4.579,0,0,1-2.057-.616,3.136,3.136,0,0,1-1.218-1.54A4.755,4.755,0,0,1,368.2,24.63a5.764,5.764,0,0,1-2.534.546,4.788,4.788,0,0,1-3.5-1.26,4.416,4.416,0,0,1-1.287-3.3,4.273,4.273,0,0,1,1.75-3.682,8.386,8.386,0,0,1,5-1.274h1.849v-.84a2.554,2.554,0,0,0-.659-2,3.182,3.182,0,0,0-2.114-.574,12.481,12.481,0,0,0-3.92.784l-.84-2.436a14.968,14.968,0,0,1,5.376-1.064q5.683,0,5.684,5.1v6.216A2.373,2.373,0,0,0,373.271,22.11Zm-3.794-1.358v-3h-1.485q-3.471,0-3.471,2.576a2.37,2.37,0,0,0,.532,1.652,2,2,0,0,0,1.567.588A3.173,3.173,0,0,0,369.477,20.752Z"/><path d="M377.891,24.182a3.868,3.868,0,0,1-.967-2.814V4.008l3.584-.392v17.64q0,1.036.841,1.036a2.623,2.623,0,0,0,.839-.14l.756,2.52a5.734,5.734,0,0,1-2.38.5A3.555,3.555,0,0,1,377.891,24.182Z"/><path d="M397.253,18.456h-9.3a4.7,4.7,0,0,0,1.12,3.08,3.466,3.466,0,0,0,2.521.924,5.287,5.287,0,0,0,1.847-.322,8.648,8.648,0,0,0,1.848-.994l1.484,2.044a8.519,8.519,0,0,1-5.488,1.988,6.607,6.607,0,0,1-5.222-2.072,8.235,8.235,0,0,1-1.834-5.656,10.111,10.111,0,0,1,.785-4.074,6.459,6.459,0,0,1,2.267-2.828,6.754,6.754,0,0,1,8.344.952,8.139,8.139,0,0,1,1.708,5.5C397.337,17.186,397.31,17.672,397.253,18.456ZM393.025,1.8l1.456,2.8-6.328,2.52L387.146,5.3Zm.756,14.168q0-3.891-2.884-3.892a2.45,2.45,0,0,0-2.058.966,5.768,5.768,0,0,0-.882,3.094h5.824Z"/><path d="M411.532,10.728a4.665,4.665,0,0,1,1.12,3.3V24.756h-3.584V14.592a2.845,2.845,0,0,0-.462-1.848,1.7,1.7,0,0,0-1.358-.532,2.667,2.667,0,0,0-1.651.574,6.508,6.508,0,0,0-1.456,1.638V24.756h-3.584V4.036l3.584-.364v8.036a5.406,5.406,0,0,1,4.311-2.184A4,4,0,0,1,411.532,10.728Z"/><path d="M428.039,22.11a1.7,1.7,0,0,0,.854.63l-.756,2.38a4.584,4.584,0,0,1-2.058-.616,3.147,3.147,0,0,1-1.218-1.54,4.752,4.752,0,0,1-1.89,1.666,5.767,5.767,0,0,1-2.534.546,4.788,4.788,0,0,1-3.5-1.26,4.413,4.413,0,0,1-1.288-3.3,4.273,4.273,0,0,1,1.75-3.682,8.386,8.386,0,0,1,5-1.274h1.849v-.84a2.557,2.557,0,0,0-.658-2,3.186,3.186,0,0,0-2.114-.574,12.481,12.481,0,0,0-3.92.784l-.84-2.436a14.968,14.968,0,0,1,5.376-1.064q5.683,0,5.683,5.1v6.216A2.373,2.373,0,0,0,428.039,22.11Zm-3.794-1.358v-3h-1.484q-3.473,0-3.472,2.576a2.374,2.374,0,0,0,.532,1.652,2.007,2.007,0,0,0,1.568.588A3.171,3.171,0,0,0,424.245,20.752Z"/><path d="M443.592,9.944l-4.816,14.812h-4.284l-4.9-14.812h3.892l3.164,11.928L439.9,9.944Z"/><path d="M457.7,18.456h-9.3a4.712,4.712,0,0,0,1.12,3.08,3.466,3.466,0,0,0,2.521.924,5.287,5.287,0,0,0,1.847-.322,8.624,8.624,0,0,0,1.848-.994l1.485,2.044a8.524,8.524,0,0,1-5.489,1.988,6.6,6.6,0,0,1-5.221-2.072,8.23,8.23,0,0,1-1.834-5.656,10.111,10.111,0,0,1,.784-4.074,6.459,6.459,0,0,1,2.267-2.828,6.754,6.754,0,0,1,8.344.952,8.139,8.139,0,0,1,1.708,5.5C457.788,17.186,457.761,17.672,457.7,18.456Zm-2.716-16.1,1.372,1.568-3.891,3.5h-2.24l-3.892-3.5,1.371-1.568,3.641,2.464Zm-.756,13.608q0-3.891-2.883-3.892a2.451,2.451,0,0,0-2.059.966,5.768,5.768,0,0,0-.882,3.094h5.824Z"/><path d="M464.564,23.44a8.679,8.679,0,0,1-.629,3.57,5.532,5.532,0,0,1-1.779,2.226,14.2,14.2,0,0,1-3,1.6l-1.147-2.6a8.593,8.593,0,0,0,1.708-.994,3.056,3.056,0,0,0,.937-1.33,6.387,6.387,0,0,0,.322-2.24V9.944h3.584Zm-.181-20.37a2.111,2.111,0,0,1,.63,1.554,2.066,2.066,0,0,1-.63,1.54,2.243,2.243,0,0,1-1.639.616,2.2,2.2,0,0,1-1.609-.616,2.066,2.066,0,0,1-.63-1.54,2.111,2.111,0,0,1,.63-1.554,2.178,2.178,0,0,1,1.609-.63A2.217,2.217,0,0,1,464.383,3.07Z"/><path d="M472.277,3.07a2.112,2.112,0,0,1,.631,1.554,2.067,2.067,0,0,1-.631,1.54,2.24,2.24,0,0,1-1.637.616,2.209,2.209,0,0,1-1.611-.616,2.066,2.066,0,0,1-.63-1.54,2.111,2.111,0,0,1,.63-1.554,2.183,2.183,0,0,1,1.611-.63A2.213,2.213,0,0,1,472.277,3.07Zm.183,6.874V24.756h-3.584V9.944Z"/><rect class="cls-1" x="54.386" y="168.11" width="270.2" height="60"/><rect class="cls-2" x="324.586" y="168.11" width="164.756" height="60"/><rect class="cls-3" x="489.342" y="168.11" width="105.444" height="60"/><rect class="cls-4" x="595.598" y="168.11" width="85.673" height="60"/><rect class="cls-5" x="680.459" y="168.11" width="39.541" height="60"/><polygon class="cls-6" points="324.586 168.11 54.386 168.11 54.386 228.11 324.586 228.11 489.342 228.11 489.342 168.11 324.586 168.11"/><polygon class="cls-6" points="672.57 168.11 594.785 168.11 594.785 228.11 672.57 228.11 720 228.11 720 168.11 672.57 168.11"/><rect class="cls-1" x="54.386" y="97.34" width="185.492" height="60"/><rect class="cls-2" x="239.878" y="97.34" width="125.87" height="60"/><rect class="cls-3" x="365.748" y="97.34" width="145.744" height="60"/><rect class="cls-4" x="511.492" y="97.34" width="129.011" height="60"/><rect class="cls-5" x="640.503" y="97.34" width="79.497" height="60"/><polygon class="cls-6" points="640.805 97.34 510.924 97.34 510.924 157.34 640.805 157.34 720 157.34 720 97.34 640.805 97.34"/><polygon class="cls-6" points="247.808 97.34 54.386 97.34 54.386 157.34 247.808 157.34 365.748 157.34 365.748 97.34 247.808 97.34"/><path class="cls-1" d="M65.913,56.871a3.279,3.279,0,0,1,1.25,2.805,3.485,3.485,0,0,1-1.258,2.932,5.311,5.311,0,0,1-3.349.977H61.179v4.1H58.935V55.935H62.4A5.755,5.755,0,0,1,65.913,56.871ZM64.205,61.4a2.117,2.117,0,0,0,.611-1.725q0-2.091-2.43-2.092H61.179V61.9h1.207A2.824,2.824,0,0,0,64.205,61.4Z"/><path class="cls-1" d="M73.487,54.082l.833.953L71.957,57.16H70.6l-2.363-2.125.832-.953,2.211,1.5Zm.425,4.489-.374,2.108a3.291,3.291,0,0,0-.8-.1,1.53,1.53,0,0,0-1.259.569,4.387,4.387,0,0,0-.73,1.743v4.794H68.574V58.689H70.46l.205,1.768A3.223,3.223,0,0,1,71.6,58.97a2.116,2.116,0,0,1,1.411-.518A3.226,3.226,0,0,1,73.912,58.571Z"/><path class="cls-1" d="M82.089,63.857H76.445a2.851,2.851,0,0,0,.68,1.87,2.1,2.1,0,0,0,1.53.561,3.19,3.19,0,0,0,1.122-.195,5.205,5.205,0,0,0,1.121-.6l.9,1.24a5.173,5.173,0,0,1-3.332,1.207A4.012,4.012,0,0,1,75.3,66.68a5,5,0,0,1-1.113-3.434,6.144,6.144,0,0,1,.476-2.474,3.922,3.922,0,0,1,1.377-1.717,4.1,4.1,0,0,1,5.066.578,4.944,4.944,0,0,1,1.037,3.341C82.14,63.087,82.123,63.382,82.089,63.857ZM79.98,62.345q0-2.364-1.75-2.364a1.488,1.488,0,0,0-1.25.587,3.493,3.493,0,0,0-.535,1.879H79.98Z"/><path class="cls-1" d="M90.13,59.506l-.85,1.275a4.221,4.221,0,0,0-2.261-.731,1.749,1.749,0,0,0-1,.246.76.76,0,0,0-.357.655.815.815,0,0,0,.153.509,1.384,1.384,0,0,0,.552.383,9.173,9.173,0,0,0,1.181.4,5.171,5.171,0,0,1,2.168,1.037,2.319,2.319,0,0,1,.705,1.8,2.416,2.416,0,0,1-1.087,2.1,4.627,4.627,0,0,1-2.7.756,5.728,5.728,0,0,1-2.014-.339,4.882,4.882,0,0,1-1.572-.936l1.087-1.224a4.015,4.015,0,0,0,2.449.885,2.076,2.076,0,0,0,1.164-.289.911.911,0,0,0,.434-.8,1.057,1.057,0,0,0-.162-.62,1.329,1.329,0,0,0-.578-.408,12.143,12.143,0,0,0-1.3-.434,4.334,4.334,0,0,1-2.023-1.045,2.317,2.317,0,0,1-.646-1.674,2.227,2.227,0,0,1,.433-1.344,2.884,2.884,0,0,1,1.224-.935,4.556,4.556,0,0,1,1.811-.34A5.057,5.057,0,0,1,90.13,59.506Z"/><path class="cls-1" d="M99.106,58.689l-2.924,8.994h-2.6l-2.975-8.994h2.363l1.921,7.243,1.972-7.243Z"/><path class="cls-1" d="M107.674,63.857H102.03a2.856,2.856,0,0,0,.679,1.87,2.106,2.106,0,0,0,1.531.561,3.19,3.19,0,0,0,1.122-.195,5.205,5.205,0,0,0,1.121-.6l.9,1.24a5.173,5.173,0,0,1-3.332,1.207,4.012,4.012,0,0,1-3.171-1.257,5,5,0,0,1-1.113-3.434,6.144,6.144,0,0,1,.476-2.474,3.922,3.922,0,0,1,1.377-1.717,4.1,4.1,0,0,1,5.066.578,4.944,4.944,0,0,1,1.037,3.341C107.725,63.087,107.708,63.382,107.674,63.857Zm-1.65-9.775.833.953L104.5,57.16h-1.36l-2.364-2.125.834-.953,2.209,1.5Zm-.459,8.263q0-2.364-1.751-2.364a1.487,1.487,0,0,0-1.249.587,3.493,3.493,0,0,0-.535,1.879h3.535Z"/><path class="cls-1" d="M117.245,55.085v12.6h-1.921l-.154-1.14a3.131,3.131,0,0,1-1.079,1.02,2.936,2.936,0,0,1-1.487.374,2.893,2.893,0,0,1-2.533-1.275,5.989,5.989,0,0,1-.884-3.467,6.453,6.453,0,0,1,.441-2.457,3.877,3.877,0,0,1,1.267-1.692,3.2,3.2,0,0,1,4.174.358V54.848Zm-3.009,10.923a2.909,2.909,0,0,0,.833-.875V61.018a3.138,3.138,0,0,0-.791-.713,1.771,1.771,0,0,0-.926-.239,1.555,1.555,0,0,0-1.369.774,4.36,4.36,0,0,0-.5,2.338,4.793,4.793,0,0,0,.443,2.388,1.422,1.422,0,0,0,1.292.722A1.864,1.864,0,0,0,114.236,66.008Z"/><path class="cls-1" d="M125.073,58.689a4.255,4.255,0,0,1,1.335.8l-.97,1.309a3.47,3.47,0,0,0-.883-.493,2.75,2.75,0,0,0-.935-.153q-2.024,0-2.023,3.076a3.751,3.751,0,0,0,.527,2.253,1.772,1.772,0,0,0,1.5.688,2.4,2.4,0,0,0,.875-.153,5.648,5.648,0,0,0,.943-.493l.97,1.377a4.477,4.477,0,0,1-2.907,1.037,4.292,4.292,0,0,1-2.244-.569,3.734,3.734,0,0,1-1.462-1.623,5.643,5.643,0,0,1-.51-2.482,5.923,5.923,0,0,1,.51-2.525,3.905,3.905,0,0,1,1.462-1.7,4.072,4.072,0,0,1,2.227-.6A4.651,4.651,0,0,1,125.073,58.689Zm.621-4.607.833.953-2.363,2.125H122.8l-2.363-2.125.833-.953,2.21,1.5Z"/><path class="cls-1" d="M134.976,63.857h-5.644a2.851,2.851,0,0,0,.68,1.87,2.1,2.1,0,0,0,1.53.561,3.186,3.186,0,0,0,1.122-.195,5.234,5.234,0,0,0,1.122-.6l.9,1.24a5.171,5.171,0,0,1-3.332,1.207,4.009,4.009,0,0,1-3.17-1.257,5,5,0,0,1-1.114-3.434,6.161,6.161,0,0,1,.476-2.474,3.922,3.922,0,0,1,1.377-1.717,4.1,4.1,0,0,1,5.066.578,4.944,4.944,0,0,1,1.037,3.341C135.027,63.087,135.01,63.382,134.976,63.857Zm-2.108-1.512q0-2.364-1.751-2.364a1.488,1.488,0,0,0-1.25.587,3.493,3.493,0,0,0-.535,1.879h3.536Z"/><path class="cls-1" d="M143.654,59.157a2.844,2.844,0,0,1,.672,2.014v6.512H142.15V61.512a1.725,1.725,0,0,0-.281-1.122,1.031,1.031,0,0,0-.824-.324,1.617,1.617,0,0,0-1.012.349,3.956,3.956,0,0,0-.875,1.012v6.256h-2.176V58.689h1.887l.17,1.174a3.342,3.342,0,0,1,2.737-1.429A2.438,2.438,0,0,1,143.654,59.157Z"/><path class="cls-1" d="M149.238,53.743l.885,1.7-3.843,1.531-.612-1.1Zm-.2,4.946v8.994h-2.176V58.689Z"/><path class="cls-7" d="M12.974,193.062V194.7l-5.1,7.7h5.151l-.224,1.728H5.406V202.5l5.2-7.759H5.934v-1.681ZM11.5,189.27l.785.9-2.224,1.92H8.782l-2.224-1.92.784-.9L9.421,190.6Z"/><path class="cls-7" d="M21.374,200.518H16.062a2.687,2.687,0,0,0,.64,1.761,1.977,1.977,0,0,0,1.44.528,2.985,2.985,0,0,0,1.056-.185,4.939,4.939,0,0,0,1.055-.567l.849,1.168a4.875,4.875,0,0,1-3.136,1.136,3.778,3.778,0,0,1-2.985-1.184,4.708,4.708,0,0,1-1.047-3.232,5.785,5.785,0,0,1,.448-2.328,3.692,3.692,0,0,1,1.3-1.617,3.467,3.467,0,0,1,2.016-.584,3.445,3.445,0,0,1,2.752,1.128,4.657,4.657,0,0,1,.975,3.144C21.421,199.793,21.406,200.071,21.374,200.518ZM19.39,199.1q0-2.225-1.648-2.224a1.4,1.4,0,0,0-1.177.552,3.289,3.289,0,0,0-.5,1.767H19.39Z"/><path class="cls-7" d="M29.542,196.1a2.679,2.679,0,0,1,.632,1.9v6.128H28.126V198.31a1.621,1.621,0,0,0-.264-1.055.972.972,0,0,0-.776-.3,1.515,1.515,0,0,0-.952.328,3.705,3.705,0,0,0-.824.951v5.889H23.262v-8.464h1.776l.16,1.1a3.146,3.146,0,0,1,2.576-1.345A2.294,2.294,0,0,1,29.542,196.1Z"/><path class="cls-7" d="M36.558,204.151a5.2,5.2,0,0,1-1.553,2.44,4.925,4.925,0,0,1-2.847,1.015l-.208-1.487a5.181,5.181,0,0,0,1.336-.36,2.156,2.156,0,0,0,.807-.617,4.073,4.073,0,0,0,.56-1.023h-.7l-2.688-8.464h2.176l1.839,7.1,1.92-7.1H39.31Z"/><path class="cls-7" d="M17.662,132.689H15.6l-.288-4.624q-.144-2.479-.144-3.936v-.576l-2.016,7.936h-2l-2.144-7.952q.031,1.056.032,1.6,0,1.455-.1,2.991l-.272,4.56H6.622l.88-11.056h2.72l1.968,7.744,1.856-7.744H16.8Z"/><path class="cls-7" d="M26.4,132.689H24.622l-.112-1.184a3.136,3.136,0,0,1-1.1,1.073,3.033,3.033,0,0,1-1.5.352,2.218,2.218,0,0,1-1.752-.7,2.805,2.805,0,0,1-.616-1.927v-6.081H21.6v5.824a1.639,1.639,0,0,0,.248,1.024.962.962,0,0,0,.792.3,2.067,2.067,0,0,0,1.712-1.2v-5.952H26.4Z"/><path class="cls-7" d="M34.366,124.225V125.7l-4.095,5.392h4.175l-.208,1.6h-6.32v-1.472l4.112-5.391H28.271v-1.6Zm-1.04-4.335.784.9-2.224,2h-1.28l-2.224-2,.785-.9,2.08,1.407Z"/><path class="cls-7" d="M37.99,120.3a1.207,1.207,0,0,1,.36.888,1.179,1.179,0,0,1-.36.88,1.281,1.281,0,0,1-.936.352,1.26,1.26,0,0,1-.92-.352,1.179,1.179,0,0,1-.36-.88,1.207,1.207,0,0,1,.36-.888,1.25,1.25,0,0,1,.92-.36A1.27,1.27,0,0,1,37.99,120.3Zm.1,3.928v8.464H36.046v-8.464Z"/><path class="cls-8" d="M250.361,55.935v1.734l-5.423,8.177h5.474l-.238,1.836H242.32V65.965l5.525-8.245h-4.964V55.935Z"/><path class="cls-8" d="M258.768,59.157a2.844,2.844,0,0,1,.671,2.014v6.511h-2.175V61.511a1.725,1.725,0,0,0-.281-1.122,1.034,1.034,0,0,0-.824-.323,1.62,1.62,0,0,0-1.012.348,4.012,4.012,0,0,0-.876,1.012v6.256H252.1V58.689h1.886l.171,1.173a3.341,3.341,0,0,1,2.737-1.428A2.437,2.437,0,0,1,258.768,59.157Z"/><path class="cls-8" d="M269.3,63.857h-5.644a2.856,2.856,0,0,0,.68,1.87,2.1,2.1,0,0,0,1.53.561,3.2,3.2,0,0,0,1.122-.195,5.286,5.286,0,0,0,1.122-.6l.9,1.241a5.174,5.174,0,0,1-3.332,1.207,4.009,4.009,0,0,1-3.17-1.258,5,5,0,0,1-1.114-3.434,6.161,6.161,0,0,1,.476-2.474,3.914,3.914,0,0,1,1.377-1.716,4.1,4.1,0,0,1,5.066.578,4.943,4.943,0,0,1,1.037,3.34Q269.35,63.143,269.3,63.857Zm-2.108-1.513q0-2.363-1.751-2.363a1.489,1.489,0,0,0-1.25.587,3.489,3.489,0,0,0-.535,1.878h3.536Z"/><path class="cls-8" d="M278.479,59.675a6.314,6.314,0,0,1,.816,3.485,6.836,6.836,0,0,1-.417,2.474,3.756,3.756,0,0,1-1.223,1.691,3.078,3.078,0,0,1-1.913.612,2.806,2.806,0,0,1-2.261-.986v4.2l-2.176.238v-12.7h1.9l.119,1.1a3.532,3.532,0,0,1,1.207-1.02,3.146,3.146,0,0,1,1.428-.34A2.8,2.8,0,0,1,278.479,59.675Zm-1.462,3.5a4.964,4.964,0,0,0-.425-2.38,1.383,1.383,0,0,0-1.275-.731,1.757,1.757,0,0,0-1.02.331,2.915,2.915,0,0,0-.816.893v4.046a1.91,1.91,0,0,0,1.649.935Q277.017,66.271,277.017,63.177Z"/><path class="cls-8" d="M288.211,59.7a5.079,5.079,0,0,1,1.114,3.476,5.762,5.762,0,0,1-.51,2.49,3.872,3.872,0,0,1-1.462,1.675,4.178,4.178,0,0,1-2.261.595,3.939,3.939,0,0,1-3.111-1.267,5.081,5.081,0,0,1-1.122-3.493,5.71,5.71,0,0,1,.51-2.482,3.866,3.866,0,0,1,1.47-1.666,4.222,4.222,0,0,1,2.27-.6A3.911,3.911,0,0,1,288.211,59.7Zm-5.057,3.476a4.459,4.459,0,0,0,.485,2.355,1.768,1.768,0,0,0,2.906-.009,4.463,4.463,0,0,0,.485-2.346,4.413,4.413,0,0,0-.485-2.337,1.593,1.593,0,0,0-1.436-.757Q283.155,60.083,283.154,63.177Z"/><path class="cls-8" d="M293.541,54.847V67.682h-2.176v-12.6Zm5.389,3.842-2.992,3.961,3.281,5.032h-2.5l-3.094-4.913,3.009-4.08Z"/><path class="cls-8" d="M307.031,59.7a5.084,5.084,0,0,1,1.113,3.476,5.762,5.762,0,0,1-.51,2.49,3.866,3.866,0,0,1-1.462,1.675,4.173,4.173,0,0,1-2.261.595A3.939,3.939,0,0,1,300.8,66.67a5.081,5.081,0,0,1-1.122-3.493,5.71,5.71,0,0,1,.51-2.482,3.868,3.868,0,0,1,1.471-1.666,4.218,4.218,0,0,1,2.269-.6A3.913,3.913,0,0,1,307.031,59.7Zm-5.058,3.476a4.468,4.468,0,0,0,.485,2.355,1.769,1.769,0,0,0,2.907-.009,4.474,4.474,0,0,0,.484-2.346,4.423,4.423,0,0,0-.484-2.337,1.6,1.6,0,0,0-1.437-.757Q301.974,60.083,301.973,63.177Z"/><path class="cls-8" d="M312.343,66.883a5.272,5.272,0,0,1-.382,2.168,3.357,3.357,0,0,1-1.08,1.351,8.616,8.616,0,0,1-1.818.969l-.7-1.581a5.121,5.121,0,0,0,1.036-.6,1.84,1.84,0,0,0,.57-.807,3.892,3.892,0,0,0,.195-1.36v-8.33h2.176Zm-.11-12.367a1.28,1.28,0,0,1,.383.943,1.254,1.254,0,0,1-.383.935,1.365,1.365,0,0,1-1,.374,1.341,1.341,0,0,1-.977-.374,1.254,1.254,0,0,1-.383-.935,1.28,1.28,0,0,1,.383-.943,1.324,1.324,0,0,1,.977-.383A1.347,1.347,0,0,1,312.233,54.516Z"/><path class="cls-8" d="M322.288,63.857h-5.644a2.851,2.851,0,0,0,.68,1.87,2.1,2.1,0,0,0,1.53.561,3.2,3.2,0,0,0,1.122-.195,5.286,5.286,0,0,0,1.122-.6l.9,1.241a5.176,5.176,0,0,1-3.332,1.207,4.006,4.006,0,0,1-3.17-1.258,5,5,0,0,1-1.114-3.434,6.161,6.161,0,0,1,.476-2.474,3.914,3.914,0,0,1,1.377-1.716,4.1,4.1,0,0,1,5.066.578,4.943,4.943,0,0,1,1.037,3.34Q322.339,63.143,322.288,63.857Zm-2.108-1.513q0-2.363-1.751-2.363a1.489,1.489,0,0,0-1.25.587,3.489,3.489,0,0,0-.535,1.878h3.536Z"/><path class="cls-8" d="M330.966,59.157a2.844,2.844,0,0,1,.672,2.014v6.511h-2.176V61.511a1.725,1.725,0,0,0-.281-1.122,1.034,1.034,0,0,0-.824-.323,1.622,1.622,0,0,0-1.012.348,3.99,3.99,0,0,0-.875,1.012v6.256h-2.176V58.689h1.887l.17,1.173a3.341,3.341,0,0,1,2.737-1.428A2.436,2.436,0,0,1,330.966,59.157Z"/><path class="cls-8" d="M336.551,53.742l.884,1.7-3.842,1.53-.612-1.105Zm-.2,4.947v8.993H334.17V58.689Z"/><path class="cls-9" d="M378.3,67.683H375.4l-4.028-9.5q.151,1.257.229,2.277t.076,2.432v4.794h-2.04V55.935h2.839l4.1,9.52q-.1-.68-.2-1.793t-.1-2.218V55.935h2.04Z"/><path class="cls-9" d="M388.316,63.857h-5.644a2.851,2.851,0,0,0,.68,1.87,2.105,2.105,0,0,0,1.53.561A3.182,3.182,0,0,0,386,66.093a5.234,5.234,0,0,0,1.122-.6l.9,1.24a5.169,5.169,0,0,1-3.332,1.207,4.011,4.011,0,0,1-3.17-1.257,5,5,0,0,1-1.113-3.434,6.161,6.161,0,0,1,.475-2.474,3.936,3.936,0,0,1,1.377-1.717,4.1,4.1,0,0,1,5.067.578,4.949,4.949,0,0,1,1.036,3.341C388.367,63.087,388.35,63.382,388.316,63.857Zm-2.107-1.512q0-2.364-1.751-2.364a1.486,1.486,0,0,0-1.25.587,3.5,3.5,0,0,0-.536,1.879h3.537Z"/><path class="cls-9" d="M392.481,66.884a5.27,5.27,0,0,1-.382,2.167,3.376,3.376,0,0,1-1.08,1.352,8.653,8.653,0,0,1-1.819.968l-.7-1.581a5.223,5.223,0,0,0,1.038-.6,1.852,1.852,0,0,0,.569-.808,3.892,3.892,0,0,0,.195-1.36v-8.33h2.176Zm-.11-12.368a1.28,1.28,0,0,1,.382.943,1.253,1.253,0,0,1-.382.935,1.359,1.359,0,0,1-1,.374,1.336,1.336,0,0,1-.977-.374,1.254,1.254,0,0,1-.383-.935,1.281,1.281,0,0,1,.383-.943,1.322,1.322,0,0,1,.977-.382A1.345,1.345,0,0,1,392.371,54.516Z"/><path class="cls-9" d="M397.165,54.516a1.28,1.28,0,0,1,.382.943,1.253,1.253,0,0,1-.382.935,1.359,1.359,0,0,1-1,.374,1.337,1.337,0,0,1-.977-.374,1.254,1.254,0,0,1-.383-.935,1.281,1.281,0,0,1,.383-.943,1.323,1.323,0,0,1,.977-.382A1.345,1.345,0,0,1,397.165,54.516Zm.111,4.173v8.994H395.1V58.689Z"/><path class="cls-9" d="M405.928,59.506l-.849,1.275a4.221,4.221,0,0,0-2.261-.731,1.747,1.747,0,0,0-1,.246.76.76,0,0,0-.357.655.815.815,0,0,0,.153.509,1.376,1.376,0,0,0,.552.383,9.173,9.173,0,0,0,1.181.4,5.171,5.171,0,0,1,2.168,1.037,2.319,2.319,0,0,1,.7,1.8,2.415,2.415,0,0,1-1.088,2.1,4.622,4.622,0,0,1-2.7.756,5.728,5.728,0,0,1-2.014-.339,4.9,4.9,0,0,1-1.573-.936l1.088-1.224a4.013,4.013,0,0,0,2.449.885,2.076,2.076,0,0,0,1.164-.289.911.911,0,0,0,.433-.8,1.065,1.065,0,0,0-.161-.62,1.329,1.329,0,0,0-.578-.408,12.022,12.022,0,0,0-1.3-.434,4.33,4.33,0,0,1-2.022-1.045,2.318,2.318,0,0,1-.647-1.674,2.228,2.228,0,0,1,.434-1.344,2.884,2.884,0,0,1,1.224-.935,4.556,4.556,0,0,1,1.811-.34A5.052,5.052,0,0,1,405.928,59.506Z"/><path class="cls-9" d="M413.136,67.258a3.489,3.489,0,0,1-1.062.509,4.256,4.256,0,0,1-1.2.17,2.668,2.668,0,0,1-2.015-.756A3.1,3.1,0,0,1,408.172,65V60.253h-1.411V58.689h1.411V56.7l2.176-.255v2.243h2.091l-.221,1.564h-1.87v4.693a1.533,1.533,0,0,0,.23.951.864.864,0,0,0,.722.289,2.229,2.229,0,0,0,1.072-.322Z"/><path class="cls-9" d="M416.741,53.743l.884,1.7-3.842,1.531-.613-1.1Zm-.2,4.946v8.994H414.36V58.689Z"/><path class="cls-10" d="M520.591,56.037a5.492,5.492,0,0,1,1.717,1.088L521.2,58.4a4.368,4.368,0,0,0-1.267-.764,3.877,3.877,0,0,0-1.368-.239,2.182,2.182,0,0,0-1.318.366,1.2,1.2,0,0,0-.5,1.028,1.27,1.27,0,0,0,.2.731,1.8,1.8,0,0,0,.7.544,10.14,10.14,0,0,0,1.514.561,6.875,6.875,0,0,1,2.609,1.352,3.046,3.046,0,0,1,.875,2.354,3.331,3.331,0,0,1-.535,1.871,3.551,3.551,0,0,1-1.538,1.274,5.665,5.665,0,0,1-2.38.459,6.319,6.319,0,0,1-2.406-.433,5.63,5.63,0,0,1-1.828-1.181l1.157-1.292a5.209,5.209,0,0,0,1.411.875,4.244,4.244,0,0,0,1.614.3,2.5,2.5,0,0,0,1.565-.459,1.54,1.54,0,0,0,.594-1.292,1.584,1.584,0,0,0-.2-.842,1.769,1.769,0,0,0-.7-.595,8.474,8.474,0,0,0-1.428-.553,6.688,6.688,0,0,1-2.7-1.393,3.134,3.134,0,0,1-.322-3.843,3.364,3.364,0,0,1,1.419-1.139,4.994,4.994,0,0,1,2.065-.407A5.967,5.967,0,0,1,520.591,56.037Z"/><path class="cls-10" d="M526.677,54.848V67.683H524.5v-12.6Zm5.389,3.841-2.992,3.961,3.281,5.033h-2.5l-3.094-4.914,3.009-4.08Z"/><path class="cls-10" d="M540.719,63.857h-5.643a2.851,2.851,0,0,0,.679,1.87,2.106,2.106,0,0,0,1.531.561,3.19,3.19,0,0,0,1.122-.195,5.281,5.281,0,0,0,1.122-.6l.9,1.24a5.167,5.167,0,0,1-3.332,1.207,4.011,4.011,0,0,1-3.17-1.257,5,5,0,0,1-1.113-3.434,6.144,6.144,0,0,1,.476-2.474,3.927,3.927,0,0,1,1.376-1.717,4.1,4.1,0,0,1,5.067.578,4.949,4.949,0,0,1,1.036,3.341C540.77,63.087,540.753,63.382,540.719,63.857Zm-2.107-1.512q0-2.364-1.751-2.364a1.489,1.489,0,0,0-1.25.587,3.493,3.493,0,0,0-.535,1.879h3.536Z"/><path class="cls-10" d="M549.9,59.676a6.312,6.312,0,0,1,.815,3.485,6.831,6.831,0,0,1-.416,2.473,3.769,3.769,0,0,1-1.224,1.692,3.08,3.08,0,0,1-1.912.611,2.8,2.8,0,0,1-2.261-.985v4.2l-2.177.239v-12.7h1.9l.12,1.1a3.523,3.523,0,0,1,1.207-1.02,3.155,3.155,0,0,1,1.427-.34A2.8,2.8,0,0,1,549.9,59.676Zm-1.462,3.5a4.972,4.972,0,0,0-.426-2.38,1.381,1.381,0,0,0-1.274-.732,1.756,1.756,0,0,0-1.021.332,2.885,2.885,0,0,0-.815.892v4.046a1.908,1.908,0,0,0,1.648.935Q548.437,66.271,548.438,63.178Z"/><path class="cls-10" d="M558.008,67.258a3.489,3.489,0,0,1-1.062.509,4.256,4.256,0,0,1-1.2.17,2.668,2.668,0,0,1-2.015-.756A3.1,3.1,0,0,1,553.044,65V60.253h-1.411V58.689h1.411V56.7l2.176-.255v2.243h2.091l-.221,1.564h-1.87v4.693a1.533,1.533,0,0,0,.23.951.864.864,0,0,0,.722.289,2.226,2.226,0,0,0,1.072-.322Z"/><path class="cls-10" d="M561.3,54.516a1.277,1.277,0,0,1,.383.943,1.25,1.25,0,0,1-.383.935,1.358,1.358,0,0,1-.994.374,1.337,1.337,0,0,1-.977-.374,1.254,1.254,0,0,1-.383-.935,1.281,1.281,0,0,1,.383-.943,1.323,1.323,0,0,1,.977-.382A1.344,1.344,0,0,1,561.3,54.516Zm.112,4.173v8.994h-2.177V58.689Z"/><path class="cls-10" d="M569.237,58.689a4.239,4.239,0,0,1,1.334.8L569.6,60.8a3.492,3.492,0,0,0-.884-.493,2.736,2.736,0,0,0-.934-.153q-2.025,0-2.024,3.076a3.75,3.75,0,0,0,.528,2.253,1.77,1.77,0,0,0,1.5.688,2.412,2.412,0,0,0,.875-.153,5.648,5.648,0,0,0,.943-.493l.969,1.377a4.476,4.476,0,0,1-2.906,1.037,4.3,4.3,0,0,1-2.245-.569,3.732,3.732,0,0,1-1.461-1.623,5.643,5.643,0,0,1-.51-2.482,5.923,5.923,0,0,1,.51-2.525,3.9,3.9,0,0,1,1.461-1.7,4.074,4.074,0,0,1,2.227-.6A4.657,4.657,0,0,1,569.237,58.689Zm.62-4.607.833.953-2.362,2.125h-1.361L564.6,55.035l.833-.953,2.21,1.5Z"/><path class="cls-10" d="M577.3,67.258a3.489,3.489,0,0,1-1.062.509,4.258,4.258,0,0,1-1.2.17,2.668,2.668,0,0,1-2.014-.756A3.1,3.1,0,0,1,572.339,65V60.253h-1.411V58.689h1.411V56.7l2.176-.255v2.243h2.091l-.221,1.564h-1.87v4.693a1.533,1.533,0,0,0,.23.951.864.864,0,0,0,.722.289,2.229,2.229,0,0,0,1.072-.322Z"/><path class="cls-10" d="M580.908,53.743l.884,1.7-3.842,1.531-.613-1.1Zm-.2,4.946v8.994h-2.177V58.689Z"/><path class="cls-5" d="M644.125,55.935V67.683H641.88V55.935Zm6.6,0-4.062,5.322,4.385,6.426h-2.668l-4.149-6.273,4.064-5.475Z"/><path class="cls-5" d="M657.572,58.571l-.374,2.108a3.3,3.3,0,0,0-.8-.1,1.529,1.529,0,0,0-1.258.569,4.358,4.358,0,0,0-.73,1.743v4.794h-2.177V58.689h1.888l.2,1.768a3.23,3.23,0,0,1,.934-1.487,2.116,2.116,0,0,1,1.411-.518A3.233,3.233,0,0,1,657.572,58.571Z"/><path class="cls-5" d="M661,54.516a1.28,1.28,0,0,1,.382.943,1.253,1.253,0,0,1-.382.935,1.359,1.359,0,0,1-1,.374,1.337,1.337,0,0,1-.977-.374,1.254,1.254,0,0,1-.383-.935,1.281,1.281,0,0,1,.383-.943,1.323,1.323,0,0,1,.977-.382A1.345,1.345,0,0,1,661,54.516Zm.111,4.173v8.994h-2.177V58.689Z"/><path class="cls-5" d="M668.876,67.258a3.478,3.478,0,0,1-1.062.509,4.256,4.256,0,0,1-1.2.17,2.668,2.668,0,0,1-2.015-.756A3.1,3.1,0,0,1,663.913,65V60.253H662.5V58.689h1.412V56.7l2.175-.255v2.243h2.091l-.22,1.564h-1.871v4.693a1.54,1.54,0,0,0,.23.951.865.865,0,0,0,.723.289,2.226,2.226,0,0,0,1.071-.322Z"/><path class="cls-5" d="M672.166,54.516a1.28,1.28,0,0,1,.382.943,1.253,1.253,0,0,1-.382.935,1.359,1.359,0,0,1-1,.374,1.337,1.337,0,0,1-.977-.374,1.254,1.254,0,0,1-.383-.935,1.281,1.281,0,0,1,.383-.943,1.323,1.323,0,0,1,.977-.382A1.345,1.345,0,0,1,672.166,54.516Zm.111,4.173v8.994H670.1V58.689Z"/><path class="cls-5" d="M680.105,58.689a4.239,4.239,0,0,1,1.334.8L680.47,60.8a3.458,3.458,0,0,0-.884-.493,2.736,2.736,0,0,0-.934-.153q-2.025,0-2.024,3.076a3.75,3.75,0,0,0,.528,2.253,1.77,1.77,0,0,0,1.5.688,2.412,2.412,0,0,0,.875-.153,5.648,5.648,0,0,0,.943-.493l.969,1.377a4.474,4.474,0,0,1-2.906,1.037,4.292,4.292,0,0,1-2.244-.569,3.734,3.734,0,0,1-1.462-1.623,5.643,5.643,0,0,1-.51-2.482,5.923,5.923,0,0,1,.51-2.525,3.905,3.905,0,0,1,1.462-1.7,4.071,4.071,0,0,1,2.226-.6A4.657,4.657,0,0,1,680.105,58.689Zm.62-4.607.833.953L679.2,57.16h-1.361l-2.363-2.125.833-.953,2.21,1.5Z"/><path class="cls-5" d="M688.171,67.258a3.478,3.478,0,0,1-1.062.509,4.256,4.256,0,0,1-1.2.17,2.668,2.668,0,0,1-2.015-.756A3.1,3.1,0,0,1,683.208,65V60.253H681.8V58.689h1.412V56.7l2.175-.255v2.243h2.091l-.221,1.564h-1.87v4.693a1.533,1.533,0,0,0,.23.951.864.864,0,0,0,.722.289,2.226,2.226,0,0,0,1.072-.322Z"/><path class="cls-5" d="M691.776,53.743l.884,1.7-3.842,1.531-.612-1.1Zm-.2,4.946v8.994H689.4V58.689Z"/><g class="cls-11"><path class="cls-12" d="M76.156,199.7v1.223H74.864v2.805H73.4V200.92H68.948v-1.1l3.043-7.667,1.292.493L70.512,199.7h2.906l.154-3.095h1.292V199.7Z"/><path class="cls-12" d="M80.678,192.352v11.373H79.165v-9.774l-2.363,1.6-.7-1.02,3.229-2.177Z"/><path class="cls-12" d="M91.294,192.931a3.542,3.542,0,0,1,0,4.2,2.465,2.465,0,0,1-3.57,0,3.009,3.009,0,0,1-.688-2.091,3.054,3.054,0,0,1,.68-2.107,2.27,2.27,0,0,1,1.785-.766A2.3,2.3,0,0,1,91.294,192.931Zm-3.051,2.107q0,1.854,1.258,1.853a1.033,1.033,0,0,0,.969-.493,2.74,2.74,0,0,0,.289-1.377q0-1.851-1.258-1.853T88.243,195.038Zm7.5-3.366,1,.595-7.106,11.952-1-.6Zm1.861,7.31a3.014,3.014,0,0,1,.689,2.092,3.065,3.065,0,0,1-.68,2.108,2.279,2.279,0,0,1-1.785.765,2.332,2.332,0,0,1-1.8-.765,3.516,3.516,0,0,1,0-4.2,2.331,2.331,0,0,1,1.8-.764A2.282,2.282,0,0,1,97.6,198.982Zm-3.051,2.109q0,1.852,1.275,1.852a1.013,1.013,0,0,0,.96-.492,2.807,2.807,0,0,0,.281-1.377q0-1.854-1.241-1.853Q94.55,199.221,94.55,201.091Z"/></g><g class="cls-11"><path class="cls-7" d="M505.993,192.352v11.373H504.48v-9.774l-2.363,1.6-.7-1.02,3.23-2.177Z"/><path class="cls-7" d="M514.008,196.654a2.764,2.764,0,0,1,1.012,1.223,4.763,4.763,0,0,1,.374,1.99,5.3,5.3,0,0,1-.416,2.184,3.179,3.179,0,0,1-1.165,1.411,3.089,3.089,0,0,1-1.717.485,2.9,2.9,0,0,1-2.678-1.437,7.828,7.828,0,0,1-.858-4,10.6,10.6,0,0,1,.484-3.383,4.8,4.8,0,0,1,1.394-2.192,3.208,3.208,0,0,1,2.134-.766,3.391,3.391,0,0,1,2.108.7l-.595.968a2.641,2.641,0,0,0-1.479-.476,1.971,1.971,0,0,0-1.759,1.157,7.134,7.134,0,0,0-.74,3.195,2.888,2.888,0,0,1,2.482-1.461A2.567,2.567,0,0,1,514.008,196.654Zm-.594,5.363a4.1,4.1,0,0,0,.45-2.117,3.282,3.282,0,0,0-.433-1.9,1.387,1.387,0,0,0-1.182-.595,1.9,1.9,0,0,0-1.182.426,3.664,3.664,0,0,0-.96,1.172,6.787,6.787,0,0,0,.5,2.856,1.55,1.55,0,0,0,1.471.9A1.467,1.467,0,0,0,513.414,202.017Z"/><path class="cls-7" d="M525.041,192.931a3.542,3.542,0,0,1,0,4.2,2.465,2.465,0,0,1-3.57,0,3.009,3.009,0,0,1-.688-2.091,3.054,3.054,0,0,1,.68-2.107,2.27,2.27,0,0,1,1.785-.766A2.3,2.3,0,0,1,525.041,192.931Zm-3.051,2.107q0,1.854,1.258,1.853a1.033,1.033,0,0,0,.969-.493,2.74,2.74,0,0,0,.289-1.377q0-1.851-1.258-1.853T521.99,195.038Zm7.5-3.366,1,.595-7.106,11.952-1-.6Zm1.861,7.31a3.014,3.014,0,0,1,.689,2.092,3.065,3.065,0,0,1-.68,2.108,2.279,2.279,0,0,1-1.785.765,2.328,2.328,0,0,1-1.8-.765,3.512,3.512,0,0,1,0-4.2,2.327,2.327,0,0,1,1.8-.764A2.282,2.282,0,0,1,531.348,198.982Zm-3.051,2.109q0,1.852,1.275,1.852a1.013,1.013,0,0,0,.96-.492,2.807,2.807,0,0,0,.281-1.377q0-1.854-1.241-1.853Q528.3,199.221,528.3,201.091Z"/></g><g class="cls-11"><path class="cls-5" d="M606.9,192.352v11.373h-1.513v-9.774l-2.363,1.6-.7-1.02,3.23-2.177Z"/><path class="cls-5" d="M613.65,192.548a2.7,2.7,0,0,1,1.071,1.037,2.846,2.846,0,0,1,.374,1.436,2.654,2.654,0,0,1-.561,1.76,2.825,2.825,0,0,1-1.6.909,2.742,2.742,0,0,1,1.8.816,2.77,2.77,0,0,1,.68,1.99,3.548,3.548,0,0,1-.433,1.75,3.186,3.186,0,0,1-1.241,1.242,3.75,3.75,0,0,1-1.879.459,3.922,3.922,0,0,1-1.76-.383,4.368,4.368,0,0,1-1.419-1.165l.918-.781a3.764,3.764,0,0,0,1.046.841,2.524,2.524,0,0,0,1.164.264,1.921,1.921,0,0,0,1.488-.6,2.363,2.363,0,0,0,.552-1.658,2.1,2.1,0,0,0-.552-1.623,2.291,2.291,0,0,0-1.59-.5H611l.187-1.138h.476a1.946,1.946,0,0,0,1.4-.528,1.988,1.988,0,0,0,.553-1.512,1.817,1.817,0,0,0-.467-1.327,1.724,1.724,0,0,0-1.284-.476,2.516,2.516,0,0,0-1.1.239,3.672,3.672,0,0,0-1.012.748l-.8-.817a4.157,4.157,0,0,1,3.06-1.36A3.336,3.336,0,0,1,613.65,192.548Z"/><path class="cls-5" d="M625.184,192.931a3.542,3.542,0,0,1,0,4.2,2.465,2.465,0,0,1-3.57,0,3.009,3.009,0,0,1-.688-2.091,3.054,3.054,0,0,1,.68-2.107,2.27,2.27,0,0,1,1.785-.766A2.3,2.3,0,0,1,625.184,192.931Zm-3.051,2.107q0,1.854,1.258,1.853a1.033,1.033,0,0,0,.969-.493,2.74,2.74,0,0,0,.289-1.377q0-1.851-1.258-1.853T622.133,195.038Zm7.5-3.366,1,.595-7.106,11.952-1-.6Zm1.861,7.31a3.014,3.014,0,0,1,.689,2.092,3.065,3.065,0,0,1-.68,2.108,2.279,2.279,0,0,1-1.785.765,2.328,2.328,0,0,1-1.8-.765,3.512,3.512,0,0,1,0-4.2,2.327,2.327,0,0,1,1.8-.764A2.282,2.282,0,0,1,631.491,198.982Zm-3.051,2.109q0,1.852,1.275,1.852a1.013,1.013,0,0,0,.96-.492,2.807,2.807,0,0,0,.281-1.377q0-1.854-1.241-1.853Q628.44,199.221,628.44,201.091Z"/></g><g class="cls-11"><path class="cls-12" d="M694.219,196.654a2.771,2.771,0,0,1,1.012,1.223,4.763,4.763,0,0,1,.374,1.99,5.286,5.286,0,0,1-.417,2.184,3.177,3.177,0,0,1-1.164,1.411,3.089,3.089,0,0,1-1.717.485,2.9,2.9,0,0,1-2.678-1.437,7.828,7.828,0,0,1-.858-4,10.6,10.6,0,0,1,.484-3.383,4.8,4.8,0,0,1,1.394-2.192,3.208,3.208,0,0,1,2.134-.766,3.391,3.391,0,0,1,2.108.7l-.595.968a2.641,2.641,0,0,0-1.479-.476,1.971,1.971,0,0,0-1.759,1.157,7.134,7.134,0,0,0-.74,3.195,2.888,2.888,0,0,1,2.482-1.461A2.569,2.569,0,0,1,694.219,196.654Zm-.594,5.363a4.1,4.1,0,0,0,.45-2.117,3.282,3.282,0,0,0-.433-1.9,1.387,1.387,0,0,0-1.182-.595,1.9,1.9,0,0,0-1.182.426,3.664,3.664,0,0,0-.96,1.172,6.787,6.787,0,0,0,.5,2.856,1.55,1.55,0,0,0,1.471.9A1.467,1.467,0,0,0,693.625,202.017Z"/><path class="cls-12" d="M705.252,192.931a3.542,3.542,0,0,1,0,4.2,2.465,2.465,0,0,1-3.57,0,3.009,3.009,0,0,1-.688-2.091,3.054,3.054,0,0,1,.68-2.107,2.27,2.27,0,0,1,1.785-.766A2.3,2.3,0,0,1,705.252,192.931Zm-3.051,2.107q0,1.854,1.258,1.853a1.033,1.033,0,0,0,.969-.493,2.74,2.74,0,0,0,.289-1.377q0-1.851-1.258-1.853T702.2,195.038Zm7.5-3.366,1,.595L703.6,204.219l-1-.6Zm1.861,7.31a3.014,3.014,0,0,1,.689,2.092,3.065,3.065,0,0,1-.68,2.108,2.279,2.279,0,0,1-1.785.765,2.332,2.332,0,0,1-1.8-.765,3.516,3.516,0,0,1,0-4.2,2.331,2.331,0,0,1,1.8-.764A2.282,2.282,0,0,1,711.559,198.982Zm-3.051,2.109q0,1.852,1.275,1.852a1.013,1.013,0,0,0,.96-.492,2.807,2.807,0,0,0,.281-1.377q0-1.854-1.241-1.853Q708.508,199.221,708.508,201.091Z"/></g><g class="cls-11"><path class="cls-12" d="M73.5,121.8a2.739,2.739,0,0,1,1.08,1.089,3.207,3.207,0,0,1,.374,1.555,4.909,4.909,0,0,1-.4,1.963,9.816,9.816,0,0,1-1.283,2.066q-.885,1.139-2.721,3.23H75.2l-.187,1.258H68.863v-1.191q1.971-2.277,2.881-3.45a9.7,9.7,0,0,0,1.267-2.014,4.506,4.506,0,0,0,.357-1.777,1.994,1.994,0,0,0-.451-1.394,1.564,1.564,0,0,0-1.215-.493,2.115,2.115,0,0,0-1.122.289,4.015,4.015,0,0,0-.986.918l-.952-.731a3.77,3.77,0,0,1,3.179-1.717A3.344,3.344,0,0,1,73.5,121.8Z"/><path class="cls-12" d="M83.16,128.146a2.939,2.939,0,0,1,.544,1.8,3.2,3.2,0,0,1-.442,1.683A2.989,2.989,0,0,1,82,132.77a4.26,4.26,0,0,1-1.912.408,4.179,4.179,0,0,1-1.879-.4,2.886,2.886,0,0,1-1.241-1.13,3.2,3.2,0,0,1-.433-1.666,3.125,3.125,0,0,1,2.158-3.026,3.521,3.521,0,0,1-1.325-1.122,2.717,2.717,0,0,1-.408-1.513,2.861,2.861,0,0,1,.425-1.581,2.7,2.7,0,0,1,1.147-1,3.684,3.684,0,0,1,1.59-.34,3.452,3.452,0,0,1,2.269.748,2.579,2.579,0,0,1,.91,2.108,2.539,2.539,0,0,1-.442,1.5,3.908,3.908,0,0,1-1.411,1.139A4.26,4.26,0,0,1,83.16,128.146Zm-1.53,3.324a2.4,2.4,0,0,0,.093-2.924,4.49,4.49,0,0,0-1.606-.978l-.476-.187a3,3,0,0,0-1.2,1.037,2.837,2.837,0,0,0-.382,1.53,2,2,0,0,0,.544,1.53,2.484,2.484,0,0,0,3.026-.008Zm-2.737-8.5a1.838,1.838,0,0,0-.459,1.368,1.752,1.752,0,0,0,.382,1.2,3.493,3.493,0,0,0,1.3.807l.391.17a3.215,3.215,0,0,0,1.011-.977,2.349,2.349,0,0,0,.3-1.216,1.858,1.858,0,0,0-.442-1.351,1.657,1.657,0,0,0-1.241-.451A1.691,1.691,0,0,0,78.893,122.97Z"/><path class="cls-12" d="M93.351,122.162a3.543,3.543,0,0,1,0,4.2,2.465,2.465,0,0,1-3.57,0,3.011,3.011,0,0,1-.689-2.091,3.064,3.064,0,0,1,.68-2.108,2.274,2.274,0,0,1,1.785-.765A2.3,2.3,0,0,1,93.351,122.162ZM90.3,124.27q0,1.853,1.258,1.853a1.032,1.032,0,0,0,.969-.493,2.734,2.734,0,0,0,.289-1.377q0-1.853-1.258-1.853T90.3,124.27Zm7.5-3.366,1,.595L91.693,133.45l-1-.595Zm1.862,7.31a3.011,3.011,0,0,1,.688,2.091,3.063,3.063,0,0,1-.679,2.108,2.276,2.276,0,0,1-1.786.765,2.327,2.327,0,0,1-1.8-.765,3.511,3.511,0,0,1,0-4.2,2.327,2.327,0,0,1,1.8-.765A2.282,2.282,0,0,1,99.658,128.214Zm-3.052,2.108q0,1.854,1.275,1.853a1.014,1.014,0,0,0,.961-.493,2.807,2.807,0,0,0,.281-1.377q0-1.853-1.242-1.853Q96.606,128.452,96.606,130.322Z"/></g><g class="cls-11"><path class="cls-7" d="M473.448,121.8a2.73,2.73,0,0,1,1.079,1.089,3.207,3.207,0,0,1,.374,1.555,4.908,4.908,0,0,1-.4,1.963,9.825,9.825,0,0,1-1.284,2.066q-.883,1.139-2.72,3.23h4.658l-.187,1.258h-6.154v-1.191q1.973-2.277,2.882-3.45a9.647,9.647,0,0,0,1.266-2.014,4.506,4.506,0,0,0,.357-1.777,1.994,1.994,0,0,0-.45-1.394,1.567,1.567,0,0,0-1.216-.493,2.12,2.12,0,0,0-1.122.289,4.032,4.032,0,0,0-.986.918l-.952-.731a3.77,3.77,0,0,1,3.179-1.717A3.348,3.348,0,0,1,473.448,121.8Z"/><path class="cls-7" d="M480.945,121.8a2.73,2.73,0,0,1,1.079,1.089,3.207,3.207,0,0,1,.374,1.555,4.908,4.908,0,0,1-.4,1.963,9.825,9.825,0,0,1-1.284,2.066q-.883,1.139-2.72,3.23h4.658l-.187,1.258h-6.153v-1.191q1.971-2.277,2.881-3.45a9.647,9.647,0,0,0,1.266-2.014,4.506,4.506,0,0,0,.357-1.777,1.994,1.994,0,0,0-.45-1.394,1.567,1.567,0,0,0-1.216-.493,2.12,2.12,0,0,0-1.122.289,4.032,4.032,0,0,0-.986.918l-.952-.731a3.772,3.772,0,0,1,3.18-1.717A3.344,3.344,0,0,1,480.945,121.8Z"/><path class="cls-7" d="M492.3,122.162a3.543,3.543,0,0,1,0,4.2,2.465,2.465,0,0,1-3.57,0,3.011,3.011,0,0,1-.688-2.091,3.064,3.064,0,0,1,.68-2.108,2.273,2.273,0,0,1,1.785-.765A2.3,2.3,0,0,1,492.3,122.162Zm-3.051,2.108q0,1.853,1.258,1.853a1.033,1.033,0,0,0,.969-.493,2.745,2.745,0,0,0,.289-1.377q0-1.853-1.258-1.853T489.249,124.27Zm7.5-3.366,1,.595-7.106,11.951-1-.595Zm1.861,7.31a3.011,3.011,0,0,1,.689,2.091,3.064,3.064,0,0,1-.68,2.108,2.274,2.274,0,0,1-1.785.765,2.326,2.326,0,0,1-1.8-.765,3.511,3.511,0,0,1,0-4.2,2.326,2.326,0,0,1,1.8-.765A2.28,2.28,0,0,1,498.607,128.214Zm-3.051,2.108q0,1.854,1.275,1.853a1.014,1.014,0,0,0,.961-.493,2.808,2.808,0,0,0,.28-1.377q0-1.853-1.241-1.853Q495.556,128.452,495.556,130.322Z"/></g><g class="cls-11"><path class="cls-5" d="M606.9,121.584v11.373h-1.513v-9.775l-2.363,1.6-.7-1.02,3.23-2.176Z"/><path class="cls-5" d="M615.138,122.57a5.538,5.538,0,0,1,.858,3.315,9.524,9.524,0,0,1-.612,3.7,5.278,5.278,0,0,1-1.827,2.295,11.07,11.07,0,0,1-3.222,1.453l-.34-1.122a7.58,7.58,0,0,0,3.154-1.726A4.647,4.647,0,0,0,614.4,127.5a3.259,3.259,0,0,1-1.011.961,2.629,2.629,0,0,1-2.763-.094,2.987,2.987,0,0,1-1.045-1.267,4.539,4.539,0,0,1-.383-1.929,4.37,4.37,0,0,1,.442-2.04,3.1,3.1,0,0,1,1.207-1.292,3.4,3.4,0,0,1,1.734-.442A2.969,2.969,0,0,1,615.138,122.57Zm-.706,3.638a6.423,6.423,0,0,0-.416-2.8,1.479,1.479,0,0,0-1.42-.842,1.625,1.625,0,0,0-1.377.655,3.239,3.239,0,0,0-.493,1.963,3.089,3.089,0,0,0,.459,1.836,1.474,1.474,0,0,0,1.258.629A2.366,2.366,0,0,0,614.432,126.208Z"/><path class="cls-5" d="M625.779,122.162a3.543,3.543,0,0,1,0,4.2,2.465,2.465,0,0,1-3.57,0,3.016,3.016,0,0,1-.688-2.091,3.064,3.064,0,0,1,.68-2.108,2.273,2.273,0,0,1,1.785-.765A2.3,2.3,0,0,1,625.779,122.162Zm-3.051,2.108q0,1.853,1.258,1.853a1.033,1.033,0,0,0,.969-.493,2.745,2.745,0,0,0,.289-1.377q0-1.853-1.258-1.853T622.728,124.27Zm7.5-3.366,1,.595-7.106,11.951-1-.595Zm1.861,7.31a3.011,3.011,0,0,1,.689,2.091,3.064,3.064,0,0,1-.68,2.108,2.274,2.274,0,0,1-1.785.765,2.326,2.326,0,0,1-1.8-.765,3.511,3.511,0,0,1,0-4.2,2.326,2.326,0,0,1,1.8-.765A2.28,2.28,0,0,1,632.086,128.214Zm-3.051,2.108q0,1.854,1.275,1.853a1.014,1.014,0,0,0,.961-.493,2.808,2.808,0,0,0,.28-1.377q0-1.853-1.241-1.853Q629.035,128.452,629.035,130.322Z"/></g><g class="cls-11"><path class="cls-12" d="M687.139,121.584v11.373h-1.513v-9.775l-2.363,1.6-.7-1.02,3.23-2.176Z"/><path class="cls-12" d="M693.9,121.8a2.739,2.739,0,0,1,1.08,1.089,3.207,3.207,0,0,1,.374,1.555,4.909,4.909,0,0,1-.4,1.963,9.816,9.816,0,0,1-1.283,2.066q-.885,1.139-2.721,3.23h4.659l-.188,1.258h-6.153v-1.191q1.971-2.277,2.881-3.45a9.7,9.7,0,0,0,1.267-2.014,4.523,4.523,0,0,0,.357-1.777,1.994,1.994,0,0,0-.451-1.394,1.564,1.564,0,0,0-1.215-.493,2.121,2.121,0,0,0-1.123.289,4.012,4.012,0,0,0-.985.918l-.953-.731a3.773,3.773,0,0,1,3.18-1.717A3.344,3.344,0,0,1,693.9,121.8Z"/><path class="cls-12" d="M705.251,122.162a3.543,3.543,0,0,1,0,4.2,2.464,2.464,0,0,1-3.569,0,3.011,3.011,0,0,1-.689-2.091,3.064,3.064,0,0,1,.68-2.108,2.273,2.273,0,0,1,1.785-.765A2.3,2.3,0,0,1,705.251,122.162ZM702.2,124.27q0,1.853,1.258,1.853a1.033,1.033,0,0,0,.969-.493,2.734,2.734,0,0,0,.289-1.377q0-1.853-1.258-1.853T702.2,124.27Zm7.5-3.366,1,.595-7.106,11.951-1-.595Zm1.862,7.31a3.011,3.011,0,0,1,.688,2.091,3.059,3.059,0,0,1-.68,2.108,2.273,2.273,0,0,1-1.785.765,2.326,2.326,0,0,1-1.8-.765,3.511,3.511,0,0,1,0-4.2,2.326,2.326,0,0,1,1.8-.765A2.282,2.282,0,0,1,711.559,128.214Zm-3.052,2.108q0,1.854,1.275,1.853a1.014,1.014,0,0,0,.961-.493,2.808,2.808,0,0,0,.28-1.377q0-1.853-1.241-1.853Q708.507,128.452,708.507,130.322Z"/></g><g class="cls-11"><path class="cls-1" d="M338.643,192.565a2.73,2.73,0,0,1,1.079,1.089,3.207,3.207,0,0,1,.374,1.555,4.908,4.908,0,0,1-.4,1.963,9.867,9.867,0,0,1-1.284,2.066q-.884,1.139-2.72,3.23h4.658l-.187,1.258H334.01v-1.19q1.972-2.279,2.882-3.451a9.647,9.647,0,0,0,1.266-2.014,4.506,4.506,0,0,0,.357-1.777,1.99,1.99,0,0,0-.451-1.394,1.563,1.563,0,0,0-1.215-.493,2.115,2.115,0,0,0-1.122.289,4.032,4.032,0,0,0-.986.918l-.952-.731a3.77,3.77,0,0,1,3.179-1.717A3.351,3.351,0,0,1,338.643,192.565Z"/><path class="cls-1" d="M347.542,193.543h-3.978v3.4a3.214,3.214,0,0,1,1.666-.476,2.619,2.619,0,0,1,2.108.952,3.976,3.976,0,0,1,.8,2.635,4.4,4.4,0,0,1-.45,2.023,3.355,3.355,0,0,1-1.267,1.377,3.608,3.608,0,0,1-1.9.493,3.738,3.738,0,0,1-1.708-.374,4.883,4.883,0,0,1-1.4-1.105l.9-.816a3.76,3.76,0,0,0,1,.79,2.5,2.5,0,0,0,1.173.264,1.84,1.84,0,0,0,1.53-.689,3.131,3.131,0,0,0,.544-1.98q0-2.431-1.836-2.431a2.4,2.4,0,0,0-.748.111,4.33,4.33,0,0,0-.765.348H342.1v-5.712h5.644Z"/><path class="cls-1" d="M357.8,192.931a3.543,3.543,0,0,1,0,4.2,2.465,2.465,0,0,1-3.57,0,3.011,3.011,0,0,1-.689-2.091,3.059,3.059,0,0,1,.681-2.108,2.272,2.272,0,0,1,1.784-.765A2.3,2.3,0,0,1,357.8,192.931Zm-3.051,2.108q0,1.853,1.257,1.853a1.034,1.034,0,0,0,.97-.493,2.745,2.745,0,0,0,.289-1.377q0-1.852-1.259-1.853T354.75,195.039Zm7.5-3.366,1,.595-7.106,11.951-1-.595Zm1.861,7.31a3.011,3.011,0,0,1,.688,2.091,3.062,3.062,0,0,1-.679,2.108,2.276,2.276,0,0,1-1.785.765,2.328,2.328,0,0,1-1.8-.765,3.515,3.515,0,0,1,0-4.2,2.328,2.328,0,0,1,1.8-.765A2.28,2.28,0,0,1,364.108,198.983Zm-3.051,2.108q0,1.854,1.275,1.853a1.012,1.012,0,0,0,.96-.493,2.807,2.807,0,0,0,.281-1.377q0-1.853-1.241-1.853Q361.056,199.221,361.057,201.091Z"/></g><g class="cls-11"><path class="cls-1" d="M332.936,121.583v11.373h-1.513v-9.775l-2.363,1.6-.7-1.02,3.23-2.176Z"/><path class="cls-1" d="M341.172,122.569a5.531,5.531,0,0,1,.859,3.315,9.524,9.524,0,0,1-.612,3.7,5.28,5.28,0,0,1-1.828,2.3,11.051,11.051,0,0,1-3.221,1.453l-.34-1.122a7.587,7.587,0,0,0,3.154-1.726,4.652,4.652,0,0,0,1.249-2.983,3.262,3.262,0,0,1-1.012.961,2.622,2.622,0,0,1-2.762-.094,2.992,2.992,0,0,1-1.046-1.266,4.547,4.547,0,0,1-.382-1.93,4.37,4.37,0,0,1,.442-2.04,3.1,3.1,0,0,1,1.207-1.292,3.4,3.4,0,0,1,1.734-.442A2.966,2.966,0,0,1,341.172,122.569Zm-.705,3.638a6.42,6.42,0,0,0-.417-2.8,1.479,1.479,0,0,0-1.419-.842,1.625,1.625,0,0,0-1.377.655,3.239,3.239,0,0,0-.493,1.963,3.089,3.089,0,0,0,.459,1.836,1.473,1.473,0,0,0,1.258.628A2.365,2.365,0,0,0,340.467,126.207Z"/><path class="cls-1" d="M351.814,122.161a3.543,3.543,0,0,1,0,4.2,2.465,2.465,0,0,1-3.57,0,3.011,3.011,0,0,1-.688-2.091,3.059,3.059,0,0,1,.68-2.108,2.273,2.273,0,0,1,1.785-.765A2.3,2.3,0,0,1,351.814,122.161Zm-3.051,2.108q0,1.852,1.258,1.853a1.033,1.033,0,0,0,.969-.493,2.745,2.745,0,0,0,.289-1.377q0-1.853-1.258-1.853T348.763,124.269Zm7.5-3.366,1,.595-7.106,11.951-1-.595Zm1.861,7.31a3.011,3.011,0,0,1,.689,2.091,3.064,3.064,0,0,1-.68,2.108,2.276,2.276,0,0,1-1.785.765,2.328,2.328,0,0,1-1.8-.765,3.515,3.515,0,0,1,0-4.2,2.328,2.328,0,0,1,1.8-.765A2.28,2.28,0,0,1,358.121,128.213Zm-3.051,2.108q0,1.854,1.275,1.853a1.012,1.012,0,0,0,.96-.493,2.807,2.807,0,0,0,.281-1.377q0-1.853-1.241-1.853Q355.07,128.451,355.07,130.321Z"/></g><path class="cls-13" d="M257.7,255.73v1.308l-5.8,9.028h5.8l-.188,1.377H250.1v-1.292l5.849-9.062h-5.237V255.73Z"/><path class="cls-13" d="M266.645,254.879v12.564h-1.377l-.152-1.241a3.24,3.24,0,0,1-1.106,1.062,3.077,3.077,0,0,1-3.969-.876,5.738,5.738,0,0,1-.893-3.383,6.6,6.6,0,0,1,.425-2.447,3.785,3.785,0,0,1,1.224-1.675,3.02,3.02,0,0,1,1.87-.6,3.22,3.22,0,0,1,2.415,1.1v-4.691Zm-2.55,11.2a3.818,3.818,0,0,0,.987-1v-4.385a3.384,3.384,0,0,0-.944-.876,2.181,2.181,0,0,0-1.131-.3,1.816,1.816,0,0,0-1.606.866,4.746,4.746,0,0,0-.569,2.584,5,5,0,0,0,.526,2.584,1.679,1.679,0,0,0,1.514.851A2.2,2.2,0,0,0,264.1,266.074Z"/><path class="cls-13" d="M274.652,258.381l-.289,1.531a3.169,3.169,0,0,0-.781-.1,1.664,1.664,0,0,0-1.344.611,4.54,4.54,0,0,0-.8,1.905v5.117h-1.563v-8.959h1.342l.154,1.818a3.393,3.393,0,0,1,.968-1.513,2.169,2.169,0,0,1,1.428-.509A3.692,3.692,0,0,1,274.652,258.381Z"/><path class="cls-13" d="M282.225,259.537a5.184,5.184,0,0,1,1.046,3.417,5.961,5.961,0,0,1-.476,2.457,3.725,3.725,0,0,1-1.377,1.649,3.841,3.841,0,0,1-2.142.587,3.627,3.627,0,0,1-2.941-1.259,5.15,5.15,0,0,1-1.054-3.417,5.959,5.959,0,0,1,.476-2.456,3.73,3.73,0,0,1,1.377-1.649,3.872,3.872,0,0,1,2.159-.586A3.6,3.6,0,0,1,282.225,259.537Zm-5.261,3.434q0,3.417,2.312,3.417t2.312-3.434q0-3.417-2.3-3.417Q276.964,259.537,276.964,262.971Z"/><path class="cls-13" d="M287.384,266.9a5.344,5.344,0,0,1-.305,1.988,2.942,2.942,0,0,1-.893,1.216,7.856,7.856,0,0,1-1.641.943l-.459-1.138a4.686,4.686,0,0,0,1.021-.6,1.781,1.781,0,0,0,.535-.833,4.823,4.823,0,0,0,.179-1.471v-8.516h1.563Zm.018-12.41a1.037,1.037,0,0,1,.306.764,1.009,1.009,0,0,1-.306.757,1.1,1.1,0,0,1-.8.3,1.078,1.078,0,0,1-.782-.3,1.009,1.009,0,0,1-.306-.757,1.037,1.037,0,0,1,.306-.764,1.06,1.06,0,0,1,.782-.306A1.082,1.082,0,0,1,287.4,254.489Z"/><path class="cls-13" d="M302.055,254.879v12.564h-1.377l-.152-1.241a3.24,3.24,0,0,1-1.106,1.062,3.077,3.077,0,0,1-3.969-.876,5.738,5.738,0,0,1-.893-3.383,6.6,6.6,0,0,1,.425-2.447,3.779,3.779,0,0,1,1.225-1.675,3.016,3.016,0,0,1,1.87-.6,3.218,3.218,0,0,1,2.414,1.1v-4.691Zm-2.55,11.2a3.818,3.818,0,0,0,.987-1v-4.385a3.384,3.384,0,0,0-.944-.876,2.181,2.181,0,0,0-1.131-.3,1.816,1.816,0,0,0-1.606.866,4.746,4.746,0,0,0-.569,2.584,5.006,5.006,0,0,0,.526,2.584,1.682,1.682,0,0,0,1.514.851A2.193,2.193,0,0,0,299.505,266.074Z"/><path class="cls-13" d="M311.507,266.159a1.142,1.142,0,0,0,.562.4l-.358,1.088a2.411,2.411,0,0,1-1.122-.392,1.786,1.786,0,0,1-.629-.952,3,3,0,0,1-2.668,1.344,2.859,2.859,0,0,1-2.091-.748,2.611,2.611,0,0,1-.766-1.955,2.57,2.57,0,0,1,1.029-2.194,4.82,4.82,0,0,1,2.915-.764h1.377v-.663a1.746,1.746,0,0,0-.459-1.361,2.08,2.08,0,0,0-1.411-.408,7.88,7.88,0,0,0-2.414.477l-.39-1.139a9.008,9.008,0,0,1,3.093-.612,3.236,3.236,0,0,1,2.364.773,2.964,2.964,0,0,1,.782,2.2v4.1A1.4,1.4,0,0,0,311.507,266.159Zm-1.751-1.08v-2.056h-1.172q-2.484,0-2.483,1.836a1.683,1.683,0,0,0,.392,1.207,1.529,1.529,0,0,0,1.155.407A2.333,2.333,0,0,0,309.756,265.079Z"/><path class="cls-13" d="M319.055,267.035a3.439,3.439,0,0,1-2.006.612,2.366,2.366,0,0,1-1.776-.655,2.608,2.608,0,0,1-.638-1.9v-5.405h-1.563v-1.207h1.563V256.46l1.565-.186v2.21h2.125l-.17,1.207H316.2v5.338a1.649,1.649,0,0,0,.246,1.011.987.987,0,0,0,.824.315,2.553,2.553,0,0,0,1.19-.358Z"/><path class="cls-13" d="M322,259.368a1.131,1.131,0,0,1,.339.833,1.161,1.161,0,0,1-.339.841,1.137,1.137,0,0,1-.85.349,1.117,1.117,0,0,1-.833-.349,1.155,1.155,0,0,1-.341-.841,1.163,1.163,0,0,1,1.174-1.173A1.152,1.152,0,0,1,322,259.368Zm0,6.255a1.136,1.136,0,0,1,.339.833,1.161,1.161,0,0,1-.339.842,1.137,1.137,0,0,1-.85.349,1.117,1.117,0,0,1-.833-.349,1.155,1.155,0,0,1-.341-.842,1.161,1.161,0,0,1,1.174-1.172A1.156,1.156,0,0,1,322,265.623Z"/><path class="cls-13" d="M337.058,255.73l-3.739,11.713h-1.735L327.81,255.73h1.734l2.942,9.962,2.94-9.962Z"/><path class="cls-13" d="M342.193,267.494a6.045,6.045,0,0,1-1.471,2.473,4.438,4.438,0,0,1-2.694,1.1l-.17-1.225a4.607,4.607,0,0,0,1.411-.441,2.453,2.453,0,0,0,.841-.74,5.179,5.179,0,0,0,.587-1.215h-.528l-3.008-8.959h1.666l2.4,7.819,2.346-7.819h1.615Zm.323-13.668.7,1.308-3.6,1.462-.477-.833Z"/><path class="cls-13" d="M352.222,258.484v1.189l-4.675,6.46h4.726l-.187,1.31h-6.307V266.27l4.658-6.46H346.17v-1.326Z"/><path class="cls-13" d="M355.961,254.693v12.75H354.4V254.879Zm5.152,3.791-3.3,3.961,3.672,5h-1.87l-3.553-4.9,3.3-4.062Z"/><path class="cls-13" d="M369.647,267.443H368.3l-.118-1.395a3.411,3.411,0,0,1-1.174,1.216,3.176,3.176,0,0,1-1.614.383,2.381,2.381,0,0,1-1.836-.714,2.864,2.864,0,0,1-.663-2.023v-6.426h1.563v6.256a2.026,2.026,0,0,0,.324,1.3,1.306,1.306,0,0,0,1.053.382,2.662,2.662,0,0,0,2.245-1.547v-6.391h1.564Z"/><path class="cls-13" d="M383.638,259.019a2.878,2.878,0,0,1,.663,2v6.426h-1.564v-6.2q0-1.735-1.258-1.735a1.7,1.7,0,0,0-1.122.383,5.311,5.311,0,0,0-.985,1.2v6.359h-1.565v-6.2q0-1.735-1.258-1.735a1.691,1.691,0,0,0-1.138.392,5.345,5.345,0,0,0-.97,1.189v6.359h-1.564v-8.959h1.343l.136,1.308a3,3,0,0,1,2.584-1.512A2.251,2.251,0,0,1,379.2,259.9a4.189,4.189,0,0,1,1.164-1.2,2.685,2.685,0,0,1,1.5-.416A2.256,2.256,0,0,1,383.638,259.019Z"/><path class="cls-13" d="M397.909,255.8a5.361,5.361,0,0,1,1.47.884l-.883,1.037a3.547,3.547,0,0,0-2.261-.866,2.862,2.862,0,0,0-2.355,1.121,7.672,7.672,0,0,0-.008,7.166,2.813,2.813,0,0,0,2.345,1.148,3.14,3.14,0,0,0,1.31-.255,6.92,6.92,0,0,0,1.189-.714l.8,1.019a4.348,4.348,0,0,1-1.393.936,4.825,4.825,0,0,1-1.955.374,4.493,4.493,0,0,1-4.276-2.78,7.918,7.918,0,0,1-.621-3.289,7.652,7.652,0,0,1,.647-3.29,4.756,4.756,0,0,1,1.75-2.066,4.533,4.533,0,0,1,2.465-.7A5.106,5.106,0,0,1,397.909,255.8Zm.484-3.807.663.764-2.295,1.87h-1.037l-2.311-1.87.679-.764,2.143,1.377Z"/><path class="cls-13" d="M407.863,263.5h-5.712a3.485,3.485,0,0,0,.748,2.176,2.168,2.168,0,0,0,1.666.7,3.657,3.657,0,0,0,1.19-.186,4.762,4.762,0,0,0,1.139-.6l.68.936a4.949,4.949,0,0,1-3.128,1.122,3.625,3.625,0,0,1-2.915-1.225,5.014,5.014,0,0,1-1.046-3.366,6.364,6.364,0,0,1,.451-2.473,3.875,3.875,0,0,1,1.292-1.691,3.277,3.277,0,0,1,1.981-.612,3.318,3.318,0,0,1,2.736,1.173,5.013,5.013,0,0,1,.952,3.247C407.9,262.96,407.885,263.227,407.863,263.5Zm-1.513-1.257a3.318,3.318,0,0,0-.527-2.024,1.857,1.857,0,0,0-1.581-.7q-1.921,0-2.091,2.821h4.2Z"/><path class="cls-13" d="M414.476,258.535a4.939,4.939,0,0,1,1.394.764l-.663.987a5.428,5.428,0,0,0-1.165-.579,3.622,3.622,0,0,0-1.165-.186,2.048,2.048,0,0,0-1.207.314,1.066,1.066,0,0,0-.025,1.708,4.808,4.808,0,0,0,1.5.595,5.379,5.379,0,0,1,2.235,1.021,2.223,2.223,0,0,1,.74,1.767,2.293,2.293,0,0,1-1.029,2.024,4.368,4.368,0,0,1-2.508.7,4.956,4.956,0,0,1-3.382-1.174l.833-.951a4.057,4.057,0,0,0,2.516.866,2.394,2.394,0,0,0,1.4-.365,1.154,1.154,0,0,0,.518-.994,1.309,1.309,0,0,0-.187-.74,1.522,1.522,0,0,0-.646-.493,9,9,0,0,0-1.344-.451,4.581,4.581,0,0,1-2.065-1,2.147,2.147,0,0,1-.637-1.6,2.1,2.1,0,0,1,.416-1.267,2.7,2.7,0,0,1,1.156-.884,4.192,4.192,0,0,1,1.658-.314A4.986,4.986,0,0,1,414.476,258.535Z"/><path class="cls-13" d="M419.9,254.693v12.75h-1.564V254.879Zm5.151,3.791-3.3,3.961,3.672,5h-1.87l-3.553-4.9,3.3-4.062Z"/><path class="cls-13" d="M433.005,266.159a1.142,1.142,0,0,0,.562.4l-.358,1.088a2.411,2.411,0,0,1-1.122-.392,1.779,1.779,0,0,1-.628-.952,3.006,3.006,0,0,1-2.669,1.344,2.861,2.861,0,0,1-2.091-.748,2.611,2.611,0,0,1-.766-1.955,2.57,2.57,0,0,1,1.029-2.194,4.82,4.82,0,0,1,2.915-.764h1.377v-.663a1.746,1.746,0,0,0-.459-1.361,2.08,2.08,0,0,0-1.411-.408,7.88,7.88,0,0,0-2.414.477l-.39-1.139a9.008,9.008,0,0,1,3.093-.612,3.236,3.236,0,0,1,2.364.773,2.964,2.964,0,0,1,.782,2.2v4.1A1.4,1.4,0,0,0,433.005,266.159Zm-2.056-12.333.7,1.308-3.6,1.462-.476-.833Zm.305,11.253v-2.056h-1.172q-2.484,0-2.483,1.836a1.683,1.683,0,0,0,.392,1.207,1.529,1.529,0,0,0,1.155.407A2.332,2.332,0,0,0,431.254,265.079Z"/><path class="cls-13" d="M444.617,258.535a4.921,4.921,0,0,1,1.393.764l-.663.987a5.422,5.422,0,0,0-1.164-.579,3.627,3.627,0,0,0-1.165-.186,2.046,2.046,0,0,0-1.207.314,1.066,1.066,0,0,0-.025,1.708,4.808,4.808,0,0,0,1.5.595,5.379,5.379,0,0,1,2.235,1.021,2.222,2.222,0,0,1,.739,1.767,2.294,2.294,0,0,1-1.028,2.024,4.372,4.372,0,0,1-2.508.7,4.96,4.96,0,0,1-3.383-1.174l.833-.951a4.061,4.061,0,0,0,2.517.866,2.39,2.39,0,0,0,1.4-.365,1.153,1.153,0,0,0,.519-.994,1.309,1.309,0,0,0-.188-.74,1.525,1.525,0,0,0-.645-.493,9,9,0,0,0-1.344-.451,4.576,4.576,0,0,1-2.065-1,2.147,2.147,0,0,1-.637-1.6,2.094,2.094,0,0,1,.416-1.267,2.7,2.7,0,0,1,1.156-.884,4.187,4.187,0,0,1,1.657-.314A4.992,4.992,0,0,1,444.617,258.535Z"/><path class="cls-13" d="M455.106,259.5a6.3,6.3,0,0,1,.8,3.451,5.749,5.749,0,0,1-.918,3.4,3,3,0,0,1-2.6,1.292,2.888,2.888,0,0,1-2.346-1.021v4.25l-1.564.188v-12.58h1.343l.119,1.207a3.433,3.433,0,0,1,1.189-1.046,3.118,3.118,0,0,1,1.462-.365A2.789,2.789,0,0,1,455.106,259.5Zm-.884,3.451q0-3.433-2.023-3.433a2.017,2.017,0,0,0-1.207.391,3.822,3.822,0,0,0-.952,1v4.37a2.356,2.356,0,0,0,.85.807,2.289,2.289,0,0,0,1.122.28Q454.222,266.371,454.222,262.954Z"/><path class="cls-13" d="M464.872,259.537a5.184,5.184,0,0,1,1.045,3.417,5.977,5.977,0,0,1-.475,2.457,3.725,3.725,0,0,1-1.377,1.649,3.844,3.844,0,0,1-2.143.587,3.625,3.625,0,0,1-2.94-1.259,5.151,5.151,0,0,1-1.055-3.417,5.943,5.943,0,0,1,.477-2.456,3.717,3.717,0,0,1,1.377-1.649,3.868,3.868,0,0,1,2.159-.586A3.6,3.6,0,0,1,464.872,259.537Zm-5.261,3.434q0,3.417,2.311,3.417t2.313-3.434q0-3.417-2.3-3.417Q459.609,259.537,459.611,262.971Z"/><path class="cls-13" d="M468.917,267.128a2.008,2.008,0,0,1-.5-1.454V254.879l1.563-.186v10.948a.915.915,0,0,0,.128.544.508.508,0,0,0,.434.17,1.531,1.531,0,0,0,.578-.1l.407,1.088a2.547,2.547,0,0,1-1.24.307A1.817,1.817,0,0,1,468.917,267.128Z"/><path class="cls-13" d="M480.129,263.5h-5.712a3.492,3.492,0,0,0,.749,2.176,2.167,2.167,0,0,0,1.666.7,3.662,3.662,0,0,0,1.19-.186,4.8,4.8,0,0,0,1.139-.6l.679.936a4.949,4.949,0,0,1-3.128,1.122,3.627,3.627,0,0,1-2.915-1.225,5.014,5.014,0,0,1-1.046-3.366,6.364,6.364,0,0,1,.452-2.473,3.86,3.86,0,0,1,1.292-1.691,3.272,3.272,0,0,1,1.98-.612,3.315,3.315,0,0,1,2.736,1.173,5.013,5.013,0,0,1,.953,3.247C480.164,262.96,480.152,263.227,480.129,263.5Zm-1.512-1.257a3.311,3.311,0,0,0-.528-2.024,1.855,1.855,0,0,0-1.581-.7q-1.92,0-2.091,2.821h4.2Z"/><path class="cls-13" d="M487.388,258.509a4.1,4.1,0,0,1,1.276.739l-.748.987a3.864,3.864,0,0,0-.927-.5,2.923,2.923,0,0,0-.994-.161,1.944,1.944,0,0,0-1.692.867,4.5,4.5,0,0,0-.6,2.566,4.253,4.253,0,0,0,.594,2.508,1.987,1.987,0,0,0,1.7.808,2.8,2.8,0,0,0,.968-.162,5.023,5.023,0,0,0,.987-.518l.714,1.02a4.26,4.26,0,0,1-2.738.986,3.565,3.565,0,0,1-2.864-1.225,5.042,5.042,0,0,1-1.046-3.383,6.1,6.1,0,0,1,.477-2.5,3.84,3.84,0,0,1,1.351-1.666,3.618,3.618,0,0,1,2.082-.594A4.439,4.439,0,0,1,487.388,258.509Zm.732-4.412.663.766-2.3,1.921h-1.037l-2.313-1.921.681-.766,2.141,1.429Z"/><path class="cls-13" d="M496.917,259.01a2.81,2.81,0,0,1,.688,2.007v6.426h-1.563v-6.2a1.986,1.986,0,0,0-.358-1.343,1.353,1.353,0,0,0-1.054-.392,2.032,2.032,0,0,0-1.257.409,4.229,4.229,0,0,0-1.021,1.172v6.359h-1.563v-8.959h1.342l.136,1.326a3.513,3.513,0,0,1,1.182-1.122A3.038,3.038,0,0,1,495,258.28,2.5,2.5,0,0,1,496.917,259.01Z"/><path class="cls-13" d="M507.048,259.537a5.179,5.179,0,0,1,1.046,3.417,5.977,5.977,0,0,1-.475,2.457,3.738,3.738,0,0,1-1.377,1.649,3.846,3.846,0,0,1-2.143.587,3.624,3.624,0,0,1-2.94-1.259,5.151,5.151,0,0,1-1.055-3.417,5.943,5.943,0,0,1,.477-2.456,3.717,3.717,0,0,1,1.377-1.649,3.868,3.868,0,0,1,2.159-.586A3.6,3.6,0,0,1,507.048,259.537Zm-5.26,3.434q0,3.417,2.311,3.417t2.313-3.434q0-3.417-2.295-3.417Q501.786,259.537,501.788,262.971Z"/><path class="cls-13" d="M514.758,258.535a4.926,4.926,0,0,1,1.394.764l-.663.987a5.422,5.422,0,0,0-1.164-.579,3.627,3.627,0,0,0-1.165-.186,2.046,2.046,0,0,0-1.207.314,1.065,1.065,0,0,0-.026,1.708,4.829,4.829,0,0,0,1.5.595,5.379,5.379,0,0,1,2.235,1.021,2.22,2.22,0,0,1,.74,1.767,2.293,2.293,0,0,1-1.029,2.024,4.367,4.367,0,0,1-2.507.7,4.957,4.957,0,0,1-3.383-1.174l.833-.951a4.059,4.059,0,0,0,2.516.866,2.394,2.394,0,0,0,1.4-.365,1.154,1.154,0,0,0,.518-.994,1.309,1.309,0,0,0-.187-.74,1.522,1.522,0,0,0-.646-.493,8.983,8.983,0,0,0-1.343-.451,4.581,4.581,0,0,1-2.066-1,2.147,2.147,0,0,1-.637-1.6,2.1,2.1,0,0,1,.416-1.267,2.707,2.707,0,0,1,1.157-.884,4.187,4.187,0,0,1,1.657-.314A4.986,4.986,0,0,1,514.758,258.535Z"/><path class="cls-13" d="M523.139,267.035a3.439,3.439,0,0,1-2.006.612,2.366,2.366,0,0,1-1.776-.655,2.608,2.608,0,0,1-.638-1.9v-5.405h-1.563v-1.207h1.563V256.46l1.565-.186v2.21h2.125l-.17,1.207h-1.955v5.338a1.649,1.649,0,0,0,.246,1.011.987.987,0,0,0,.824.315,2.553,2.553,0,0,0,1.19-.358Z"/><path class="cls-13" d="M533.314,256.308a2.985,2.985,0,0,1,1.2,1.113,3.021,3.021,0,0,1,.425,1.589,4.45,4.45,0,0,1-.468,1.989,9.649,9.649,0,0,1-1.436,2.057q-.969,1.106-2.941,3.077h5.117l-.187,1.31h-6.715V266.2q2.279-2.364,3.23-3.46a9.7,9.7,0,0,0,1.36-1.913,3.855,3.855,0,0,0,.408-1.75,1.745,1.745,0,0,0-1.87-1.887,2.489,2.489,0,0,0-1.224.289,4.472,4.472,0,0,0-1.122.952l-1.02-.816a4.676,4.676,0,0,1,1.547-1.292,4.189,4.189,0,0,1,1.9-.425A3.794,3.794,0,0,1,533.314,256.308Z"/><path class="cls-13" d="M543.65,257.4a10.4,10.4,0,0,1,0,8.729,3.435,3.435,0,0,1-5.695,0,10.391,10.391,0,0,1,0-8.729,3.448,3.448,0,0,1,5.695,0Zm-4.488.825a11.958,11.958,0,0,0,0,7.08,1.768,1.768,0,0,0,3.272,0,11.764,11.764,0,0,0,0-7.072,1.772,1.772,0,0,0-3.272-.008Z"/><path class="cls-13" d="M551.011,256.308a2.963,2.963,0,0,1,1.623,2.7,4.462,4.462,0,0,1-.467,1.989,9.694,9.694,0,0,1-1.437,2.057q-.969,1.106-2.94,3.077h5.117l-.188,1.31H546V266.2q2.279-2.364,3.23-3.46a9.656,9.656,0,0,0,1.36-1.913,3.843,3.843,0,0,0,.408-1.75,1.744,1.744,0,0,0-1.87-1.887,2.482,2.482,0,0,0-1.223.289,4.438,4.438,0,0,0-1.122.952l-1.021-.816a4.685,4.685,0,0,1,1.547-1.292,4.189,4.189,0,0,1,1.9-.425A3.792,3.792,0,0,1,551.011,256.308Z"/><path class="cls-13" d="M561.347,257.4a10.4,10.4,0,0,1,0,8.729,3.435,3.435,0,0,1-5.695,0,10.391,10.391,0,0,1,0-8.729,3.448,3.448,0,0,1,5.695,0Zm-4.488.825a11.979,11.979,0,0,0,0,7.08,1.768,1.768,0,0,0,3.272,0,11.764,11.764,0,0,0,0-7.072,1.772,1.772,0,0,0-3.272-.008Z"/><path class="cls-13" d="M568.292,262.785v-1.327h7.751v1.327Z"/><path class="cls-13" d="M584.271,254.693v12.75h-1.563V254.879Zm5.151,3.791-3.3,3.961,3.671,5h-1.87l-3.552-4.9,3.3-4.062Z"/><path class="cls-13" d="M591.827,267.128a2,2,0,0,1-.5-1.454V254.879l1.563-.186v10.948a.915.915,0,0,0,.128.544.51.51,0,0,0,.434.17,1.527,1.527,0,0,0,.578-.1l.407,1.088a2.547,2.547,0,0,1-1.24.307A1.815,1.815,0,0,1,591.827,267.128Z"/><path class="cls-13" d="M597.956,254.489a1.037,1.037,0,0,1,.306.764,1.009,1.009,0,0,1-.306.757,1.1,1.1,0,0,1-.8.3,1.076,1.076,0,0,1-.782-.3,1,1,0,0,1-.306-.757,1.033,1.033,0,0,1,.306-.764,1.058,1.058,0,0,1,.782-.306A1.082,1.082,0,0,1,597.956,254.489Zm0,3.995v8.959h-1.564v-8.959Z"/><path class="cls-13" d="M611.947,259.019a2.882,2.882,0,0,1,.663,2v6.426h-1.565v-6.2q0-1.735-1.257-1.735a1.7,1.7,0,0,0-1.122.383,5.338,5.338,0,0,0-.986,1.2v6.359h-1.564v-6.2q0-1.735-1.258-1.735a1.7,1.7,0,0,0-1.139.392,5.345,5.345,0,0,0-.969,1.189v6.359h-1.564v-8.959h1.343l.136,1.308a3,3,0,0,1,2.584-1.512,2.251,2.251,0,0,1,2.261,1.615,4.216,4.216,0,0,1,1.164-1.2,2.687,2.687,0,0,1,1.5-.416A2.259,2.259,0,0,1,611.947,259.019Z"/><path class="cls-13" d="M621.976,266.159a1.142,1.142,0,0,0,.562.4l-.358,1.088a2.4,2.4,0,0,1-1.122-.392,1.786,1.786,0,0,1-.629-.952,3,3,0,0,1-2.669,1.344,2.861,2.861,0,0,1-2.091-.748,2.614,2.614,0,0,1-.765-1.955,2.57,2.57,0,0,1,1.029-2.194,4.818,4.818,0,0,1,2.915-.764h1.377v-.663a1.746,1.746,0,0,0-.459-1.361,2.082,2.082,0,0,0-1.411-.408,7.88,7.88,0,0,0-2.414.477l-.391-1.139a9.018,9.018,0,0,1,3.094-.612,3.232,3.232,0,0,1,2.363.773,2.96,2.96,0,0,1,.783,2.2v4.1A1.4,1.4,0,0,0,621.976,266.159Zm-1.751-1.08v-2.056h-1.173q-2.482,0-2.482,1.836a1.687,1.687,0,0,0,.391,1.207,1.533,1.533,0,0,0,1.156.407A2.334,2.334,0,0,0,620.225,265.079Z"/><path class="cls-13" d="M629.524,267.035a3.439,3.439,0,0,1-2.006.612,2.365,2.365,0,0,1-1.776-.655,2.608,2.608,0,0,1-.638-1.9v-5.405h-1.563v-1.207H625.1V256.46l1.564-.186v2.21h2.125l-.169,1.207h-1.956v5.338a1.648,1.648,0,0,0,.247,1.011.987.987,0,0,0,.824.315,2.556,2.556,0,0,0,1.19-.358Z"/><path class="cls-13" d="M632.7,254.489a1.037,1.037,0,0,1,.306.764,1.009,1.009,0,0,1-.306.757,1.1,1.1,0,0,1-.8.3,1.076,1.076,0,0,1-.782-.3,1,1,0,0,1-.306-.757,1.033,1.033,0,0,1,.306-.764,1.058,1.058,0,0,1,.782-.306A1.08,1.08,0,0,1,632.7,254.489Zm0,3.995v8.959h-1.564v-8.959Z"/><path class="cls-13" d="M640.659,258.509a4.1,4.1,0,0,1,1.275.739l-.748.987a3.845,3.845,0,0,0-.927-.5,2.919,2.919,0,0,0-.994-.161,1.942,1.942,0,0,0-1.691.867,4.488,4.488,0,0,0-.6,2.566,4.245,4.245,0,0,0,.6,2.508,1.985,1.985,0,0,0,1.7.808,2.8,2.8,0,0,0,.969-.162,4.991,4.991,0,0,0,.986-.518l.714,1.02a4.255,4.255,0,0,1-2.737.986,3.565,3.565,0,0,1-2.864-1.225,5.037,5.037,0,0,1-1.046-3.383,6.112,6.112,0,0,1,.476-2.5,3.849,3.849,0,0,1,1.352-1.666,3.616,3.616,0,0,1,2.082-.594A4.448,4.448,0,0,1,640.659,258.509Z"/><path class="cls-13" d="M645.623,254.693v12.75h-1.564V254.879Zm5.151,3.791-3.3,3.961,3.672,5h-1.87l-3.553-4.9,3.3-4.062Z"/><path class="cls-13" d="M658.73,266.159a1.142,1.142,0,0,0,.562.4l-.358,1.088a2.4,2.4,0,0,1-1.122-.392,1.786,1.786,0,0,1-.629-.952,3,3,0,0,1-2.669,1.344,2.861,2.861,0,0,1-2.091-.748,2.614,2.614,0,0,1-.765-1.955,2.57,2.57,0,0,1,1.029-2.194,4.818,4.818,0,0,1,2.915-.764h1.377v-.663a1.746,1.746,0,0,0-.459-1.361,2.082,2.082,0,0,0-1.411-.408,7.88,7.88,0,0,0-2.414.477l-.391-1.139a9.018,9.018,0,0,1,3.094-.612,3.232,3.232,0,0,1,2.363.773,2.96,2.96,0,0,1,.782,2.2v4.1A1.4,1.4,0,0,0,658.73,266.159Zm-2.057-12.333.7,1.308-3.6,1.462-.475-.833Zm.306,11.253v-2.056h-1.173q-2.483,0-2.482,1.836a1.687,1.687,0,0,0,.391,1.207,1.533,1.533,0,0,0,1.156.407A2.334,2.334,0,0,0,656.979,265.079Z"/><path class="cls-13" d="M671.514,258.484v1.189l-4.675,6.46h4.726l-.187,1.31h-6.307V266.27l4.658-6.46h-4.267v-1.326Z"/><path class="cls-13" d="M684.451,259.019a2.882,2.882,0,0,1,.663,2v6.426h-1.565v-6.2q0-1.735-1.257-1.735a1.7,1.7,0,0,0-1.123.383,5.365,5.365,0,0,0-.985,1.2v6.359H678.62v-6.2q0-1.735-1.258-1.735a1.7,1.7,0,0,0-1.139.392,5.373,5.373,0,0,0-.97,1.189v6.359H673.69v-8.959h1.343l.135,1.308a3,3,0,0,1,2.584-1.512,2.251,2.251,0,0,1,2.262,1.615,4.2,4.2,0,0,1,1.164-1.2,2.687,2.687,0,0,1,1.5-.416A2.26,2.26,0,0,1,684.451,259.019Z"/><path class="cls-13" d="M694.991,263.5h-5.712a3.485,3.485,0,0,0,.748,2.176,2.168,2.168,0,0,0,1.666.7,3.657,3.657,0,0,0,1.19-.186,4.762,4.762,0,0,0,1.139-.6l.68.936a4.949,4.949,0,0,1-3.128,1.122,3.625,3.625,0,0,1-2.915-1.225,5.009,5.009,0,0,1-1.046-3.366,6.364,6.364,0,0,1,.451-2.473,3.868,3.868,0,0,1,1.292-1.691,3.276,3.276,0,0,1,1.98-.612,3.319,3.319,0,0,1,2.737,1.173,5.013,5.013,0,0,1,.952,3.247C695.025,262.96,695.013,263.227,694.991,263.5Zm-1.445-9.4.663.766-2.295,1.921h-1.037l-2.312-1.921.68-.766,2.142,1.429Zm-.068,8.144a3.318,3.318,0,0,0-.527-2.024,1.857,1.857,0,0,0-1.581-.7q-1.921,0-2.091,2.821h4.2Z"/><path class="cls-13" d="M703.652,259.01a2.81,2.81,0,0,1,.688,2.007v6.426h-1.563v-6.2a1.981,1.981,0,0,0-.358-1.343,1.351,1.351,0,0,0-1.053-.392,2.033,2.033,0,0,0-1.258.409,4.261,4.261,0,0,0-1.021,1.172v6.359h-1.563v-8.959h1.343L699,259.81a3.523,3.523,0,0,1,1.182-1.122,3.042,3.042,0,0,1,1.556-.408A2.5,2.5,0,0,1,703.652,259.01Z"/><path class="cls-13" d="M713.708,266.159a1.139,1.139,0,0,0,.561.4l-.357,1.088a2.4,2.4,0,0,1-1.122-.392,1.774,1.774,0,0,1-.629-.952,3.006,3.006,0,0,1-2.669,1.344,2.861,2.861,0,0,1-2.091-.748,2.611,2.611,0,0,1-.766-1.955,2.568,2.568,0,0,1,1.03-2.194,4.816,4.816,0,0,1,2.915-.764h1.377v-.663a1.75,1.75,0,0,0-.459-1.361,2.084,2.084,0,0,0-1.412-.408,7.885,7.885,0,0,0-2.414.477l-.39-1.139a9.009,9.009,0,0,1,3.094-.612,3.235,3.235,0,0,1,2.363.773,2.964,2.964,0,0,1,.782,2.2v4.1A1.4,1.4,0,0,0,713.708,266.159Zm-1.751-1.08v-2.056h-1.173q-2.484,0-2.483,1.836a1.683,1.683,0,0,0,.392,1.207,1.53,1.53,0,0,0,1.155.407A2.334,2.334,0,0,0,711.957,265.079Z"/></svg>