<svg id="Layer_1" data-name="Layer 1" xmlns="http://www.w3.org/2000/svg" viewBox="0 0 733.593 976.451"><defs><style>.cls-1{fill:#999;}</style></defs><path d="M6.964,5.408V24.756h-3.7V5.408Zm10.864,0-6.692,8.764L18.36,24.756h-4.4L7.132,14.424l6.692-9.016Z"/><path d="M32.332,4.008V24.756H29.168l-.252-1.876a5.2,5.2,0,0,1-1.778,1.68,4.856,4.856,0,0,1-2.45.616,4.769,4.769,0,0,1-4.172-2.1,9.875,9.875,0,0,1-1.456-5.712,10.587,10.587,0,0,1,.728-4.046,6.379,6.379,0,0,1,2.086-2.786,5.264,5.264,0,0,1,6.874.588v-7.5ZM27.376,22a4.779,4.779,0,0,0,1.372-1.442V13.78a5.166,5.166,0,0,0-1.3-1.176,2.93,2.93,0,0,0-1.526-.392,2.56,2.56,0,0,0-2.254,1.274,7.171,7.171,0,0,0-.826,3.85,7.911,7.911,0,0,0,.727,3.934A2.348,2.348,0,0,0,25.7,22.46,3.068,3.068,0,0,0,27.376,22Z"/><path d="M43.813,24.812a9.1,9.1,0,0,1-2.716,4.27,8.639,8.639,0,0,1-4.985,1.778l-.364-2.6a9.01,9.01,0,0,0,2.338-.63A3.778,3.778,0,0,0,39.5,26.548a7.189,7.189,0,0,0,.98-1.792H39.248l-4.7-14.812h3.809l3.219,12.432L44.933,9.944h3.7Z"/><path d="M67.444,9.944V12.52l-7.168,9.436h7.308l-.363,2.8H56.16V22.18l7.2-9.436h-6.58v-2.8Z"/><path d="M81.178,22.11a1.7,1.7,0,0,0,.853.63l-.756,2.38a4.583,4.583,0,0,1-2.057-.616A3.142,3.142,0,0,1,78,22.964a4.755,4.755,0,0,1-1.891,1.666,5.761,5.761,0,0,1-2.534.546,4.791,4.791,0,0,1-3.5-1.26,4.416,4.416,0,0,1-1.287-3.3,4.273,4.273,0,0,1,1.75-3.682,8.386,8.386,0,0,1,5-1.274h1.849v-.84a2.557,2.557,0,0,0-.658-2,3.187,3.187,0,0,0-2.115-.574,12.486,12.486,0,0,0-3.92.784l-.839-2.436a14.96,14.96,0,0,1,5.376-1.064q5.683,0,5.683,5.1v6.216A2.373,2.373,0,0,0,81.178,22.11Zm-3.794-1.358v-3H75.9q-3.471,0-3.471,2.576a2.374,2.374,0,0,0,.532,1.652,2,2,0,0,0,1.567.588A3.173,3.173,0,0,0,77.384,20.752Z"/><path d="M93.834,9.944a6.974,6.974,0,0,1,2.2,1.316l-1.595,2.156A5.75,5.75,0,0,0,92.98,12.6a4.521,4.521,0,0,0-1.541-.252q-3.331,0-3.332,5.068a6.179,6.179,0,0,0,.869,3.71,2.919,2.919,0,0,0,2.463,1.134,4.006,4.006,0,0,0,1.443-.252,9.447,9.447,0,0,0,1.554-.812l1.595,2.268a7.378,7.378,0,0,1-4.787,1.708,7.065,7.065,0,0,1-3.7-.938,6.14,6.14,0,0,1-2.408-2.674,9.291,9.291,0,0,1-.84-4.088,9.758,9.758,0,0,1,.84-4.158,6.43,6.43,0,0,1,2.408-2.8,6.7,6.7,0,0,1,3.668-.994A7.665,7.665,0,0,1,93.834,9.944Zm1.021-7.588,1.373,1.568-3.892,3.5H90.1L86.2,3.924l1.372-1.568,3.64,2.464Z"/><path d="M102.556,1.8l1.456,2.8-6.328,2.52L96.676,5.3Zm-.336,8.148V24.756H98.636V9.944Z"/><path d="M115.015,24.056a5.726,5.726,0,0,1-1.75.84,7.08,7.08,0,0,1-1.974.28,4.4,4.4,0,0,1-3.318-1.246,5.105,5.105,0,0,1-1.134-3.6V12.52h-2.324V9.944h2.324V6.668l3.584-.42v3.7h3.444L113.5,12.52h-3.08v7.728a2.546,2.546,0,0,0,.378,1.568,1.428,1.428,0,0,0,1.19.476,3.655,3.655,0,0,0,1.764-.532Z"/><path d="M132.123,2.356,133.5,3.924l-3.892,3.5h-2.24l-3.892-3.5,1.372-1.568,3.64,2.464Zm.7,7.392-.616,3.472a5.416,5.416,0,0,0-1.316-.168,2.518,2.518,0,0,0-2.072.938,7.207,7.207,0,0,0-1.2,2.87v7.9h-3.584V9.944h3.108l.336,2.912a5.319,5.319,0,0,1,1.54-2.45,3.49,3.49,0,0,1,2.324-.854A5.314,5.314,0,0,1,132.823,9.748Z"/><path d="M146.291,18.456H137a4.7,4.7,0,0,0,1.12,3.08,3.466,3.466,0,0,0,2.521.924,5.287,5.287,0,0,0,1.847-.322,8.624,8.624,0,0,0,1.848-.994l1.484,2.044a8.519,8.519,0,0,1-5.488,1.988A6.607,6.607,0,0,1,135.1,23.1a8.234,8.234,0,0,1-1.833-5.656,10.111,10.111,0,0,1,.784-4.074,6.459,6.459,0,0,1,2.267-2.828,6.754,6.754,0,0,1,8.344.952,8.139,8.139,0,0,1,1.708,5.5C146.375,17.186,146.348,17.672,146.291,18.456Zm-3.472-2.492q0-3.891-2.883-3.892a2.451,2.451,0,0,0-2.059.966A5.768,5.768,0,0,0,137,16.132h5.824Z"/><path d="M159.535,11.288l-1.4,2.1a6.958,6.958,0,0,0-3.725-1.2,2.874,2.874,0,0,0-1.651.406,1.25,1.25,0,0,0-.588,1.078,1.361,1.361,0,0,0,.252.84,2.3,2.3,0,0,0,.909.63,15.187,15.187,0,0,0,1.946.658A8.537,8.537,0,0,1,158.85,17.5a3.824,3.824,0,0,1,1.162,2.968,3.981,3.981,0,0,1-1.792,3.458,7.62,7.62,0,0,1-4.452,1.246,9.423,9.423,0,0,1-3.319-.56,8.06,8.06,0,0,1-2.59-1.54l1.792-2.016a6.609,6.609,0,0,0,4.033,1.456,3.421,3.421,0,0,0,1.918-.476,1.5,1.5,0,0,0,.713-1.316,1.747,1.747,0,0,0-.265-1.022,2.2,2.2,0,0,0-.952-.672,20.042,20.042,0,0,0-2.143-.714,7.164,7.164,0,0,1-3.332-1.722,3.823,3.823,0,0,1-1.063-2.758,3.669,3.669,0,0,1,.713-2.212,4.744,4.744,0,0,1,2.016-1.54,7.476,7.476,0,0,1,2.983-.56A8.329,8.329,0,0,1,159.535,11.288ZM158,2.356l1.372,1.568-3.891,3.5h-2.241l-3.891-3.5,1.372-1.568,3.639,2.464Z"/><path d="M166.324,3.07a2.112,2.112,0,0,1,.631,1.554,2.067,2.067,0,0,1-.631,1.54,2.241,2.241,0,0,1-1.637.616,2.209,2.209,0,0,1-1.611-.616,2.066,2.066,0,0,1-.63-1.54,2.111,2.111,0,0,1,.63-1.554,2.183,2.183,0,0,1,1.611-.63A2.215,2.215,0,0,1,166.324,3.07Zm.183,6.874V24.756h-3.584V9.944Z"/><path d="M179.3,24.056a5.726,5.726,0,0,1-1.75.84,7.08,7.08,0,0,1-1.974.28,4.4,4.4,0,0,1-3.318-1.246,5.105,5.105,0,0,1-1.134-3.6V12.52H168.8V9.944h2.324V6.668l3.584-.42v3.7h3.444l-.364,2.576h-3.08v7.728a2.546,2.546,0,0,0,.378,1.568,1.428,1.428,0,0,0,1.19.476,3.655,3.655,0,0,0,1.764-.532Z"/><path d="M191.9,3.616v21.14h-3.584V4.008Zm8.876,6.328-4.927,6.524,5.4,8.288h-4.116l-5.1-8.092L197,9.944Z"/><path d="M204.1,24.182a3.868,3.868,0,0,1-.967-2.814V4.008l3.584-.392v17.64q0,1.036.841,1.036a2.633,2.633,0,0,0,.84-.14l.755,2.52a5.733,5.733,0,0,1-2.379.5A3.556,3.556,0,0,1,204.1,24.182Z"/><path d="M214.933,3.07a2.112,2.112,0,0,1,.631,1.554,2.067,2.067,0,0,1-.631,1.54,2.242,2.242,0,0,1-1.638.616,2.206,2.206,0,0,1-1.61-.616,2.066,2.066,0,0,1-.63-1.54,2.111,2.111,0,0,1,.63-1.554,2.181,2.181,0,0,1,1.61-.63A2.216,2.216,0,0,1,214.933,3.07Zm.182,6.874V24.756h-3.584V9.944Z"/><path d="M237.99,10.742a4.829,4.829,0,0,1,1.065,3.29V24.756h-3.584V14.592q0-2.38-1.624-2.38a2.212,2.212,0,0,0-1.5.546,6.755,6.755,0,0,0-1.3,1.694v10.3h-3.584V14.592q0-2.38-1.624-2.38a2.247,2.247,0,0,0-1.526.546,6.778,6.778,0,0,0-1.3,1.694v10.3h-3.584V9.944h3.107l.28,1.932A5.075,5.075,0,0,1,227.1,9.524a3.779,3.779,0,0,1,2.225.658,3.693,3.693,0,0,1,1.359,1.834,6.9,6.9,0,0,1,1.973-1.848,4.744,4.744,0,0,1,2.479-.644A3.6,3.6,0,0,1,237.99,10.742Z"/><path d="M254.44,22.11a1.7,1.7,0,0,0,.854.63l-.756,2.38a4.588,4.588,0,0,1-2.058-.616,3.14,3.14,0,0,1-1.217-1.54,4.755,4.755,0,0,1-1.891,1.666,5.764,5.764,0,0,1-2.534.546,4.788,4.788,0,0,1-3.5-1.26,4.416,4.416,0,0,1-1.287-3.3,4.273,4.273,0,0,1,1.75-3.682,8.386,8.386,0,0,1,5-1.274h1.849v-.84a2.554,2.554,0,0,0-.659-2,3.182,3.182,0,0,0-2.114-.574,12.481,12.481,0,0,0-3.92.784l-.84-2.436a14.968,14.968,0,0,1,5.376-1.064q5.683,0,5.684,5.1v6.216A2.383,2.383,0,0,0,254.44,22.11Zm-3.793-1.358v-3h-1.485q-3.471,0-3.472,2.576a2.37,2.37,0,0,0,.533,1.652,2,2,0,0,0,1.567.588A3.173,3.173,0,0,0,250.647,20.752Z"/><path d="M9.861,48.683a3.482,3.482,0,0,1,1.3,2.951,3.641,3.641,0,0,1-1.35,3.108A5.816,5.816,0,0,1,6.217,55.76H4.607v4.68H2.85V47.694H6.2A5.928,5.928,0,0,1,9.861,48.683Zm-1.378,5.1a2.477,2.477,0,0,0,.8-2.127,2.325,2.325,0,0,0-.8-1.98,3.752,3.752,0,0,0-2.3-.61H4.607v5.309H6.143A3.91,3.91,0,0,0,8.483,53.78Z"/><path d="M19.805,51.838a5.638,5.638,0,0,1,1.137,3.719,6.479,6.479,0,0,1-.517,2.672,4.067,4.067,0,0,1-1.5,1.8,4.179,4.179,0,0,1-2.331.638,3.946,3.946,0,0,1-3.2-1.369,5.605,5.605,0,0,1-1.147-3.718,6.487,6.487,0,0,1,.518-2.673,4.055,4.055,0,0,1,1.5-1.8,4.212,4.212,0,0,1,2.349-.638A3.919,3.919,0,0,1,19.805,51.838Zm-5.726,3.737q0,3.718,2.517,3.718t2.515-3.736q0-3.718-2.5-3.719Q14.079,51.838,14.079,55.575Z"/><path d="M31.3,46.769V60.44H29.8l-.166-1.35a3.544,3.544,0,0,1-1.2,1.156,3.173,3.173,0,0,1-1.611.416,3.135,3.135,0,0,1-2.71-1.369,6.246,6.246,0,0,1-.97-3.681,7.187,7.187,0,0,1,.461-2.664,4.124,4.124,0,0,1,1.333-1.823,3.285,3.285,0,0,1,2.035-.656,3.5,3.5,0,0,1,2.627,1.2V46.565ZM28.527,58.951A4.174,4.174,0,0,0,29.6,57.869V53.1a3.71,3.71,0,0,0-1.027-.953,2.374,2.374,0,0,0-1.23-.324,1.974,1.974,0,0,0-1.748.944,5.158,5.158,0,0,0-.62,2.812,5.45,5.45,0,0,0,.573,2.812,1.828,1.828,0,0,0,1.646.925A2.384,2.384,0,0,0,28.527,58.951Z"/><path d="M41.487,51.265a3.055,3.055,0,0,1,.749,2.182V60.44h-1.7V53.688a2.169,2.169,0,0,0-.387-1.462A1.481,1.481,0,0,0,39,51.8a2.218,2.218,0,0,0-1.369.444,4.587,4.587,0,0,0-1.109,1.276V60.44h-1.7V50.691h1.461l.149,1.443a3.837,3.837,0,0,1,1.285-1.221,3.321,3.321,0,0,1,1.693-.444A2.717,2.717,0,0,1,41.487,51.265Z"/><path d="M52.43,59.043a1.229,1.229,0,0,0,.61.435l-.388,1.184a2.606,2.606,0,0,1-1.221-.425,1.948,1.948,0,0,1-.685-1.036,3.27,3.27,0,0,1-2.9,1.461,3.118,3.118,0,0,1-2.276-.813,2.848,2.848,0,0,1-.833-2.128,2.794,2.794,0,0,1,1.121-2.387,5.233,5.233,0,0,1,3.171-.832h1.5V53.78a1.9,1.9,0,0,0-.5-1.48,2.258,2.258,0,0,0-1.535-.444,8.6,8.6,0,0,0-2.627.518l-.425-1.239a9.814,9.814,0,0,1,3.367-.666,3.518,3.518,0,0,1,2.571.841,3.224,3.224,0,0,1,.852,2.4v4.459A1.524,1.524,0,0,0,52.43,59.043Zm-1.906-1.174V55.63H49.248q-2.7,0-2.7,2a1.829,1.829,0,0,0,.426,1.314,1.662,1.662,0,0,0,1.257.444A2.541,2.541,0,0,0,50.524,57.869Z"/><path d="M63.271,46.769V60.44h-1.5l-.167-1.35a3.527,3.527,0,0,1-1.2,1.156,3.166,3.166,0,0,1-1.61.416,3.134,3.134,0,0,1-2.71-1.369,6.246,6.246,0,0,1-.971-3.681,7.187,7.187,0,0,1,.462-2.664,4.13,4.13,0,0,1,1.332-1.823,3.287,3.287,0,0,1,2.035-.656,3.5,3.5,0,0,1,2.627,1.2V46.565ZM60.5,58.951a4.157,4.157,0,0,0,1.073-1.082V53.1a3.707,3.707,0,0,0-1.026-.953,2.374,2.374,0,0,0-1.23-.324,1.974,1.974,0,0,0-1.748.944,5.148,5.148,0,0,0-.621,2.812,5.449,5.449,0,0,0,.574,2.812,1.827,1.827,0,0,0,1.646.925A2.384,2.384,0,0,0,60.5,58.951Z"/><path d="M74,51.8a6.857,6.857,0,0,1,.869,3.756,6.252,6.252,0,0,1-1,3.7,3.265,3.265,0,0,1-2.83,1.406,3.143,3.143,0,0,1-2.553-1.11v4.625l-1.7.2V50.691h1.461L68.377,52a3.721,3.721,0,0,1,1.3-1.137,3.372,3.372,0,0,1,1.591-.4A3.033,3.033,0,0,1,74,51.8Zm-.962,3.756q0-3.738-2.2-3.738a2.2,2.2,0,0,0-1.314.426,4.191,4.191,0,0,0-1.035,1.091v4.755a2.57,2.57,0,0,0,.925.879,2.494,2.494,0,0,0,1.221.3Q73.039,59.275,73.039,55.557Z"/><path d="M79.477,46.343a1.135,1.135,0,0,1,.333.833,1.1,1.1,0,0,1-.333.823,1.2,1.2,0,0,1-.871.324,1.168,1.168,0,0,1-.85-.324,1.093,1.093,0,0,1-.333-.823,1.127,1.127,0,0,1,.333-.833,1.151,1.151,0,0,1,.85-.333A1.181,1.181,0,0,1,79.477,46.343Zm0,4.348V60.44h-1.7V50.691Z"/><path d="M87.431,50.746a5.433,5.433,0,0,1,1.517.833l-.721,1.073a5.934,5.934,0,0,0-1.268-.629,3.912,3.912,0,0,0-1.267-.2,2.225,2.225,0,0,0-1.314.343,1.158,1.158,0,0,0-.027,1.859,5.225,5.225,0,0,0,1.637.647,5.873,5.873,0,0,1,2.433,1.11,2.427,2.427,0,0,1,.8,1.925,2.494,2.494,0,0,1-1.12,2.2,4.75,4.75,0,0,1-2.729.758A5.392,5.392,0,0,1,81.7,59.386L82.6,58.35a4.415,4.415,0,0,0,2.738.943,2.6,2.6,0,0,0,1.525-.4,1.253,1.253,0,0,0,.565-1.082,1.43,1.43,0,0,0-.2-.8,1.653,1.653,0,0,0-.7-.537,9.711,9.711,0,0,0-1.461-.49,4.986,4.986,0,0,1-2.248-1.091,2.345,2.345,0,0,1-.694-1.74,2.281,2.281,0,0,1,.453-1.378,2.946,2.946,0,0,1,1.259-.962,4.568,4.568,0,0,1,1.8-.342A5.427,5.427,0,0,1,87.431,50.746Z"/><path d="M103.748,51.8a6.857,6.857,0,0,1,.869,3.756,6.252,6.252,0,0,1-1,3.7,3.265,3.265,0,0,1-2.83,1.406,3.143,3.143,0,0,1-2.553-1.11v4.625l-1.7.2V50.691h1.461L98.124,52a3.721,3.721,0,0,1,1.3-1.137,3.372,3.372,0,0,1,1.591-.4A3.033,3.033,0,0,1,103.748,51.8Zm-.962,3.756q0-3.738-2.2-3.738a2.2,2.2,0,0,0-1.313.426,4.178,4.178,0,0,0-1.036,1.091v4.755a2.57,2.57,0,0,0,.925.879,2.5,2.5,0,0,0,1.221.3Q102.785,59.275,102.786,55.557Z"/><path d="M114.376,51.838a5.638,5.638,0,0,1,1.138,3.719A6.479,6.479,0,0,1,115,58.229a4.067,4.067,0,0,1-1.5,1.8,4.177,4.177,0,0,1-2.331.638,3.946,3.946,0,0,1-3.2-1.369,5.605,5.605,0,0,1-1.147-3.718,6.487,6.487,0,0,1,.518-2.673,4.068,4.068,0,0,1,1.5-1.8,4.213,4.213,0,0,1,2.35-.638A3.917,3.917,0,0,1,114.376,51.838Zm-5.726,3.737q0,3.718,2.517,3.718t2.516-3.736q0-3.718-2.5-3.719Q108.65,51.838,108.65,55.575Z"/><path d="M125.874,46.769V60.44h-1.5l-.166-1.35a3.535,3.535,0,0,1-1.2,1.156,3.172,3.172,0,0,1-1.61.416,3.133,3.133,0,0,1-2.71-1.369,6.239,6.239,0,0,1-.971-3.681,7.166,7.166,0,0,1,.462-2.664,4.123,4.123,0,0,1,1.332-1.823,3.287,3.287,0,0,1,2.035-.656,3.5,3.5,0,0,1,2.627,1.2V46.565ZM123.1,58.951a4.172,4.172,0,0,0,1.073-1.082V53.1a3.707,3.707,0,0,0-1.026-.953,2.38,2.38,0,0,0-1.231-.324,1.974,1.974,0,0,0-1.748.944,5.158,5.158,0,0,0-.62,2.812,5.45,5.45,0,0,0,.573,2.812,1.829,1.829,0,0,0,1.647.925A2.386,2.386,0,0,0,123.1,58.951Z"/><path d="M136.058,51.265a3.055,3.055,0,0,1,.749,2.182V60.44h-1.7V53.688a2.163,2.163,0,0,0-.388-1.462,1.481,1.481,0,0,0-1.148-.425,2.223,2.223,0,0,0-1.369.444,4.62,4.62,0,0,0-1.109,1.276V60.44h-1.7V50.691h1.461L131,52.134a3.856,3.856,0,0,1,1.285-1.221,3.322,3.322,0,0,1,1.694-.444A2.719,2.719,0,0,1,136.058,51.265Z"/><path d="M147,59.043a1.233,1.233,0,0,0,.61.435l-.387,1.184A2.611,2.611,0,0,1,146,60.237a1.948,1.948,0,0,1-.685-1.036,3.27,3.27,0,0,1-2.9,1.461,3.114,3.114,0,0,1-2.275-.813,2.844,2.844,0,0,1-.833-2.128,2.8,2.8,0,0,1,1.12-2.387A5.236,5.236,0,0,1,143.6,54.5h1.5V53.78a1.9,1.9,0,0,0-.5-1.48,2.26,2.26,0,0,0-1.535-.444,8.6,8.6,0,0,0-2.627.518l-.426-1.239a9.814,9.814,0,0,1,3.367-.666,3.518,3.518,0,0,1,2.571.841,3.22,3.22,0,0,1,.852,2.4v4.459A1.524,1.524,0,0,0,147,59.043ZM145.1,57.869V55.63h-1.277q-2.7,0-2.7,2a1.829,1.829,0,0,0,.426,1.314,1.663,1.663,0,0,0,1.258.444A2.543,2.543,0,0,0,145.1,57.869Z"/><path d="M157.842,46.769V60.44h-1.5l-.166-1.35a3.544,3.544,0,0,1-1.2,1.156,3.173,3.173,0,0,1-1.611.416,3.135,3.135,0,0,1-2.71-1.369,6.246,6.246,0,0,1-.97-3.681,7.166,7.166,0,0,1,.462-2.664,4.115,4.115,0,0,1,1.332-1.823,3.285,3.285,0,0,1,2.035-.656,3.5,3.5,0,0,1,2.627,1.2V46.565Zm-2.776,12.182a4.159,4.159,0,0,0,1.074-1.082V53.1a3.71,3.71,0,0,0-1.027-.953,2.374,2.374,0,0,0-1.23-.324,1.974,1.974,0,0,0-1.748.944,5.158,5.158,0,0,0-.62,2.812,5.45,5.45,0,0,0,.573,2.812,1.829,1.829,0,0,0,1.646.925A2.384,2.384,0,0,0,155.066,58.951Z"/><path d="M168.571,51.8a6.857,6.857,0,0,1,.869,3.756,6.252,6.252,0,0,1-1,3.7,3.265,3.265,0,0,1-2.83,1.406,3.14,3.14,0,0,1-2.552-1.11v4.625l-1.7.2V50.691h1.461l.13,1.313a3.73,3.73,0,0,1,1.295-1.137,3.372,3.372,0,0,1,1.591-.4A3.033,3.033,0,0,1,168.571,51.8Zm-.962,3.756q0-3.738-2.2-3.738a2.2,2.2,0,0,0-1.313.426,4.175,4.175,0,0,0-1.035,1.091v4.755a2.568,2.568,0,0,0,.924.879,2.5,2.5,0,0,0,1.221.3Q167.61,59.275,167.609,55.557Z"/><path d="M174.048,46.343a1.131,1.131,0,0,1,.333.833,1.1,1.1,0,0,1-.333.823,1.2,1.2,0,0,1-.87.324,1.169,1.169,0,0,1-.851-.324,1.1,1.1,0,0,1-.333-.823,1.131,1.131,0,0,1,.333-.833,1.151,1.151,0,0,1,.851-.333A1.18,1.18,0,0,1,174.048,46.343Zm0,4.348V60.44h-1.7V50.691Z"/><path d="M182,50.746a5.452,5.452,0,0,1,1.518.833l-.722,1.073a5.889,5.889,0,0,0-1.268-.629,3.91,3.91,0,0,0-1.266-.2,2.228,2.228,0,0,0-1.315.343,1.16,1.16,0,0,0-.027,1.859,5.244,5.244,0,0,0,1.638.647,5.868,5.868,0,0,1,2.432,1.11A2.427,2.427,0,0,1,183.8,57.7a2.5,2.5,0,0,1-1.119,2.2,4.751,4.751,0,0,1-2.73.758,5.389,5.389,0,0,1-3.68-1.276l.906-1.036a4.415,4.415,0,0,0,2.738.943,2.6,2.6,0,0,0,1.526-.4A1.255,1.255,0,0,0,182,57.813a1.422,1.422,0,0,0-.2-.8,1.649,1.649,0,0,0-.7-.537,9.731,9.731,0,0,0-1.462-.49,4.987,4.987,0,0,1-2.247-1.091,2.342,2.342,0,0,1-.695-1.74,2.282,2.282,0,0,1,.454-1.378,2.937,2.937,0,0,1,1.258-.962,4.568,4.568,0,0,1,1.8-.342A5.423,5.423,0,0,1,182,50.746Z"/><path class="cls-1" d="M257.7,946.61v1.308l-5.8,9.028h5.8l-.187,1.377h-7.412v-1.292l5.848-9.062h-5.236V946.61Z"/><path class="cls-1" d="M266.646,945.759v12.564h-1.377l-.153-1.242a3.24,3.24,0,0,1-1.1,1.063,2.91,2.91,0,0,1-1.48.383,2.881,2.881,0,0,1-2.49-1.259,5.738,5.738,0,0,1-.893-3.383,6.6,6.6,0,0,1,.425-2.447,3.781,3.781,0,0,1,1.225-1.675,3.016,3.016,0,0,1,1.87-.6,3.216,3.216,0,0,1,2.414,1.1v-4.691Zm-2.55,11.195a3.8,3.8,0,0,0,.986-1v-4.385a3.381,3.381,0,0,0-.943-.876,2.171,2.171,0,0,0-1.131-.3,1.816,1.816,0,0,0-1.607.866,4.753,4.753,0,0,0-.569,2.584,5.006,5.006,0,0,0,.526,2.584,1.682,1.682,0,0,0,1.514.851A2.2,2.2,0,0,0,264.1,956.954Z"/><path class="cls-1" d="M274.652,949.261l-.289,1.53a3.209,3.209,0,0,0-.781-.1,1.664,1.664,0,0,0-1.344.611,4.554,4.554,0,0,0-.8,1.9v5.118h-1.563v-8.959h1.343l.153,1.818a3.394,3.394,0,0,1,.969-1.513,2.162,2.162,0,0,1,1.428-.509A3.677,3.677,0,0,1,274.652,949.261Z"/><path class="cls-1" d="M282.226,950.417a5.184,5.184,0,0,1,1.046,3.417,5.972,5.972,0,0,1-.476,2.456,3.727,3.727,0,0,1-1.377,1.65,3.852,3.852,0,0,1-2.143.587,3.625,3.625,0,0,1-2.94-1.259,5.152,5.152,0,0,1-1.055-3.417,5.943,5.943,0,0,1,.477-2.456,3.717,3.717,0,0,1,1.377-1.649,3.868,3.868,0,0,1,2.159-.586A3.6,3.6,0,0,1,282.226,950.417Zm-5.261,3.434q0,3.417,2.311,3.417t2.313-3.434q0-3.417-2.3-3.417Q276.963,950.417,276.965,953.851Z"/><path class="cls-1" d="M287.385,957.779a5.342,5.342,0,0,1-.306,1.988,2.948,2.948,0,0,1-.892,1.216,7.883,7.883,0,0,1-1.641.943l-.459-1.139a4.7,4.7,0,0,0,1.02-.6,1.788,1.788,0,0,0,.536-.833,4.827,4.827,0,0,0,.178-1.471v-8.516h1.564Zm.017-12.41a1.037,1.037,0,0,1,.306.764,1.009,1.009,0,0,1-.306.757,1.1,1.1,0,0,1-.8.3,1.078,1.078,0,0,1-.783-.3,1.008,1.008,0,0,1-.305-.757,1.036,1.036,0,0,1,.305-.764,1.056,1.056,0,0,1,.783-.306A1.075,1.075,0,0,1,287.4,945.369Z"/><path class="cls-1" d="M302.056,945.759v12.564h-1.377l-.153-1.242a3.24,3.24,0,0,1-1.105,1.063,3.078,3.078,0,0,1-3.97-.876,5.738,5.738,0,0,1-.892-3.383,6.6,6.6,0,0,1,.424-2.447,3.788,3.788,0,0,1,1.225-1.675,3.016,3.016,0,0,1,1.87-.6,3.216,3.216,0,0,1,2.414,1.1v-4.691Zm-2.55,11.195a3.8,3.8,0,0,0,.986-1v-4.385a3.381,3.381,0,0,0-.943-.876,2.171,2.171,0,0,0-1.131-.3,1.815,1.815,0,0,0-1.606.866,4.743,4.743,0,0,0-.57,2.584,5,5,0,0,0,.527,2.584,1.679,1.679,0,0,0,1.513.851A2.2,2.2,0,0,0,299.506,956.954Z"/><path class="cls-1" d="M311.508,957.038a1.135,1.135,0,0,0,.561.4l-.357,1.088a2.4,2.4,0,0,1-1.122-.392,1.786,1.786,0,0,1-.629-.952,3,3,0,0,1-2.669,1.344,2.861,2.861,0,0,1-2.091-.748,2.61,2.61,0,0,1-.765-1.955,2.566,2.566,0,0,1,1.029-2.194,4.816,4.816,0,0,1,2.915-.764h1.377V952.2a1.746,1.746,0,0,0-.459-1.361,2.082,2.082,0,0,0-1.411-.408,7.88,7.88,0,0,0-2.414.477l-.391-1.139a9.014,9.014,0,0,1,3.094-.612,3.232,3.232,0,0,1,2.363.773,2.96,2.96,0,0,1,.782,2.2v4.1A1.394,1.394,0,0,0,311.508,957.038Zm-1.751-1.079V953.9h-1.173q-2.483,0-2.482,1.836a1.682,1.682,0,0,0,.391,1.207,1.532,1.532,0,0,0,1.155.407A2.334,2.334,0,0,0,309.757,955.959Z"/><path class="cls-1" d="M319.056,957.914a3.433,3.433,0,0,1-2.006.613,2.364,2.364,0,0,1-1.777-.656,2.608,2.608,0,0,1-.637-1.895v-5.4h-1.564v-1.207h1.564V947.34l1.564-.186v2.21h2.125l-.17,1.207H316.2v5.338a1.651,1.651,0,0,0,.246,1.011.989.989,0,0,0,.825.315,2.556,2.556,0,0,0,1.19-.358Z"/><path class="cls-1" d="M322,950.247a1.131,1.131,0,0,1,.34.833,1.158,1.158,0,0,1-.34.842,1.136,1.136,0,0,1-.85.349,1.117,1.117,0,0,1-.833-.349,1.158,1.158,0,0,1-.34-.842,1.159,1.159,0,0,1,1.173-1.172A1.154,1.154,0,0,1,322,950.247Zm0,6.256a1.133,1.133,0,0,1,.34.833,1.16,1.16,0,0,1-.34.842,1.136,1.136,0,0,1-.85.349,1.117,1.117,0,0,1-.833-.349,1.16,1.16,0,0,1-.34-.842,1.161,1.161,0,0,1,1.173-1.173A1.155,1.155,0,0,1,322,956.5Z"/><path class="cls-1" d="M337.059,946.61l-3.74,11.713h-1.734l-3.774-11.713h1.734l2.941,9.962,2.941-9.962Z"/><path class="cls-1" d="M342.193,958.373a6.037,6.037,0,0,1-1.47,2.474,4.441,4.441,0,0,1-2.695,1.1l-.17-1.225a4.614,4.614,0,0,0,1.412-.441,2.451,2.451,0,0,0,.84-.741,5.13,5.13,0,0,0,.587-1.214h-.527l-3.009-8.959h1.666l2.4,7.819,2.345-7.819h1.616Zm.324-13.668.7,1.309-3.6,1.462-.476-.833Z"/><path class="cls-1" d="M352.223,949.364v1.189l-4.675,6.46h4.725l-.186,1.31h-6.308V957.15l4.659-6.46h-4.267v-1.326Z"/><path class="cls-1" d="M355.962,945.573v12.75H354.4V945.759Zm5.151,3.791-3.3,3.961,3.672,5h-1.87l-3.553-4.9,3.3-4.062Z"/><path class="cls-1" d="M369.647,958.323H368.3l-.118-1.395a3.419,3.419,0,0,1-1.174,1.216,3.182,3.182,0,0,1-1.615.383,2.382,2.382,0,0,1-1.835-.714,2.862,2.862,0,0,1-.664-2.024v-6.425h1.564v6.256a2.028,2.028,0,0,0,.323,1.3,1.308,1.308,0,0,0,1.054.382,2.66,2.66,0,0,0,2.244-1.547v-6.391h1.564Z"/><path class="cls-1" d="M383.639,949.9a2.882,2.882,0,0,1,.663,2v6.426h-1.565v-6.2q0-1.736-1.257-1.735a1.7,1.7,0,0,0-1.123.383,5.365,5.365,0,0,0-.985,1.2v6.359h-1.564v-6.2q0-1.736-1.258-1.735a1.7,1.7,0,0,0-1.139.392,5.373,5.373,0,0,0-.97,1.189v6.359h-1.563v-8.959h1.343l.135,1.308a3,3,0,0,1,2.584-1.512,2.251,2.251,0,0,1,2.262,1.615,4.2,4.2,0,0,1,1.164-1.2,2.687,2.687,0,0,1,1.5-.416A2.26,2.26,0,0,1,383.639,949.9Z"/><path class="cls-1" d="M397.909,946.677a5.35,5.35,0,0,1,1.471.884L398.5,948.6a3.547,3.547,0,0,0-2.261-.866,2.862,2.862,0,0,0-2.354,1.121,7.669,7.669,0,0,0-.009,7.166,2.814,2.814,0,0,0,2.346,1.147,3.152,3.152,0,0,0,1.309-.254,6.926,6.926,0,0,0,1.19-.714l.8,1.019a4.353,4.353,0,0,1-1.394.936,4.822,4.822,0,0,1-1.955.374,4.489,4.489,0,0,1-4.275-2.781,7.912,7.912,0,0,1-.621-3.289,7.647,7.647,0,0,1,.646-3.289,4.765,4.765,0,0,1,1.751-2.066,4.53,4.53,0,0,1,2.465-.7A5.073,5.073,0,0,1,397.909,946.677Zm.485-3.807.663.764-2.3,1.87h-1.037l-2.312-1.87.68-.764,2.142,1.376Z"/><path class="cls-1" d="M407.863,954.378h-5.712a3.5,3.5,0,0,0,.748,2.176,2.17,2.17,0,0,0,1.666.7,3.663,3.663,0,0,0,1.191-.186,4.8,4.8,0,0,0,1.139-.6l.679.936a4.949,4.949,0,0,1-3.128,1.122,3.627,3.627,0,0,1-2.915-1.225,5.014,5.014,0,0,1-1.046-3.366,6.364,6.364,0,0,1,.452-2.473,3.86,3.86,0,0,1,1.292-1.691,3.272,3.272,0,0,1,1.98-.612,3.319,3.319,0,0,1,2.736,1.172,5.016,5.016,0,0,1,.952,3.247C407.9,953.84,407.886,954.107,407.863,954.378Zm-1.512-1.257a3.311,3.311,0,0,0-.528-2.024,1.855,1.855,0,0,0-1.581-.7q-1.92,0-2.091,2.821h4.2Z"/><path class="cls-1" d="M414.477,949.414a4.949,4.949,0,0,1,1.393.765l-.663.986a5.462,5.462,0,0,0-1.164-.578,3.627,3.627,0,0,0-1.165-.186,2.046,2.046,0,0,0-1.207.314,1.066,1.066,0,0,0-.025,1.708,4.81,4.81,0,0,0,1.5.6,5.4,5.4,0,0,1,2.236,1.02,2.226,2.226,0,0,1,.739,1.768,2.291,2.291,0,0,1-1.028,2.023,4.365,4.365,0,0,1-2.508.7,4.96,4.96,0,0,1-3.383-1.174l.833-.951a4.061,4.061,0,0,0,2.517.866,2.39,2.39,0,0,0,1.4-.365,1.153,1.153,0,0,0,.519-.994,1.309,1.309,0,0,0-.188-.74,1.525,1.525,0,0,0-.645-.493,9,9,0,0,0-1.344-.451,4.586,4.586,0,0,1-2.066-1,2.15,2.15,0,0,1-.636-1.6,2.093,2.093,0,0,1,.416-1.266,2.7,2.7,0,0,1,1.156-.884,4.187,4.187,0,0,1,1.657-.314A5.023,5.023,0,0,1,414.477,949.414Z"/><path class="cls-1" d="M419.9,945.573v12.75h-1.563V945.759Zm5.152,3.791-3.3,3.961,3.672,5h-1.87l-3.553-4.9,3.3-4.062Z"/><path class="cls-1" d="M433.006,957.038a1.135,1.135,0,0,0,.561.4l-.357,1.088a2.4,2.4,0,0,1-1.122-.392,1.786,1.786,0,0,1-.629-.952,3,3,0,0,1-2.669,1.344,2.861,2.861,0,0,1-2.091-.748,2.614,2.614,0,0,1-.765-1.955,2.566,2.566,0,0,1,1.029-2.194,4.816,4.816,0,0,1,2.915-.764h1.377V952.2a1.746,1.746,0,0,0-.459-1.361,2.082,2.082,0,0,0-1.411-.408,7.88,7.88,0,0,0-2.414.477l-.391-1.139a9.014,9.014,0,0,1,3.094-.612,3.232,3.232,0,0,1,2.363.773,2.96,2.96,0,0,1,.782,2.2v4.1A1.394,1.394,0,0,0,433.006,957.038Zm-2.057-12.333.7,1.309-3.6,1.462-.476-.833Zm.306,11.254V953.9h-1.173q-2.482,0-2.482,1.836a1.682,1.682,0,0,0,.391,1.207,1.533,1.533,0,0,0,1.156.407A2.334,2.334,0,0,0,431.255,955.959Z"/><path class="cls-1" d="M444.617,949.414a4.954,4.954,0,0,1,1.394.765l-.663.986a5.485,5.485,0,0,0-1.164-.578,3.631,3.631,0,0,0-1.165-.186,2.044,2.044,0,0,0-1.207.314,1.065,1.065,0,0,0-.026,1.708,4.818,4.818,0,0,0,1.5.6,5.392,5.392,0,0,1,2.235,1.02,2.224,2.224,0,0,1,.74,1.768,2.29,2.29,0,0,1-1.029,2.023,4.36,4.36,0,0,1-2.507.7,4.957,4.957,0,0,1-3.383-1.174l.833-.951a4.057,4.057,0,0,0,2.516.866,2.394,2.394,0,0,0,1.4-.365,1.154,1.154,0,0,0,.518-.994,1.309,1.309,0,0,0-.187-.74,1.522,1.522,0,0,0-.646-.493,8.962,8.962,0,0,0-1.344-.451,4.581,4.581,0,0,1-2.065-1,2.147,2.147,0,0,1-.637-1.6,2.1,2.1,0,0,1,.416-1.266,2.7,2.7,0,0,1,1.157-.884,4.184,4.184,0,0,1,1.657-.314A5.013,5.013,0,0,1,444.617,949.414Z"/><path class="cls-1" d="M455.106,950.383a6.3,6.3,0,0,1,.8,3.451,5.744,5.744,0,0,1-.918,3.4,3,3,0,0,1-2.6,1.292,2.89,2.89,0,0,1-2.347-1.021v4.25l-1.563.188v-12.58h1.342l.12,1.207a3.424,3.424,0,0,1,1.189-1.046,3.115,3.115,0,0,1,1.462-.365A2.789,2.789,0,0,1,455.106,950.383Zm-.883,3.451q0-3.433-2.024-3.433a2.027,2.027,0,0,0-1.207.39,3.875,3.875,0,0,0-.952,1v4.369a2.361,2.361,0,0,0,.851.808,2.286,2.286,0,0,0,1.122.28Q454.221,957.251,454.223,953.834Z"/><path class="cls-1" d="M464.872,950.417a5.184,5.184,0,0,1,1.046,3.417,5.956,5.956,0,0,1-.476,2.456,3.727,3.727,0,0,1-1.377,1.65,3.849,3.849,0,0,1-2.142.587,3.627,3.627,0,0,1-2.941-1.259,5.152,5.152,0,0,1-1.054-3.417,5.959,5.959,0,0,1,.476-2.456,3.73,3.73,0,0,1,1.377-1.649,3.872,3.872,0,0,1,2.159-.586A3.6,3.6,0,0,1,464.872,950.417Zm-5.261,3.434q0,3.417,2.312,3.417t2.312-3.434q0-3.417-2.3-3.417Q459.611,950.417,459.611,953.851Z"/><path class="cls-1" d="M468.918,958.008a2.006,2.006,0,0,1-.5-1.454V945.759l1.563-.186v10.948a.915.915,0,0,0,.128.544.51.51,0,0,0,.434.17,1.527,1.527,0,0,0,.578-.1l.407,1.088a2.547,2.547,0,0,1-1.24.307A1.815,1.815,0,0,1,468.918,958.008Z"/><path class="cls-1" d="M480.13,954.378h-5.712a3.485,3.485,0,0,0,.748,2.176,2.168,2.168,0,0,0,1.666.7,3.657,3.657,0,0,0,1.19-.186,4.762,4.762,0,0,0,1.139-.6l.68.936a4.949,4.949,0,0,1-3.128,1.122A3.625,3.625,0,0,1,473.8,957.3a5.014,5.014,0,0,1-1.046-3.366,6.364,6.364,0,0,1,.451-2.473,3.875,3.875,0,0,1,1.292-1.691,3.277,3.277,0,0,1,1.981-.612,3.32,3.32,0,0,1,2.736,1.172,5.016,5.016,0,0,1,.952,3.247C480.164,953.84,480.152,954.107,480.13,954.378Zm-1.513-1.257a3.318,3.318,0,0,0-.527-2.024,1.857,1.857,0,0,0-1.581-.7q-1.92,0-2.091,2.821h4.2Z"/><path class="cls-1" d="M487.389,949.389a4.077,4.077,0,0,1,1.275.739l-.748.987a3.845,3.845,0,0,0-.927-.5,2.919,2.919,0,0,0-.994-.161,1.942,1.942,0,0,0-1.691.867,4.488,4.488,0,0,0-.6,2.566,4.245,4.245,0,0,0,.6,2.508,1.985,1.985,0,0,0,1.7.808,2.776,2.776,0,0,0,.969-.163,4.928,4.928,0,0,0,.986-.517l.714,1.019a4.251,4.251,0,0,1-2.737.987,3.565,3.565,0,0,1-2.864-1.225,5.037,5.037,0,0,1-1.046-3.383,6.112,6.112,0,0,1,.476-2.5,3.843,3.843,0,0,1,1.352-1.666,3.616,3.616,0,0,1,2.082-.594A4.448,4.448,0,0,1,487.389,949.389Zm.731-4.412.663.766-2.3,1.92h-1.037l-2.312-1.92.68-.766,2.142,1.429Z"/><path class="cls-1" d="M496.917,949.89a2.81,2.81,0,0,1,.688,2.007v6.426h-1.563v-6.2a1.986,1.986,0,0,0-.357-1.343,1.355,1.355,0,0,0-1.054-.392,2.038,2.038,0,0,0-1.258.408,4.248,4.248,0,0,0-1.02,1.173v6.359h-1.564v-8.959h1.343l.136,1.326a3.52,3.52,0,0,1,1.181-1.122,3.044,3.044,0,0,1,1.556-.408A2.5,2.5,0,0,1,496.917,949.89Z"/><path class="cls-1" d="M507.049,950.417a5.184,5.184,0,0,1,1.046,3.417,5.956,5.956,0,0,1-.476,2.456,3.727,3.727,0,0,1-1.377,1.65,3.849,3.849,0,0,1-2.142.587,3.626,3.626,0,0,1-2.941-1.259,5.152,5.152,0,0,1-1.054-3.417,5.959,5.959,0,0,1,.476-2.456,3.717,3.717,0,0,1,1.377-1.649,3.87,3.87,0,0,1,2.159-.586A3.6,3.6,0,0,1,507.049,950.417Zm-5.261,3.434q0,3.417,2.312,3.417t2.312-3.434q0-3.417-2.295-3.417Q501.788,950.417,501.788,953.851Z"/><path class="cls-1" d="M514.759,949.414a4.949,4.949,0,0,1,1.393.765l-.663.986a5.462,5.462,0,0,0-1.164-.578,3.627,3.627,0,0,0-1.165-.186,2.046,2.046,0,0,0-1.207.314,1.066,1.066,0,0,0-.025,1.708,4.808,4.808,0,0,0,1.5.6,5.392,5.392,0,0,1,2.235,1.02,2.226,2.226,0,0,1,.739,1.768,2.291,2.291,0,0,1-1.028,2.023,4.365,4.365,0,0,1-2.508.7,4.96,4.96,0,0,1-3.383-1.174l.833-.951a4.061,4.061,0,0,0,2.517.866,2.388,2.388,0,0,0,1.4-.365,1.153,1.153,0,0,0,.519-.994,1.309,1.309,0,0,0-.188-.74,1.525,1.525,0,0,0-.645-.493,9,9,0,0,0-1.344-.451,4.576,4.576,0,0,1-2.065-1,2.147,2.147,0,0,1-.637-1.6,2.1,2.1,0,0,1,.416-1.266,2.7,2.7,0,0,1,1.156-.884,4.187,4.187,0,0,1,1.657-.314A5.014,5.014,0,0,1,514.759,949.414Z"/><path class="cls-1" d="M523.14,957.914a3.433,3.433,0,0,1-2.006.613,2.364,2.364,0,0,1-1.777-.656,2.608,2.608,0,0,1-.637-1.895v-5.4h-1.564v-1.207h1.564V947.34l1.564-.186v2.21h2.125l-.17,1.207h-1.955v5.338a1.651,1.651,0,0,0,.246,1.011.989.989,0,0,0,.825.315,2.556,2.556,0,0,0,1.19-.358Z"/><path class="cls-1" d="M533.314,947.188a2.981,2.981,0,0,1,1.2,1.113,3.021,3.021,0,0,1,.425,1.589,4.466,4.466,0,0,1-.468,1.989,9.657,9.657,0,0,1-1.437,2.057q-.967,1.106-2.94,3.077h5.117l-.188,1.31h-6.714v-1.242q2.277-2.363,3.229-3.46a9.625,9.625,0,0,0,1.36-1.912,3.851,3.851,0,0,0,.409-1.751,1.745,1.745,0,0,0-1.87-1.886,2.489,2.489,0,0,0-1.224.289,4.438,4.438,0,0,0-1.122.952l-1.021-.817a4.71,4.71,0,0,1,1.547-1.292,4.206,4.206,0,0,1,1.9-.424A3.779,3.779,0,0,1,533.314,947.188Z"/><path class="cls-1" d="M543.65,948.284a10.4,10.4,0,0,1,0,8.729,3.435,3.435,0,0,1-5.695,0,10.391,10.391,0,0,1,0-8.729,3.448,3.448,0,0,1,5.695,0Zm-4.488.825a11.979,11.979,0,0,0,0,7.08,1.769,1.769,0,0,0,3.273,0,11.764,11.764,0,0,0,0-7.072,1.772,1.772,0,0,0-3.273-.008Z"/><path class="cls-1" d="M551.012,947.188a2.984,2.984,0,0,1,1.2,1.113,3.021,3.021,0,0,1,.425,1.589,4.453,4.453,0,0,1-.468,1.989,9.657,9.657,0,0,1-1.437,2.057q-.967,1.106-2.94,3.077h5.117l-.187,1.31h-6.715v-1.242q2.277-2.363,3.229-3.46a9.678,9.678,0,0,0,1.361-1.912,3.863,3.863,0,0,0,.408-1.751,1.745,1.745,0,0,0-1.87-1.886,2.489,2.489,0,0,0-1.224.289,4.472,4.472,0,0,0-1.122.952l-1.02-.817a4.69,4.69,0,0,1,1.547-1.292,4.2,4.2,0,0,1,1.9-.424A3.785,3.785,0,0,1,551.012,947.188Z"/><path class="cls-1" d="M561.348,948.284a10.4,10.4,0,0,1,0,8.729,3.436,3.436,0,0,1-5.7,0,10.391,10.391,0,0,1,0-8.729,3.449,3.449,0,0,1,5.7,0Zm-4.489.825a11.979,11.979,0,0,0,0,7.08,1.769,1.769,0,0,0,3.273,0,11.764,11.764,0,0,0,0-7.072,1.772,1.772,0,0,0-3.273-.008Z"/><path class="cls-1" d="M568.292,953.664v-1.326h7.752v1.326Z"/><path class="cls-1" d="M584.272,945.573v12.75h-1.564V945.759Zm5.151,3.791-3.3,3.961,3.672,5h-1.87l-3.553-4.9,3.3-4.062Z"/><path class="cls-1" d="M591.827,958.008a2.006,2.006,0,0,1-.5-1.454V945.759l1.564-.186v10.948a.915.915,0,0,0,.128.544.508.508,0,0,0,.433.17,1.527,1.527,0,0,0,.578-.1l.408,1.088a2.551,2.551,0,0,1-1.241.307A1.815,1.815,0,0,1,591.827,958.008Z"/><path class="cls-1" d="M597.956,945.369a1.038,1.038,0,0,1,.307.764,1.01,1.01,0,0,1-.307.757,1.1,1.1,0,0,1-.8.3,1.078,1.078,0,0,1-.782-.3,1.009,1.009,0,0,1-.306-.757,1.037,1.037,0,0,1,.306-.764,1.056,1.056,0,0,1,.782-.306A1.076,1.076,0,0,1,597.956,945.369Zm0,4v8.959h-1.563v-8.959Z"/><path class="cls-1" d="M611.947,949.9a2.878,2.878,0,0,1,.663,2v6.426h-1.564v-6.2q0-1.736-1.258-1.735a1.7,1.7,0,0,0-1.122.383,5.311,5.311,0,0,0-.985,1.2v6.359h-1.565v-6.2q0-1.736-1.258-1.735a1.691,1.691,0,0,0-1.138.392,5.345,5.345,0,0,0-.97,1.189v6.359h-1.563v-8.959h1.342l.136,1.308a3,3,0,0,1,2.584-1.512,2.251,2.251,0,0,1,2.262,1.615,4.189,4.189,0,0,1,1.164-1.2,2.687,2.687,0,0,1,1.5-.416A2.256,2.256,0,0,1,611.947,949.9Z"/><path class="cls-1" d="M621.977,957.038a1.135,1.135,0,0,0,.561.4l-.357,1.088a2.4,2.4,0,0,1-1.122-.392,1.774,1.774,0,0,1-.629-.952,3.006,3.006,0,0,1-2.669,1.344,2.861,2.861,0,0,1-2.091-.748,2.611,2.611,0,0,1-.766-1.955,2.567,2.567,0,0,1,1.03-2.194,4.816,4.816,0,0,1,2.915-.764h1.377V952.2a1.75,1.75,0,0,0-.459-1.361,2.084,2.084,0,0,0-1.412-.408,7.885,7.885,0,0,0-2.414.477l-.39-1.139a9.009,9.009,0,0,1,3.094-.612,3.235,3.235,0,0,1,2.363.773,2.964,2.964,0,0,1,.782,2.2v4.1A1.394,1.394,0,0,0,621.977,957.038Zm-1.751-1.079V953.9h-1.173q-2.484,0-2.483,1.836a1.683,1.683,0,0,0,.392,1.207,1.53,1.53,0,0,0,1.155.407A2.334,2.334,0,0,0,620.226,955.959Z"/><path class="cls-1" d="M629.524,957.914a3.428,3.428,0,0,1-2,.613,2.364,2.364,0,0,1-1.777-.656,2.6,2.6,0,0,1-.637-1.895v-5.4h-1.564v-1.207h1.564V947.34l1.564-.186v2.21h2.125l-.17,1.207h-1.955v5.338a1.651,1.651,0,0,0,.246,1.011.988.988,0,0,0,.824.315,2.56,2.56,0,0,0,1.191-.358Z"/><path class="cls-1" d="M632.7,945.369a1.038,1.038,0,0,1,.307.764,1.01,1.01,0,0,1-.307.757,1.1,1.1,0,0,1-.8.3,1.078,1.078,0,0,1-.782-.3,1.009,1.009,0,0,1-.306-.757,1.037,1.037,0,0,1,.306-.764,1.056,1.056,0,0,1,.782-.306A1.076,1.076,0,0,1,632.7,945.369Zm0,4v8.959H631.14v-8.959Z"/><path class="cls-1" d="M640.659,949.389a4.081,4.081,0,0,1,1.276.739l-.748.987a3.864,3.864,0,0,0-.927-.5,2.923,2.923,0,0,0-.994-.161,1.944,1.944,0,0,0-1.692.867,4.5,4.5,0,0,0-.6,2.566,4.253,4.253,0,0,0,.594,2.508,1.987,1.987,0,0,0,1.7.808,2.774,2.774,0,0,0,.968-.163,4.96,4.96,0,0,0,.987-.517l.714,1.019a4.255,4.255,0,0,1-2.738.987,3.565,3.565,0,0,1-2.864-1.225,5.042,5.042,0,0,1-1.046-3.383,6.1,6.1,0,0,1,.477-2.5,3.834,3.834,0,0,1,1.351-1.666,3.618,3.618,0,0,1,2.082-.594A4.439,4.439,0,0,1,640.659,949.389Z"/><path class="cls-1" d="M645.623,945.573v12.75H644.06V945.759Zm5.151,3.791-3.3,3.961,3.671,5h-1.87l-3.552-4.9,3.3-4.062Z"/><path class="cls-1" d="M658.73,957.038a1.137,1.137,0,0,0,.562.4l-.357,1.088a2.4,2.4,0,0,1-1.122-.392,1.774,1.774,0,0,1-.629-.952,3.006,3.006,0,0,1-2.669,1.344,2.861,2.861,0,0,1-2.091-.748,2.611,2.611,0,0,1-.766-1.955,2.567,2.567,0,0,1,1.03-2.194,4.816,4.816,0,0,1,2.915-.764h1.377V952.2a1.75,1.75,0,0,0-.459-1.361,2.084,2.084,0,0,0-1.412-.408,7.88,7.88,0,0,0-2.414.477l-.39-1.139a9.008,9.008,0,0,1,3.093-.612,3.236,3.236,0,0,1,2.364.773,2.964,2.964,0,0,1,.782,2.2v4.1A1.4,1.4,0,0,0,658.73,957.038Zm-2.056-12.333.7,1.309-3.6,1.462-.476-.833Zm.306,11.254V953.9h-1.173q-2.484,0-2.483,1.836a1.683,1.683,0,0,0,.392,1.207,1.53,1.53,0,0,0,1.155.407A2.334,2.334,0,0,0,656.98,955.959Z"/><path class="cls-1" d="M671.515,949.364v1.189l-4.675,6.46h4.725l-.186,1.31h-6.308V957.15l4.659-6.46h-4.267v-1.326Z"/><path class="cls-1" d="M684.451,949.9a2.878,2.878,0,0,1,.663,2v6.426H683.55v-6.2q0-1.736-1.258-1.735a1.7,1.7,0,0,0-1.122.383,5.311,5.311,0,0,0-.985,1.2v6.359H678.62v-6.2q0-1.736-1.258-1.735a1.691,1.691,0,0,0-1.138.392,5.345,5.345,0,0,0-.97,1.189v6.359H673.69v-8.959h1.343l.136,1.308a3,3,0,0,1,2.584-1.512,2.251,2.251,0,0,1,2.262,1.615,4.189,4.189,0,0,1,1.164-1.2,2.685,2.685,0,0,1,1.5-.416A2.256,2.256,0,0,1,684.451,949.9Z"/><path class="cls-1" d="M694.991,954.378h-5.712a3.5,3.5,0,0,0,.748,2.176,2.17,2.17,0,0,0,1.666.7,3.663,3.663,0,0,0,1.191-.186,4.775,4.775,0,0,0,1.138-.6l.68.936a4.949,4.949,0,0,1-3.128,1.122,3.625,3.625,0,0,1-2.915-1.225,5.014,5.014,0,0,1-1.046-3.366,6.382,6.382,0,0,1,.451-2.473,3.875,3.875,0,0,1,1.292-1.691,3.277,3.277,0,0,1,1.981-.612,3.319,3.319,0,0,1,2.736,1.172,5.016,5.016,0,0,1,.952,3.247C695.025,953.84,695.014,954.107,694.991,954.378Zm-1.444-9.4.663.766-2.3,1.92h-1.036l-2.313-1.92.68-.766,2.143,1.429Zm-.068,8.144a3.311,3.311,0,0,0-.528-2.024,1.855,1.855,0,0,0-1.581-.7q-1.92,0-2.091,2.821h4.2Z"/><path class="cls-1" d="M703.652,949.89a2.811,2.811,0,0,1,.689,2.007v6.426h-1.564v-6.2a1.986,1.986,0,0,0-.357-1.343,1.353,1.353,0,0,0-1.054-.392,2.043,2.043,0,0,0-1.258.408,4.248,4.248,0,0,0-1.02,1.173v6.359h-1.564v-8.959h1.343L699,950.69a3.513,3.513,0,0,1,1.182-1.122,3.038,3.038,0,0,1,1.555-.408A2.5,2.5,0,0,1,703.652,949.89Z"/><path class="cls-1" d="M713.708,957.038a1.137,1.137,0,0,0,.562.4l-.358,1.088a2.4,2.4,0,0,1-1.122-.392,1.786,1.786,0,0,1-.629-.952,3,3,0,0,1-2.669,1.344,2.861,2.861,0,0,1-2.091-.748,2.614,2.614,0,0,1-.765-1.955,2.568,2.568,0,0,1,1.029-2.194,4.818,4.818,0,0,1,2.915-.764h1.377V952.2a1.746,1.746,0,0,0-.459-1.361,2.082,2.082,0,0,0-1.411-.408,7.88,7.88,0,0,0-2.414.477l-.391-1.139a9.018,9.018,0,0,1,3.094-.612,3.232,3.232,0,0,1,2.363.773,2.96,2.96,0,0,1,.783,2.2v4.1A1.4,1.4,0,0,0,713.708,957.038Zm-1.751-1.079V953.9h-1.173q-2.482,0-2.482,1.836a1.687,1.687,0,0,0,.391,1.207,1.533,1.533,0,0,0,1.156.407A2.334,2.334,0,0,0,711.957,955.959Z"/></svg>